<svg version="1.1" xmlns="http://www.w3.org/2000/svg" xmlns:xlink="http://www.w3.org/1999/xlink" width="195.68462" height="224.84739" viewBox="0,0,195.68462,224.84739"><defs><radialGradient cx="163.83333" cy="224.66668" r="105.21607" gradientUnits="userSpaceOnUse" id="color-1"><stop offset="0" stop-color="#e9b8ff"/><stop offset="1" stop-color="#c45cff"/></radialGradient><radialGradient cx="247.74009" cy="187.22322" r="78.50307" gradientUnits="userSpaceOnUse" id="color-2"><stop offset="0" stop-color="#e9b8ff"/><stop offset="1" stop-color="#e9b8ff" stop-opacity="0"/></radialGradient><linearGradient x1="169.73476" y1="285.76524" x2="272.26524" y2="183.23476" gradientUnits="userSpaceOnUse" id="color-3"><stop offset="0" stop-color="#ffffff" stop-opacity="0"/><stop offset="1" stop-color="#ffffff"/></linearGradient><linearGradient x1="234.11835" y1="220.88165" x2="310.88165" y2="144.11835" gradientUnits="userSpaceOnUse" id="color-4"><stop offset="0" stop-color="#f6e5ff"/><stop offset="1" stop-color="#f6e5ff" stop-opacity="0"/></linearGradient></defs><g transform="translate(-142.15769,-67.57631)"><g data-paper-data="{&quot;isPaintingLayer&quot;:true}" fill-rule="nonzero" stroke-linecap="butt" stroke-linejoin="miter" stroke-miterlimit="10" stroke-dasharray="" stroke-dashoffset="0" style="mix-blend-mode: normal"><path d="M148.40769,127.39297l91.59032,-52.60903l91.5943,52.60903v105.21408l-91.5943,52.60903l-91.59032,-52.60903z" fill="url(#color-1)" stroke="#000000" stroke-width="12.5"/><path d="M270.49267,273.47251c-1.31034,1.4322 -3.36762,0.7476 -3.36762,0.7476l-1.03859,-0.3574c-5.1959,-1.27042 -10.44837,-1.36993 -14.38005,-5.66486c-2.36228,-2.58051 -4.49382,-7.21526 -6.15063,-10.31375c-1.05162,-1.9667 -1.21034,-4.48233 -2.74291,-6.10252c-0.78406,-0.82889 -7.04532,-4.99884 -8.21612,-5.57271c-10.90906,-5.34707 -21.77524,0.58471 -33.07757,-0.9592c-2.09373,-0.1909 -4.28228,0.07881 -6.28119,-0.57274c-8.07832,-2.63311 -14.00054,-11.10701 -18.52761,-17.65978c-8.08041,-11.69607 -12.49094,-29.12305 -5.48662,-42.48078c2.52041,-4.80661 7.24506,-9.77824 11.52725,-13.07426c3.63813,-2.80028 8.13322,-3.84623 11.88394,-6.4096c2.91798,-1.99425 2.99376,-2.76807 5.50326,-6.02177c1.32084,-9.89638 -1.96807,-19.46458 -0.8516,-29.29999c0.80937,-7.13013 4.58137,-12.62927 8.74996,-18.19419c6.03723,-8.0595 14.45977,-19.66728 25.21481,-21.55607c4.97157,-0.87311 9.88158,-0.0615 14.67803,1.2231c2.9486,0.7897 5.68967,2.36914 8.14987,4.17612c9.58031,7.17761 18.41873,14.34811 24.35556,24.95409c1.61367,2.88273 5.31563,9.67861 5.82162,12.90453c0.78742,5.02009 -1.29023,7.60779 -3.05434,11.95711c-1.81651,4.47854 -3.97695,9.32975 -5.22944,13.98381c-2.30264,8.55639 -1.39042,18.1735 -0.33803,26.87825c2.9281,7.96777 6.13286,15.36367 10.30786,22.7738c4.87183,8.6469 12.44869,18.41994 12.32399,28.88058c-0.10463,8.77737 -5.56119,16.20911 -11.22116,22.46426c-4.80833,5.31395 -11.53816,8.59185 -17.26882,12.73107c0,0 -0.52908,0.38167 -1.28386,0.56539z" fill="url(#color-2)" stroke="none" stroke-width="0.5"/><path d="M246.45585,157.42537l51.61879,51.61879l-69.9805,69.9805c-4.11244,-8.16983 -12.57378,-13.77466 -22.3442,-13.77466c-3.03119,0 -5.93637,0.53946 -8.62479,1.52761c-2.7231,-4.47738 -6.81335,-8.03152 -11.69117,-10.08285c-3.63506,-3.09037 -8.16566,-5.15909 -13.14793,-5.76227c-2.19842,-4.09081 -5.5027,-7.49896 -9.51287,-9.82448z" fill="url(#color-3)" stroke="none" stroke-width="0"/><g fill="#000000" stroke="none"><path d="M287.89105,177.10338l-9.81979,-9.81979l26.08051,-26.08051l9.81979,9.81978z" stroke-width="0"/><g><path d="M249.97062,175.89057l-21.46981,-21.46981l10.55893,-10.55892l27.45318,15.48643z" stroke-width="0"/><path d="M274.42469,180.81537l-22.59247,-9.98231l19.41409,-19.41408l24.10021,8.47456z" data-paper-data="{&quot;index&quot;:null}" stroke-width="NaN"/><path d="M254.58217,200.65789l-10.88059,-30.94254l24.92597,-24.92597l12.8164,29.00674z" stroke-width="NaN"/></g><g data-paper-data="{&quot;index&quot;:null}"><path d="M295.63286,188.46821l15.48642,27.45318l-10.55892,10.55892l-21.4698,-21.46981z" stroke-width="0"/><path d="M295.08759,159.63461l8.47456,24.10022l-19.41408,19.41409l-9.9823,-22.59247z" data-paper-data="{&quot;index&quot;:null}" stroke-width="NaN"/><path d="M281.18502,173.53719l29.00673,12.8164l-24.92597,24.92597l-30.94254,-10.88059z" stroke-width="NaN"/></g></g><path d="M162.77498,193.93091l23.19569,-19.78129l28.77505,10.06959l5.57802,29.84996l-23.19682,19.7815l-28.77392,-10.0698z" fill="#f2d8ff" stroke="#000000" stroke-width="0"/><path d="M151.32747,178.46711l16.83981,-2.01086l10.22211,13.53329l-6.61804,15.54332l-16.8404,2.01061l-10.22153,-13.53305z" fill="#f9edff" stroke="#000000" stroke-width="0"/><path d="M148.40769,127.39296l91.59032,-52.60903l91.5943,52.60903v105.21408l-91.5943,52.60903l-91.59032,-52.60903z" fill="none" stroke="#000000" stroke-width="12.5"/><path d="M258.27861,129.89768l52.60231,14.21994l14.2214,52.60377l-38.38093,38.38093l-52.60377,-14.2214l-14.21994,-52.60231z" data-paper-data="{&quot;index&quot;:null}" fill="none" stroke="url(#color-4)" stroke-width="7.5"/></g></g></svg>