<svg version="1.1" xmlns="http://www.w3.org/2000/svg" xmlns:xlink="http://www.w3.org/1999/xlink" width="195.68462" height="224.84738" viewBox="0,0,195.68462,224.84738"><defs><radialGradient cx="163.83333" cy="224.6667" r="105.21607" gradientUnits="userSpaceOnUse" id="color-1"><stop offset="0" stop-color="#b8fff1"/><stop offset="1" stop-color="#00ffaa"/></radialGradient><radialGradient cx="235.45492" cy="197.77004" r="78.50307" gradientUnits="userSpaceOnUse" id="color-2"><stop offset="0" stop-color="#b8fff1"/><stop offset="1" stop-color="#b8fff1" stop-opacity="0"/></radialGradient></defs><g transform="translate(-142.15769,-67.57633)"><g data-paper-data="{&quot;isPaintingLayer&quot;:true}" fill-rule="nonzero" stroke-linecap="butt" stroke-linejoin="miter" stroke-miterlimit="10" stroke-dasharray="" stroke-dashoffset="0" style="mix-blend-mode: normal"><path d="M148.40769,127.39299l91.59032,-52.60903l91.5943,52.60903v105.21408l-91.5943,52.60903l-91.59032,-52.60903z" fill="url(#color-1)" stroke="#000000" stroke-width="12.5"/><path d="M146.84254,207.99093c-1.23071,-1.50118 -0.25974,-3.43981 -0.25974,-3.43981l0.50185,-0.97701c1.99838,-4.96164 2.84587,-10.14624 7.65756,-13.42528c2.891,-1.97016 7.78234,-3.41899 11.08543,-4.61703c2.09656,-0.76042 4.60912,-0.55879 6.4313,-1.84465c0.93222,-0.65785 5.95242,-6.26048 6.68738,-7.33748c6.84806,-10.03508 2.52642,-21.63609 5.66627,-32.60275c0.48752,-2.04511 0.53265,-4.24975 1.46259,-6.13532c3.75817,-7.62028 12.98998,-12.27359 20.12134,-15.81997c12.72881,-6.32997 30.60664,-8.21034 42.82904,0.62721c4.39808,3.18008 8.64516,8.5654 11.29685,13.27384c2.25286,4.00027 2.64713,8.59858 4.64945,12.6765c1.55777,3.17254 2.31287,3.35789 5.17546,6.30572c9.60689,2.71857 19.54631,0.8277 29.122,3.33528c6.94185,1.81786 11.8469,6.33549 16.7605,11.25504c7.11622,7.12482 17.40432,17.11656 17.74014,28.03103c0.15524,5.04527 -1.34825,9.78936 -3.30369,14.35361c-1.2021,2.80586 -3.15627,5.29368 -5.29561,7.47106c-8.47041,8.45888 -16.828,16.18446 -28.17218,20.5482c-3.08338,1.1861 -10.33771,3.88114 -13.60282,3.92193c-5.08107,0.0635 -7.34605,-2.36191 -11.39936,-4.72821c-4.17374,-2.43659 -8.66729,-5.26674 -13.09518,-7.1701c-8.14059,-3.49925 -17.7895,-3.96775 -26.55536,-4.16742c-8.30389,1.76197 -16.08121,3.87932 -24.01096,6.95497c-9.25325,3.58899 -20.00688,9.69478 -30.34284,8.07967c-8.67275,-1.35521 -15.25044,-7.81578 -20.63455,-14.30989c-4.57397,-5.51696 -6.8587,-12.64544 -10.13842,-18.90779c0,0 -0.30232,-0.5781 -0.37653,-1.35137z" fill="url(#color-2)" stroke="none" stroke-width="0.5"/><g fill="#000000" stroke="none" stroke-width="0"><path d="M199.81141,213.70226l73.89086,-73.89086l12.7398,12.7398l-73.89086,73.89086z"/><g><path d="M268.55106,131.49135c5.41426,-4.97448 12.73063,-6.82161 19.97331,-5.73015c-0.40263,0.30681 -27.05932,26.40808 -27.23726,26.55974c-1.0924,-7.82104 1.42542,-15.46531 7.26395,-20.82959z"/><path d="M273.65565,165.24324c0.15165,-0.17794 26.25293,-26.83463 26.55974,-27.23726c1.09146,7.24269 -0.75566,14.55905 -5.73014,19.97331c-5.36428,5.83852 -13.00855,8.35635 -20.82959,7.26395z" data-paper-data="{&quot;index&quot;:null}"/></g><g data-paper-data="{&quot;index&quot;:null}"><path d="M212.32093,201.28711c-0.15165,0.17794 -26.25293,26.83463 -26.55974,27.23726c-1.09146,-7.24269 0.75566,-14.55905 5.73014,-19.97331c5.36428,-5.83852 13.00855,-8.35635 20.82959,-7.26395z"/><path d="M217.97928,234.48524c-5.41426,4.97448 -12.73062,6.82161 -19.97331,5.73014c0.40263,-0.30681 27.05932,-26.40808 27.23726,-26.55974c1.0924,7.82104 -1.42543,15.46531 -7.26395,20.82959z" data-paper-data="{&quot;index&quot;:null}"/></g></g><g fill="#000000" stroke="none" stroke-width="0"><path d="M281.70811,236.06676l-73.89085,-73.89085l12.7398,-12.7398l73.89085,73.89085z"/><path d="M198.95968,174.72823l-19.47792,-19.47792l35.76854,-35.76854l19.47792,19.47792z"/></g></g></g></svg>