<svg version="1.1" xmlns="http://www.w3.org/2000/svg" xmlns:xlink="http://www.w3.org/1999/xlink" width="195.68462" height="224.84738" viewBox="0,0,195.68462,224.84738"><defs><radialGradient cx="163.83333" cy="224.66667" r="105.21607" gradientUnits="userSpaceOnUse" id="color-1"><stop offset="0" stop-color="#ffef44"/><stop offset="1" stop-color="#ffb800"/></radialGradient><radialGradient cx="240" cy="180" r="78.50307" gradientUnits="userSpaceOnUse" id="color-2"><stop offset="0" stop-color="#ffef44"/><stop offset="1" stop-color="#ffef44" stop-opacity="0"/></radialGradient><linearGradient x1="97.33349" y1="320.13611" x2="227.18754" y2="190.28205" gradientUnits="userSpaceOnUse" id="color-3"><stop offset="0" stop-color="#000000" stop-opacity="0"/><stop offset="1" stop-color="#000000"/></linearGradient><radialGradient cx="236.70915" cy="184.29892" r="41.31475" gradientUnits="userSpaceOnUse" id="color-4"><stop offset="0" stop-color="#ffffff"/><stop offset="1" stop-color="#ffffff" stop-opacity="0"/></radialGradient></defs><g transform="translate(-142.15769,-67.5763)"><g data-paper-data="{&quot;isPaintingLayer&quot;:true}" fill-rule="nonzero" stroke-linejoin="miter" stroke-miterlimit="10" stroke-dasharray="" stroke-dashoffset="0" style="mix-blend-mode: normal"><path d="M148.40769,127.39296l91.59032,-52.60903l91.5943,52.60903v105.21408l-91.5943,52.60903l-91.59032,-52.60903z" fill="url(#color-1)" stroke="#000000" stroke-width="12.5" stroke-linecap="butt"/><path d="M170.07661,124.61644c0.18993,-1.93186 2.24687,-2.6175 2.24687,-2.6175l1.04549,-0.33669c4.92005,-2.09869 9.1833,-5.16839 14.90505,-4.08855c3.43779,0.6488 7.92263,3.07995 11.10642,4.5663c2.02084,0.94342 3.65621,2.86153 5.8542,3.23926c1.12448,0.19325 8.63567,-0.22372 9.91676,-0.46645c11.93665,-2.26168 17.07627,-13.5242 27.04732,-19.06539c1.79009,-1.1026 3.37988,-2.63069 5.37028,-3.30779c8.04391,-2.7364 17.8644,0.49441 25.41643,3.02423c13.47966,4.51549 27.45851,15.81789 29.8621,30.70789c0.8649,5.35797 0.0647,12.16967 -1.3861,17.37506c-1.23259,4.42248 -4.2029,7.95477 -5.66765,12.25516c-1.13954,3.34561 -0.73621,4.01034 -0.79369,8.11898c4.8767,8.71209 13.24585,14.39758 18.24957,22.93835c3.62742,6.19158 3.90591,12.85423 3.90645,19.80732c0.00078,10.06994 0.2201,24.4098 -7.25473,32.37004c-3.45528,3.67966 -7.87142,5.97414 -12.48027,7.82197c-2.83328,1.13595 -5.97399,1.51545 -9.02637,1.54442c-11.97082,0 -23.34362,-0.43916 -34.45416,-5.3675c-3.01987,-1.33953 -10.05735,-4.55864 -12.39653,-6.83697c-3.64018,-3.54549 -3.52899,-6.86218 -4.72499,-11.40071c-1.23153,-4.67337 -2.41125,-9.85119 -4.19943,-14.32685c-3.28753,-8.22837 -9.78393,-15.37804 -15.84545,-21.7135c-7.12078,-4.62099 -14.12008,-8.61843 -21.90442,-12.0455c-9.08356,-3.99905 -21.00719,-7.27746 -27.17952,-15.72394c-5.17909,-7.08731 -5.2682,-16.30669 -4.48902,-24.70639c0.66194,-7.13582 4.08247,-13.79429 6.1869,-20.54299c0,0 0.19459,-0.62268 0.68848,-1.22228z" fill="url(#color-2)" stroke="none" stroke-width="0.5" stroke-linecap="butt"/><path d="M214.51132,177.60583l25.35245,25.35245l-57.64095,48.68556c-1.16815,-2.02657 -2.66704,-3.91147 -4.51669,-5.57866c-2.65094,-2.38944 -5.48784,-3.76861 -8.48767,-4.65835c-1.54946,-0.59568 -3.17324,-1.04153 -4.8536,-1.3198z" fill="url(#color-3)" stroke="none" stroke-width="0" stroke-linecap="butt"/><g stroke="#ff0000" stroke-width="0" stroke-linecap="round"><path d="M286.01655,167.95301l-54.90705,55.47314l-45.85017,11.8871l9.07001,-48.67297l54.90705,-55.47314l45.85017,-11.8871z" data-paper-data="{&quot;index&quot;:null}" fill="#000000"/><path d="M271.28635,171.24397l-38.02427,38.41628l-31.75225,8.23204l6.28119,-33.70704l38.02428,-38.41629l31.75225,-8.23204z" data-paper-data="{&quot;index&quot;:null}" fill="#ffef44"/></g><path d="M194.11453,204.03379c-0.86281,-0.54702 -0.6976,-1.67608 -0.6976,-1.67608l0.08952,-0.57108c0.17962,-2.80932 -0.25269,-5.5401 1.61056,-7.97298c1.11949,-1.46174 3.32465,-2.99318 4.77753,-4.13711c0.92218,-0.72608 2.21105,-1.04007 2.90939,-1.98344c0.35726,-0.48262 1.94115,-4.11108 2.13065,-4.7706c1.76566,-6.14519 -2.30895,-11.22912 -2.55016,-17.22773c-0.09396,-1.10247 -0.43533,-2.21163 -0.28187,-3.3074c0.62017,-4.4284 4.46542,-8.27768 7.44373,-11.22706c5.31601,-5.26438 13.93961,-9.15513 21.50625,-6.75635c2.72276,0.86317 5.73409,2.85328 7.83643,4.76849c1.78614,1.62716 2.7422,3.85996 4.41595,5.56728c1.30214,1.32826 1.71009,1.29623 3.6272,2.29681c5.24954,-0.22727 9.90439,-2.81288 15.10353,-3.14043c3.76908,-0.23746 6.96599,1.21043 10.23351,2.85776c4.73225,2.38577 11.52279,5.68064 13.49225,11.07943c0.91039,2.49562 0.94218,5.11454 0.71841,7.71819c-0.13756,1.60058 -0.70344,3.16639 -1.4131,4.60763c-2.83657,5.62532 -5.73779,10.86556 -10.68643,14.91881c-1.34505,1.10168 -4.52535,3.64594 -6.15027,4.2053c-2.52866,0.87047 -4.06089,0.0323 -6.47704,-0.48111c-2.48793,-0.52866 -5.20063,-1.20121 -7.72755,-1.42144c-4.64567,-0.40489 -9.54481,0.95373 -13.95828,2.30093c-3.85881,2.25122 -7.39581,4.59311 -10.85081,7.43905c-4.03164,3.32094 -8.39761,8.14725 -13.82935,9.04629c-4.55768,0.75437 -8.91116,-1.38835 -12.67372,-3.74487c-3.19641,-2.00194 -5.51483,-5.18708 -8.18752,-7.77514c0,0 -0.2465,-0.23899 -0.41123,-0.61316z" fill="url(#color-4)" stroke="none" stroke-width="0.5" stroke-linecap="butt"/></g></g></svg>