<svg version="1.1" xmlns="http://www.w3.org/2000/svg" xmlns:xlink="http://www.w3.org/1999/xlink" width="195.68462" height="224.84738" viewBox="0,0,195.68462,224.84738"><defs><radialGradient cx="163.83333" cy="224.66667" r="105.21607" gradientUnits="userSpaceOnUse" id="color-1"><stop offset="0" stop-color="#8effe8"/><stop offset="1" stop-color="#00d18b"/></radialGradient><radialGradient cx="235.45492" cy="197.77001" r="78.50307" gradientUnits="userSpaceOnUse" id="color-2"><stop offset="0" stop-color="#8effe8"/><stop offset="1" stop-color="#8effe8" stop-opacity="0"/></radialGradient><linearGradient x1="229.73124" y1="190.09957" x2="285.43249" y2="134.39832" gradientUnits="userSpaceOnUse" id="color-3"><stop offset="0" stop-color="#ffffff" stop-opacity="0"/><stop offset="1" stop-color="#ffffff"/></linearGradient></defs><g transform="translate(-142.15769,-67.57631)"><g data-paper-data="{&quot;isPaintingLayer&quot;:true}" fill-rule="nonzero" stroke-linejoin="miter" stroke-miterlimit="10" stroke-dasharray="" stroke-dashoffset="0" style="mix-blend-mode: normal"><path d="M148.40769,127.39296l91.59032,-52.60903l91.5943,52.60903v105.21408l-91.5943,52.60903l-91.59032,-52.60903z" fill="url(#color-1)" stroke="#000000" stroke-width="12.5" stroke-linecap="butt"/><path d="M146.84254,207.9909c-1.23071,-1.50118 -0.25974,-3.43981 -0.25974,-3.43981l0.50185,-0.97701c1.99838,-4.96164 2.84587,-10.14624 7.65756,-13.42528c2.891,-1.97016 7.78234,-3.41899 11.08543,-4.61703c2.09656,-0.76042 4.60912,-0.55879 6.4313,-1.84465c0.93222,-0.65785 5.95242,-6.26048 6.68738,-7.33748c6.84806,-10.03508 2.52642,-21.63609 5.66627,-32.60275c0.48752,-2.04511 0.53265,-4.24975 1.46259,-6.13532c3.75817,-7.62028 12.98998,-12.27359 20.12134,-15.81997c12.72881,-6.32997 30.60664,-8.21034 42.82904,0.62721c4.39808,3.18008 8.64516,8.5654 11.29685,13.27384c2.25286,4.00027 2.64713,8.59858 4.64945,12.6765c1.55777,3.17254 2.31287,3.35789 5.17546,6.30572c9.60689,2.71857 19.54631,0.8277 29.122,3.33528c6.94185,1.81786 11.8469,6.33549 16.7605,11.25504c7.11622,7.12482 17.40432,17.11656 17.74014,28.03103c0.15524,5.04527 -1.34825,9.78936 -3.30369,14.35361c-1.2021,2.80586 -3.15627,5.29368 -5.29561,7.47106c-8.47041,8.45888 -16.828,16.18446 -28.17218,20.5482c-3.08338,1.1861 -10.33771,3.88114 -13.60282,3.92193c-5.08107,0.0635 -7.34605,-2.36191 -11.39936,-4.72821c-4.17374,-2.43659 -8.66729,-5.26674 -13.09518,-7.1701c-8.14059,-3.49925 -17.7895,-3.96775 -26.55536,-4.16742c-8.30389,1.76197 -16.08121,3.87932 -24.01096,6.95497c-9.25325,3.58899 -20.00688,9.69478 -30.34284,8.07967c-8.67275,-1.35521 -15.25044,-7.81578 -20.63455,-14.30989c-4.57397,-5.51696 -6.8587,-12.64544 -10.13842,-18.90779c0,0 -0.30232,-0.5781 -0.37653,-1.35137z" fill="url(#color-2)" stroke="none" stroke-width="0.5" stroke-linecap="butt"/><g stroke-width="0"><path d="M229.68448,190.05281l51.77286,-59.62963l7.95031,7.9503z" fill="url(#color-3)" stroke="none" stroke-linecap="butt"/><g fill="#ffffff" stroke="#ff0000" stroke-linecap="round"><path d="M302.53676,127.95621l-17.47836,17.65856l-14.5953,3.78397l2.88722,-15.49388l17.47835,-17.65856l14.5953,-3.78397z" data-paper-data="{&quot;index&quot;:null}"/><path d="M297.84774,129.00383l-12.10412,12.22892l-10.10757,2.62047l1.99947,-10.72983l12.10412,-12.22891l10.10757,-2.62048z" data-paper-data="{&quot;index&quot;:null}"/></g></g><g stroke="none" stroke-width="0" stroke-linecap="butt"><path d="M226.41363,203.86807l-9.34373,-9.34372l20.68666,-20.68667l9.34373,9.34373z" fill="#000000"/><g data-paper-data="{&quot;index&quot;:null}" fill="#000000"><path d="M226.18453,216.06903l5.21511,33.55684l-10.90081,12.07553l-21.53923,-28.03762z" data-paper-data="{&quot;index&quot;:null}"/><g><path d="M231.21602,189.28714l7.7694,24.45266l-14.6768,14.58436l-16.08623,-16.18821z"/><path d="M211.71956,208.66079l16.08622,16.18821l-14.6768,14.58436l-24.40309,-7.92373z" data-paper-data="{&quot;index&quot;:null}"/></g></g><g fill="#000000"><path d="M186.83618,221.54041l-28.03759,-21.53926l12.07553,-10.90081l33.55685,5.21511z" data-paper-data="{&quot;index&quot;:null}"/><g><path d="M208.36403,212.27759l-16.18821,-16.08622l14.58436,-14.6768l24.45266,7.76939z"/><path d="M188.99039,231.77407l-7.92375,-24.40305l14.58436,-14.6768l16.18821,16.08623z" data-paper-data="{&quot;index&quot;:null}"/></g></g><g fill="#8effe8"><path d="M210.59389,221.55502l-9.56554,-2.38084l25.57758,-25.57758l2.23714,9.70923z"/><path d="M217.35613,191.81894l9.70923,2.23713l-25.57758,25.57759l-2.38085,-9.56554z" data-paper-data="{&quot;index&quot;:null}"/></g></g></g></g></svg>