<svg version="1.1" xmlns="http://www.w3.org/2000/svg" xmlns:xlink="http://www.w3.org/1999/xlink" width="195.68462" height="224.84738" viewBox="0,0,195.68462,224.84738"><defs><radialGradient cx="163.83333" cy="224.66671" r="105.21607" gradientUnits="userSpaceOnUse" id="color-1"><stop offset="0" stop-color="#b8fff1"/><stop offset="1" stop-color="#00e498"/></radialGradient><radialGradient cx="235.45492" cy="197.77005" r="78.50307" gradientUnits="userSpaceOnUse" id="color-2"><stop offset="0" stop-color="#b8fff1"/><stop offset="1" stop-color="#b8fff1" stop-opacity="0"/></radialGradient><linearGradient x1="227.74997" y1="163.74891" x2="227.74997" y2="208.62944" gradientUnits="userSpaceOnUse" id="color-3"><stop offset="0" stop-color="#8effe8"/><stop offset="1" stop-color="#d5fff7"/></linearGradient><linearGradient x1="252.25003" y1="163.74891" x2="252.25003" y2="208.62944" gradientUnits="userSpaceOnUse" id="color-4"><stop offset="0" stop-color="#8effe8"/><stop offset="1" stop-color="#d5fff7"/></linearGradient></defs><g transform="translate(-142.15769,-67.57634)"><g data-paper-data="{&quot;isPaintingLayer&quot;:true}" fill-rule="nonzero" stroke-linejoin="miter" stroke-miterlimit="10" stroke-dasharray="" stroke-dashoffset="0" style="mix-blend-mode: normal"><path d="M148.40769,127.393l91.59032,-52.60903l91.5943,52.60903v105.21408l-91.5943,52.60903l-91.59032,-52.60903z" fill="url(#color-1)" stroke="#000000" stroke-width="12.5" stroke-linecap="butt"/><path d="M146.84254,207.99094c-1.23071,-1.50118 -0.25974,-3.43981 -0.25974,-3.43981l0.50185,-0.97701c1.99838,-4.96164 2.84587,-10.14624 7.65756,-13.42528c2.891,-1.97016 7.78234,-3.41899 11.08543,-4.61703c2.09656,-0.76042 4.60912,-0.55879 6.4313,-1.84465c0.93222,-0.65785 5.95242,-6.26048 6.68738,-7.33748c6.84806,-10.03508 2.52642,-21.63609 5.66627,-32.60275c0.48752,-2.04511 0.53265,-4.24975 1.46259,-6.13532c3.75817,-7.62028 12.98998,-12.27359 20.12134,-15.81997c12.72881,-6.32997 30.60664,-8.21034 42.82904,0.62721c4.39808,3.18008 8.64516,8.5654 11.29685,13.27384c2.25286,4.00027 2.64713,8.59858 4.64945,12.6765c1.55777,3.17254 2.31287,3.35789 5.17546,6.30572c9.60689,2.71857 19.54631,0.8277 29.122,3.33528c6.94185,1.81786 11.8469,6.33549 16.7605,11.25504c7.11622,7.12482 17.40432,17.11656 17.74014,28.03103c0.15524,5.04527 -1.34825,9.78936 -3.30369,14.35361c-1.2021,2.80586 -3.15627,5.29368 -5.29561,7.47106c-8.47041,8.45888 -16.828,16.18446 -28.17218,20.5482c-3.08338,1.1861 -10.33771,3.88114 -13.60282,3.92193c-5.08107,0.0635 -7.34605,-2.36191 -11.39936,-4.72821c-4.17374,-2.43659 -8.66729,-5.26674 -13.09518,-7.1701c-8.14059,-3.49925 -17.7895,-3.96775 -26.55536,-4.16742c-8.30389,1.76197 -16.08121,3.87932 -24.01096,6.95497c-9.25325,3.58899 -20.00688,9.69478 -30.34284,8.07967c-8.67275,-1.35521 -15.25044,-7.81578 -20.63455,-14.30989c-4.57397,-5.51696 -6.8587,-12.64544 -10.13842,-18.90779c0,0 -0.30232,-0.5781 -0.37653,-1.35137z" fill="url(#color-2)" stroke="none" stroke-width="0.5" stroke-linecap="butt"/><g fill="#000000" stroke="none" stroke-width="0" stroke-linecap="butt"><path d="M251.73944,152.47272l-22.42757,0.00001l-0.00001,-49.65383h22.42759z"/><g data-paper-data="{&quot;index&quot;:null}"><path d="M266.10736,167.39054l46.5318,34.01407l1.40983,27.57485l-59.49921,-7.79898z" data-paper-data="{&quot;index&quot;:null}"/><g><path d="M240.00381,129.21l38.67101,20.02226l-0.11094,35.11752l-38.73388,-0.12239z"/><path d="M239.85642,175.85961l38.73386,0.1224l-0.11094,35.11752l-38.79674,19.77755z" data-paper-data="{&quot;index&quot;:null}"/></g></g><g><path d="M225.45022,221.18053l-59.49921,7.79891l1.40983,-27.57485l46.53182,-34.01408z" data-paper-data="{&quot;index&quot;:null}"/><g><path d="M240.16998,184.22739l-38.73386,0.1224l-0.11094,-35.11752l38.671,-20.02228z"/><path d="M240.31741,230.87701l-38.79672,-19.77748l-0.11094,-35.11752l38.73388,-0.12239z" data-paper-data="{&quot;index&quot;:null}"/></g></g><g><path d="M253.98035,192.68547l-14.33734,8.62265v-61.3934l14.33733,8.96756z"/><path d="M226.40851,148.88234l14.33732,-8.96757l0.00001,61.39341l-14.33735,-8.62264z" data-paper-data="{&quot;index&quot;:null}"/></g></g><g stroke="#000000" stroke-width="0" stroke-linecap="round"><path d="M240.20565,172.64437v35.98507c0,0 -8.61083,-6.33494 -18.37505,-14.81738c-5.74739,-4.99291 -8.0923,-14.5483 -5.46285,-21.81192c2.62945,-7.26362 7.78572,-8.79667 12.99497,-8.09895c5.16396,0.69166 10.84293,8.74318 10.84293,8.74318z" fill="url(#color-3)"/><path d="M250.63728,163.90119c5.20925,-0.69773 10.36551,0.83533 12.99497,8.09895c2.62945,7.26362 0.28453,16.81901 -5.46285,21.81192c-9.76422,8.48244 -18.37504,14.81738 -18.37504,14.81738v-35.98507c0,0 5.67896,-8.05152 10.84292,-8.74318z" data-paper-data="{&quot;index&quot;:null}" fill="url(#color-4)"/></g></g></g></svg>