<svg version="1.1" xmlns="http://www.w3.org/2000/svg" xmlns:xlink="http://www.w3.org/1999/xlink" width="199.03376" height="224.84739" viewBox="0,0,199.03376,224.84739"><defs><radialGradient cx="163.83333" cy="224.66668" r="105.21607" gradientUnits="userSpaceOnUse" id="color-1"><stop offset="0" stop-color="#e9b8ff"/><stop offset="1" stop-color="#ab5cff"/></radialGradient><radialGradient cx="218.92121" cy="205.12924" r="78.50307" gradientUnits="userSpaceOnUse" id="color-2"><stop offset="0" stop-color="#e9b8ff"/><stop offset="1" stop-color="#e9b8ff" stop-opacity="0"/></radialGradient><linearGradient x1="163.36433" y1="205.88567" x2="235.13567" y2="134.11433" gradientUnits="userSpaceOnUse" id="color-3"><stop offset="0" stop-color="#e0c3ff" stop-opacity="0"/><stop offset="1" stop-color="#e0c3ff"/></linearGradient><linearGradient x1="205.30788" y1="148.19212" x2="246.44212" y2="107.05788" gradientUnits="userSpaceOnUse" id="color-4"><stop offset="0" stop-color="#c38bff" stop-opacity="0"/><stop offset="1" stop-color="#c38bff"/></linearGradient><linearGradient x1="64.09821" y1="248.65179" x2="273.15179" y2="39.59821" gradientUnits="userSpaceOnUse" id="color-5"><stop offset="0" stop-color="#cc9cff" stop-opacity="0"/><stop offset="1" stop-color="#cc9cff"/></linearGradient><linearGradient x1="184.27563" y1="272.22437" x2="340.47437" y2="116.02563" gradientUnits="userSpaceOnUse" id="color-6"><stop offset="0" stop-color="#c38bff" stop-opacity="0"/><stop offset="1" stop-color="#c38bff"/></linearGradient><linearGradient x1="200.36433" y1="282.88567" x2="272.13567" y2="211.11433" gradientUnits="userSpaceOnUse" id="color-7"><stop offset="0" stop-color="#e0c3ff" stop-opacity="0"/><stop offset="1" stop-color="#e0c3ff"/></linearGradient><linearGradient x1="113.09821" y1="396.65179" x2="322.15179" y2="187.59822" gradientUnits="userSpaceOnUse" id="color-8"><stop offset="0" stop-color="#cc9cff" stop-opacity="0"/><stop offset="1" stop-color="#cc9cff"/></linearGradient><linearGradient x1="148.4101" y1="278.39474" x2="243.73252" y2="183.07232" gradientUnits="userSpaceOnUse" id="color-9"><stop offset="0" stop-color="#ffffff" stop-opacity="0"/><stop offset="1" stop-color="#ffffff"/></linearGradient></defs><g transform="translate(-138.80855,-67.5763)"><g data-paper-data="{&quot;isPaintingLayer&quot;:true}" fill-rule="nonzero" stroke-linecap="butt" stroke-linejoin="miter" stroke-miterlimit="10" stroke-dasharray="" stroke-dashoffset="0" style="mix-blend-mode: normal"><path d="M148.40769,127.39297l91.59032,-52.60903l91.5943,52.60903v105.21408l-91.5943,52.60903l-91.59032,-52.60903z" fill="url(#color-1)" stroke="#000000" stroke-width="12.5"/><path d="M143.18575,158.00431c-0.02965,-1.94096 1.93661,-2.8547 1.93661,-2.8547l1.00073,-0.45272c4.65129,-2.64137 8.54024,-6.17329 14.34738,-5.74711c3.4891,0.25605 8.22001,2.1647 11.55139,3.28163c2.11452,0.70895 3.95623,2.42991 6.18281,2.55678c1.13912,0.06491 8.55504,-1.1984 9.80048,-1.58438c11.6045,-3.59644 15.43814,-15.36772 24.71894,-22.00045c1.65398,-1.29788 3.06086,-2.99587 4.96198,-3.89361c7.68306,-3.6281 17.80578,-1.52805 25.59537,0.13194c13.90368,2.96289 29.07049,12.61278 33.14174,27.13567c1.46499,5.22587 1.43985,12.08436 0.58674,17.42038c-0.72481,4.53346 -3.27681,8.37886 -4.24608,12.81725c-0.75407,3.45297 -0.27819,4.06785 0.12911,8.15665c5.83022,8.10503 14.78838,12.80808 20.72542,20.72852c4.30403,5.74188 5.33384,12.33035 6.1203,19.23882c1.13901,10.00532 2.97781,24.22848 -3.54933,32.98262c-3.0172,4.04665 -7.14569,6.82558 -11.51615,9.18253c-2.68672,1.44893 -5.76441,2.18099 -8.79394,2.5548c-11.8941,1.35309 -23.24366,2.20227 -34.84007,-1.43864c-3.15195,-0.98959 -10.50817,-3.39261 -13.08989,-5.39194c-4.01761,-3.11129 -4.28203,-6.4193 -5.98336,-10.79356c-1.75189,-4.50421 -3.50933,-9.51551 -5.79193,-13.76036c-4.19654,-7.80404 -11.45945,-14.17358 -18.19825,-19.78328c-7.59748,-3.78649 -15.00377,-6.96715 -23.12559,-9.49237c-9.47738,-2.94668 -21.69517,-4.8563 -28.78267,-12.55097c-5.94702,-6.45648 -7.07764,-15.6067 -7.25291,-24.04065c-0.14889,-7.16491 2.49707,-14.16734 3.8252,-21.11066c0,0 0.12295,-0.64069 0.54591,-1.29226z" fill="url(#color-2)" stroke="none" stroke-width="0.5"/><path d="M165.8392,208.36054l-4.94975,-4.94975l71.77134,-71.77134l4.94975,4.94975z" fill="url(#color-3)" stroke="none" stroke-width="0"/><path d="M206.7263,149.61055l-2.83685,-2.83685l41.13424,-41.13424l2.83685,2.83685z" fill="url(#color-4)" stroke="none" stroke-width="0"/><path d="M215.12996,83.20255c1.07554,0.14124 2.17262,0.21412 3.28671,0.21412c7.48771,0 14.20658,-3.2918 18.78838,-8.50719c3.11783,1.39694 6.57399,2.17385 10.21162,2.17385c0.95525,0 1.89799,-0.05358 2.82538,-0.15789l-99.14951,99.14951c0.645,-2.21872 0.99079,-4.56479 0.99079,-6.99162c0,-6.35245 -2.36929,-12.15153 -6.27241,-16.56175z" fill="url(#color-5)" stroke="none" stroke-width="0"/><path d="M204.2967,262.97563c-4.02731,-3.68842 -9.26665,-6.07495 -15.05155,-6.49311l137.24062,-137.24062c0.98894,5.45094 3.7453,10.28623 7.65394,13.89072z" fill="url(#color-6)" stroke="none" stroke-width="0"/><path d="M269.6608,208.63946l4.94975,4.94975l-57.91812,57.91812c-1.49388,-0.27842 -3.03449,-0.42399 -4.60909,-0.42399c-0.62714,0 -1.2489,0.02309 -1.86445,0.06847c-0.31407,-0.69658 -0.65912,-1.37618 -1.03339,-2.03705z" fill="url(#color-7)" stroke="none" stroke-width="0"/><path d="M314.94306,180.38946l14.41749,14.41749l-93.50777,93.50777c-2.21358,-6.77718 -7.2449,-12.28022 -13.70992,-15.12506z" fill="url(#color-8)" stroke="none" stroke-width="0"/><path d="M152.22572,237.07523c0.18082,-1.29693 0.27431,-2.62181 0.27431,-3.96855c0,-4.35863 -0.97919,-8.48857 -2.7296,-12.18183l65.90733,-65.90733l56.10953,56.10953l-60.68195,60.68195c-4.02211,-10.84745 -14.46328,-18.57791 -26.70999,-18.57791c-3.11667,0 -6.11642,0.50066 -8.92318,1.42597c-3.85884,-9.48568 -12.68351,-16.42216 -23.24644,-17.58185z" fill="url(#color-9)" stroke="none" stroke-width="0"/><g fill="#000000" stroke="none"><path d="M258.86551,177.54659l-9.20248,-9.20248l24.44099,-24.44099l9.20248,9.20247z" stroke-width="0"/><g><path d="M223.32891,176.41002l-20.12013,-20.12013l9.89515,-9.89515l25.72737,14.51289z" stroke-width="0"/><path d="M246.24569,181.02524l-21.17222,-9.35477l18.19364,-18.19363l22.58518,7.94182z" data-paper-data="{&quot;index&quot;:null}" stroke-width="NaN"/><path d="M227.65056,199.62038l-10.19659,-28.99737l23.35902,-23.35902l12.01071,27.18326z" stroke-width="NaN"/></g><g data-paper-data="{&quot;index&quot;:null}"><path d="M266.12065,188.19699l14.51288,25.72737l-9.89515,9.89515l-20.12012,-20.12013z" stroke-width="0"/><path d="M265.60964,161.17598l7.94182,22.58519l-18.19363,18.19364l-9.35477,-21.17222z" data-paper-data="{&quot;index&quot;:null}" stroke-width="NaN"/><path d="M252.58105,174.2046l27.18326,12.01071l-23.35902,23.35902l-28.99737,-10.19659z" stroke-width="NaN"/></g></g><path d="M148.40769,127.39296l91.59032,-52.60903l91.5943,52.60903v105.21408l-91.5943,52.60903l-91.59032,-52.60903z" fill="none" stroke="#000000" stroke-width="12.5"/></g></g></svg>