<svg version="1.1" xmlns="http://www.w3.org/2000/svg" xmlns:xlink="http://www.w3.org/1999/xlink" width="195.68462" height="224.84741" viewBox="0,0,195.68462,224.84741"><defs><radialGradient cx="163.83333" cy="224.66669" r="105.21607" gradientUnits="userSpaceOnUse" id="color-1"><stop offset="0" stop-color="#f6ff54"/><stop offset="1" stop-color="#ff8686"/></radialGradient><radialGradient cx="246.61074" cy="146.09035" r="50.33578" gradientUnits="userSpaceOnUse" id="color-2"><stop offset="0" stop-color="#ffb554"/><stop offset="1" stop-color="#ffb554" stop-opacity="0"/></radialGradient><radialGradient cx="235.91505" cy="177.18496" r="72.2636" gradientUnits="userSpaceOnUse" id="color-3"><stop offset="0" stop-color="#ffd654"/><stop offset="1" stop-color="#ffd654" stop-opacity="0"/></radialGradient><linearGradient x1="-104.35894" y1="528.58651" x2="278.75573" y2="145.47183" gradientUnits="userSpaceOnUse" id="color-4"><stop offset="0" stop-color="#000000" stop-opacity="0"/><stop offset="1" stop-color="#000000"/></linearGradient><linearGradient x1="97.33349" y1="320.13612" x2="227.18754" y2="190.28206" gradientUnits="userSpaceOnUse" id="color-5"><stop offset="0" stop-color="#000000" stop-opacity="0"/><stop offset="1" stop-color="#000000"/></linearGradient><radialGradient cx="236.70915" cy="184.29893" r="41.31475" gradientUnits="userSpaceOnUse" id="color-6"><stop offset="0" stop-color="#ffffff"/><stop offset="1" stop-color="#ffffff" stop-opacity="0"/></radialGradient><linearGradient x1="288.12082" y1="108.93869" x2="174.14201" y2="222.91751" gradientUnits="userSpaceOnUse" id="color-7"><stop offset="0" stop-color="#ffffff"/><stop offset="1" stop-color="#ffe684"/></linearGradient><linearGradient x1="328.55018" y1="201.76447" x2="300.36586" y2="143.26253" gradientUnits="userSpaceOnUse" id="color-8"><stop offset="0" stop-color="#ffe684"/><stop offset="1" stop-color="#ffffff"/></linearGradient><linearGradient x1="180.36391" y1="82.17261" x2="270.76015" y2="119.47618" gradientUnits="userSpaceOnUse" id="color-9"><stop offset="0" stop-color="#ffe684"/><stop offset="1" stop-color="#ffffff"/></linearGradient></defs><g transform="translate(-142.15769,-67.57631)"><g data-paper-data="{&quot;isPaintingLayer&quot;:true}" fill-rule="nonzero" stroke-linejoin="miter" stroke-miterlimit="10" stroke-dasharray="" stroke-dashoffset="0" style="mix-blend-mode: normal"><path d="M148.40769,127.39298l91.59032,-52.60903l91.5943,52.60903v105.21408l-91.5943,52.60903l-91.59032,-52.60903z" fill="url(#color-1)" stroke="#000000" stroke-width="12.5" stroke-linecap="butt"/><path d="M259.01453,201.92367c-0.87563,0.88459 -2.17647,0.39411 -2.17647,0.39411l-0.65641,-0.25517c-3.29699,-0.94491 -6.65974,-1.14105 -9.07052,-3.9919c-1.44846,-1.71287 -2.69734,-4.73607 -3.68076,-6.76304c-0.62421,-1.28657 -0.66249,-2.90233 -1.60358,-3.97902c-0.48145,-0.55083 -4.38794,-3.38031 -5.12362,-3.7775c-6.85466,-3.70082 -13.96612,-0.17419 -21.16861,-1.44823c-1.33664,-0.17508 -2.74564,-0.05743 -4.00992,-0.52526c-5.10941,-1.89063 -8.69021,-7.46913 -11.42555,-11.78158c-4.88233,-7.69732 -7.26893,-18.97394 -2.44461,-27.35569c1.73597,-3.01606 4.88835,-6.08232 7.71502,-8.08615c2.40153,-1.70245 5.30789,-2.25929 7.77558,-3.80711c1.91981,-1.20417 1.98787,-1.69805 3.67771,-3.71945c1.09569,-6.30731 -0.77036,-12.52054 0.19285,-18.79395c0.69827,-4.54787 3.25358,-7.9761 6.06465,-11.43648c4.07118,-5.01156 9.76005,-12.23638 16.69841,-13.17546c3.20729,-0.43409 6.33268,0.20964 9.37338,1.15357c1.86926,0.58027 3.58566,1.6613 5.11637,2.88105c5.9572,4.84015 11.43924,9.65704 14.97566,16.6019c0.96121,1.88763 3.16179,6.33506 3.40467,8.41465c0.37797,3.23622 -1.0184,4.8418 -2.25827,7.58394c-1.27671,2.82362 -2.78317,5.87732 -3.70293,8.82762c-1.69095,5.42404 -1.34887,11.60871 -0.894,17.21236c1.67521,5.17874 3.54209,9.99806 6.03026,14.85095c2.90345,5.66284 7.51161,12.11539 7.16808,18.81438c-0.28826,5.62101 -3.97157,10.24501 -7.75557,14.11002c-3.21463,3.28346 -7.60905,5.21399 -11.38499,7.72155c0,0 -0.3486,0.2312 -0.83682,0.32989z" data-paper-data="{&quot;index&quot;:null}" fill="url(#color-2)" stroke="none" stroke-width="0.5" stroke-linecap="butt"/><path d="M315.14905,155.6429c1.32743,1.19621 0.71153,3.09467 0.71153,3.09467l-0.32179,0.95849c-1.13336,4.79161 -1.18853,9.62716 -5.11469,13.27606c-2.35895,2.19235 -6.6104,4.1866 -9.45106,5.73317c-1.80304,0.98166 -4.11756,1.14521 -5.5983,2.56718c-0.75754,0.72747 -4.5525,6.51985 -5.07263,7.60155c-4.84626,10.07881 0.68932,20.0399 -0.65342,30.45434c-0.1612,1.92859 0.10226,3.94125 -0.48362,5.78576c-2.36771,7.4543 -10.1268,12.96447 -16.12716,17.17709c-10.71008,7.51911 -26.7209,11.69991 -39.06519,5.34517c-4.44193,-2.28667 -9.05109,-6.60117 -12.11476,-10.52004c-2.60289,-3.32944 -3.59685,-7.45989 -5.98245,-10.89461c-1.85594,-2.67215 -2.56877,-2.73653 -5.58119,-5.02394c-9.1187,-1.14716 -17.90334,1.94665 -26.96453,0.9872c-6.56886,-0.69555 -11.65695,-4.12949 -16.80835,-7.92803c-7.4606,-5.50131 -18.20394,-13.17365 -20.01718,-23.06049c-0.83818,-4.57024 -0.12518,-9.09551 1.02401,-13.51951c0.70646,-2.71964 2.14129,-5.25374 3.78755,-7.53089c6.54047,-8.86842 13.07954,-17.05387 22.80106,-22.59228c2.64233,-1.50536 8.87221,-4.96017 11.83813,-5.44831c4.61551,-0.75964 7.01189,1.13486 11.02765,2.72853c4.13508,1.64101 8.61556,3.59601 12.90829,4.71662c7.89208,2.06018 16.73824,1.15376 24.74359,0.12464c7.31396,-2.75057 14.0996,-5.75185 20.8916,-9.64633c7.9256,-4.54449 16.86905,-11.58673 26.49887,-11.54455c8.08022,0.03541 14.95896,5.00656 20.75606,10.17313c4.92482,4.38916 7.98879,10.56119 11.83868,15.80749c0,0 0.35499,0.48437 0.52935,1.17787z" data-paper-data="{&quot;index&quot;:null}" fill="url(#color-3)" stroke="none" stroke-width="0.5" stroke-linecap="butt"/><path d="" fill="url(#color-4)" stroke="none" stroke-width="0" stroke-linecap="butt"/><path d="M214.51132,177.60584l25.35245,25.35245l-57.64095,48.68556c-1.16815,-2.02657 -2.66704,-3.91147 -4.51669,-5.57866c-2.65094,-2.38944 -5.48784,-3.76861 -8.48767,-4.65835c-1.54946,-0.59568 -3.17324,-1.04153 -4.8536,-1.3198z" fill="url(#color-5)" stroke="none" stroke-width="0" stroke-linecap="butt"/><g stroke="#ff0000" stroke-width="0" stroke-linecap="round"><path d="M286.01655,167.95302l-54.90705,55.47314l-45.85017,11.8871l9.07001,-48.67297l54.90705,-55.47314l45.85017,-11.8871z" data-paper-data="{&quot;index&quot;:null}" fill="#000000"/><path d="M271.28635,171.24398l-38.02427,38.41628l-31.75225,8.23204l6.28119,-33.70704l38.02428,-38.41629l31.75225,-8.23204z" data-paper-data="{&quot;index&quot;:null}" fill="#fdff9d"/></g><path d="M194.11453,204.0338c-0.86281,-0.54702 -0.6976,-1.67608 -0.6976,-1.67608l0.08952,-0.57108c0.17962,-2.80932 -0.25269,-5.5401 1.61056,-7.97298c1.11949,-1.46174 3.32465,-2.99318 4.77753,-4.13711c0.92218,-0.72608 2.21105,-1.04007 2.90939,-1.98344c0.35726,-0.48262 1.94115,-4.11108 2.13065,-4.7706c1.76566,-6.14519 -2.30895,-11.22912 -2.55016,-17.22773c-0.09396,-1.10247 -0.43533,-2.21163 -0.28187,-3.3074c0.62017,-4.4284 4.46542,-8.27768 7.44373,-11.22706c5.31601,-5.26438 13.93961,-9.15513 21.50625,-6.75635c2.72276,0.86317 5.73409,2.85328 7.83643,4.76849c1.78614,1.62716 2.7422,3.85996 4.41595,5.56728c1.30214,1.32826 1.71009,1.29623 3.6272,2.29681c5.24954,-0.22727 9.90439,-2.81288 15.10353,-3.14043c3.76908,-0.23746 6.96599,1.21043 10.23351,2.85776c4.73225,2.38577 11.52279,5.68064 13.49225,11.07943c0.91039,2.49562 0.94218,5.11454 0.71841,7.71819c-0.13756,1.60058 -0.70344,3.16639 -1.4131,4.60763c-2.83657,5.62532 -5.73779,10.86556 -10.68643,14.91881c-1.34505,1.10168 -4.52535,3.64594 -6.15027,4.2053c-2.52866,0.87047 -4.06089,0.0323 -6.47704,-0.48111c-2.48793,-0.52866 -5.20063,-1.20121 -7.72755,-1.42144c-4.64567,-0.40489 -9.54481,0.95373 -13.95828,2.30093c-3.85881,2.25122 -7.39581,4.59311 -10.85081,7.43905c-4.03164,3.32094 -8.39761,8.14725 -13.82935,9.04629c-4.55768,0.75437 -8.91116,-1.38835 -12.67372,-3.74487c-3.19641,-2.00194 -5.51483,-5.18708 -8.18752,-7.77514c0,0 -0.2465,-0.23899 -0.41123,-0.61316z" fill="url(#color-6)" stroke="none" stroke-width="0.5" stroke-linecap="butt"/><path d="M299.35957,120.17744l-31.74698,117.51952l9.07057,-99.21925l-73.67814,32.90908l47.7714,-32.86664l-103.6273,17.93956l138.68417,-39.86274z" fill="url(#color-7)" stroke="#000000" stroke-width="0" stroke-linecap="round"/><path d="M320.26855,177.12308l-11.67173,5.57822l-11.47962,-34.66636l13.75536,24.48754l11.37506,-6.19403l9.55122,30.6636z" data-paper-data="{&quot;index&quot;:null}" fill="url(#color-8)" stroke="#000000" stroke-width="0" stroke-linecap="round"/><path d="M214.41266,101.49204l7.4875,-17.98467l47.70886,27.35133l-40.03414,-13.64698l-6.53596,18.37734l-23.2667,-13.89539c1.32315,-1.137 2.52599,-2.41007 3.58683,-3.79749z" data-paper-data="{&quot;index&quot;:null}" fill="url(#color-9)" stroke="#000000" stroke-width="0" stroke-linecap="round"/><path d="M148.40769,127.39296l91.59032,-52.60903l91.5943,52.60903v105.21408l-91.5943,52.60903l-91.59032,-52.60903z" fill="none" stroke="#000000" stroke-width="12.5" stroke-linecap="butt"/></g></g></svg>