<svg version="1.1" xmlns="http://www.w3.org/2000/svg" xmlns:xlink="http://www.w3.org/1999/xlink" width="195.68462" height="224.84738" viewBox="0,0,195.68462,224.84738"><defs><radialGradient cx="163.83333" cy="224.6667" r="105.21607" gradientUnits="userSpaceOnUse" id="color-1"><stop offset="0" stop-color="#b8ffd2"/><stop offset="1" stop-color="#00ff85"/></radialGradient><radialGradient cx="224.26827" cy="175.09513" r="78.50307" gradientUnits="userSpaceOnUse" id="color-2"><stop offset="0" stop-color="#b8ffd2"/><stop offset="1" stop-color="#b8ffd2" stop-opacity="0"/></radialGradient></defs><g transform="translate(-142.15769,-67.57634)"><g data-paper-data="{&quot;isPaintingLayer&quot;:true}" fill-rule="nonzero" stroke-linecap="butt" stroke-linejoin="miter" stroke-miterlimit="10" stroke-dasharray="" stroke-dashoffset="0" style="mix-blend-mode: normal"><path d="M148.40769,127.39299l91.59032,-52.60903l91.5943,52.60903v105.21408l-91.5943,52.60903l-91.59032,-52.60903z" fill="url(#color-1)" stroke="#000000" stroke-width="12.5"/><path d="M207.08241,87.56647c1.39932,-1.3454 3.40856,-0.53054 3.40856,-0.53054l1.01359,0.42314c5.10394,1.60037 10.33927,2.03583 13.98801,6.57358c2.19228,2.72641 4.02281,7.48808 5.47793,10.68626c0.92359,2.02997 0.92098,4.55061 2.34671,6.26557c0.7294,0.87737 6.71094,5.4395 7.84261,6.08713c10.54447,6.0343 21.76802,0.81014 32.94837,3.07425c2.07722,0.32451 4.27854,0.19542 6.23165,0.97358c7.89323,3.14473 13.26096,11.98029 17.35937,18.80936c7.31528,12.18925 10.60142,29.86279 2.75655,42.74484c-2.82288,4.63545 -7.85603,9.2945 -12.34039,12.30969c-3.80989,2.56169 -8.36271,3.31781 -12.2698,5.63588c-3.03963,1.80341 -3.16478,2.57079 -5.87738,5.6572c-1.95152,9.79155 0.71827,19.55064 -1.02538,29.29443c-1.26405,7.06371 -5.38027,12.31016 -9.89648,17.59687c-6.54067,7.65658 -15.68886,18.70151 -26.54274,19.89809c-5.01726,0.55313 -9.86525,-0.57107 -14.56966,-2.16001c-2.89202,-0.97679 -5.52637,-2.72842 -7.86588,-4.68916c-9.1013,-7.77605 -17.46268,-15.49753 -22.70853,-26.46172c-1.42586,-2.9801 -4.68529,-9.99898 -4.98377,-13.25067c-0.46451,-5.06019 1.77449,-7.50961 3.81335,-11.73711c2.09942,-4.3531 4.56592,-9.05609 6.11371,-13.62045c2.84554,-8.39148 2.55069,-18.04725 2.05758,-26.80151c-2.41215,-8.13884 -5.13699,-15.72469 -8.82917,-23.38682c-4.30843,-8.94097 -11.24426,-19.17891 -10.45033,-29.61013c0.66617,-8.75268 6.58719,-15.81996 12.6359,-21.70004c5.13857,-4.99531 12.06439,-7.83578 18.04822,-11.59973c0,0 0.55242,-0.34702 1.31742,-0.48206z" fill="url(#color-2)" stroke="none" stroke-width="0.5"/><g stroke="none" stroke-width="0"><path d="M248.61936,169.44535h-16.46685v-36.457h16.46685z" fill="#000000"/><g data-paper-data="{&quot;index&quot;:null}" fill="#000000"><path d="M259.16863,180.39836l34.16475,24.97392l1.03513,20.24609l-43.68572,-5.72619z" data-paper-data="{&quot;index&quot;:null}"/><g><path d="M240.00279,152.3653l28.39317,14.70083l-0.08146,25.7841l-28.43932,-0.08987z"/><path d="M239.89456,186.61654l28.43932,0.08987l-0.08146,25.7841l-28.48547,14.52114z" data-paper-data="{&quot;index&quot;:null}"/></g></g><g fill="#000000"><path d="M229.3172,219.89222l-43.68572,5.72615l1.03513,-20.24609l34.16475,-24.97392z" data-paper-data="{&quot;index&quot;:null}"/><g><path d="M240.1248,192.76036l-28.43932,0.08987l-0.08146,-25.7841l28.39317,-14.70083z"/><path d="M240.23303,227.0116l-28.48547,-14.52109l-0.08146,-25.7841l28.43932,-0.08987z" data-paper-data="{&quot;index&quot;:null}"/></g></g><g fill="#b8ffd2"><path d="M250.26469,198.97047l-10.52681,6.33094v-45.07648l10.52681,6.58419z"/><path d="M230.02078,166.8092l10.52681,-6.58419v45.07648l-10.52681,-6.33094z" data-paper-data="{&quot;index&quot;:null}"/></g></g></g></g></svg>