<svg version="1.1" xmlns="http://www.w3.org/2000/svg" xmlns:xlink="http://www.w3.org/1999/xlink" width="195.99922" height="224.84739" viewBox="0,0,195.99922,224.84739"><defs><radialGradient cx="163.83333" cy="224.66668" r="105.21607" gradientUnits="userSpaceOnUse" id="color-1"><stop offset="0" stop-color="#ff9e00"/><stop offset="1" stop-color="#ff6100"/></radialGradient><radialGradient cx="260.99998" cy="164.99999" r="78.50307" gradientUnits="userSpaceOnUse" id="color-2"><stop offset="0" stop-color="#ff9e00"/><stop offset="1" stop-color="#ff9e00" stop-opacity="0"/></radialGradient><radialGradient cx="260.99998" cy="164.99999" r="78.50307" gradientUnits="userSpaceOnUse" id="color-3"><stop offset="0" stop-color="#ff9e00"/><stop offset="1" stop-color="#ff9e00" stop-opacity="0"/></radialGradient><linearGradient x1="-104.35894" y1="528.5865" x2="278.75573" y2="145.47182" gradientUnits="userSpaceOnUse" id="color-4"><stop offset="0" stop-color="#000000" stop-opacity="0"/><stop offset="1" stop-color="#000000"/></linearGradient><linearGradient x1="92.1691" y1="333.28892" x2="244.61602" y2="180.84199" gradientUnits="userSpaceOnUse" id="color-5"><stop offset="0" stop-color="#000000" stop-opacity="0"/><stop offset="1" stop-color="#000000"/></linearGradient><radialGradient cx="238.5" cy="184" r="31" gradientUnits="userSpaceOnUse" id="color-6"><stop offset="0" stop-color="#ffffff"/><stop offset="1" stop-color="#ffffff" stop-opacity="0"/></radialGradient><radialGradient cx="270.934" cy="123.44652" r="53.70275" gradientUnits="userSpaceOnUse" id="color-7"><stop offset="0" stop-color="#ff9e00"/><stop offset="1" stop-color="#ff9e00" stop-opacity="0"/></radialGradient></defs><g transform="translate(-142.15769,-67.57631)"><g data-paper-data="{&quot;isPaintingLayer&quot;:true}" fill-rule="nonzero" stroke-linecap="butt" stroke-linejoin="miter" stroke-miterlimit="10" stroke-dasharray="" stroke-dashoffset="0" style="mix-blend-mode: normal"><path d="M148.40769,127.39297l91.59032,-52.60903l91.5943,52.60903v105.21408l-91.5943,52.60903l-91.59032,-52.60903z" fill="url(#color-1)" stroke="#000000" stroke-width="12.5"/><path d="M330.92337,220.38355c-0.18993,1.93186 -2.24687,2.6175 -2.24687,2.6175l-1.04549,0.33669c-4.92005,2.09869 -9.1833,5.16839 -14.90505,4.08855c-3.43779,-0.6488 -7.92263,-3.07995 -11.10642,-4.5663c-2.02084,-0.94342 -3.65621,-2.86153 -5.8542,-3.23926c-1.12448,-0.19325 -8.63567,0.22372 -9.91676,0.46645c-11.93665,2.26168 -17.07627,13.5242 -27.04732,19.06539c-1.79009,1.1026 -3.37988,2.63069 -5.37028,3.30779c-8.04391,2.7364 -17.8644,-0.49441 -25.41643,-3.02423c-13.47966,-4.51549 -27.45851,-15.81789 -29.8621,-30.70789c-0.8649,-5.35797 -0.0647,-12.16967 1.3861,-17.37506c1.23259,-4.42248 4.2029,-7.95477 5.66765,-12.25516c1.13954,-3.34561 0.73621,-4.01034 0.79369,-8.11898c-4.8767,-8.71209 -13.24585,-14.39758 -18.24957,-22.93835c-3.62742,-6.19158 -3.90591,-12.85423 -3.90645,-19.80732c-0.00078,-10.06994 -0.2201,-24.4098 7.25473,-32.37004c3.45528,-3.67966 7.87142,-5.97414 12.48027,-7.82197c2.83328,-1.13595 5.97399,-1.51545 9.02637,-1.54442c11.97082,0 23.34362,0.43916 34.45416,5.3675c3.01987,1.33953 10.05735,4.55864 12.39653,6.83697c3.64018,3.54549 3.52899,6.86218 4.72499,11.40071c1.23153,4.67337 2.41125,9.85119 4.19943,14.32685c3.28753,8.22837 9.78393,15.37804 15.84545,21.7135c7.12078,4.62099 14.12008,8.61843 21.90442,12.0455c9.08356,3.99905 21.00719,7.27746 27.17952,15.72394c5.17909,7.08731 5.2682,16.30669 4.48902,24.70639c-0.66194,7.13582 -4.08247,13.79429 -6.1869,20.54299c0,0 -0.19459,0.62268 -0.68848,1.22228z" data-paper-data="{&quot;index&quot;:null}" fill="url(#color-2)" stroke="none" stroke-width="0.5"/><path d="M330.92337,220.38355c-0.18993,1.93186 -2.24687,2.6175 -2.24687,2.6175l-1.04549,0.33669c-4.92005,2.09869 -9.1833,5.16839 -14.90505,4.08855c-3.43779,-0.6488 -7.92263,-3.07995 -11.10642,-4.5663c-2.02084,-0.94342 -3.65621,-2.86153 -5.8542,-3.23926c-1.12448,-0.19325 -8.63567,0.22372 -9.91676,0.46645c-11.93665,2.26168 -17.07627,13.5242 -27.04732,19.06539c-1.79009,1.1026 -3.37988,2.63069 -5.37028,3.30779c-8.04391,2.7364 -17.8644,-0.49441 -25.41643,-3.02423c-13.47966,-4.51549 -27.45851,-15.81789 -29.8621,-30.70789c-0.8649,-5.35797 -0.0647,-12.16967 1.3861,-17.37506c1.23259,-4.42248 4.2029,-7.95477 5.66765,-12.25516c1.13954,-3.34561 0.73621,-4.01034 0.79369,-8.11898c-4.8767,-8.71209 -13.24585,-14.39758 -18.24957,-22.93835c-3.62742,-6.19158 -3.90591,-12.85423 -3.90645,-19.80732c-0.00078,-10.06994 -0.2201,-24.4098 7.25473,-32.37004c3.45528,-3.67966 7.87142,-5.97414 12.48027,-7.82197c2.83328,-1.13595 5.97399,-1.51545 9.02637,-1.54442c11.97082,0 23.34362,0.43916 34.45416,5.3675c3.01987,1.33953 10.05735,4.55864 12.39653,6.83697c3.64018,3.54549 3.52899,6.86218 4.72499,11.40071c1.23153,4.67337 2.41125,9.85119 4.19943,14.32685c3.28753,8.22837 9.78393,15.37804 15.84545,21.7135c7.12078,4.62099 14.12008,8.61843 21.90442,12.0455c9.08356,3.99905 21.00719,7.27746 27.17952,15.72394c5.17909,7.08731 5.2682,16.30669 4.48902,24.70639c-0.66194,7.13582 -4.08247,13.79429 -6.1869,20.54299c0,0 -0.19459,0.62268 -0.68848,1.22228z" data-paper-data="{&quot;index&quot;:null}" fill="url(#color-3)" stroke="none" stroke-width="0.5"/><path d="M250.63094,101.96905l25.04394,-7.21059c4.54387,6.25665 11.91774,10.32488 20.24179,10.32488c1.27068,0 2.51921,-0.0948 3.73891,-0.27771c4.14259,8.08095 12.55602,13.61104 22.26109,13.61104c0.8543,0 1.69858,-0.04285 2.53083,-0.12652c1.66383,6.15507 5.61932,11.36879 10.89446,14.66913c-3.19515,4.19935 -5.09196,9.44019 -5.09196,15.12406c0,6.19394 2.25252,11.86177 5.98309,16.22901l-3.86402,15.7187l-54.3084,15.63526l-40.86777,-39.03178z" fill="#ffd469" stroke="#000000" stroke-width="0"/><path d="" fill="url(#color-4)" stroke="none" stroke-width="0"/><path d="M229.7343,165.96028l29.76344,29.76344l-70.24259,60.82704l-30.02642,-14.48526z" fill="url(#color-5)" stroke="none" stroke-width="0"/><g stroke="none" stroke-width="0"><path d="M203.15962,184.75117c0,-19.44307 15.76167,-35.20474 35.20475,-35.20474c19.44306,0 35.20475,15.76168 35.20475,35.20474c0,19.44307 -15.76169,35.20475 -35.20475,35.20475c-19.44307,0 -35.20475,-15.76168 -35.20475,-35.20475z" fill="#000000"/><path d="M211.9608,184.75117c0,-14.58223 11.82129,-26.40356 26.40356,-26.40356c14.58223,0 26.40356,11.82129 26.40356,26.40356c0,14.58223 -11.82129,26.40356 -26.40356,26.40356c-14.58223,0 -26.40356,-11.82129 -26.40356,-26.40356z" fill="#ff9e00"/></g><path d="M207.5,184c0,-17.12082 13.87918,-31 31,-31c17.12082,0 31,13.87918 31,31c0,17.12082 -13.87918,31 -31,31c-17.12082,0 -31,-13.87918 -31,-31z" fill="url(#color-6)" stroke="none" stroke-width="0"/><path d="M329.11255,141.85112c0.34843,1.2814 -0.79998,2.22009 -0.79998,2.22009l-0.58658,0.46956c-2.63536,2.53853 -4.61462,5.53817 -8.53566,6.2394c-2.35588,0.42131 -5.81473,-0.04232 -8.21191,-0.21831c-1.52156,-0.1117 -3.03372,-0.94035 -4.53096,-0.64727c-0.76598,0.14993 -5.46712,2.24343 -6.22719,2.71022c-7.08204,4.34934 -7.62895,12.8005 -12.65657,18.76864c-0.87639,1.14038 -1.52121,2.50409 -2.62916,3.42112c-4.47762,3.70607 -11.54251,4.0289 -16.98648,4.24818c-9.71697,0.3914 -21.40385,-3.43523 -26.56225,-12.37109c-1.85618,-3.21545 -3.00129,-7.76539 -3.33974,-11.44651c-0.28754,-3.12747 0.75251,-6.10841 0.6431,-9.21428c-0.08512,-2.4163 -0.50468,-2.74322 -1.46724,-5.38421c-5.23707,-4.38427 -11.97102,-5.98394 -17.24764,-10.22778c-3.82525,-3.07655 -5.62381,-7.26881 -7.3153,-11.71439c-2.44973,-6.43839 -6.07772,-15.55376 -3.23452,-22.46147c1.31429,-3.19312 3.57984,-5.73429 6.07724,-8.03674c1.53528,-1.41542 3.4511,-2.42196 5.3957,-3.18289c7.65398,-2.91156 15.03241,-5.39689 23.33502,-4.9481c2.25666,0.12198 7.5393,0.46857 9.58908,1.35636c3.18982,1.38156 3.92542,3.52925 5.79399,6.14023c1.92409,2.68855 3.93774,5.71225 6.16966,8.139c4.10332,4.46151 9.99598,7.45284 15.41256,10.02936c5.67685,1.22267 11.12438,2.07619 16.93512,2.37409c6.78056,0.34762 15.20175,-0.4563 21.20262,3.44302c5.03523,3.27186 7.33455,9.14494 8.87935,14.70511c1.31235,4.72355 0.7448,9.81282 1.04068,14.63969c0,0 0.02703,0.44546 -0.14292,0.94896z" data-paper-data="{&quot;index&quot;:null}" fill="url(#color-7)" stroke="none" stroke-width="0.5"/><path d="M206.60452,120.23594l28.06769,-32.70845l42.39662,7.76448l14.32684,40.47194l-28.06922,32.709l-42.39508,-7.76502z" fill="#ffeea4" stroke="#000000" stroke-width="0"/><path d="M291.26464,181.27307l22.62895,1.35032l10.23566,20.22765l-12.39355,18.87614l-22.62966,-1.35079l-10.23494,-20.22717z" fill="#fff6d1" stroke="#000000" stroke-width="0"/><path d="M148.40769,127.39296l91.59032,-52.60903l91.5943,52.60903v105.21408l-91.5943,52.60903l-91.59032,-52.60903z" fill="none" stroke="#000000" stroke-width="12.5"/></g></g></svg>