<svg version="1.1" xmlns="http://www.w3.org/2000/svg" xmlns:xlink="http://www.w3.org/1999/xlink" width="195.68462" height="224.84738" viewBox="0,0,195.68462,224.84738"><defs><radialGradient cx="163.83333" cy="224.66669" r="105.21607" gradientUnits="userSpaceOnUse" id="color-1"><stop offset="0" stop-color="#ff9e00"/><stop offset="1" stop-color="#ff6100"/></radialGradient><radialGradient cx="246.61074" cy="146.09035" r="50.33578" gradientUnits="userSpaceOnUse" id="color-2"><stop offset="0" stop-color="#ff9e00"/><stop offset="1" stop-color="#ff9e00" stop-opacity="0"/></radialGradient><radialGradient cx="235.91505" cy="177.18496" r="72.2636" gradientUnits="userSpaceOnUse" id="color-3"><stop offset="0" stop-color="#ff9e00"/><stop offset="1" stop-color="#ff9e00" stop-opacity="0"/></radialGradient><radialGradient cx="260.00004" cy="163.00006" r="74.37966" gradientUnits="userSpaceOnUse" id="color-4"><stop offset="0" stop-color="#ffeea4"/><stop offset="1" stop-color="#ffeea4" stop-opacity="0"/></radialGradient><linearGradient x1="-104.35894" y1="528.58651" x2="278.75573" y2="145.47183" gradientUnits="userSpaceOnUse" id="color-5"><stop offset="0" stop-color="#000000" stop-opacity="0"/><stop offset="1" stop-color="#000000"/></linearGradient><linearGradient x1="172.37075" y1="252.06552" x2="263.92615" y2="160.51013" gradientUnits="userSpaceOnUse" id="color-6"><stop offset="0" stop-color="#000000" stop-opacity="0"/><stop offset="1" stop-color="#000000"/></linearGradient><radialGradient cx="262.10108" cy="161.45142" r="31" gradientUnits="userSpaceOnUse" id="color-7"><stop offset="0" stop-color="#ffffff"/><stop offset="1" stop-color="#ffffff" stop-opacity="0"/></radialGradient></defs><g transform="translate(-142.15769,-67.57633)"><g data-paper-data="{&quot;isPaintingLayer&quot;:true}" fill-rule="nonzero" stroke-linejoin="miter" stroke-miterlimit="10" stroke-dasharray="" stroke-dashoffset="0" style="mix-blend-mode: normal"><path d="M148.40769,127.39298l91.59032,-52.60903l91.5943,52.60903v105.21408l-91.5943,52.60903l-91.59032,-52.60903z" fill="url(#color-1)" stroke="#000000" stroke-width="12.5" stroke-linecap="butt"/><path d="M259.01453,201.92367c-0.87563,0.88459 -2.17647,0.39411 -2.17647,0.39411l-0.65641,-0.25517c-3.29699,-0.94491 -6.65974,-1.14105 -9.07052,-3.9919c-1.44846,-1.71287 -2.69734,-4.73607 -3.68076,-6.76304c-0.62421,-1.28657 -0.66249,-2.90233 -1.60358,-3.97902c-0.48145,-0.55083 -4.38794,-3.38031 -5.12362,-3.7775c-6.85466,-3.70082 -13.96612,-0.17419 -21.16861,-1.44823c-1.33664,-0.17508 -2.74564,-0.05743 -4.00992,-0.52526c-5.10941,-1.89063 -8.69021,-7.46913 -11.42555,-11.78158c-4.88233,-7.69732 -7.26893,-18.97394 -2.44461,-27.35569c1.73597,-3.01606 4.88835,-6.08232 7.71502,-8.08615c2.40153,-1.70245 5.30789,-2.25929 7.77558,-3.80711c1.91981,-1.20417 1.98787,-1.69805 3.67771,-3.71945c1.09569,-6.30731 -0.77036,-12.52054 0.19285,-18.79395c0.69827,-4.54787 3.25358,-7.9761 6.06465,-11.43648c4.07118,-5.01156 9.76005,-12.23638 16.69841,-13.17546c3.20729,-0.43409 6.33268,0.20964 9.37338,1.15357c1.86926,0.58027 3.58566,1.6613 5.11637,2.88105c5.9572,4.84015 11.43924,9.65704 14.97566,16.6019c0.96121,1.88763 3.16179,6.33506 3.40467,8.41465c0.37797,3.23622 -1.0184,4.8418 -2.25827,7.58394c-1.27671,2.82362 -2.78317,5.87732 -3.70293,8.82762c-1.69095,5.42404 -1.34887,11.60871 -0.894,17.21236c1.67521,5.17874 3.54209,9.99806 6.03026,14.85095c2.90345,5.66284 7.51161,12.11539 7.16808,18.81438c-0.28826,5.62101 -3.97157,10.24501 -7.75557,14.11002c-3.21463,3.28346 -7.60905,5.21399 -11.38499,7.72155c0,0 -0.3486,0.2312 -0.83682,0.32989z" data-paper-data="{&quot;index&quot;:null}" fill="url(#color-2)" stroke="none" stroke-width="0.5" stroke-linecap="butt"/><path d="M315.14905,155.6429c1.32743,1.19621 0.71153,3.09467 0.71153,3.09467l-0.32179,0.95849c-1.13336,4.79161 -1.18853,9.62716 -5.11469,13.27606c-2.35895,2.19235 -6.6104,4.1866 -9.45106,5.73317c-1.80304,0.98166 -4.11756,1.14521 -5.5983,2.56718c-0.75754,0.72747 -4.5525,6.51985 -5.07263,7.60155c-4.84626,10.07881 0.68932,20.0399 -0.65342,30.45434c-0.1612,1.92859 0.10226,3.94125 -0.48362,5.78576c-2.36771,7.4543 -10.1268,12.96447 -16.12716,17.17709c-10.71008,7.51911 -26.7209,11.69991 -39.06519,5.34517c-4.44193,-2.28667 -9.05109,-6.60117 -12.11476,-10.52004c-2.60289,-3.32944 -3.59685,-7.45989 -5.98245,-10.89461c-1.85594,-2.67215 -2.56877,-2.73653 -5.58119,-5.02394c-9.1187,-1.14716 -17.90334,1.94665 -26.96453,0.9872c-6.56886,-0.69555 -11.65695,-4.12949 -16.80835,-7.92803c-7.4606,-5.50131 -18.20394,-13.17365 -20.01718,-23.06049c-0.83818,-4.57024 -0.12518,-9.09551 1.02401,-13.51951c0.70646,-2.71964 2.14129,-5.25374 3.78755,-7.53089c6.54047,-8.86842 13.07954,-17.05387 22.80106,-22.59228c2.64233,-1.50536 8.87221,-4.96017 11.83813,-5.44831c4.61551,-0.75964 7.01189,1.13486 11.02765,2.72853c4.13508,1.64101 8.61556,3.59601 12.90829,4.71662c7.89208,2.06018 16.73824,1.15376 24.74359,0.12464c7.31396,-2.75057 14.0996,-5.75185 20.8916,-9.64633c7.9256,-4.54449 16.86905,-11.58673 26.49887,-11.54455c8.08022,0.03541 14.95896,5.00656 20.75606,10.17313c4.92482,4.38916 7.98879,10.56119 11.83868,15.80749c0,0 0.35499,0.48437 0.52935,1.17787z" data-paper-data="{&quot;index&quot;:null}" fill="url(#color-3)" stroke="none" stroke-width="0.5" stroke-linecap="butt"/><path d="M186.05817,147.17329l50.92658,-55.89522l73.94368,15.82721l23.0135,71.72059l-50.92929,55.89611l-73.94095,-15.82808z" fill="url(#color-4)" stroke="#000000" stroke-width="0" stroke-linecap="butt"/><path d="" fill="url(#color-5)" stroke="none" stroke-width="0" stroke-linecap="butt"/><path d="M249.04443,145.62841l29.76344,29.76344l-98.74259,79.32704l-15.52642,-10.48526z" fill="url(#color-6)" stroke="none" stroke-width="0" stroke-linecap="butt"/><g stroke="none" stroke-width="0" stroke-linecap="butt"><path d="M226.7607,161.70259c0,-19.44307 15.76167,-35.20474 35.20475,-35.20474c19.44306,0 35.20475,15.76168 35.20475,35.20474c0,19.44307 -15.76169,35.20475 -35.20475,35.20475c-19.44307,0 -35.20475,-15.76168 -35.20475,-35.20475z" fill="#000000"/><path d="M235.56188,161.70259c0,-14.58223 11.82129,-26.40356 26.40356,-26.40356c14.58223,0 26.40356,11.82129 26.40356,26.40356c0,14.58223 -11.82129,26.40356 -26.40356,26.40356c-14.58223,0 -26.40356,-11.82129 -26.40356,-26.40356z" fill="#ff9e00"/></g><path d="M231.10108,161.45142c0,-17.12082 13.87918,-31 31,-31c17.12082,0 31,13.87918 31,31c0,17.12082 -13.87918,31 -31,31c-17.12082,0 -31,-13.87918 -31,-31z" fill="url(#color-7)" stroke="none" stroke-width="0" stroke-linecap="butt"/><path d="M194.45865,206.18446c0,0 6.38558,-25.93805 16.15135,-39.37109c9.76577,-13.43304 27.97898,-21.33117 27.97898,-21.33117z" fill="#000000" stroke="#000000" stroke-width="0" stroke-linecap="round"/><path d="M218.00845,194.83c0,0 -6.41964,15.33448 -13.71554,22.65516c-7.2959,7.32069 -19.25374,10.42613 -19.25374,10.42613z" data-paper-data="{&quot;index&quot;:null}" fill="#ff9e00" stroke="#000000" stroke-width="0" stroke-linecap="round"/><path d="M207.12531,174.30128c0,0 4.11864,-16.72981 10.41747,-25.394c6.29883,-8.66419 18.04618,-13.75841 18.04618,-13.75841z" fill="#000000" stroke="#000000" stroke-width="0" stroke-linecap="round"/><path d="M288.11876,178.95301c0,0 -12.20512,21.46423 -24.27078,30.95544c-12.06566,9.49121 -30.25246,11.93419 -30.25246,11.93419z" data-paper-data="{&quot;index&quot;:null}" fill="#000000" stroke="#000000" stroke-width="0" stroke-linecap="round"/></g></g></svg>