<svg version="1.1" xmlns="http://www.w3.org/2000/svg" xmlns:xlink="http://www.w3.org/1999/xlink" width="195.68462" height="224.84738" viewBox="0,0,195.68462,224.84738"><defs><radialGradient cx="163.83333" cy="224.66668" r="105.21607" gradientUnits="userSpaceOnUse" id="color-1"><stop offset="0" stop-color="#adffe5"/><stop offset="1" stop-color="#00fffa"/></radialGradient><linearGradient x1="202.48101" y1="117.27069" x2="202.48101" y2="254.72933" gradientUnits="userSpaceOnUse" id="color-2"><stop offset="0" stop-color="#ffffff" stop-opacity="0"/><stop offset="1" stop-color="#ffffff"/></linearGradient><linearGradient x1="277.51901" y1="117.27066" x2="277.51901" y2="254.72931" gradientUnits="userSpaceOnUse" id="color-3"><stop offset="0" stop-color="#ffffff" stop-opacity="0"/><stop offset="1" stop-color="#ffffff"/></linearGradient><radialGradient cx="239.80847" cy="168.95117" r="78.50307" gradientUnits="userSpaceOnUse" id="color-4"><stop offset="0" stop-color="#adffe5"/><stop offset="1" stop-color="#adffe5" stop-opacity="0"/></radialGradient><linearGradient x1="240" y1="161.66431" x2="240" y2="216.87364" gradientUnits="userSpaceOnUse" id="color-5"><stop offset="0" stop-color="#5dfff2"/><stop offset="1" stop-color="#c5fff4"/></linearGradient><linearGradient x1="240" y1="180.48567" x2="240" y2="198.05228" gradientUnits="userSpaceOnUse" id="color-6"><stop offset="0" stop-color="#80fff3"/><stop offset="1" stop-color="#a2fff3"/></linearGradient></defs><g transform="translate(-142.15769,-67.57632)"><g data-paper-data="{&quot;isPaintingLayer&quot;:true}" fill-rule="nonzero" stroke-linejoin="miter" stroke-miterlimit="10" stroke-dasharray="" stroke-dashoffset="0" style="mix-blend-mode: normal"><path d="M148.40769,127.39297l91.59032,-52.60903l91.5943,52.60903v105.21408l-91.5943,52.60903l-91.59032,-52.60903z" fill="url(#color-1)" stroke="#000000" stroke-width="12.5" stroke-linecap="butt"/><g stroke="#000000" stroke-width="0" stroke-linecap="round"><path d="M240.62986,144.51539v110.21394c0,0 -26.37296,-19.40246 -56.27852,-45.38221c-17.60294,-15.29213 -24.78484,-44.55808 -16.73144,-66.80484c8.05341,-22.24679 23.84585,-26.94215 39.80057,-24.80521c15.81601,2.1184 33.20938,26.77834 33.20938,26.77834z" fill="url(#color-2)"/><path d="M272.57954,117.73706c15.95472,-2.13698 31.74718,2.55841 39.80057,24.80521c8.05341,22.24679 0.87147,51.51274 -16.73144,66.80484c-29.90555,25.97973 -56.27849,45.38221 -56.27849,45.38221v-110.21393c0,0 17.39334,-24.65994 33.20935,-26.77834z" data-paper-data="{&quot;index&quot;:null}" fill="url(#color-3)"/></g><path d="M158.22688,132.88091c-0.3008,-1.91773 1.51834,-3.09748 1.51834,-3.09748l0.92758,-0.58821c4.23619,-3.2659 7.59298,-7.30698 13.40266,-7.69711c3.49062,-0.23441 8.44195,0.99386 11.8968,1.63393c2.19289,0.40627 4.25718,1.85276 6.47963,1.66699c1.137,-0.09504 8.30337,-2.38304 9.48259,-2.93941c10.9875,-5.18397 13.13726,-17.37571 21.39927,-25.24118c1.45622,-1.51643 2.61181,-3.39449 4.3687,-4.54927c7.10016,-4.66691 17.41712,-4.00316 25.3623,-3.44886c14.1814,0.98936 30.54869,8.42334 36.61096,22.23415c2.18143,4.96964 3.1157,11.76424 3.01721,17.16713c-0.08368,4.59027 -2.07283,8.75477 -2.41187,13.2851c-0.26376,3.52449 0.29343,4.06678 1.26855,8.05844c6.9064,7.21003 16.43425,10.61407 23.42062,17.62638c5.06473,5.08354 7.00581,11.46324 8.75069,18.19383c2.52706,9.7477 6.33689,23.57394 1.09815,33.15486c-2.42163,4.42883 -6.12091,7.75783 -10.1188,10.70282c-2.45769,1.81043 -5.40275,2.96571 -8.35023,3.75952c-11.58798,3.00318 -22.70725,5.43124 -34.69887,3.44787c-3.25936,-0.53907 -10.87936,-1.8897 -13.71531,-3.50833c-4.41324,-2.51886 -5.13769,-5.75738 -7.43404,-9.85072c-2.36458,-4.21495 -4.80557,-8.93122 -7.65939,-12.81514c-5.24669,-7.14046 -13.32901,-12.43169 -20.7861,-17.04384c-8.05235,-2.68677 -15.83067,-4.80041 -24.22583,-6.16498c-9.79633,-1.59231 -22.16111,-1.77452 -30.25506,-8.40239c-6.7915,-5.56135 -9.19068,-14.46353 -10.5437,-22.79008c-1.14944,-7.07368 0.49125,-14.37734 0.83529,-21.43816c0,0 0.03214,-0.65158 0.35982,-1.35591z" fill="url(#color-4)" stroke="none" stroke-width="0.5" stroke-linecap="butt"/><g fill="#000000" stroke="#000000" stroke-width="0" stroke-linecap="round"><path d="M240.52905,151.15493v92.57441c0,0 -22.15202,-16.29713 -47.27125,-38.11888c-14.78562,-12.84465 -20.81807,-37.42665 -14.05361,-56.11285c6.76448,-18.68624 20.02937,-22.63011 33.43057,-20.83518c13.28469,1.77936 27.89429,22.49252 27.89429,22.49252z"/><path d="M267.36525,128.66241c13.4012,-1.79496 26.6661,2.14894 33.43057,20.83518c6.76448,18.68624 0.73199,43.26822 -14.05361,56.11286c-25.11923,21.82172 -47.27123,38.11887 -47.27123,38.11887v-92.5744c0,0 14.60956,-20.71316 27.89425,-22.49251z" data-paper-data="{&quot;index&quot;:null}"/></g><g stroke="none" stroke-width="0" stroke-linecap="butt"><path d="M231.2167,161.66431h17.5666v55.20932h-17.5666z" fill="url(#color-5)"/><path d="M267.60466,180.48567v17.56661h-55.20932v-17.56661z" fill="url(#color-6)"/></g></g></g></svg>