<svg version="1.1" xmlns="http://www.w3.org/2000/svg" xmlns:xlink="http://www.w3.org/1999/xlink" width="195.68462" height="224.84738" viewBox="0,0,195.68462,224.84738"><defs><radialGradient cx="163.83333" cy="224.66668" r="105.21607" gradientUnits="userSpaceOnUse" id="color-1"><stop offset="0" stop-color="#99ffeb"/><stop offset="1" stop-color="#00ebff"/></radialGradient><radialGradient cx="239.80847" cy="168.95117" r="78.50307" gradientUnits="userSpaceOnUse" id="color-2"><stop offset="0" stop-color="#99ffeb"/><stop offset="1" stop-color="#99ffeb" stop-opacity="0"/></radialGradient><linearGradient x1="229.09339" y1="179.02068" x2="229.09339" y2="218.97934" gradientUnits="userSpaceOnUse" id="color-3"><stop offset="0" stop-color="#aafff2"/><stop offset="1" stop-color="#d2faf8"/></linearGradient><linearGradient x1="250.90662" y1="179.02068" x2="250.90662" y2="218.97934" gradientUnits="userSpaceOnUse" id="color-4"><stop offset="0" stop-color="#aafff2"/><stop offset="1" stop-color="#d2faf8"/></linearGradient></defs><g transform="translate(-142.15769,-67.57631)"><g data-paper-data="{&quot;isPaintingLayer&quot;:true}" fill-rule="nonzero" stroke-linejoin="miter" stroke-miterlimit="10" stroke-dasharray="" stroke-dashoffset="0" style="mix-blend-mode: normal"><path d="M148.40769,127.39297l91.59032,-52.60903l91.5943,52.60903v105.21408l-91.5943,52.60903l-91.59032,-52.60903z" fill="url(#color-1)" stroke="#000000" stroke-width="12.5" stroke-linecap="butt"/><path d="M158.22688,132.88091c-0.3008,-1.91773 1.51834,-3.09748 1.51834,-3.09748l0.92758,-0.58821c4.23619,-3.2659 7.59298,-7.30698 13.40266,-7.69711c3.49062,-0.23441 8.44195,0.99386 11.8968,1.63393c2.19289,0.40627 4.25718,1.85276 6.47963,1.66699c1.137,-0.09504 8.30337,-2.38304 9.48259,-2.93941c10.9875,-5.18397 13.13726,-17.37571 21.39927,-25.24118c1.45622,-1.51643 2.61181,-3.39449 4.3687,-4.54927c7.10016,-4.66691 17.41712,-4.00316 25.3623,-3.44886c14.1814,0.98936 30.54869,8.42334 36.61096,22.23415c2.18143,4.96964 3.1157,11.76424 3.01721,17.16713c-0.08368,4.59027 -2.07283,8.75477 -2.41187,13.2851c-0.26376,3.52449 0.29343,4.06678 1.26855,8.05844c6.9064,7.21003 16.43425,10.61407 23.42062,17.62638c5.06473,5.08354 7.00581,11.46324 8.75069,18.19383c2.52706,9.7477 6.33689,23.57394 1.09815,33.15486c-2.42163,4.42883 -6.12091,7.75783 -10.1188,10.70282c-2.45769,1.81043 -5.40275,2.96571 -8.35023,3.75952c-11.58798,3.00318 -22.70725,5.43124 -34.69887,3.44787c-3.25936,-0.53907 -10.87936,-1.8897 -13.71531,-3.50833c-4.41324,-2.51886 -5.13769,-5.75738 -7.43404,-9.85072c-2.36458,-4.21495 -4.80557,-8.93122 -7.65939,-12.81514c-5.24669,-7.14046 -13.32901,-12.43169 -20.7861,-17.04384c-8.05235,-2.68677 -15.83067,-4.80041 -24.22583,-6.16498c-9.79633,-1.59231 -22.16111,-1.77452 -30.25506,-8.40239c-6.7915,-5.56135 -9.19068,-14.46353 -10.5437,-22.79008c-1.14944,-7.07368 0.49125,-14.37734 0.83529,-21.43816c0,0 0.03214,-0.65158 0.35982,-1.35591z" fill="url(#color-2)" stroke="none" stroke-width="0.5" stroke-linecap="butt"/><g fill="#000000" stroke="none" stroke-linecap="butt"><path d="M251.36011,175.16895h-22.50317v-59.76646h22.50317z" stroke-width="0"/><g><path d="M206.52099,217.22879h-49.20048v-24.19697l49.20048,-13.71159z" stroke-width="0"/><path d="M240.18349,194.85203l-37.3244,14.44881v-44.48957l37.3244,-17.90398z" data-paper-data="{&quot;index&quot;:null}" stroke-width="NaN"/><path d="M240.18349,240.32342l-47.92123,-22.9871v-57.12069l47.92123,18.551z" stroke-width="NaN"/></g><g data-paper-data="{&quot;index&quot;:null}"><path d="M273.25263,179.32024l49.20048,13.71159v24.19697h-49.20048z" stroke-width="0"/><path d="M239.59013,146.90729l37.3244,17.90398v44.48958l-37.3244,-14.44881z" data-paper-data="{&quot;index&quot;:null}" stroke-width="NaN"/><path d="M239.59013,178.7666l47.92123,-18.551v57.12068l-47.92123,22.98711z" stroke-width="NaN"/></g><g stroke-width="0"><path d="M251.5416,210.63105l-11.796,7.09427v-50.51114l11.796,7.37804z"/><path d="M228.85694,174.59224l11.796,-7.37803v50.51114l-11.796,-7.09426z" data-paper-data="{&quot;index&quot;:null}"/></g></g><g stroke="#000000" stroke-width="0" stroke-linecap="round"><path d="M240.1831,186.94061v32.03873c0,0 -7.66651,-5.64021 -16.35993,-13.19242c-5.1171,-4.44536 -7.20485,-12.95285 -4.86376,-19.41989c2.34109,-6.46705 6.93189,-7.83197 11.56986,-7.21077c4.59765,0.61581 9.65383,7.78435 9.65383,7.78435z" fill="url(#color-3)"/><path d="M249.47074,179.15626c4.63797,-0.62121 9.22877,0.74372 11.56986,7.21077c2.34109,6.46705 0.25333,14.97454 -4.86376,19.41989c-8.69342,7.5522 -16.35992,13.19242 -16.35992,13.19242v-32.03873c0,0 5.05617,-7.16854 9.65382,-7.78435z" data-paper-data="{&quot;index&quot;:null}" fill="url(#color-4)"/></g></g></g></svg>