<svg version="1.1" xmlns="http://www.w3.org/2000/svg" xmlns:xlink="http://www.w3.org/1999/xlink" width="195.68462" height="224.84739" viewBox="0,0,195.68462,224.84739"><defs><radialGradient cx="163.83333" cy="224.66668" r="105.21607" gradientUnits="userSpaceOnUse" id="color-1"><stop offset="0" stop-color="#99fffe"/><stop offset="1" stop-color="#00d1ff"/></radialGradient><radialGradient cx="229.1418" cy="185.2845" r="78.50307" gradientUnits="userSpaceOnUse" id="color-2"><stop offset="0" stop-color="#99ffeb"/><stop offset="1" stop-color="#99ffeb" stop-opacity="0"/></radialGradient><radialGradient cx="230" cy="183.5" r="65.33165" gradientUnits="userSpaceOnUse" id="color-3"><stop offset="0" stop-color="#ffffff"/><stop offset="1" stop-color="#3de1fa"/></radialGradient><linearGradient x1="228.68258" y1="176.81742" x2="198.98409" y2="206.51591" gradientUnits="userSpaceOnUse" id="color-4"><stop offset="0" stop-color="#ffffff"/><stop offset="1" stop-color="#ffffff" stop-opacity="0"/></linearGradient><radialGradient cx="228.341" cy="184.42502" r="25.68441" gradientUnits="userSpaceOnUse" id="color-5"><stop offset="0" stop-color="#ffffff"/><stop offset="1" stop-color="#ffffff" stop-opacity="0"/></radialGradient><linearGradient x1="358.67232" y1="88.14717" x2="242.96487" y2="203.85462" gradientUnits="userSpaceOnUse" id="color-6"><stop offset="0" stop-color="#ffffff" stop-opacity="0"/><stop offset="1" stop-color="#ffffff"/></linearGradient><linearGradient x1="251.02302" y1="167.28365" x2="308.86076" y2="109.44591" gradientUnits="userSpaceOnUse" id="color-7"><stop offset="0" stop-color="#9cfaff" stop-opacity="0"/><stop offset="1" stop-color="#9cfaff"/></linearGradient><linearGradient x1="283.93328" y1="177.95115" x2="332.33017" y2="160.5353" gradientUnits="userSpaceOnUse" id="color-8"><stop offset="0" stop-color="#9cfaff" stop-opacity="0"/><stop offset="1" stop-color="#9cfaff"/></linearGradient><linearGradient x1="266.94319" y1="192.04892" x2="369.222" y2="178.16982" gradientUnits="userSpaceOnUse" id="color-9"><stop offset="0" stop-color="#9cfaff" stop-opacity="0"/><stop offset="1" stop-color="#9cfaff"/></linearGradient><linearGradient x1="242.02335" y1="140.70083" x2="292.04118" y2="29.84135" gradientUnits="userSpaceOnUse" id="color-10"><stop offset="0" stop-color="#9cfaff" stop-opacity="0"/><stop offset="1" stop-color="#9cfaff"/></linearGradient><linearGradient x1="194.54274" y1="160.95576" x2="219.96835" y2="-12.85112" gradientUnits="userSpaceOnUse" id="color-11"><stop offset="0" stop-color="#9cfaff" stop-opacity="0"/><stop offset="1" stop-color="#9cfaff"/></linearGradient><linearGradient x1="280.88147" y1="224.17844" x2="383.70738" y2="253.4978" gradientUnits="userSpaceOnUse" id="color-12"><stop offset="0" stop-color="#9cfaff" stop-opacity="0"/><stop offset="1" stop-color="#9cfaff"/></linearGradient></defs><g transform="translate(-142.15769,-67.57631)"><g data-paper-data="{&quot;isPaintingLayer&quot;:true}" fill-rule="nonzero" stroke-linejoin="miter" stroke-miterlimit="10" stroke-dasharray="" stroke-dashoffset="0" style="mix-blend-mode: normal"><path d="M148.40769,127.39297l91.59032,-52.60903l91.5943,52.60903v105.21408l-91.5943,52.60903l-91.59032,-52.60903z" fill="url(#color-1)" stroke="#000000" stroke-width="12.5" stroke-linecap="butt"/><path d="M147.56021,149.21424c-0.3008,-1.91773 1.51834,-3.09748 1.51834,-3.09748l0.92758,-0.58821c4.23619,-3.2659 7.59298,-7.30698 13.40266,-7.69711c3.49062,-0.23441 8.44195,0.99386 11.8968,1.63393c2.19289,0.40627 4.25718,1.85276 6.47963,1.66699c1.137,-0.09504 8.30337,-2.38304 9.48259,-2.93941c10.9875,-5.18397 13.13726,-17.37571 21.39927,-25.24118c1.45622,-1.51643 2.61181,-3.39449 4.3687,-4.54927c7.10016,-4.66691 17.41712,-4.00316 25.3623,-3.44886c14.1814,0.98936 30.54869,8.42334 36.61096,22.23415c2.18143,4.96964 3.1157,11.76424 3.01721,17.16713c-0.08368,4.59027 -2.07283,8.75477 -2.41187,13.2851c-0.26376,3.52449 0.29343,4.06678 1.26855,8.05844c6.9064,7.21003 16.43425,10.61407 23.42062,17.62638c5.06473,5.08354 7.00581,11.46324 8.75069,18.19383c2.52706,9.7477 6.33689,23.57394 1.09815,33.15486c-2.42163,4.42883 -6.12091,7.75783 -10.1188,10.70282c-2.45769,1.81043 -5.40275,2.96571 -8.35023,3.75952c-11.58798,3.00318 -22.70725,5.43124 -34.69887,3.44787c-3.25936,-0.53907 -10.87936,-1.8897 -13.71531,-3.50833c-4.41324,-2.51886 -5.13769,-5.75738 -7.43404,-9.85072c-2.36458,-4.21495 -4.80557,-8.93122 -7.65939,-12.81514c-5.24669,-7.14046 -13.32901,-12.43169 -20.7861,-17.04384c-8.05235,-2.68677 -15.83067,-4.80041 -24.22583,-6.16498c-9.79633,-1.59231 -22.16111,-1.77452 -30.25506,-8.40239c-6.7915,-5.56135 -9.19068,-14.46353 -10.5437,-22.79008c-1.14944,-7.07368 0.49125,-14.37734 0.83529,-21.43816c0,0 0.03214,-0.65158 0.35982,-1.35591z" fill="url(#color-2)" stroke="none" stroke-width="0.5" stroke-linecap="butt"/><path d="M173.12773,150.83479l56.87103,-32.66644l56.8735,32.66644v65.33041l-56.8735,32.66644l-56.87103,-32.66644z" fill="url(#color-3)" stroke="#000000" stroke-width="0" stroke-linecap="butt"/><g fill="#000000" stroke="none" stroke-linecap="butt"><path d="M198.28041,211.05885l-6.70003,-6.70003l17.7947,-17.7947l6.70003,6.70003z" stroke-width="0"/><g><path d="M172.40735,210.23136l-14.64882,-14.64882l7.20434,-7.20434l18.73127,10.56637z" stroke-width="0"/><path d="M189.09233,213.59154l-15.41482,-6.81092l13.2462,-13.2462l16.44355,5.78218z" data-paper-data="{&quot;index&quot;:null}" stroke-width="NaN"/><path d="M175.5538,227.13007l-7.42382,-21.11205l17.00696,-17.00696l8.74461,19.79126z" stroke-width="NaN"/></g><g data-paper-data="{&quot;index&quot;:null}"><path d="M203.56264,218.81306l10.56637,18.73127l-7.20434,7.20434l-14.64882,-14.64882z" stroke-width="0"/><path d="M203.1906,199.13994l5.78218,16.44355l-13.24621,13.24621l-6.81092,-15.41482z" data-paper-data="{&quot;index&quot;:null}" stroke-width="NaN"/><path d="M193.70489,208.62564l19.79126,8.74461l-17.00696,17.00696l-21.11206,-7.42382z" stroke-width="NaN"/></g><g stroke-width="0"><path d="M187.77606,221.67128l-5.62434,-1.39988l15.03905,-15.03905l1.31539,5.70883z"/><path d="M191.75209,204.18711l5.70882,1.31539l-15.03905,15.03905l-1.39988,-5.62433z" data-paper-data="{&quot;index&quot;:null}"/></g></g><path d="M247.53876,225.37209c-8.20101,8.20101 -29.93967,-0.24119 -48.55467,-18.85618c-18.61499,-18.61499 -27.05719,-40.35366 -18.85618,-48.55467c8.20101,-8.20101 29.93967,0.24119 48.55467,18.85618c18.61499,18.61499 27.05719,40.35366 18.85618,48.55467z" fill="url(#color-4)" stroke="none" stroke-width="0" stroke-linecap="butt"/><path d="M204.44685,201.18167c-0.58806,-0.23989 -0.61106,-0.9489 -0.61106,-0.9489l-0.00799,-0.35927c-0.19884,-1.73873 -0.76348,-3.36213 0.10924,-5.05555c0.52435,-1.01746 1.70535,-2.19687 2.46863,-3.05649c0.48447,-0.54563 1.23861,-0.8794 1.56223,-1.53338c0.16556,-0.33457 0.73595,-2.72884 0.77942,-3.15322c0.40502,-3.95419 -2.6469,-6.61718 -3.45374,-10.26113c-0.17866,-0.66426 -0.50943,-1.30542 -0.53595,-1.99277c-0.10721,-2.77783 1.8226,-5.55574 3.32085,-7.68775c2.67423,-3.80543 7.52328,-7.13386 12.41683,-6.49766c1.76088,0.22893 3.82218,1.1157 5.31906,2.05654c1.27174,0.79933 2.10212,2.06048 3.3139,2.92122c0.94274,0.66963 1.18883,0.60521 2.47185,1.00676c3.18715,-0.71599 5.75122,-2.80966 8.89649,-3.58148c2.28015,-0.55952 4.39541,-0.02492 6.5758,0.62395c3.15779,0.93974 7.67493,2.20953 9.47335,5.29653c0.83133,1.42698 1.1386,3.02597 1.28782,4.64369c0.09174,0.99449 -0.08244,2.01478 -0.35828,2.97464c-1.11743,3.75379 -2.31674,7.27906 -4.89928,10.30305c-0.70194,0.82193 -2.3683,2.72824 -3.30109,3.24908c-1.45158,0.81053 -2.48125,0.46606 -4.01607,0.41745c-1.58043,-0.05006 -3.3142,-0.16345 -4.88459,-0.0205c-2.88712,0.26281 -5.73551,1.63255 -8.28799,2.94193c-2.11374,1.80157 -4.0206,3.62326 -5.82189,5.74436c-2.10193,2.47512 -4.24299,5.90808 -7.46778,7.05515c-2.70588,0.96248 -5.60519,0.12983 -8.16642,-0.89858c-2.17585,-0.87367 -3.94451,-2.56781 -5.86432,-3.85768c0,0 -0.1771,-0.11914 -0.31901,-0.32999z" fill="url(#color-5)" stroke="none" stroke-width="0.5" stroke-linecap="butt"/><path d="M228.57228,121.59857l-6.87463,37.25092l14.06902,-8.95301l-22.38252,21.10352z" fill="#ffffff" stroke="#000000" stroke-width="0" stroke-linecap="round"/><path d="M225.44017,186.32992l64.31979,-71.86903l-30.93464,44.28151l70.44096,-28.6633c0.28478,1.37994 0.68329,2.71832 1.18529,4.0049z" data-paper-data="{&quot;index&quot;:null}" fill="url(#color-6)" stroke="#000000" stroke-width="0" stroke-linecap="round"/><g stroke="none" stroke-width="0" stroke-linecap="butt"><path d="M250.97447,167.2351l53.75868,-61.9168l8.25525,8.25525z" fill="url(#color-7)"/><path d="M283.91865,177.91053l47.16863,-20.82909l2.48579,6.90775z" fill="url(#color-8)"/><path d="M266.93153,191.96305l62.57554,-13.02931c0.0748,3.17357 0.74099,6.2008 1.89262,8.97573z" fill="url(#color-9)"/><path d="M241.93027,140.65885l20.16663,-54.66435c0.69034,0.77736 1.43589,1.49417 2.2833,2.09926c1.45639,1.03993 3.10726,1.6689 4.84801,2.10796z" fill="url(#color-10)"/><path d="M194.39683,160.93443l5.18915,-69.20073c2.67189,1.9685 5.8543,3.26479 9.28361,3.661z" fill="url(#color-11)"/><path d="M280.90608,224.09211l41.33666,8.69638c-1.40263,1.45384 -2.44072,3.26977 -2.95558,5.30707z" fill="url(#color-12)"/></g><path d="M148.40769,127.39296l91.59032,-52.60903l91.5943,52.60903v105.21408l-91.5943,52.60903l-91.59032,-52.60903z" fill="none" stroke="#000000" stroke-width="12.5" stroke-linecap="butt"/></g></g></svg>