<svg version="1.1" xmlns="http://www.w3.org/2000/svg" xmlns:xlink="http://www.w3.org/1999/xlink" width="195.68462" height="224.8474" viewBox="0,0,195.68462,224.8474"><defs><radialGradient cx="163.83333" cy="224.66669" r="105.21607" gradientUnits="userSpaceOnUse" id="color-1"><stop offset="0" stop-color="#ffb8eb"/><stop offset="1" stop-color="#ff5cb9"/></radialGradient><radialGradient cx="252.74009" cy="185.22323" r="78.50307" gradientUnits="userSpaceOnUse" id="color-2"><stop offset="0" stop-color="#ffb8eb"/><stop offset="1" stop-color="#ffb8eb" stop-opacity="0"/></radialGradient><linearGradient x1="295.98172" y1="125.18497" x2="180.01828" y2="241.14839" gradientUnits="userSpaceOnUse" id="color-3"><stop offset="0" stop-color="#ffb8eb" stop-opacity="0"/><stop offset="1" stop-color="#ffb8eb"/></linearGradient><linearGradient x1="152.27735" y1="270.02362" x2="221.86543" y2="200.43554" gradientUnits="userSpaceOnUse" id="color-4"><stop offset="0" stop-color="#ffffff" stop-opacity="0"/><stop offset="1" stop-color="#ffffff"/></linearGradient><radialGradient cx="273.32423" cy="150.36454" r="45.05173" gradientUnits="userSpaceOnUse" id="color-5"><stop offset="0" stop-color="#ffd9f4"/><stop offset="1" stop-color="#ffd9f4" stop-opacity="0"/></radialGradient><linearGradient x1="232.73124" y1="191.59956" x2="288.43249" y2="135.89831" gradientUnits="userSpaceOnUse" id="color-6"><stop offset="0" stop-color="#ffffff" stop-opacity="0"/><stop offset="1" stop-color="#ffffff"/></linearGradient><linearGradient x1="220.43592" y1="201.30275" x2="254.14758" y2="138.83826" gradientUnits="userSpaceOnUse" id="color-7"><stop offset="0" stop-color="#ffffff" stop-opacity="0"/><stop offset="1" stop-color="#ffffff"/></linearGradient><linearGradient x1="220.062" y1="204.64914" x2="282.9781" y2="181.3039" gradientUnits="userSpaceOnUse" id="color-8"><stop offset="0" stop-color="#ffffff" stop-opacity="0"/><stop offset="1" stop-color="#ffffff"/></linearGradient><radialGradient cx="291.61249" cy="132.92241" r="23.90431" gradientUnits="userSpaceOnUse" id="color-9"><stop offset="0" stop-color="#ffffff"/><stop offset="1" stop-color="#ffffff" stop-opacity="0"/></radialGradient></defs><g transform="translate(-142.15769,-67.5763)"><g data-paper-data="{&quot;isPaintingLayer&quot;:true}" fill-rule="nonzero" stroke-linejoin="miter" stroke-miterlimit="10" stroke-dasharray="" stroke-dashoffset="0" style="mix-blend-mode: normal"><path d="M148.40769,127.39298l91.59032,-52.60903l91.5943,52.60903v105.21408l-91.5943,52.60903l-91.59032,-52.60903z" fill="url(#color-1)" stroke="#000000" stroke-width="12.5" stroke-linecap="butt"/><path d="M275.49267,271.47252c-1.31034,1.4322 -3.36762,0.7476 -3.36762,0.7476l-1.03859,-0.3574c-5.1959,-1.27042 -10.44837,-1.36993 -14.38005,-5.66486c-2.36228,-2.58051 -4.49382,-7.21526 -6.15063,-10.31375c-1.05162,-1.9667 -1.21034,-4.48233 -2.74291,-6.10252c-0.78406,-0.82889 -7.04532,-4.99884 -8.21612,-5.57271c-10.90906,-5.34707 -21.77524,0.58471 -33.07757,-0.9592c-2.09373,-0.1909 -4.28228,0.07881 -6.28119,-0.57274c-8.07832,-2.63311 -14.00054,-11.10701 -18.52761,-17.65978c-8.08041,-11.69607 -12.49094,-29.12305 -5.48662,-42.48078c2.52041,-4.80661 7.24506,-9.77824 11.52725,-13.07426c3.63813,-2.80028 8.13322,-3.84623 11.88394,-6.4096c2.91798,-1.99425 2.99376,-2.76807 5.50326,-6.02177c1.32084,-9.89638 -1.96807,-19.46458 -0.8516,-29.29999c0.80937,-7.13013 4.58137,-12.62927 8.74996,-18.19419c6.03723,-8.0595 14.45977,-19.66728 25.21481,-21.55607c4.97157,-0.87311 9.88158,-0.0615 14.67803,1.2231c2.9486,0.7897 5.68967,2.36914 8.14987,4.17612c9.58031,7.17761 18.41873,14.34811 24.35556,24.95409c1.61367,2.88273 5.31563,9.67861 5.82162,12.90453c0.78742,5.02009 -1.29023,7.60779 -3.05434,11.95711c-1.81651,4.47854 -3.97695,9.32975 -5.22944,13.98381c-2.30264,8.55639 -1.39042,18.1735 -0.33803,26.87825c2.9281,7.96777 6.13286,15.36367 10.30786,22.7738c4.87183,8.6469 12.44869,18.41994 12.32399,28.88058c-0.10463,8.77737 -5.56119,16.20911 -11.22116,22.46426c-4.80833,5.31395 -11.53816,8.59185 -17.26882,12.73107c0,0 -0.52908,0.38167 -1.28386,0.56539z" fill="url(#color-2)" stroke="none" stroke-width="0.5" stroke-linecap="butt"/><path d="M259.48372,262.63103l-79.46434,-21.48153l-21.48372,-79.46653l57.98062,-57.98062l79.46653,21.48372l21.48153,79.46434z" fill="url(#color-3)" stroke="#000000" stroke-width="0" stroke-linecap="butt"/><path d="M155.06286,239.8592c0.132,-0.94679 0.20025,-1.91399 0.20025,-2.89715c0,-3.18192 -0.71484,-6.1969 -1.99268,-8.89308l48.11423,-48.11423l40.96156,40.96156l-44.29956,44.29956c-2.93626,-7.91895 -10.55861,-13.56241 -19.49906,-13.56241c-2.27526,0 -4.46516,0.3655 -6.51418,1.041c-2.81706,-6.92482 -9.25933,-11.98864 -16.97057,-12.83526z" fill="url(#color-4)" stroke="none" stroke-width="0" stroke-linecap="butt"/><path d="M148.40769,127.39296l91.59032,-52.60903l91.5943,52.60903v105.21408l-91.5943,52.60903l-91.59032,-52.60903z" fill="none" stroke="#000000" stroke-width="12.5" stroke-linecap="butt"/><path d="M231.82871,120.38811c0.05982,-1.11241 1.22169,-1.55775 1.22169,-1.55775l0.59085,-0.2196c2.76746,-1.32821 5.1337,-3.19643 8.44154,-2.72267c1.98745,0.28464 4.62047,1.56456 6.48356,2.33583c1.18256,0.48955 2.16888,1.5477 3.43862,1.70843c0.6496,0.08223 4.94534,-0.34763 5.67365,-0.51933c6.7861,-1.5999 9.44666,-8.1875 15.02253,-11.61768c0.99829,-0.67762 1.87094,-1.59409 2.99488,-2.03284c4.54225,-1.77317 10.25461,-0.17035 14.64863,1.08822c7.8429,2.24642 16.14439,8.37124 17.90066,16.84696c0.63197,3.04988 0.34622,6.9755 -0.35332,9.99672c-0.59433,2.56681 -2.20755,4.66741 -2.93808,7.17013c-0.56834,1.94706 -0.32022,2.31792 -0.2488,4.67495c3.01724,4.87096 7.95988,7.91798 11.04558,12.68749c2.23696,3.45763 2.56587,7.2704 2.7428,11.25675c0.25625,5.7733 0.74625,13.9891 -3.33702,18.74276c-1.88751,2.19741 -4.3611,3.62506 -6.95653,4.80154c-1.59553,0.72324 -3.38653,1.02059 -5.13578,1.11474c-6.86314,0.30408 -13.39458,0.3412 -19.8897,-2.2021c-1.7654,-0.69127 -5.8819,-2.35809 -7.28088,-3.60489c-2.17706,-1.94023 -2.19756,-3.84459 -2.99854,-6.41626c-0.82478,-2.64806 -1.63267,-5.58666 -2.77156,-8.10723c-2.09383,-4.634 -5.99998,-8.56805 -9.63612,-12.04633c-4.19989,-2.46843 -8.3143,-4.58246 -12.86428,-6.34954c-5.3094,-2.06201 -12.22877,-3.6387 -15.98205,-8.32447c-3.14933,-3.93176 -3.4346,-9.21517 -3.20126,-14.0507c0.19824,-4.10794 1.99016,-8.01228 3.02525,-11.93492c0,0 0.09574,-0.36194 0.36367,-0.71825z" fill="url(#color-5)" stroke="none" stroke-width="0.5" stroke-linecap="butt"/><g stroke-width="0"><path d="M232.68448,191.5528l51.77286,-59.62963l7.95031,7.9503z" fill="url(#color-6)" stroke="none" stroke-linecap="butt"/><g fill="#ffffff" stroke="#ff0000" stroke-linecap="round"><path d="M305.53676,129.45621l-17.47836,17.65856l-14.5953,3.78397l2.88722,-15.49388l17.47835,-17.65856l14.5953,-3.78397z" data-paper-data="{&quot;index&quot;:null}"/><path d="M300.84774,130.50382l-12.10412,12.22892l-10.10757,2.62047l1.99947,-10.72983l12.10412,-12.22891l10.10757,-2.62048z" data-paper-data="{&quot;index&quot;:null}"/></g></g><g stroke-width="0"><path d="M220.38348,201.27446l29.30629,-64.84204l8.91564,4.8117z" fill="url(#color-7)" stroke="none" stroke-linecap="butt"/><g fill="#ffffff" stroke="#ff0000" stroke-linecap="round"><path d="M267.25137,128.86207l-10.53179,19.75615l-11.6238,7.03382l-1.50635,-14.12139l10.53178,-19.75615l11.62381,-7.03381z" data-paper-data="{&quot;index&quot;:null}"/><path d="M263.47362,130.97671l-7.29348,13.68154l-8.04974,4.87106l-1.04317,-9.77936l7.29348,-13.68153l8.04975,-4.87107z" data-paper-data="{&quot;index&quot;:null}"/></g></g><g stroke-width="0"><path d="M220.0424,204.59633l61.26965,-27.78246l3.33211,8.98009z" fill="url(#color-8)" stroke="none" stroke-linecap="butt"/><g fill="#ffffff" stroke="#ff0000" stroke-linecap="round"><path d="M298.51057,182.39119l-19.80629,7.46498l-12.64554,-2.25432l7.73916,-10.97169l19.80629,-7.46498l12.64555,2.25433z" data-paper-data="{&quot;index&quot;:null}"/><path d="M294.50765,181.5368l-13.71627,5.16965l-8.75732,-1.56118l5.35953,-7.59812l13.71626,-5.16965l8.75732,1.56118z" data-paper-data="{&quot;index&quot;:null}"/></g></g><g fill="#000000" stroke="none" stroke-linecap="butt"><path d="M231.90689,198.15567l-7.43456,-7.43456l19.74555,-19.74555l7.43456,7.43455z" stroke-width="0"/><g><path d="M203.19735,197.23745l-16.25478,-16.25478l7.99416,-7.99416l20.78479,11.72477z" stroke-width="0"/><path d="M221.71151,200.96601l-17.10475,-7.5576l14.6984,-14.69839l18.24626,6.41609z" data-paper-data="{&quot;index&quot;:null}" stroke-width="NaN"/><path d="M206.68874,215.98878l-8.23769,-23.42659l18.87144,-18.87144l9.70329,21.96099z" stroke-width="NaN"/></g><g data-paper-data="{&quot;index&quot;:null}"><path d="M237.76821,206.75998l11.72476,20.78479l-7.99416,7.99416l-16.25478,-16.25478z" stroke-width="0"/><path d="M237.35538,184.93007l6.41609,18.24627l-14.69839,14.6984l-7.55759,-17.10475z" data-paper-data="{&quot;index&quot;:null}" stroke-width="NaN"/><path d="M226.82975,195.45571l21.96099,9.70329l-18.87144,18.87144l-23.42659,-8.23769z" stroke-width="NaN"/></g></g><path d="M300.1998,158.69071c-0.37041,0.46064 -1.00886,0.29251 -1.00886,0.29251l-0.32254,-0.08846c-1.60359,-0.28526 -3.20166,-0.21361 -4.47975,-1.44249c-0.76792,-0.73835 -1.50557,-2.10542 -2.06915,-3.01485c-0.35772,-0.57725 -0.45476,-1.33862 -0.95191,-1.80124c-0.25434,-0.23667 -2.23793,-1.38239 -2.60484,-1.53406c-3.41881,-1.41325 -6.60579,0.60011 -10.07032,0.3502c-0.63995,-0.01739 -1.29978,0.10702 -1.91986,-0.0522c-2.50595,-0.64344 -4.47,-3.10363 -5.97282,-5.00708c-2.6824,-3.39748 -4.36075,-8.60768 -2.49139,-12.80275c0.67266,-1.50954 2.01196,-3.11199 3.2493,-4.19666c1.05124,-0.92154 2.39693,-1.32658 3.48699,-2.17831c0.84804,-0.66263 0.85605,-0.89925 1.55553,-1.93667c0.2094,-3.03296 -0.97566,-5.87678 -0.82719,-8.88725c0.10763,-2.18243 1.1472,-3.92669 2.30601,-5.69865c1.67826,-2.56626 4.01254,-6.25706 7.24418,-7.03967c1.49384,-0.36177 3.00165,-0.21039 4.48413,0.08693c0.91135,0.18277 1.77496,0.60957 2.55762,1.11095c3.05054,1.9953 5.87548,4.00283 7.88533,7.11064c0.54629,0.84471 1.80309,2.83804 2.01943,3.80853c0.33667,1.51024 -0.24449,2.33691 -0.6962,3.69281c-0.46513,1.39619 -1.02754,2.9123 -1.31786,4.35089c-0.53374,2.64481 -0.06997,5.54959 0.4187,8.1744c1.04437,2.36447 2.16172,4.54978 3.57418,6.7206c1.64821,2.53313 4.14028,5.35601 4.30532,8.53724c0.13848,2.66932 -1.3755,5.03356 -2.97413,7.04419c-1.35808,1.7081 -3.33957,2.83475 -5.00072,4.20376c0,0 -0.15338,0.12625 -0.37918,0.19672z" fill="url(#color-9)" stroke="none" stroke-width="0.5" stroke-linecap="butt"/></g></g></svg>