<svg version="1.1" xmlns="http://www.w3.org/2000/svg" xmlns:xlink="http://www.w3.org/1999/xlink" width="195.68462" height="224.84738" viewBox="0,0,195.68462,224.84738"><defs><radialGradient cx="163.83333" cy="224.66668" r="105.21607" gradientUnits="userSpaceOnUse" id="color-1"><stop offset="0" stop-color="#feb8ff"/><stop offset="1" stop-color="#ec5cff"/></radialGradient><radialGradient cx="252.74009" cy="185.22322" r="78.50307" gradientUnits="userSpaceOnUse" id="color-2"><stop offset="0" stop-color="#feb8ff"/><stop offset="1" stop-color="#feb8ff" stop-opacity="0"/></radialGradient><linearGradient x1="187.40956" y1="236.59044" x2="271.09044" y2="152.90956" gradientUnits="userSpaceOnUse" id="color-3"><stop offset="0" stop-color="#ffffff" stop-opacity="0"/><stop offset="1" stop-color="#ffffff"/></linearGradient></defs><g transform="translate(-142.15769,-67.57632)"><g data-paper-data="{&quot;isPaintingLayer&quot;:true}" fill-rule="nonzero" stroke-linejoin="miter" stroke-miterlimit="10" stroke-dasharray="" stroke-dashoffset="0" style="mix-blend-mode: normal"><path d="M148.40769,127.39297l91.59032,-52.60903l91.5943,52.60903v105.21408l-91.5943,52.60903l-91.59032,-52.60903z" fill="url(#color-1)" stroke="#000000" stroke-width="12.5" stroke-linecap="butt"/><path d="M275.49267,271.47251c-1.31034,1.4322 -3.36762,0.7476 -3.36762,0.7476l-1.03859,-0.3574c-5.1959,-1.27042 -10.44837,-1.36993 -14.38005,-5.66486c-2.36228,-2.58051 -4.49382,-7.21526 -6.15063,-10.31375c-1.05162,-1.9667 -1.21034,-4.48233 -2.74291,-6.10252c-0.78406,-0.82889 -7.04532,-4.99884 -8.21612,-5.57271c-10.90906,-5.34707 -21.77524,0.58471 -33.07757,-0.9592c-2.09373,-0.1909 -4.28228,0.07881 -6.28119,-0.57274c-8.07832,-2.63311 -14.00054,-11.10701 -18.52761,-17.65978c-8.08041,-11.69607 -12.49094,-29.12305 -5.48662,-42.48078c2.52041,-4.80661 7.24506,-9.77824 11.52725,-13.07426c3.63813,-2.80028 8.13322,-3.84623 11.88394,-6.4096c2.91798,-1.99425 2.99376,-2.76807 5.50326,-6.02177c1.32084,-9.89638 -1.96807,-19.46458 -0.8516,-29.29999c0.80937,-7.13013 4.58137,-12.62927 8.74996,-18.19419c6.03723,-8.0595 14.45977,-19.66728 25.21481,-21.55607c4.97157,-0.87311 9.88158,-0.0615 14.67803,1.2231c2.9486,0.7897 5.68967,2.36914 8.14987,4.17612c9.58031,7.17761 18.41873,14.34811 24.35556,24.95409c1.61367,2.88273 5.31563,9.67861 5.82162,12.90453c0.78742,5.02009 -1.29023,7.60779 -3.05434,11.95711c-1.81651,4.47854 -3.97695,9.32975 -5.22944,13.98381c-2.30264,8.55639 -1.39042,18.1735 -0.33803,26.87825c2.9281,7.96777 6.13286,15.36367 10.30786,22.7738c4.87183,8.6469 12.44869,18.41994 12.32399,28.88058c-0.10463,8.77737 -5.56119,16.20911 -11.22116,22.46426c-4.80833,5.31395 -11.53816,8.59185 -17.26882,12.73107c0,0 -0.52908,0.38167 -1.28386,0.56539z" fill="url(#color-2)" stroke="none" stroke-width="0.5" stroke-linecap="butt"/><path d="M221.23738,101.59397l3.40163,16.79971l-8.08567,19.2795l-17.91841,-10.75402l-9.62733,24.41135l8.94319,20.70244l-13.88068,6.90818l9.70297,-7.1561l-13.20179,-24.21975l15.04216,-24.74293l17.85905,4.80552l6.99956,-10.82167z" data-paper-data="{&quot;index&quot;:null}" fill="#feb8ff" stroke="#000000" stroke-width="0" stroke-linecap="round"/><path d="M212.03805,261.21893l-49.25698,-49.25698l83.68088,-83.68088l49.25698,49.25698z" fill="url(#color-3)" stroke="none" stroke-width="0" stroke-linecap="butt"/><g fill="#000000" stroke="none" stroke-linecap="butt"><path d="M284.37527,148.05868l-8.0786,-8.0786l21.45606,-21.45606l8.0786,8.07859z" stroke-width="0"/><g><path d="M253.17869,147.06092l-17.6629,-17.6629l8.68668,-8.68667l22.58533,12.74046z" stroke-width="0"/><path d="M273.29669,151.11248l-18.5865,-8.2123l15.97169,-15.97168l19.82689,6.9719z" data-paper-data="{&quot;index&quot;:null}" stroke-width="NaN"/><path d="M256.97254,167.43663l-8.9513,-25.45598l20.50623,-20.50623l10.54387,23.86342z" stroke-width="NaN"/></g><g data-paper-data="{&quot;index&quot;:null}"><path d="M290.74435,157.40836l12.74045,22.58533l-8.68667,8.68667l-17.66289,-17.6629z" stroke-width="0"/><path d="M290.29576,133.68738l6.9719,19.8269l-15.97168,15.97169l-8.21229,-18.5865z" data-paper-data="{&quot;index&quot;:null}" stroke-width="NaN"/><path d="M278.85832,145.12483l23.86342,10.54387l-20.50623,20.50623l-25.45598,-8.9513z" stroke-width="NaN"/></g></g><path d="M294,245.75l-13.5,-29l-33.5,-20l-15,36l-41.5,-26l-9.5,-41l-28.5,5h22.5l7,51l50,20.5l21.5,-27l22.5,8.5z" fill="#ffffff" stroke="#000000" stroke-width="0" stroke-linecap="round"/></g></g></svg>