<svg version="1.1" xmlns="http://www.w3.org/2000/svg" xmlns:xlink="http://www.w3.org/1999/xlink" width="195.68462" height="224.8474" viewBox="0,0,195.68462,224.8474"><defs><radialGradient cx="163.83333" cy="224.66669" r="105.21607" gradientUnits="userSpaceOnUse" id="color-1"><stop offset="0" stop-color="#feb8ff"/><stop offset="1" stop-color="#fc5cff"/></radialGradient><radialGradient cx="252.74009" cy="185.22323" r="78.50307" gradientUnits="userSpaceOnUse" id="color-2"><stop offset="0" stop-color="#feb8ff"/><stop offset="1" stop-color="#feb8ff" stop-opacity="0"/></radialGradient><linearGradient x1="307.64446" y1="111.52223" x2="203.35554" y2="215.81114" gradientUnits="userSpaceOnUse" id="color-3"><stop offset="0" stop-color="#feb8ff" stop-opacity="0"/><stop offset="1" stop-color="#feb8ff"/></linearGradient><linearGradient x1="142.14498" y1="282.17824" x2="256.04478" y2="168.27844" gradientUnits="userSpaceOnUse" id="color-4"><stop offset="0" stop-color="#ffffff" stop-opacity="0"/><stop offset="1" stop-color="#ffffff"/></linearGradient></defs><g transform="translate(-142.15769,-67.57631)"><g data-paper-data="{&quot;isPaintingLayer&quot;:true}" fill-rule="nonzero" stroke-linecap="butt" stroke-linejoin="miter" stroke-miterlimit="10" stroke-dasharray="" stroke-dashoffset="0" style="mix-blend-mode: normal"><path d="M148.40769,127.39298l91.59032,-52.60903l91.5943,52.60903v105.21408l-91.5943,52.60903l-91.59032,-52.60903z" fill="url(#color-1)" stroke="#000000" stroke-width="12.5"/><path d="M275.49267,271.47252c-1.31034,1.4322 -3.36762,0.7476 -3.36762,0.7476l-1.03859,-0.3574c-5.1959,-1.27042 -10.44837,-1.36993 -14.38005,-5.66486c-2.36228,-2.58051 -4.49382,-7.21526 -6.15063,-10.31375c-1.05162,-1.9667 -1.21034,-4.48233 -2.74291,-6.10252c-0.78406,-0.82889 -7.04532,-4.99884 -8.21612,-5.57271c-10.90906,-5.34707 -21.77524,0.58471 -33.07757,-0.9592c-2.09373,-0.1909 -4.28228,0.07881 -6.28119,-0.57274c-8.07832,-2.63311 -14.00054,-11.10701 -18.52761,-17.65978c-8.08041,-11.69607 -12.49094,-29.12305 -5.48662,-42.48078c2.52041,-4.80661 7.24506,-9.77824 11.52725,-13.07426c3.63813,-2.80028 8.13322,-3.84623 11.88394,-6.4096c2.91798,-1.99425 2.99376,-2.76807 5.50326,-6.02177c1.32084,-9.89638 -1.96807,-19.46458 -0.8516,-29.29999c0.80937,-7.13013 4.58137,-12.62927 8.74996,-18.19419c6.03723,-8.0595 14.45977,-19.66728 25.21481,-21.55607c4.97157,-0.87311 9.88158,-0.0615 14.67803,1.2231c2.9486,0.7897 5.68967,2.36914 8.14987,4.17612c9.58031,7.17761 18.41873,14.34811 24.35556,24.95409c1.61367,2.88273 5.31563,9.67861 5.82162,12.90453c0.78742,5.02009 -1.29023,7.60779 -3.05434,11.95711c-1.81651,4.47854 -3.97695,9.32975 -5.22944,13.98381c-2.30264,8.55639 -1.39042,18.1735 -0.33803,26.87825c2.9281,7.96777 6.13286,15.36367 10.30786,22.7738c4.87183,8.6469 12.44869,18.41994 12.32399,28.88058c-0.10463,8.77737 -5.56119,16.20911 -11.22116,22.46426c-4.80833,5.31395 -11.53816,8.59185 -17.26882,12.73107c0,0 -0.52908,0.38167 -1.28386,0.56539z" fill="url(#color-2)" stroke="none" stroke-width="0.5"/><path d="M274.82087,235.13103l-71.46434,-19.3189l-19.32087,-71.46631l52.14347,-52.14347l71.46631,19.32087l19.3189,71.46434z" fill="url(#color-3)" stroke="#000000" stroke-width="0"/><g fill="#feb3ff" stroke="none" stroke-width="0"><path d="M238.32276,227.66431h17.35448v54.54266h-17.35448z"/><path d="M274.27132,246.2584v17.35449h-54.54265v-17.35449z"/></g><path d="M146.70423,232.80597c0.21606,-1.54968 0.32777,-3.13277 0.32777,-4.74197c0,-5.20808 -1.17003,-10.14291 -3.26157,-14.55594l78.752,-78.752l67.04471,67.04471l-72.50825,72.50825c-4.80598,-12.96151 -17.28203,-22.19856 -31.9155,-22.19856c-3.72408,0 -7.30844,0.59824 -10.66222,1.70388c-4.61089,-11.33434 -15.1554,-19.62267 -27.77694,-21.00838z" fill="url(#color-4)" stroke="none" stroke-width="0"/><g fill="#000000" stroke="none"><path d="M274.12704,161.6758l-10.99595,-10.99595l29.20429,-29.20429l10.99595,10.99594z" stroke-width="0"/><g><path d="M231.66472,160.31773l-24.04134,-24.04134l11.82362,-11.82361l30.74137,17.34131z" stroke-width="0"/><path d="M259.04775,165.83239l-25.29847,-11.17793l21.7394,-21.73939l26.9868,9.4896z" data-paper-data="{&quot;index&quot;:null}" stroke-width="NaN"/><path d="M236.82861,188.05154l-12.1838,-34.64867l27.91146,-27.91146l14.35148,32.481z" stroke-width="NaN"/></g><g data-paper-data="{&quot;index&quot;:null}"><path d="M282.79613,174.40185l17.34129,30.74137l-11.82361,11.82361l-24.04133,-24.04134z" stroke-width="0"/><path d="M282.18554,142.11472l9.4896,26.98681l-21.73939,21.7394l-11.17792,-25.29847z" data-paper-data="{&quot;index&quot;:null}" stroke-width="NaN"/><path d="M266.6178,157.68248l32.481,14.35148l-27.91146,27.91146l-34.64867,-12.1838z" stroke-width="NaN"/></g></g><g fill="#fec3ff" stroke="none" stroke-width="0"><path d="M210.00458,184.66431h8.65751v27.20932h-8.65751z"/><path d="M227.93799,193.94021v8.65751h-27.20932v-8.65751z"/></g><g fill="#fea7ff" stroke="none" stroke-width="0"><path d="M161.97427,161.99764h12.05145v37.87599h-12.05145z"/><path d="M186.93799,174.90991v12.05146h-37.87599v-12.05146z"/></g><path d="M148.40769,127.39296l91.59032,-52.60903l91.5943,52.60903v105.21408l-91.5943,52.60903l-91.59032,-52.60903z" fill="none" stroke="#000000" stroke-width="12.5"/></g></g></svg>