<svg version="1.1" xmlns="http://www.w3.org/2000/svg" xmlns:xlink="http://www.w3.org/1999/xlink" width="195.68462" height="224.8474" viewBox="0,0,195.68462,224.8474"><defs><radialGradient cx="163.83333" cy="224.66669" r="105.21607" gradientUnits="userSpaceOnUse" id="color-1"><stop offset="0" stop-color="#ff5f00"/><stop offset="1" stop-color="#d41400"/></radialGradient><radialGradient cx="248.65555" cy="243.82856" r="28.18594" gradientUnits="userSpaceOnUse" id="color-2"><stop offset="0" stop-color="#ff9b00"/><stop offset="1" stop-color="#ff9b00" stop-opacity="0"/></radialGradient><radialGradient cx="248.65555" cy="243.82856" r="16.24454" gradientUnits="userSpaceOnUse" id="color-3"><stop offset="0" stop-color="#ff9b00"/><stop offset="1" stop-color="#ff9b00" stop-opacity="0"/></radialGradient><radialGradient cx="221.94408" cy="162.09035" r="50.33578" gradientUnits="userSpaceOnUse" id="color-4"><stop offset="0" stop-color="#ff5f00"/><stop offset="1" stop-color="#ff5f00" stop-opacity="0"/></radialGradient><radialGradient cx="244.39541" cy="176.08791" r="76.9432" gradientUnits="userSpaceOnUse" id="color-5"><stop offset="0" stop-color="#ff5f00"/><stop offset="1" stop-color="#ff5f00" stop-opacity="0"/></radialGradient><radialGradient cx="265.99998" cy="155.00002" r="52.60149" gradientUnits="userSpaceOnUse" id="color-6"><stop offset="0" stop-color="#ffc76c"/><stop offset="1" stop-color="#ffc76c" stop-opacity="0"/></radialGradient><linearGradient x1="-104.35894" y1="528.58651" x2="278.75573" y2="145.47183" gradientUnits="userSpaceOnUse" id="color-7"><stop offset="0" stop-color="#000000" stop-opacity="0"/><stop offset="1" stop-color="#000000"/></linearGradient><radialGradient cx="193.81933" cy="222.72112" r="51.04555" gradientUnits="userSpaceOnUse" id="color-8"><stop offset="0" stop-color="#ff7b00"/><stop offset="1" stop-color="#ff7b00" stop-opacity="0"/></radialGradient><radialGradient cx="193.81933" cy="222.72112" r="29.41932" gradientUnits="userSpaceOnUse" id="color-9"><stop offset="0" stop-color="#ffffff"/><stop offset="1" stop-color="#ffffff" stop-opacity="0"/></radialGradient></defs><g transform="translate(-142.15769,-67.57631)"><g data-paper-data="{&quot;isPaintingLayer&quot;:true}" fill-rule="nonzero" stroke-linejoin="miter" stroke-miterlimit="10" stroke-dasharray="" stroke-dashoffset="0" style="mix-blend-mode: normal"><path d="M148.40769,127.39298l91.59032,-52.60903l91.5943,52.60903v105.21408l-91.5943,52.60903l-91.59032,-52.60903z" fill="url(#color-1)" stroke="#000000" stroke-width="12.5" stroke-linecap="butt"/><g><path d="M268.58602,223.89809c3.56877,3.56877 -2.46135,15.38502 -13.46863,26.39231c-11.0073,11.0073 -22.82354,17.03741 -26.39231,13.46863c-3.56877,-3.56877 2.46135,-15.38502 13.46863,-26.39231c11.0073,-11.0073 22.82354,-17.03741 26.39231,-13.46863z" fill="url(#color-2)" stroke="none" stroke-width="0" stroke-linecap="butt"/><path d="M260.14217,232.34194c2.0568,2.0568 -1.41855,8.86691 -7.76244,15.2108c-6.34389,6.34389 -13.15398,9.81923 -15.21079,7.76243c-2.0568,-2.0568 1.41856,-8.86691 7.76243,-15.21079c6.34389,-6.34389 13.15399,-9.81925 15.2108,-7.76244z" fill="url(#color-3)" stroke="none" stroke-width="0" stroke-linecap="butt"/><g fill="#000000" stroke="none" stroke-linecap="butt"><path d="M260.69467,244.10341l-12.31396,-12.31396l33.09378,-33.09378l12.31396,12.31396z" stroke-width="NaN"/><g><path d="M282.6289,222.16916l-12.31396,-12.31396l7.36639,-7.36639l12.31396,12.31396z" data-paper-data="{&quot;index&quot;:null}" stroke-width="NaN"/><path d="M269.43538,235.36271l-12.31396,-12.31396l7.36639,-7.36639l12.31396,12.31396z" stroke-width="NaN"/></g></g><g fill="#000000" stroke="#000000" stroke-width="0" stroke-linecap="round"><path d="M253.2733,228.73844l-6.67923,6.84415l-7.91612,-3.13346l5.11249,-5.11249z"/><path d="M265.14748,248.69367l-5.11249,5.11249l-3.13347,-7.91612l6.84415,-6.67923z" data-paper-data="{&quot;index&quot;:null}"/></g><path d="M291.58953,216.28703l-4.17794,1.09947l-12.31396,-12.31396l1.09947,-4.17794l13.96315,-13.96315l4.3036,-0.97381l12.12549,12.12549l-1.03664,4.24077z" fill="#000000" stroke="none" stroke-width="NaN" stroke-linecap="butt"/><path d="M258.18348,249.69307l-3.75575,0.67728l-12.31396,-12.31396l0.67728,-3.75575l11.72905,-11.72905l3.88141,-0.55162l12.12549,12.12549l-0.61445,3.81858z" fill="#000000" stroke="none" stroke-width="NaN" stroke-linecap="butt"/><path d="M308.92864,190.57649l-10.56169,10.67059l-8.81956,2.28654l1.74467,-9.36254l10.56169,-10.67056l8.81955,-2.28656z" data-paper-data="{&quot;index&quot;:null}" fill="#000000" stroke="#ff0000" stroke-width="0" stroke-linecap="round"/><path d="M306.09521,191.20952l-7.31419,7.38961l-6.10772,1.58347l1.20821,-6.48375l7.31419,-7.38958l6.10772,-1.58347z" data-paper-data="{&quot;index&quot;:null}" fill="#000000" stroke="#ff0000" stroke-width="0" stroke-linecap="round"/></g><g fill="#511300"><path d="M151.74925,193.65363c2.24083,2.24083 -0.71816,8.9494 -6.71699,15.89317c-0.22761,-1.71842 -0.62976,-3.38175 -1.18805,-4.97159c1.54262,-3.24732 2.40579,-6.87997 2.40579,-10.71422c0,-0.07185 -0.0003,-0.14363 -0.00091,-0.21534c2.50179,-0.9536 4.47161,-1.02056 5.50015,0.00798z" stroke="none" stroke-width="0" stroke-linecap="butt"/><path d="M145.6038,199.79908c0.92902,0.92902 0.30728,3.19047 -1.40184,5.87632c-0.11097,-0.37042 -0.23029,-0.73722 -0.35775,-1.10019c0.72645,-1.52921 1.30221,-3.14388 1.70812,-4.82481c0.01759,0.01572 0.03475,0.03195 0.05147,0.04868z" stroke="none" stroke-width="0" stroke-linecap="butt"/><g stroke="none" stroke-linecap="butt"><path d="M146.00591,208.3591l-1.47484,-1.47484c-0.19254,-0.7849 -0.42215,-1.55523 -0.68687,-2.30904c1.54262,-3.24732 2.40579,-6.87997 2.40579,-10.71422c0,-1.1657 -0.07978,-2.31277 -0.23419,-3.43604l15.11368,-15.11368l8.96212,8.96212z" stroke-width="NaN"/><g><path d="M161.96968,192.39531l-8.96212,-8.96212l5.36127,-5.36127l8.96212,8.96212z" data-paper-data="{&quot;index&quot;:null}" stroke-width="NaN"/><path d="M152.36741,201.9976l-6.19193,-6.19193c0.04937,-0.64174 0.07452,-1.29027 0.07452,-1.94468c0,-1.1657 -0.07978,-2.31277 -0.23419,-3.43604l2.75074,-2.75074l8.96212,8.96212z" stroke-width="NaN"/></g></g><g stroke="#000000" stroke-width="0" stroke-linecap="round"><path d=""/><path d="M149.24667,211.69989l-3.72088,3.72088l-0.33379,-0.84327c0.03846,-0.56719 0.058,-1.13957 0.058,-1.71651c0,-1.61474 -0.15309,-3.19372 -0.44554,-4.72322l3.42197,-3.33951z" data-paper-data="{&quot;index&quot;:null}"/></g><path d="M168.49124,188.11429l-3.04072,0.8002l-8.96212,-8.96212l0.8002,-3.04071l10.16241,-10.16241l3.13216,-0.70874l8.82495,8.82495l-0.75447,3.08644z" stroke="none" stroke-width="NaN" stroke-linecap="butt"/><path d="M153.16189,201.11168l-0.44719,2.77917l-7.50681,7.5068c-0.13729,-2.37858 -0.60711,-4.66798 -1.36368,-6.82244c1.49741,-3.15216 2.35462,-6.66738 2.40357,-10.37764z" stroke="none" stroke-width="NaN" stroke-linecap="butt"/><path d="M181.11067,169.40212l-7.68681,7.76607l-6.41889,1.66415l1.26977,-6.81407l7.68681,-7.76605l6.41888,-1.66416z" data-paper-data="{&quot;index&quot;:null}" stroke="#ff0000" stroke-width="0" stroke-linecap="round"/><path d="M179.04849,169.86284l-5.32328,5.37817l-4.44521,1.15246l0.87934,-4.71888l5.32328,-5.37815l4.44521,-1.15245z" data-paper-data="{&quot;index&quot;:null}" stroke="#ff0000" stroke-width="0" stroke-linecap="round"/></g><path d="M234.34787,217.92367c-0.87563,0.88459 -2.17647,0.39411 -2.17647,0.39411l-0.65641,-0.25517c-3.29699,-0.94491 -6.65974,-1.14105 -9.07052,-3.9919c-1.44846,-1.71287 -2.69734,-4.73607 -3.68076,-6.76304c-0.62421,-1.28657 -0.66249,-2.90233 -1.60358,-3.97902c-0.48145,-0.55083 -4.38794,-3.38031 -5.12362,-3.7775c-6.85466,-3.70082 -13.96612,-0.17419 -21.16861,-1.44823c-1.33664,-0.17508 -2.74564,-0.05743 -4.00992,-0.52526c-5.10941,-1.89063 -8.69021,-7.46913 -11.42555,-11.78158c-4.88233,-7.69732 -7.26893,-18.97394 -2.44461,-27.35569c1.73597,-3.01606 4.88835,-6.08232 7.71502,-8.08615c2.40153,-1.70245 5.30789,-2.25929 7.77558,-3.80711c1.91981,-1.20417 1.98787,-1.69805 3.67771,-3.71945c1.09569,-6.30731 -0.77036,-12.52054 0.19285,-18.79395c0.69827,-4.54787 3.25358,-7.9761 6.06465,-11.43648c4.07118,-5.01156 9.76005,-12.23638 16.69841,-13.17546c3.20729,-0.43409 6.33268,0.20964 9.37338,1.15357c1.86926,0.58027 3.58566,1.6613 5.11637,2.88105c5.9572,4.84015 11.43924,9.65704 14.97566,16.6019c0.96121,1.88763 3.16179,6.33506 3.40467,8.41465c0.37797,3.23622 -1.0184,4.8418 -2.25827,7.58394c-1.27671,2.82362 -2.78317,5.87732 -3.70293,8.82762c-1.69095,5.42404 -1.34887,11.60871 -0.894,17.21236c1.67521,5.17874 3.54209,9.99806 6.03026,14.85095c2.90345,5.66284 7.51161,12.11539 7.16808,18.81438c-0.28826,5.62101 -3.97157,10.24501 -7.75557,14.11002c-3.21463,3.28346 -7.60905,5.21399 -11.38499,7.72155c0,0 -0.3486,0.2312 -0.83682,0.32989z" data-paper-data="{&quot;index&quot;:null}" fill="url(#color-4)" stroke="none" stroke-width="0.5" stroke-linecap="butt"/><path d="M328.7604,153.15084c1.41339,1.27367 0.75761,3.29507 0.75761,3.29507l-0.34263,1.02056c-1.20675,5.1019 -1.2655,10.25059 -5.4459,14.13578c-2.51171,2.33432 -7.03847,4.45771 -10.06309,6.10444c-1.9198,1.04523 -4.3842,1.21937 -5.96083,2.73342c-0.8066,0.77458 -4.84731,6.94206 -5.40112,8.09381c-5.16009,10.73149 0.73396,21.33763 -0.69573,32.42648c-0.17164,2.05348 0.10888,4.19648 -0.51494,6.16043c-2.52104,7.93702 -10.78259,13.80402 -17.17151,18.28943c-11.40364,8.00603 -28.45128,12.45757 -41.59495,5.69131c-4.72958,-2.43475 -9.63722,-7.02864 -12.89928,-11.20129c-2.77145,-3.54505 -3.82977,-7.94297 -6.36986,-11.60012c-1.97613,-2.84519 -2.73512,-2.91374 -5.94261,-5.34928c-9.7092,-1.22145 -19.06271,2.07271 -28.71068,1.05113c-6.99424,-0.74059 -12.41182,-4.39691 -17.89682,-8.44143c-7.94373,-5.85756 -19.38278,-14.02674 -21.31344,-24.55383c-0.89246,-4.8662 -0.13329,-9.68451 1.09032,-14.395c0.75221,-2.89576 2.27995,-5.59396 4.03282,-8.01857c6.96401,-9.44272 13.92654,-18.15823 24.2776,-24.0553c2.81344,-1.60284 9.44675,-5.28138 12.60474,-5.80113c4.9144,-0.80883 7.46596,1.20835 11.74177,2.90522c4.40286,1.74728 9.17348,3.82888 13.7442,5.02206c8.40315,2.19359 17.82217,1.22847 26.34592,0.13271c7.78759,-2.92869 15.01265,-6.12433 22.24449,-10.271c8.43884,-4.83878 17.96145,-12.33706 28.21487,-12.29215c8.60347,0.0377 15.92766,5.33077 22.10017,10.83192c5.24374,4.67339 8.50612,11.24511 12.60532,16.83114c0,0 0.37798,0.51574 0.56363,1.25415z" data-paper-data="{&quot;index&quot;:null}" fill="url(#color-5)" stroke="none" stroke-width="0.5" stroke-linecap="butt"/><path d="M221.30962,125.63185l47.88497,-23.80548l44.69145,29.36893l-3.19543,53.17227l-47.88698,23.80537l-44.68942,-29.3688z" fill="url(#color-6)" stroke="#000000" stroke-width="0" stroke-linecap="butt"/><path d="" fill="url(#color-7)" stroke="none" stroke-width="0" stroke-linecap="butt"/><g><path d="M229.91398,186.62647c6.46315,6.46315 -4.45757,27.86271 -24.39208,47.79723c-9.3702,9.3702 -19.06409,16.74883 -27.37829,21.26662c-3.32866,-7.56438 -10.29643,-13.16598 -18.6863,-14.58781c4.30285,-8.87167 12.25292,-19.67745 22.65944,-30.08396c19.93454,-19.93454 41.33408,-30.85523 47.79723,-24.39208z" fill="url(#color-8)" stroke="none" stroke-width="0" stroke-linecap="butt"/><path d="M214.62193,201.91852c3.72493,3.72493 -2.56904,16.05824 -14.058,27.5472c-11.48896,11.48896 -23.82224,17.78292 -27.54717,14.05798c-3.72493,-3.72493 2.56905,-16.05824 14.05798,-27.54717c11.48896,-11.48896 23.82226,-17.78294 27.54719,-14.05801z" fill="url(#color-9)" stroke="none" stroke-width="0" stroke-linecap="butt"/><g fill="#000000" stroke="none" stroke-linecap="butt"><path d="M215.62254,223.21888l-22.30094,-22.30094l59.93379,-59.93378l22.30093,22.30093z" stroke-width="NaN"/><g><path d="M255.34605,183.49532l-22.30094,-22.30093l13.34074,-13.34074l22.30093,22.30093z" data-paper-data="{&quot;index&quot;:null}" stroke-width="NaN"/><path d="M231.4522,207.38922l-22.30094,-22.30094l13.34074,-13.34074l22.30094,22.30094z" stroke-width="NaN"/></g></g><g fill="#000000" stroke="#000000" stroke-width="0" stroke-linecap="round"><path d="M202.18221,195.39249l-12.09627,12.39495l-14.33632,-5.67479l9.25887,-9.25887z"/><path d="M223.68669,231.53197l-9.25887,9.25887l-5.6748,-14.33632l12.39495,-12.09628z" data-paper-data="{&quot;index&quot;:null}"/></g><path d="M271.574,172.84263l-7.56638,1.99117l-22.30094,-22.30094l1.99118,-7.56638l25.28767,-25.28767l7.79394,-1.7636l21.95961,21.95961l-1.87738,7.68016z" fill="#000000" stroke="none" stroke-width="NaN" stroke-linecap="butt"/><path d="M211.0747,233.34193l-6.80177,1.22657l-22.30094,-22.30093l1.22657,-6.80178l21.24165,-21.24165l7.02934,-0.999l21.95961,21.95961l-1.11278,6.91556z" fill="#000000" stroke="none" stroke-width="NaN" stroke-linecap="butt"/><path d="M302.97564,126.28009l-19.12752,19.32474l-15.97248,4.141l3.15965,-16.95583l19.12752,-19.3247l15.97245,-4.14102z" data-paper-data="{&quot;index&quot;:null}" fill="#ffcf00" stroke="#ff0000" stroke-width="0" stroke-linecap="round"/><path d="M297.84421,127.42654l-13.24621,13.38279l-11.06126,2.86772l2.18811,-11.74226l13.24621,-13.38274l11.06126,-2.86772z" data-paper-data="{&quot;index&quot;:null}" fill="#ffffff" stroke="#ff0000" stroke-width="0" stroke-linecap="round"/></g><path d="M324.14802,123.11718l7.44429,4.27578v105.21408l-91.5943,52.60903l-91.59032,-52.60903v-105.21408l91.59032,-52.60903l41.58654,23.88606" fill="none" stroke="#000000" stroke-width="12.5" stroke-linecap="butt"/></g></g></svg>