<svg version="1.1" xmlns="http://www.w3.org/2000/svg" xmlns:xlink="http://www.w3.org/1999/xlink" width="195.68462" height="224.84741" viewBox="0,0,195.68462,224.84741"><defs><radialGradient cx="163.83333" cy="224.66669" r="105.21607" gradientUnits="userSpaceOnUse" id="color-1"><stop offset="0" stop-color="#feb8ff"/><stop offset="1" stop-color="#fc5cff"/></radialGradient><radialGradient cx="252.74009" cy="185.22323" r="78.50307" gradientUnits="userSpaceOnUse" id="color-2"><stop offset="0" stop-color="#feb8ff"/><stop offset="1" stop-color="#feb8ff" stop-opacity="0"/></radialGradient><linearGradient x1="276.15892" y1="142.3411" x2="190.84108" y2="227.65893" gradientUnits="userSpaceOnUse" id="color-3"><stop offset="0" stop-color="#feb8ff"/><stop offset="1" stop-color="#feb8ff" stop-opacity="0"/></linearGradient><linearGradient x1="146.90956" y1="272.09045" x2="230.59044" y2="188.40957" gradientUnits="userSpaceOnUse" id="color-4"><stop offset="0" stop-color="#ffffff" stop-opacity="0"/><stop offset="1" stop-color="#ffffff"/></linearGradient><linearGradient x1="276.15891" y1="142.3411" x2="190.84109" y2="227.65893" gradientUnits="userSpaceOnUse" id="color-5"><stop offset="0" stop-color="#ffffff"/><stop offset="1" stop-color="#ffffff" stop-opacity="0"/></linearGradient></defs><g transform="translate(-142.15769,-67.57631)"><g data-paper-data="{&quot;isPaintingLayer&quot;:true}" fill-rule="nonzero" stroke-linecap="butt" stroke-linejoin="miter" stroke-miterlimit="10" stroke-dasharray="" stroke-dashoffset="0" style="mix-blend-mode: normal"><path d="M148.40769,127.39298l91.59032,-52.60903l91.5943,52.60903v105.21408l-91.5943,52.60903l-91.59032,-52.60903z" fill="url(#color-1)" stroke="#000000" stroke-width="12.5"/><path d="M275.49267,271.47252c-1.31034,1.4322 -3.36762,0.7476 -3.36762,0.7476l-1.03859,-0.3574c-5.1959,-1.27042 -10.44837,-1.36993 -14.38005,-5.66486c-2.36228,-2.58051 -4.49382,-7.21526 -6.15063,-10.31375c-1.05162,-1.9667 -1.21034,-4.48233 -2.74291,-6.10252c-0.78406,-0.82889 -7.04532,-4.99884 -8.21612,-5.57271c-10.90906,-5.34707 -21.77524,0.58471 -33.07757,-0.9592c-2.09373,-0.1909 -4.28228,0.07881 -6.28119,-0.57274c-8.07832,-2.63311 -14.00054,-11.10701 -18.52761,-17.65978c-8.08041,-11.69607 -12.49094,-29.12305 -5.48662,-42.48078c2.52041,-4.80661 7.24506,-9.77824 11.52725,-13.07426c3.63813,-2.80028 8.13322,-3.84623 11.88394,-6.4096c2.91798,-1.99425 2.99376,-2.76807 5.50326,-6.02177c1.32084,-9.89638 -1.96807,-19.46458 -0.8516,-29.29999c0.80937,-7.13013 4.58137,-12.62927 8.74996,-18.19419c6.03723,-8.0595 14.45977,-19.66728 25.21481,-21.55607c4.97157,-0.87311 9.88158,-0.0615 14.67803,1.2231c2.9486,0.7897 5.68967,2.36914 8.14987,4.17612c9.58031,7.17761 18.41873,14.34811 24.35556,24.95409c1.61367,2.88273 5.31563,9.67861 5.82162,12.90453c0.78742,5.02009 -1.29023,7.60779 -3.05434,11.95711c-1.81651,4.47854 -3.97695,9.32975 -5.22944,13.98381c-2.30264,8.55639 -1.39042,18.1735 -0.33803,26.87825c2.9281,7.96777 6.13286,15.36367 10.30786,22.7738c4.87183,8.6469 12.44869,18.41994 12.32399,28.88058c-0.10463,8.77737 -5.56119,16.20911 -11.22116,22.46426c-4.80833,5.31395 -11.53816,8.59185 -17.26882,12.73107c0,0 -0.52908,0.38167 -1.28386,0.56539z" fill="url(#color-2)" stroke="none" stroke-width="0.5"/><path d="M249.30623,243.46436l-58.46434,-15.80462l-15.80623,-58.46595l42.65811,-42.65811l58.46595,15.80623l15.80462,58.46434z" fill="url(#color-3)" stroke="#000000" stroke-width="0"/><path d="M150.25919,235.81721c0.15874,-1.13853 0.24081,-2.30161 0.24081,-3.48387c0,-3.82632 -0.85961,-7.45188 -2.39624,-10.69408l57.85819,-57.85819l49.25698,49.25698l-53.27098,53.27098c-3.5309,-9.52267 -12.69691,-16.30903 -23.44795,-16.30903c-2.73604,0 -5.36943,0.43952 -7.83341,1.25182c-3.38757,-8.32721 -11.1345,-14.41655 -20.4074,-15.43462z" fill="url(#color-4)" stroke="none" stroke-width="0"/><g fill="#000000" stroke="none"><path d="M243.87527,183.55869l-8.0786,-8.0786l21.45606,-21.45606l8.0786,8.07859z" stroke-width="0"/><g><path d="M212.67869,182.56093l-17.6629,-17.6629l8.68668,-8.68667l22.58533,12.74046z" stroke-width="0"/><path d="M232.79669,186.61249l-18.5865,-8.2123l15.97169,-15.97168l19.82689,6.9719z" data-paper-data="{&quot;index&quot;:null}" stroke-width="NaN"/><path d="M216.47254,202.93664l-8.9513,-25.45598l20.50623,-20.50623l10.54387,23.86342z" stroke-width="NaN"/></g><g data-paper-data="{&quot;index&quot;:null}"><path d="M250.24435,192.90837l12.74045,22.58533l-8.68667,8.68667l-17.66289,-17.6629z" stroke-width="0"/><path d="M249.79576,169.18739l6.9719,19.8269l-15.97168,15.97169l-8.21229,-18.5865z" data-paper-data="{&quot;index&quot;:null}" stroke-width="NaN"/><path d="M238.35832,180.62484l23.86342,10.54387l-20.50623,20.50623l-25.45598,-8.9513z" stroke-width="NaN"/></g></g><path d="M249.30623,243.46436l-58.46434,-15.80462l-15.80623,-58.46595l42.65811,-42.65811l58.46595,15.80623l15.80462,58.46434z" fill="none" stroke="url(#color-5)" stroke-width="7.5"/><path d="M148.40769,127.39296l91.59032,-52.60903l91.5943,52.60903v105.21408l-91.5943,52.60903l-91.59032,-52.60903z" fill="none" stroke="#000000" stroke-width="12.5"/></g></g></svg>