<svg version="1.1" xmlns="http://www.w3.org/2000/svg" xmlns:xlink="http://www.w3.org/1999/xlink" width="195.68462" height="224.84742" viewBox="0,0,195.68462,224.84742"><defs><radialGradient cx="163.83333" cy="224.66671" r="105.21607" gradientUnits="userSpaceOnUse" id="color-1"><stop offset="0" stop-color="#c3ffb8"/><stop offset="1" stop-color="#00ff5f"/></radialGradient><radialGradient cx="236.55634" cy="192.61954" r="71.19331" gradientUnits="userSpaceOnUse" id="color-2"><stop offset="0" stop-color="#c3ffb8"/><stop offset="1" stop-color="#c3ffb8" stop-opacity="0"/></radialGradient></defs><g transform="translate(-142.15769,-67.57631)"><g data-paper-data="{&quot;isPaintingLayer&quot;:true}" fill-rule="nonzero" stroke-linejoin="miter" stroke-miterlimit="10" stroke-dasharray="" stroke-dashoffset="0" style="mix-blend-mode: normal"><path d="M148.40769,127.393l91.59032,-52.60903l91.5943,52.60903v105.21408l-91.5943,52.60903l-91.59032,-52.60903z" fill="url(#color-1)" stroke="#000000" stroke-width="12.5" stroke-linecap="butt"/><path d="M155.88967,186.55789c-0.83916,-1.54755 0.35733,-3.10792 0.35733,-3.10792l0.61414,-0.78423c2.62884,-4.07682 4.27084,-8.54916 9.11724,-10.64603c2.91186,-1.25987 7.516,-1.71312 10.66273,-2.21484c1.99731,-0.31843 4.20048,0.29111 6.04335,-0.54224c0.9428,-0.42633 6.37254,-4.55691 7.2114,-5.3903c7.81614,-7.76525 5.95261,-18.83659 10.62567,-28.0661c0.78415,-1.73793 1.20163,-3.69365 2.35252,-5.21377c4.65106,-6.14342 13.66917,-8.70779 20.62721,-10.64577c12.41944,-3.45914 28.6631,-2.07433 38.03591,7.88796c3.37269,3.58481 6.23352,9.10774 7.78933,13.75482c1.32182,3.94815 0.88604,8.11083 1.97143,12.08526c0.84442,3.09202 1.48519,3.38632 3.53012,6.50152c8.09059,4.06518 17.26616,4.08212 25.36508,7.95405c5.87127,2.80694 9.46657,7.66971 13.0007,12.8919c5.11838,7.56312 12.57099,18.2223 11.00227,28.00012c-0.72514,4.51985 -2.876,8.48761 -5.39859,12.21786c-1.55075,2.29317 -3.71687,4.17437 -5.99477,5.74743c-8.99126,6.08387 -17.75656,11.53398 -28.60637,13.47895c-2.94902,0.52867 -9.87088,1.68742 -12.78574,1.16499c-4.53604,-0.81297 -6.13815,-3.36064 -9.34305,-6.16169c-3.30013,-2.88426 -6.81772,-6.17376 -10.43545,-8.62663c-6.65113,-4.50951 -15.1642,-6.57798 -22.93685,-8.25591c-7.69692,0.14815 -14.98568,0.70291 -22.5742,2.08503c-8.85506,1.61282 -19.47707,5.2103 -28.4058,2.0031c-7.49197,-2.69111 -12.24442,-9.57049 -15.92812,-16.2755c-3.12942,-5.69611 -3.94429,-12.43568 -5.7935,-18.57414c0,0 -0.17031,-0.56659 -0.10407,-1.26796z" fill="url(#color-2)" stroke="none" stroke-width="0.5" stroke-linecap="butt"/><g fill="#000000" stroke="none" stroke-linecap="butt"><path d="M244.43134,178.9595h-8.69139v-23.08357l8.69138,0z" stroke-width="0"/><g><path d="M227.11314,195.20426h-19.00269v-9.34559l19.00269,-5.29582z" stroke-width="0"/><path d="M240.11459,186.56168l-14.41579,5.58056l0,-17.18319l14.41579,-6.91504z" data-paper-data="{&quot;index&quot;:null}" stroke-width="NaN"/><path d="M240.11459,204.12408l-18.50859,-8.87831v-22.0617l18.5086,7.16494z" stroke-width="NaN"/></g><g data-paper-data="{&quot;index&quot;:null}"><path d="M252.88687,180.56284l19.00268,5.29583v9.34558h-19.00269z" stroke-width="0"/><path d="M239.88541,168.044l14.41579,6.91505l0.00001,17.1832l-14.41578,-5.58057z" data-paper-data="{&quot;index&quot;:null}" stroke-width="NaN"/><path d="M239.88542,180.34902l18.50859,-7.16494v22.0617l-18.50859,8.8783z" stroke-width="NaN"/></g></g><path d="M148.40769,127.39296l91.59032,-52.60903l91.5943,52.60903v105.21408l-91.5943,52.60903l-91.59032,-52.60903z" fill="none" stroke="#000000" stroke-width="12.5" stroke-linecap="butt"/><g><g><g><g data-paper-data="{&quot;index&quot;:null}" fill="#000000" stroke="none" stroke-width="0" stroke-linecap="butt"><path d="M251.1401,127.65157l-11.02289,6.89451l-0.00001,-26.18556l11.02292,6.6293z"/><path d="M229.94215,114.98977l11.02292,-6.6293l0,26.18553l-11.02292,-6.89449z" data-paper-data="{&quot;index&quot;:null}"/></g><path d="M240.53867,134.40165l-10.75133,-6.6556l-0.08533,-12.96988l10.83667,-6.65559l11.09265,6.82625l0,12.71389z" fill="#000000" stroke="#000000" stroke-width="2.5" stroke-linecap="round"/><g fill="#000000" stroke="none" stroke-width="0" stroke-linecap="butt"><path d="M244.66692,123.67268l-4.16025,2.6021l-0.00001,-9.88292l4.16025,2.50202z"/><path d="M236.66642,118.89388l4.16026,-2.50203v9.8829l-4.16026,-2.6021z" data-paper-data="{&quot;index&quot;:null}"/></g><path d="M240.60818,127.33791l-4.91284,-3.04127l-0.03899,-5.9266l4.95184,-3.04127l5.06881,3.11927v5.80963z" fill="#c3ffb8" stroke="#000000" stroke-width="1.5" stroke-linecap="round"/></g><g data-paper-data="{&quot;index&quot;:null}"><g data-paper-data="{&quot;index&quot;:null}" fill="#000000" stroke="none" stroke-width="0" stroke-linecap="butt"><path d="M228.8599,232.34843l11.02289,-6.89451l0.00002,26.18555l-11.02292,-6.62929z"/><path d="M250.05785,245.01024l-11.02291,6.62929v-26.18553l11.02291,6.89449z" data-paper-data="{&quot;index&quot;:null}"/></g><path d="M239.46133,225.59835l10.75134,6.6556l0.08533,12.96987l-10.83668,6.6556l-11.09265,-6.82625l0,-12.71389z" fill="#000000" stroke="#000000" stroke-width="2.5" stroke-linecap="round"/><g fill="#000000" stroke="none" stroke-width="0" stroke-linecap="butt"><path d="M235.33308,236.32733l4.16025,-2.6021l0.00001,9.88291l-4.16025,-2.50202z"/><path d="M243.33358,241.10612l-4.16025,2.50203l0,-9.8829l4.16025,2.60211z" data-paper-data="{&quot;index&quot;:null}"/></g><path d="M239.39182,232.66209l4.91284,3.04128l0.03899,5.92661l-4.95183,3.04127l-5.06882,-3.11928l0,-5.80963z" fill="#c3ffb8" stroke="#000000" stroke-width="1.5" stroke-linecap="round"/></g></g><g><g><g data-paper-data="{&quot;index&quot;:null}" fill="#000000" stroke="none" stroke-width="0" stroke-linecap="butt"><path d="M187.65157,168.8599l6.8945,11.02289l-26.18555,0.00002l6.62929,-11.02292z"/><path d="M174.98977,190.05785l-6.6293,-11.02292h26.18553l-6.89448,11.02292z" data-paper-data="{&quot;index&quot;:null}"/></g><path d="M194.40165,179.46133l-6.6556,10.75133l-12.96988,0.08533l-6.65559,-10.83667l6.82625,-11.09265h12.71389z" fill="#000000" stroke="#000000" stroke-width="2.5" stroke-linecap="round"/><g fill="#000000" stroke="none" stroke-width="0" stroke-linecap="butt"><path d="M183.67268,175.33308l2.60211,4.16025l-9.88292,0l2.50202,-4.16025z"/><path d="M178.89388,183.33358l-2.50202,-4.16026h9.8829l-2.6021,4.16026z" data-paper-data="{&quot;index&quot;:null}"/></g><path d="M187.33791,179.39182l-3.04128,4.91284l-5.9266,0.03899l-3.04127,-4.95184l3.11927,-5.06881h5.80963z" fill="#c3ffb8" stroke="#000000" stroke-width="1.5" stroke-linecap="round"/></g><g data-paper-data="{&quot;index&quot;:null}"><g data-paper-data="{&quot;index&quot;:null}" fill="#000000" stroke="none" stroke-width="0" stroke-linecap="butt"><path d="M292.34842,191.14009l-6.8945,-11.02289l26.18555,-0.00002l-6.62929,11.02292z"/><path d="M305.01024,169.94215l6.6293,11.02292l-26.18553,0l6.89449,-11.02292z" data-paper-data="{&quot;index&quot;:null}"/></g><path d="M285.59835,180.53867l6.65559,-10.75134l12.96988,-0.08533l6.6556,10.83668l-6.82625,11.09266l-12.71389,0z" fill="#000000" stroke="#000000" stroke-width="2.5" stroke-linecap="round"/><g fill="#000000" stroke="none" stroke-width="0" stroke-linecap="butt"><path d="M296.32733,184.66692l-2.60211,-4.16025l9.88291,-0.00001l-2.50202,4.16025z"/><path d="M301.10612,176.66642l2.50203,4.16025h-9.8829l2.60211,-4.16025z" data-paper-data="{&quot;index&quot;:null}"/></g><path d="M292.66209,180.60817l3.04128,-4.91284l5.92661,-0.03899l3.04127,4.95183l-3.11928,5.06881l-5.80963,0.00001z" fill="#c3ffb8" stroke="#000000" stroke-width="1.5" stroke-linecap="round"/></g></g></g><g><g><g><g data-paper-data="{&quot;index&quot;:null}" fill="#000000" stroke="none" stroke-width="0" stroke-linecap="butt"><path d="M284.89316,150.86131l-12.66951,-2.91921l18.51597,-18.51599l3.10676,12.482z"/><path d="M278.8572,126.91885l12.482,3.10676l-18.51597,18.51597l-2.91924,-12.66952z" data-paper-data="{&quot;index&quot;:null}"/></g><path d="M272.62379,148.13799l-2.89612,-12.30856l9.11075,-9.23142l12.3689,2.95647l3.01681,12.67058l-8.99008,8.99008z" fill="#000000" stroke="#000000" stroke-width="2.5" stroke-linecap="round"/><g fill="#000000" stroke="none" stroke-width="0" stroke-linecap="butt"><path d="M283.12944,143.47058l-4.78171,-1.10177l6.98828,-6.98828l1.17255,4.71094z"/><path d="M280.85135,134.43425l4.71094,1.17255l-6.98827,6.98827l-1.10178,-4.78171z" data-paper-data="{&quot;index&quot;:null}"/></g><path d="M277.66777,143.19233l-1.3234,-5.62441l4.16318,-4.21831l5.65198,1.35098l1.37853,5.78985l-4.10803,4.10803z" fill="#c3ffb8" stroke="#000000" stroke-width="1.5" stroke-linecap="round"/></g><g data-paper-data="{&quot;index&quot;:null}"><g data-paper-data="{&quot;index&quot;:null}" fill="#000000" stroke="none" stroke-width="0" stroke-linecap="butt"><path d="M195.10684,209.13869l12.66951,2.91921l-18.51597,18.51599l-3.10677,-12.482z"/><path d="M201.1428,233.08115l-12.482,-3.10676l18.51597,-18.51597l2.91924,12.66952z" data-paper-data="{&quot;index&quot;:null}"/></g><path d="M207.3762,211.86201l2.89613,12.30857l-9.11075,9.23142l-12.3689,-2.95647l-3.01681,-12.67058l8.99008,-8.99008z" fill="#000000" stroke="#000000" stroke-width="2.5" stroke-linecap="round"/><g fill="#000000" stroke="none" stroke-width="0" stroke-linecap="butt"><path d="M196.87056,216.52942l4.78171,1.10177l-6.98827,6.98828l-1.17255,-4.71094z"/><path d="M199.14865,225.56575l-4.71094,-1.17254l6.98827,-6.98827l1.10177,4.78171z" data-paper-data="{&quot;index&quot;:null}"/></g><path d="M202.33224,216.80767l1.32339,5.62441l-4.16318,4.21831l-5.65198,-1.35097l-1.37853,-5.78986l4.10803,-4.10803z" fill="#c3ffb8" stroke="#000000" stroke-width="1.5" stroke-linecap="round"/></g></g><g><g><g data-paper-data="{&quot;index&quot;:null}" fill="#000000" stroke="none" stroke-width="0" stroke-linecap="butt"><path d="M210.86131,135.10684l-2.91921,12.66951l-18.51599,-18.51597l12.482,-3.10676z"/><path d="M186.91885,141.1428l3.10676,-12.482l18.51597,18.51597l-12.66952,2.91924z" data-paper-data="{&quot;index&quot;:null}"/></g><path d="M208.13799,147.37621l-12.30856,2.89612l-9.23142,-9.11075l2.95647,-12.3689l12.67058,-3.01681l8.99008,8.99008z" fill="#000000" stroke="#000000" stroke-width="2.5" stroke-linecap="round"/><g fill="#000000" stroke="none" stroke-width="0" stroke-linecap="butt"><path d="M203.47058,136.87056l-1.10177,4.78171l-6.98828,-6.98828l4.71094,-1.17255z"/><path d="M194.43425,139.14865l1.17255,-4.71094l6.98827,6.98827l-4.78171,1.10178z" data-paper-data="{&quot;index&quot;:null}"/></g><path d="M203.19233,142.33223l-5.62441,1.3234l-4.21831,-4.16318l1.35098,-5.65198l5.78985,-1.37853l4.10803,4.10803z" fill="#c3ffb8" stroke="#000000" stroke-width="1.5" stroke-linecap="round"/></g><g data-paper-data="{&quot;index&quot;:null}"><g data-paper-data="{&quot;index&quot;:null}" fill="#000000" stroke="none" stroke-width="0" stroke-linecap="butt"><path d="M269.13869,224.89316l2.91921,-12.66951l18.51599,18.51597l-12.482,3.10677z"/><path d="M293.08115,218.8572l-3.10676,12.482l-18.51597,-18.51597l12.66952,-2.91924z" data-paper-data="{&quot;index&quot;:null}"/></g><path d="M271.86201,212.6238l12.30857,-2.89613l9.23142,9.11075l-2.95647,12.3689l-12.67058,3.01681l-8.99008,-8.99008z" fill="#000000" stroke="#000000" stroke-width="2.5" stroke-linecap="round"/><g fill="#000000" stroke="none" stroke-width="0" stroke-linecap="butt"><path d="M276.52942,223.12944l1.10177,-4.78171l6.98828,6.98827l-4.71094,1.17255z"/><path d="M285.56575,220.85135l-1.17254,4.71094l-6.98827,-6.98827l4.78171,-1.10177z" data-paper-data="{&quot;index&quot;:null}"/></g><path d="M276.80767,217.66776l5.62441,-1.32339l4.21831,4.16318l-1.35097,5.65198l-5.78986,1.37853l-4.10803,-4.10803z" fill="#c3ffb8" stroke="#000000" stroke-width="1.5" stroke-linecap="round"/></g></g></g></g></g></svg>