<svg version="1.1" xmlns="http://www.w3.org/2000/svg" xmlns:xlink="http://www.w3.org/1999/xlink" width="195.68462" height="224.84738" viewBox="0,0,195.68462,224.84738"><defs><radialGradient cx="163.83333" cy="224.66667" r="105.21607" gradientUnits="userSpaceOnUse" id="color-1"><stop offset="0" stop-color="#95ff79"/><stop offset="1" stop-color="#00df71"/></radialGradient><radialGradient cx="245.74999" cy="164.25" r="78.50307" gradientUnits="userSpaceOnUse" id="color-2"><stop offset="0" stop-color="#95ff79"/><stop offset="1" stop-color="#95ff79" stop-opacity="0"/></radialGradient><linearGradient x1="169.33753" y1="250.30247" x2="249.59415" y2="170.04585" gradientUnits="userSpaceOnUse" id="color-3"><stop offset="0" stop-color="#000000" stop-opacity="0"/><stop offset="1" stop-color="#000000"/></linearGradient><linearGradient x1="163.36433" y1="205.88567" x2="235.13567" y2="134.11433" gradientUnits="userSpaceOnUse" id="color-4"><stop offset="0" stop-color="#bcffa9" stop-opacity="0"/><stop offset="1" stop-color="#bcffa9"/></linearGradient><linearGradient x1="205.30788" y1="148.19212" x2="246.44212" y2="107.05788" gradientUnits="userSpaceOnUse" id="color-5"><stop offset="0" stop-color="#a4ff8a" stop-opacity="0"/><stop offset="1" stop-color="#a4ff8a"/></linearGradient><linearGradient x1="64.09821" y1="248.65179" x2="273.15179" y2="39.59821" gradientUnits="userSpaceOnUse" id="color-6"><stop offset="0" stop-color="#98ff7b" stop-opacity="0"/><stop offset="1" stop-color="#98ff7b"/></linearGradient><linearGradient x1="184.27563" y1="272.22437" x2="340.47437" y2="116.02563" gradientUnits="userSpaceOnUse" id="color-7"><stop offset="0" stop-color="#a4ff8a" stop-opacity="0"/><stop offset="1" stop-color="#a4ff8a"/></linearGradient><linearGradient x1="200.36433" y1="282.88567" x2="272.13567" y2="211.11433" gradientUnits="userSpaceOnUse" id="color-8"><stop offset="0" stop-color="#bcffa9" stop-opacity="0"/><stop offset="1" stop-color="#bcffa9"/></linearGradient><linearGradient x1="113.09821" y1="396.65179" x2="322.15179" y2="187.59822" gradientUnits="userSpaceOnUse" id="color-9"><stop offset="0" stop-color="#98ff7b" stop-opacity="0"/><stop offset="1" stop-color="#98ff7b"/></linearGradient><linearGradient x1="255.34361" y1="162.16824" x2="224.65706" y2="197.83098" gradientUnits="userSpaceOnUse" id="color-10"><stop offset="0" stop-color="#b2fca8" stop-opacity="0"/><stop offset="1" stop-color="#b2fca8"/></linearGradient></defs><g transform="translate(-142.15769,-67.57631)"><g data-paper-data="{&quot;isPaintingLayer&quot;:true}" fill-rule="nonzero" stroke-linejoin="miter" stroke-miterlimit="10" stroke-dasharray="" stroke-dashoffset="0" style="mix-blend-mode: normal"><path d="M148.40769,127.39296l91.59032,-52.60903l91.5943,52.60903v105.21408l-91.5943,52.60903l-91.59032,-52.60903z" fill="url(#color-1)" stroke="#000000" stroke-width="12.5" stroke-linecap="butt"/><path d="M241.84416,75.13567c1.58473,-1.12106 3.44957,-0.01494 3.44957,-0.01494l0.93892,0.56994c4.80729,2.34549 9.91867,3.55883 12.84794,8.59111c1.75999,3.02354 2.85802,8.00537 3.81858,11.38517c0.6097,2.14525 0.23024,4.63716 1.38355,6.54601c0.59002,0.97656 5.82222,6.38174 6.84434,7.19129c9.52372,7.54304 21.40221,4.05568 32.11837,7.96597c2.00535,0.63144 4.20123,0.83293 6.01605,1.89435c7.33432,4.28954 11.32068,13.82836 14.35197,21.19344c5.41057,13.14597 6.01731,31.11217 -3.66544,42.6765c-3.48421,4.16127 -9.15739,8.01544 -14.04216,10.32626c-4.15008,1.96327 -8.76477,2.03016 -12.97453,3.738c-3.2751,1.32867 -3.51358,2.06871 -6.65716,4.71487c-3.39357,9.3897 -2.21292,19.43826 -5.39382,28.81183c-2.30598,6.79532 -7.16034,11.36736 -12.41622,15.91941c-7.61193,6.59259 -18.30866,16.14558 -29.21944,15.70588c-5.04356,-0.20325 -9.66899,-2.03965 -14.08293,-4.31411c-2.71346,-1.39822 -5.05632,-3.52403 -7.07637,-5.81253c-7.83636,-9.04942 -14.94926,-17.93424 -18.49685,-29.55953c-0.96425,-3.15978 -3.13763,-10.5871 -2.94659,-13.84687c0.29729,-5.07277 2.87735,-7.1599 5.52536,-11.03504c2.72668,-3.99027 5.86861,-8.27161 8.08144,-12.55326c4.0682,-7.8717 5.22035,-17.46303 6.04168,-26.1926c-1.16815,-8.408 -2.72816,-16.31598 -5.23324,-24.44404c-2.92319,-9.48464 -8.25033,-20.64451 -5.9057,-30.83977c1.96735,-8.55468 8.87847,-14.65725 15.73834,-19.56685c5.82769,-4.17087 13.10036,-5.94388 19.57969,-8.77087c0,0 0.5981,-0.26052 1.37468,-0.27967z" fill="url(#color-2)" stroke="none" stroke-width="0.5" stroke-linecap="butt"/><path d="M169.27015,250.2351l74.59645,-85.9168l11.45513,11.45513z" fill="url(#color-3)" stroke="none" stroke-width="0" stroke-linecap="butt"/><g fill="#000000" stroke="#ff0000" stroke-width="0" stroke-linecap="round"><path d="M289.60323,147.5276l-27.14073,27.42055l-22.66389,5.87584l4.48334,-24.05921l27.14074,-27.42055l22.66389,-5.87584z" data-paper-data="{&quot;index&quot;:null}"/><path d="M282.32204,149.15434l-18.79551,18.98928l-15.69524,4.06913l3.10481,-16.66151l18.79552,-18.98929l15.69525,-4.06912z" data-paper-data="{&quot;index&quot;:null}"/></g><path d="M165.8392,208.36054l-4.94975,-4.94975l71.77134,-71.77134l4.94975,4.94975z" fill="url(#color-4)" stroke="none" stroke-width="0" stroke-linecap="butt"/><path d="M206.7263,149.61055l-2.83685,-2.83685l41.13424,-41.13424l2.83685,2.83685z" fill="url(#color-5)" stroke="none" stroke-width="0" stroke-linecap="butt"/><path d="M215.12996,83.20255c1.07554,0.14124 2.17262,0.21412 3.28671,0.21412c7.48771,0 14.20658,-3.2918 18.78838,-8.50719c3.11783,1.39694 6.57399,2.17385 10.21162,2.17385c0.95525,0 1.89799,-0.05358 2.82538,-0.15789l-99.14951,99.14951c0.645,-2.21872 0.99079,-4.56479 0.99079,-6.99162c0,-6.35245 -2.36929,-12.15153 -6.27241,-16.56175z" fill="url(#color-6)" stroke="none" stroke-width="0" stroke-linecap="butt"/><path d="M204.2967,262.97563c-4.02731,-3.68842 -9.26665,-6.07495 -15.05155,-6.49311l137.24062,-137.24062c0.98894,5.45094 3.7453,10.28623 7.65394,13.89072z" fill="url(#color-7)" stroke="none" stroke-width="0" stroke-linecap="butt"/><path d="M269.6608,208.63946l4.94975,4.94975l-57.91812,57.91812c-1.49388,-0.27842 -3.03449,-0.42399 -4.60909,-0.42399c-0.62714,0 -1.2489,0.02309 -1.86445,0.06847c-0.31407,-0.69658 -0.65912,-1.37618 -1.03339,-2.03705z" fill="url(#color-8)" stroke="none" stroke-width="0" stroke-linecap="butt"/><path d="M314.94306,180.38946l14.41749,14.41749l-93.50777,93.50777c-2.21358,-6.77718 -7.2449,-12.28022 -13.70992,-15.12506z" fill="url(#color-9)" stroke="none" stroke-width="0" stroke-linecap="butt"/><path d="M148.40769,127.39296l91.59032,-52.60903l91.5943,52.60903v105.21408l-91.5943,52.60903l-91.59032,-52.60903z" fill="none" stroke="#000000" stroke-width="12.5" stroke-linecap="butt"/><g fill="none" stroke-width="7.5" stroke-linecap="butt"><path d="M273.9047,178.13942l10.80455,9.29694l14.02315,43.10082l-44.70969,-7.43808l-58.73128,-50.53622l-14.02381,-43.10005l44.71036,7.43731l12.76986,10.98802" stroke="url(#color-10)"/><path d="M269.57037,179.88549l7.25052,6.23882l11.54895,35.49625l-36.82125,-6.12573l-48.36892,-41.61977l-11.5495,-35.49561l36.8218,6.12509l9.21583,7.9299" stroke="#ffffff"/></g></g></g></svg>