<svg version="1.1" xmlns="http://www.w3.org/2000/svg" xmlns:xlink="http://www.w3.org/1999/xlink" width="196.21341" height="224.84738" viewBox="0,0,196.21341,224.84738"><defs><radialGradient cx="163.83333" cy="224.66667" r="105.21607" gradientUnits="userSpaceOnUse" id="color-1"><stop offset="0" stop-color="#fffdb1"/><stop offset="1" stop-color="#fff100"/></radialGradient><linearGradient x1="240" y1="94.31257" x2="240" y2="265.68743" gradientUnits="userSpaceOnUse" id="color-2"><stop offset="0" stop-color="#ffffff"/><stop offset="1" stop-color="#ffffff" stop-opacity="0"/></linearGradient><radialGradient cx="259.99324" cy="161.8097" r="61.61388" gradientUnits="userSpaceOnUse" id="color-3"><stop offset="0" stop-color="#fffa68"/><stop offset="1" stop-color="#fffa68" stop-opacity="0"/></radialGradient><radialGradient cx="224.80847" cy="196.7845" r="78.50307" gradientUnits="userSpaceOnUse" id="color-4"><stop offset="0" stop-color="#fffdb1"/><stop offset="1" stop-color="#fffdb1" stop-opacity="0"/></radialGradient><linearGradient x1="198.97479" y1="227.29684" x2="272.52603" y2="153.7456" gradientUnits="userSpaceOnUse" id="color-5"><stop offset="0" stop-color="#000000" stop-opacity="0"/><stop offset="1" stop-color="#000000"/></linearGradient><linearGradient x1="137.97479" y1="262.29684" x2="211.52603" y2="188.7456" gradientUnits="userSpaceOnUse" id="color-6"><stop offset="0" stop-color="#000000" stop-opacity="0"/><stop offset="1" stop-color="#000000"/></linearGradient><linearGradient x1="119.97479" y1="323.29684" x2="193.52604" y2="249.7456" gradientUnits="userSpaceOnUse" id="color-7"><stop offset="0" stop-color="#000000" stop-opacity="0"/><stop offset="1" stop-color="#000000"/></linearGradient><linearGradient x1="119.97479" y1="323.29684" x2="193.52604" y2="249.7456" gradientUnits="userSpaceOnUse" id="color-8"><stop offset="0" stop-color="#000000" stop-opacity="0"/><stop offset="1" stop-color="#000000"/></linearGradient></defs><g transform="translate(-141.62891,-67.57631)"><g data-paper-data="{&quot;isPaintingLayer&quot;:true}" fill-rule="nonzero" stroke-linejoin="miter" stroke-miterlimit="10" stroke-dasharray="" stroke-dashoffset="0" style="mix-blend-mode: normal"><path d="M148.40769,127.39296l91.59032,-52.60903l91.5943,52.60903v105.21408l-91.5943,52.60903l-91.59032,-52.60903z" fill="url(#color-1)" stroke="#000000" stroke-width="12.5" stroke-linecap="butt"/><path d="M165.40769,137.1571l74.59069,-42.84453l74.59393,42.84453v85.68581l-74.59393,42.84453l-74.59069,-42.84453z" fill="none" stroke="url(#color-2)" stroke-width="12.5" stroke-linecap="butt"/><path d="M199.07892,196.31707c-1.34891,-0.70827 -1.2405,-2.40654 -1.2405,-2.40654l0.06369,-0.85971c-0.07427,-4.19752 -1.04855,-8.20396 1.42541,-12.04647c1.48642,-2.30869 4.57809,-4.85284 6.59866,-6.72962c1.28251,-1.19125 3.16012,-1.81451 4.0835,-3.30153c0.4724,-0.76076 2.3859,-6.34639 2.58745,-7.34971c1.87798,-9.34851 -4.79597,-16.4102 -5.88315,-25.29707c-0.27358,-1.62726 -0.91571,-3.23443 -0.82071,-4.8818c0.38389,-6.65758 5.63179,-12.84614 9.70042,-17.5918c7.26211,-8.47057 19.60739,-15.3012 31.14564,-12.65482c4.15189,0.95227 8.86959,3.54452 12.22709,6.13586c2.85252,2.20159 4.5448,5.40424 7.24001,7.73865c2.09682,1.81611 2.69928,1.71896 5.67036,2.97332c7.77519,-0.97547 14.37995,-5.38408 22.06802,-6.50249c5.57343,-0.81079 10.50109,0.95299 15.55794,3.00463c7.32369,2.97132 17.81721,7.04387 21.40036,14.82927c1.65633,3.59884 2.0217,7.48767 2.00536,11.38485c-0.01004,2.39578 -0.66095,4.79188 -1.54071,7.0203c-3.53289,8.70589 -7.20866,16.84725 -14.07185,23.47302c-1.86543,1.80091 -6.28349,5.96893 -8.63078,6.99773c-3.6528,1.601 -6.03207,0.5413 -9.68573,0.07166c-3.76221,-0.48359 -7.87599,-1.15372 -11.65869,-1.17414c-6.95439,-0.03751 -14.0713,2.57701 -20.46772,5.11556c-5.46217,3.81489 -10.43501,7.72544 -15.22474,12.37526c-5.58913,5.42589 -11.49235,13.12991 -19.45673,15.12603c-6.68279,1.67491 -13.41397,-0.98116 -19.29277,-4.02679c-4.99424,-2.58736 -8.82719,-7.04005 -13.11418,-10.56223c0,0 -0.39543,-0.32528 -0.68573,-0.86142z" fill="url(#color-3)" stroke="none" stroke-width="0.5" stroke-linecap="butt"/><path d="M143.22688,160.71425c-0.3008,-1.91773 1.51834,-3.09748 1.51834,-3.09748l0.92758,-0.58821c4.23619,-3.2659 7.59298,-7.30698 13.40266,-7.69711c3.49062,-0.23441 8.44195,0.99386 11.8968,1.63393c2.19289,0.40627 4.25718,1.85276 6.47963,1.66699c1.137,-0.09504 8.30337,-2.38304 9.48259,-2.93941c10.9875,-5.18397 13.13726,-17.37571 21.39927,-25.24118c1.45622,-1.51643 2.61181,-3.39449 4.3687,-4.54927c7.10016,-4.66691 17.41712,-4.00316 25.3623,-3.44886c14.1814,0.98936 30.54869,8.42334 36.61096,22.23415c2.18143,4.96964 3.1157,11.76424 3.01721,17.16713c-0.08368,4.59027 -2.07283,8.75477 -2.41187,13.2851c-0.26376,3.52449 0.29343,4.06678 1.26855,8.05844c6.9064,7.21003 16.43425,10.61407 23.42062,17.62638c5.06473,5.08354 7.00581,11.46324 8.75069,18.19383c2.52706,9.7477 6.33689,23.57394 1.09815,33.15486c-2.42163,4.42883 -6.12091,7.75783 -10.1188,10.70282c-2.45769,1.81043 -5.40275,2.96571 -8.35023,3.75952c-11.58798,3.00318 -22.70725,5.43124 -34.69887,3.44787c-3.25936,-0.53907 -10.87936,-1.8897 -13.71531,-3.50833c-4.41324,-2.51886 -5.13769,-5.75738 -7.43404,-9.85072c-2.36458,-4.21495 -4.80557,-8.93122 -7.65939,-12.81514c-5.24669,-7.14046 -13.32901,-12.43169 -20.7861,-17.04384c-8.05235,-2.68677 -15.83067,-4.80041 -24.22583,-6.16498c-9.79633,-1.59231 -22.16111,-1.77452 -30.25506,-8.40239c-6.7915,-5.56135 -9.19068,-14.46353 -10.5437,-22.79008c-1.14944,-7.07368 0.49125,-14.37734 0.83529,-21.43816c0,0 0.03214,-0.65158 0.35982,-1.35591z" fill="url(#color-4)" stroke="none" stroke-width="0.5" stroke-linecap="butt"/><g stroke-width="0"><g fill="#000000" stroke="#ff0000" stroke-linecap="round"><path d="M296.11152,143.73908l-23.07945,23.3174l-19.27251,4.99658l3.81246,-20.45904l23.07945,-23.3174l19.27251,-4.99658z" data-paper-data="{&quot;index&quot;:null}"/><path d="M289.91987,145.12239l-15.983,16.14778l-13.34664,3.46023l2.64022,-14.16831l15.983,-16.14778l13.34664,-3.46023z" data-paper-data="{&quot;index&quot;:null}"/></g><path d="M198.91304,227.2351l68.36397,-78.73852l10.49806,10.49806z" fill="url(#color-5)" stroke="none" stroke-linecap="butt"/></g><g stroke-width="0"><g fill="#000000" stroke="#ff0000" stroke-linecap="round"><path d="M235.11152,178.73908l-23.07945,23.31741l-19.27252,4.99658l3.81246,-20.45904l23.07945,-23.3174l19.27251,-4.99659z" data-paper-data="{&quot;index&quot;:null}"/><path d="M228.91988,180.1224l-15.983,16.14778l-13.34664,3.46023l2.64022,-14.16831l15.983,-16.14778l13.34663,-3.46023z" data-paper-data="{&quot;index&quot;:null}"/></g><path d="M206.27702,183.49658l10.49806,10.49806l-53.60181,46.38242c-1.05386,-1.183 -2.21844,-2.2652 -3.47749,-3.23033z" fill="url(#color-6)" stroke="none" stroke-linecap="butt"/></g><g stroke-width="0"><g fill="#000000" stroke="#ff0000" stroke-linecap="round"><path d="M217.11153,239.73908l-19.20185,19.39982c-4.39105,-3.82357 -10.12998,-6.1389 -16.40968,-6.1389c-1.35958,0 -2.69381,0.10853 -3.99451,0.3174l1.06653,-5.72337l23.07945,-23.3174l19.27251,-4.99659z" data-paper-data="{&quot;index&quot;:null}"/><path d="M210.91988,241.1224l-15.76811,15.93068c-3.5266,-2.30309 -7.6705,-3.73966 -12.12949,-4.00749l1.20818,-6.48349l15.983,-16.14778l13.34663,-3.46023z" data-paper-data="{&quot;index&quot;:null}"/></g><path d="" fill="url(#color-7)" stroke="none" stroke-linecap="butt"/><path d="M188.27702,244.49658l10.49806,10.49806l-2.92525,2.53126c-4.06149,-2.85187 -9.01016,-4.5259 -14.34983,-4.5259c-0.20471,0 -0.40885,0.00246 -0.61238,0.00735z" fill="url(#color-8)" stroke="none" stroke-linecap="butt"/></g></g></g></svg>