<svg version="1.1" xmlns="http://www.w3.org/2000/svg" xmlns:xlink="http://www.w3.org/1999/xlink" width="195.68462" height="224.84739" viewBox="0,0,195.68462,224.84739"><defs><radialGradient cx="163.83333" cy="224.66668" r="105.21607" gradientUnits="userSpaceOnUse" id="color-1"><stop offset="0" stop-color="#00ddff"/><stop offset="1" stop-color="#0095ff"/></radialGradient><linearGradient x1="240" y1="118.90754" x2="240" y2="229.09246" gradientUnits="userSpaceOnUse" id="color-2"><stop offset="0" stop-color="#00ddff" stop-opacity="0"/><stop offset="1" stop-color="#00ddff"/></linearGradient><radialGradient cx="247.21465" cy="179.48892" r="78.50307" gradientUnits="userSpaceOnUse" id="color-3"><stop offset="0" stop-color="#00ddff"/><stop offset="1" stop-color="#00ddff" stop-opacity="0"/></radialGradient><linearGradient x1="238.19656" y1="115.77695" x2="238.19656" y2="149.85348" gradientUnits="userSpaceOnUse" id="color-4"><stop offset="0" stop-color="#00ddff"/><stop offset="1" stop-color="#00ddff" stop-opacity="0"/></linearGradient><linearGradient x1="238.19656" y1="115.77695" x2="238.19656" y2="143.65774" gradientUnits="userSpaceOnUse" id="color-5"><stop offset="0" stop-color="#ffffff"/><stop offset="1" stop-color="#ffffff" stop-opacity="0"/></linearGradient><linearGradient x1="302.59632" y1="215.18841" x2="272.9857" y2="198.32364" gradientUnits="userSpaceOnUse" id="color-6"><stop offset="0" stop-color="#00ddff"/><stop offset="1" stop-color="#00ddff" stop-opacity="0"/></linearGradient><linearGradient x1="302.59632" y1="215.18841" x2="278.36945" y2="201.38996" gradientUnits="userSpaceOnUse" id="color-7"><stop offset="0" stop-color="#ffffff"/><stop offset="1" stop-color="#ffffff" stop-opacity="0"/></linearGradient><linearGradient x1="177.40368" y1="216.09013" x2="207.0143" y2="199.22535" gradientUnits="userSpaceOnUse" id="color-8"><stop offset="0" stop-color="#00ddff"/><stop offset="1" stop-color="#00ddff" stop-opacity="0"/></linearGradient><linearGradient x1="177.40368" y1="216.09013" x2="201.63055" y2="202.29167" gradientUnits="userSpaceOnUse" id="color-9"><stop offset="0" stop-color="#ffffff"/><stop offset="1" stop-color="#ffffff" stop-opacity="0"/></linearGradient><linearGradient x1="268.71139" y1="9.77078" x2="268.71139" y2="129.62614" gradientUnits="userSpaceOnUse" id="color-10"><stop offset="0" stop-color="#ffffff" stop-opacity="0"/><stop offset="1" stop-color="#ffffff"/></linearGradient><linearGradient x1="324.11569" y1="261.00443" x2="280.25111" y2="228.54025" gradientUnits="userSpaceOnUse" id="color-11"><stop offset="0" stop-color="#ffffff" stop-opacity="0"/><stop offset="1" stop-color="#ffffff"/></linearGradient><linearGradient x1="182.04873" y1="224.8084" x2="191.85377" y2="271.28159" gradientUnits="userSpaceOnUse" id="color-12"><stop offset="0" stop-color="#ffffff"/><stop offset="1" stop-color="#ffffff" stop-opacity="0"/></linearGradient></defs><g transform="translate(-142.15769,-67.57631)"><g data-paper-data="{&quot;isPaintingLayer&quot;:true}" fill-rule="nonzero" stroke-linejoin="miter" stroke-miterlimit="10" stroke-dasharray="" stroke-dashoffset="0" style="mix-blend-mode: normal"><path d="M148.40769,127.39297l91.59032,-52.60903l91.5943,52.60903v105.21408l-91.5943,52.60903l-91.59032,-52.60903z" fill="url(#color-1)" stroke="#000000" stroke-width="12.5" stroke-linecap="butt"/><path d="M192.04112,146.45429l47.95784,-27.54675l47.95993,27.54675v55.09142l-47.95993,27.54675l-47.95784,-27.54675z" data-paper-data="{&quot;index&quot;:null}" fill="url(#color-2)" stroke="#000000" stroke-width="0" stroke-linecap="butt"/><path d="M317.06049,124.00759c1.83792,0.62468 2.03736,2.78369 2.03736,2.78369l0.08988,1.09468c0.92369,5.2686 2.94241,10.11867 0.5885,15.44443c-1.41429,3.19987 -4.80248,7.0136 -6.9745,9.77548c-1.37865,1.75304 -3.61865,2.90889 -4.48677,4.96319c-0.44413,1.05097 -1.74783,8.4599 -1.80307,9.76261c-0.51473,12.13811 9.28224,19.70642 12.40834,30.67701c0.6662,1.99407 1.7923,3.88996 1.99855,5.98224c0.8336,8.45561 -4.54775,17.28292 -8.73019,24.06086c-7.46523,12.09798 -21.65283,23.1372 -36.69907,22.0884c-5.4142,-0.3774 -11.86493,-2.70709 -16.60345,-5.30466c-4.02582,-2.20689 -6.78927,-5.90326 -10.64337,-8.30841c-2.99839,-1.87115 -3.73749,-1.62973 -7.72519,-2.62091c-9.59345,2.76562 -17.03469,9.62094 -26.49021,12.54924c-6.85473,2.12285 -13.40587,0.87747 -20.17656,-0.70469c-9.80578,-2.29138 -23.81913,-5.3419 -29.86897,-14.43243c-2.79657,-4.20214 -4.02561,-9.02463 -4.77586,-13.93311c-0.46122,-3.01748 -0.11585,-6.16211 0.55072,-9.14095c2.72484,-11.65657 5.74115,-22.63088 13.06914,-32.32796c1.99176,-2.63571 6.72824,-8.75569 9.47922,-10.51486c4.28099,-2.73759 7.48532,-1.87437 12.17695,-2.0059c4.83102,-0.13544 10.14145,-0.10561 14.90666,-0.82808c8.76068,-1.32827 17.2014,-6.02671 24.75028,-10.48703c6.12053,-5.88202 11.60623,-11.78768 16.71524,-18.5876c5.9617,-7.93484 11.86812,-18.79924 21.49784,-22.88693c8.08015,-3.42991 17.07779,-1.41814 25.07964,1.25254c6.79784,2.26883 12.50293,7.11519 18.59546,10.70053c0,0 0.56205,0.33121 1.03348,0.94862z" fill="url(#color-3)" stroke="none" stroke-width="0.5" stroke-linecap="butt"/><g fill="#000000" stroke="none" stroke-linecap="butt"><path d="M245.69979,171.66165h-11.17928v-29.69121h11.17928z" stroke-width="0"/><g><path d="M223.42429,192.55644h-24.44217v-12.02074l24.44217,-6.81174z" stroke-width="0"/><path d="M240.14739,181.43995l-18.54228,7.17798v-22.10185l18.54228,-8.89447z" data-paper-data="{&quot;index&quot;:null}" stroke-width="NaN"/><path d="M240.14739,204.02955l-23.80665,-11.4197v-28.37682l23.80665,9.2159z" stroke-width="NaN"/></g><g data-paper-data="{&quot;index&quot;:null}"><path d="M256.57571,173.72396l24.44217,6.81174v12.02074h-24.44217z" stroke-width="0"/><path d="M239.85261,157.62162l18.54228,8.89447v22.10185l-18.54228,-7.17798z" data-paper-data="{&quot;index&quot;:null}" stroke-width="NaN"/><path d="M239.85261,173.44892l23.80665,-9.2159v28.37682l-23.80665,11.4197z" stroke-width="NaN"/></g></g><g stroke="none" stroke-width="0" stroke-linecap="butt"><g><path d="M279.13265,132.81521c0,9.40997 -18.32771,17.03826 -40.93608,17.03826c-22.60837,0 -40.93608,-7.62829 -40.93608,-17.03826c0,-9.40997 18.32771,-17.03826 40.93608,-17.03826c22.60837,0 40.93608,7.62829 40.93608,17.03826z" fill="url(#color-4)"/><path d="M271.68972,129.71735c0,7.69907 -14.9954,13.9404 -33.49316,13.9404c-18.49776,0 -33.49316,-6.24133 -33.49316,-13.9404c0,-7.69907 14.9954,-13.9404 33.49316,-13.9404c18.49776,0 33.49316,6.24133 33.49316,13.9404z" fill="url(#color-5)"/></g><g><path d="M267.53138,242.32723c-8.17675,-4.65708 -5.73476,-24.35816 5.45432,-44.00359c11.18908,-19.64543 26.88819,-31.79589 35.06494,-27.13881c8.17675,4.65708 5.73476,24.35816 -5.45432,44.00359c-11.18908,19.64543 -26.8882,31.79589 -35.06494,27.13881z" fill="url(#color-6)"/><path d="M273.90683,237.39289c-6.69007,-3.81034 -4.69208,-19.9294 4.46262,-36.00294c9.15471,-16.07353 21.99943,-26.01482 28.6895,-22.20448c6.69007,3.81034 4.69208,19.9294 -4.46263,36.00293c-9.15471,16.07353 -21.99943,26.01482 -28.6895,22.20448z" fill="url(#color-7)"/></g><g data-paper-data="{&quot;index&quot;:null}"><path d="M177.40368,216.09013c-11.18908,-19.64543 -13.63107,-39.3465 -5.45432,-44.00358c8.17675,-4.65708 23.87586,7.49338 35.06494,27.13881c11.18908,19.64543 13.63107,39.34651 5.45432,44.00359c-8.17675,4.65708 -23.87586,-7.49338 -35.06494,-27.13881z" fill="url(#color-8)"/><path d="M177.40368,216.09013c-9.15471,-16.07353 -11.1527,-32.1926 -4.46263,-36.00294c6.69007,-3.81034 19.5348,6.13095 28.6895,22.20448c9.15471,16.07353 11.15269,32.1926 4.46262,36.00294c-6.69007,3.81034 -19.53479,-6.13095 -28.68949,-22.20448z" fill="url(#color-9)"/></g></g><path d="M226.74412,113.41291l4.11457,-16.16057l-1.84596,30.70714l-16.92699,-34.46881c0.43908,-0.26381 0.86938,-0.54072 1.29038,-0.83019z" fill="#ffffff" stroke="#000000" stroke-width="0" stroke-linecap="round"/><path d="M241.66659,129.62614l-3.08392,-51.3004c0.54412,0.03537 1.09299,0.05333 1.64605,0.05333c1.27408,0 2.5259,-0.09531 3.74871,-0.27918l3.55027,13.94422l6.53932,-10.15161c2.30415,2.43495 5.09269,4.4068 8.2114,5.76134z" data-paper-data="{&quot;index&quot;:null}" fill="url(#color-10)" stroke="#000000" stroke-width="0" stroke-linecap="butt"/><path d="M287.5765,218.64242l30.32637,19.74309l-18.15967,-7.41852l6.31827,16.71498c-0.88442,0.54904 -1.73205,1.15175 -2.53834,1.80356z" data-paper-data="{&quot;index&quot;:null}" fill="url(#color-11)" stroke="#000000" stroke-width="0" stroke-linecap="round"/><path d="M188.1077,208.67277l-24.80151,32.37837c-1.70864,-1.12664 -3.56371,-2.04924 -5.53052,-2.73311l3.45493,-6.89704l-9.58169,2.80548c-0.68177,-3.11014 -1.94257,-6.0035 -3.66368,-8.56135z" data-paper-data="{&quot;index&quot;:null}" fill="#ffffff" stroke="#000000" stroke-width="0" stroke-linecap="butt"/><path d="M187.09174,235.46786l-12.16467,10.83067l18.28063,-23.84447l-4.71764,34.08126c-0.5959,-0.36073 -1.20807,-0.69727 -1.83516,-1.00826z" data-paper-data="{&quot;index&quot;:null}" fill="url(#color-12)" stroke="#000000" stroke-width="0" stroke-linecap="round"/><path d="M148.40769,127.39296l91.59032,-52.60903l91.5943,52.60903v105.21408l-91.5943,52.60903l-91.59032,-52.60903z" fill="none" stroke="#000000" stroke-width="12.5" stroke-linecap="butt"/></g></g></svg>