<svg version="1.1" xmlns="http://www.w3.org/2000/svg" xmlns:xlink="http://www.w3.org/1999/xlink" width="195.68462" height="224.84738" viewBox="0,0,195.68462,224.84738"><defs><radialGradient cx="163.83333" cy="224.66668" r="105.21607" gradientUnits="userSpaceOnUse" id="color-1"><stop offset="0" stop-color="#99fffe"/><stop offset="1" stop-color="#00d1ff"/></radialGradient><linearGradient x1="240" y1="109.97388" x2="240" y2="250.02612" gradientUnits="userSpaceOnUse" id="color-2"><stop offset="0" stop-color="#99fffe" stop-opacity="0"/><stop offset="1" stop-color="#99fffe"/></linearGradient><radialGradient cx="247.21465" cy="179.48893" r="78.50307" gradientUnits="userSpaceOnUse" id="color-3"><stop offset="0" stop-color="#99ffeb"/><stop offset="1" stop-color="#99ffeb" stop-opacity="0"/></radialGradient><linearGradient x1="191.99725" y1="231.49447" x2="240.28087" y2="231.49447" gradientUnits="userSpaceOnUse" id="color-4"><stop offset="0" stop-color="#ffffff" stop-opacity="0"/><stop offset="1" stop-color="#ffffff"/></linearGradient><linearGradient x1="286.72356" y1="231.49447" x2="238.4399" y2="231.49447" gradientUnits="userSpaceOnUse" id="color-5"><stop offset="0" stop-color="#ffffff" stop-opacity="0"/><stop offset="1" stop-color="#ffffff"/></linearGradient></defs><g transform="translate(-142.15769,-67.57632)"><g data-paper-data="{&quot;isPaintingLayer&quot;:true}" fill-rule="nonzero" stroke-linejoin="miter" stroke-miterlimit="10" stroke-dasharray="" stroke-dashoffset="0" style="mix-blend-mode: normal"><path d="M148.40769,127.39297l91.59032,-52.60903l91.5943,52.60903v105.21408l-91.5943,52.60903l-91.59032,-52.60903z" fill="url(#color-1)" stroke="#000000" stroke-width="12.5" stroke-linecap="butt"/><path d="M179.04112,144.9876l60.95756,-35.01372l60.96021,35.01372v70.0248l-60.96021,35.01372l-60.95756,-35.01372z" data-paper-data="{&quot;index&quot;:null}" fill="url(#color-2)" stroke="#000000" stroke-width="0" stroke-linecap="butt"/><path d="M317.06049,124.0076c1.83792,0.62468 2.03736,2.78369 2.03736,2.78369l0.08988,1.09468c0.92369,5.2686 2.94241,10.11867 0.5885,15.44443c-1.41429,3.19987 -4.80248,7.0136 -6.9745,9.77548c-1.37865,1.75304 -3.61865,2.90889 -4.48677,4.96319c-0.44413,1.05097 -1.74783,8.4599 -1.80307,9.76261c-0.51473,12.13811 9.28224,19.70642 12.40834,30.67701c0.6662,1.99407 1.7923,3.88996 1.99855,5.98224c0.8336,8.45561 -4.54775,17.28292 -8.73019,24.06086c-7.46523,12.09798 -21.65283,23.1372 -36.69907,22.0884c-5.4142,-0.3774 -11.86493,-2.70709 -16.60345,-5.30466c-4.02582,-2.20689 -6.78927,-5.90326 -10.64337,-8.30841c-2.99839,-1.87115 -3.73749,-1.62973 -7.72519,-2.62091c-9.59345,2.76562 -17.03469,9.62094 -26.49021,12.54924c-6.85473,2.12285 -13.40587,0.87747 -20.17656,-0.70469c-9.80578,-2.29138 -23.81913,-5.3419 -29.86897,-14.43243c-2.79657,-4.20214 -4.02561,-9.02463 -4.77586,-13.93311c-0.46122,-3.01748 -0.11585,-6.16211 0.55072,-9.14095c2.72484,-11.65657 5.74115,-22.63088 13.06914,-32.32796c1.99176,-2.63571 6.72824,-8.75569 9.47922,-10.51486c4.28099,-2.73759 7.48532,-1.87437 12.17695,-2.0059c4.83102,-0.13544 10.14145,-0.10561 14.90666,-0.82808c8.76068,-1.32827 17.2014,-6.02671 24.75028,-10.48703c6.12053,-5.88202 11.60623,-11.78768 16.71524,-18.5876c5.9617,-7.93484 11.86812,-18.79924 21.49784,-22.88693c8.08015,-3.42991 17.07779,-1.41814 25.07964,1.25254c6.79784,2.26883 12.50293,7.11519 18.59546,10.70053c0,0 0.56205,0.33121 1.03348,0.94862z" fill="url(#color-3)" stroke="none" stroke-width="0.5" stroke-linecap="butt"/><g fill="#000000" stroke="none" stroke-linecap="butt"><path d="M251.02677,154.20752h-21.62736v-57.4404h21.62736z" stroke-width="0"/><g><path d="M207.93275,194.63042h-47.28565v-23.25524l47.28565,-13.17794z" stroke-width="0"/><path d="M240.28513,173.12455l-35.87176,13.88647v-42.75808l35.87176,-17.20717z" data-paper-data="{&quot;index&quot;:null}" stroke-width="NaN"/><path d="M240.28513,216.82623l-46.05618,-22.09247v-54.8976l46.05618,17.82901z" stroke-width="NaN"/></g><g data-paper-data="{&quot;index&quot;:null}"><path d="M272.06725,158.19724l47.28565,13.17794v23.25524h-47.28565z" stroke-width="0"/><path d="M239.71487,127.04577l35.87176,17.20717v42.75808l-35.87176,-13.88647z" data-paper-data="{&quot;index&quot;:null}" stroke-width="NaN"/><path d="M239.71487,157.66515l46.05618,-17.82901v54.89759l-46.05618,22.09247z" stroke-width="NaN"/></g></g><g stroke="#000000" stroke-width="0" stroke-linecap="round"><g><path d="M191.99725,209.07468l48.19995,22.58137l0.08366,12.95617l-48.19995,-22.4687z" fill="url(#color-4)"/><path d="M286.63985,222.14349l-48.19995,22.4687l0.08367,-12.95617l48.19995,-22.58137z" fill="url(#color-5)"/></g><g fill="#ffffff"><path d="M191.99725,202.42334l48.19995,22.58137l0.08366,12.95617l-48.19995,-22.4687z"/><path d="M286.63985,215.49218l-48.19995,22.4687l0.08367,-12.95617l48.19995,-22.58137z"/></g></g></g></g></svg>