<svg version="1.1" xmlns="http://www.w3.org/2000/svg" xmlns:xlink="http://www.w3.org/1999/xlink" width="195.68462" height="224.84739" viewBox="0,0,195.68462,224.84739"><defs><radialGradient cx="163.83333" cy="224.66668" r="105.21607" gradientUnits="userSpaceOnUse" id="color-1"><stop offset="0" stop-color="#00adff"/><stop offset="1" stop-color="#0058e8"/></radialGradient><radialGradient cx="228.8351" cy="174.33056" r="78.50307" gradientUnits="userSpaceOnUse" id="color-2"><stop offset="0" stop-color="#00adff"/><stop offset="1" stop-color="#00adff" stop-opacity="0"/></radialGradient><linearGradient x1="237.119" y1="182.881" x2="170.88101" y2="249.11899" gradientUnits="userSpaceOnUse" id="color-3"><stop offset="0" stop-color="#00adff"/><stop offset="1" stop-color="#00adff" stop-opacity="0"/></linearGradient><linearGradient x1="269.37967" y1="191.46836" x2="311.87967" y2="233.96836" gradientUnits="userSpaceOnUse" id="color-4"><stop offset="0" stop-color="#0fb2ff"/><stop offset="1" stop-color="#0fb2ff" stop-opacity="0"/></linearGradient><linearGradient x1="250.42611" y1="165.57387" x2="215.57386" y2="200.42612" gradientUnits="userSpaceOnUse" id="color-5"><stop offset="0" stop-color="#00adff"/><stop offset="1" stop-color="#00adff" stop-opacity="0"/></linearGradient><linearGradient x1="250.42611" y1="165.57387" x2="221.91064" y2="194.08934" gradientUnits="userSpaceOnUse" id="color-6"><stop offset="0" stop-color="#ffffff"/><stop offset="1" stop-color="#ffffff" stop-opacity="0"/></linearGradient><linearGradient x1="254.24128" y1="174.9316" x2="304.31226" y2="109.07268" gradientUnits="userSpaceOnUse" id="color-7"><stop offset="0" stop-color="#ffffff"/><stop offset="1" stop-color="#ffffff" stop-opacity="0"/></linearGradient><radialGradient cx="246.72362" cy="171.22003" r="31.12127" gradientUnits="userSpaceOnUse" id="color-8"><stop offset="0" stop-color="#ffffff"/><stop offset="1" stop-color="#ffffff" stop-opacity="0"/></radialGradient></defs><g transform="translate(-142.15769,-67.57631)"><g data-paper-data="{&quot;isPaintingLayer&quot;:true}" fill-rule="nonzero" stroke-linejoin="miter" stroke-miterlimit="10" stroke-dasharray="" stroke-dashoffset="0" style="mix-blend-mode: normal"><path d="M148.40769,127.39297l91.59032,-52.60903l91.5943,52.60903v105.21408l-91.5943,52.60903l-91.59032,-52.60903z" fill="url(#color-1)" stroke="#000000" stroke-width="12.5" stroke-linecap="butt"/><path d="M199.1092,90.22949c1.18889,-1.53451 3.29524,-1.02035 3.29524,-1.02035l1.06432,0.27132c5.28235,0.84149 10.52539,0.51135 14.79496,4.47057c2.56528,2.3788 5.06851,6.82383 6.97302,9.77654c1.20884,1.87417 1.57264,4.36841 3.23251,5.85792c0.84918,0.76202 7.43032,4.40628 8.6441,4.88253c11.30959,4.43755 21.65459,-2.36251 33.0453,-1.74755c2.10233,0.01913 4.26151,-0.42856 6.30699,0.05745c8.26649,1.96402 14.86153,9.92554 19.90903,16.08638c9.00932,10.9965 14.82946,28.00467 8.94036,41.8902c-2.11912,4.99653 -6.4216,10.3377 -10.42007,13.9727c-3.39708,3.08827 -7.79164,4.4981 -11.3203,7.35947c-2.7452,2.22607 -2.75751,3.0035 -4.99267,6.45144c-0.50756,9.97123 3.55239,19.2386 3.24355,29.13236c-0.22391,7.17243 -3.5338,12.96146 -7.23361,18.84847c-5.35829,8.52598 -12.80392,20.78333 -23.36859,23.54484c-4.88357,1.27652 -9.8435,0.86895 -14.72889,-0.01932c-3.00329,-0.54606 -5.86426,-1.89617 -8.46392,-3.49603c-10.1349,-6.37057 -19.52983,-12.79466 -26.31366,-22.87992c-1.84389,-2.7412 -6.08892,-9.21176 -6.85688,-12.38553c-1.19509,-4.93893 0.66411,-7.68779 2.06682,-12.16675c1.44439,-4.61203 3.20109,-9.62358 4.069,-14.36446c1.59558,-8.71596 -0.09962,-18.22634 -1.85996,-26.81594c-3.56954,-7.70178 -7.36805,-14.81099 -12.13475,-21.85511c-5.56227,-8.21977 -13.91256,-17.34083 -14.64327,-27.77667c-0.61312,-8.75655 4.21775,-16.60941 9.34753,-23.30624c4.35791,-5.68918 10.79733,-9.50615 16.17049,-14.09992c0,0 0.49612,-0.42364 1.23335,-0.66844z" fill="url(#color-2)" stroke="none" stroke-width="0.5" stroke-linecap="butt"/><g stroke-linecap="butt"><path d="M191.72856,170.61019l45.38981,12.27018l12.27145,45.39107l-33.11837,33.11837l-45.39106,-12.27144l-12.27019,-45.38981z" data-paper-data="{&quot;index&quot;:null}" fill="url(#color-3)" stroke="#000000" stroke-width="0"/><g fill="#000000" stroke="none"><path d="M208.83215,218.02073l-6.72046,-6.72045l17.84896,-17.84896l6.72045,6.72046z" stroke-width="0"/><g><path d="M182.88021,217.19072l-14.69348,-14.69349l7.2263,-7.2263l18.78838,10.59859z" stroke-width="0"/><path d="M199.61606,220.56115l-15.46181,-6.83169l13.2866,-13.28659l16.49368,5.79981z" data-paper-data="{&quot;index&quot;:null}" stroke-width="NaN"/><path d="M186.03625,234.14095l-7.44645,-21.17642l17.05881,-17.05881l8.77127,19.85161z" stroke-width="NaN"/></g><g data-paper-data="{&quot;index&quot;:null}"><path d="M214.13048,225.79859l10.59858,18.78839l-7.2263,7.2263l-14.69348,-14.69348z" stroke-width="0"/><path d="M213.75731,206.06548l5.79981,16.49369l-13.28659,13.2866l-6.83168,-15.46182z" data-paper-data="{&quot;index&quot;:null}" stroke-width="NaN"/><path d="M204.24268,215.58011l19.85161,8.77128l-17.05881,17.05881l-21.17642,-7.44645z" stroke-width="NaN"/></g></g></g><path d="M265.46301,195.38502l27.66666,-1.66666l6.33334,23l-14.33334,11.33334l16,16.66666" fill="none" stroke="url(#color-4)" stroke-width="7.5" stroke-linecap="round"/><g stroke="none" stroke-width="0" stroke-linecap="butt"><path d="M274.86795,224.86795c-9.62418,9.62418 -36.17104,-1.3188 -59.29407,-24.44183c-23.12303,-23.12303 -34.06601,-49.66989 -24.44183,-59.29407c9.62418,-9.62418 36.17104,1.3188 59.29407,24.44183c23.12303,23.12303 34.06601,49.66989 24.44183,59.29407z" fill="url(#color-5)"/><path d="M270.42397,214.08721c-7.87433,7.87433 -29.59449,-1.07901 -48.51334,-19.99786c-18.91885,-18.91885 -27.87219,-40.63901 -19.99786,-48.51334c7.87433,-7.87433 29.59449,1.07901 48.51334,19.99786c18.91884,18.91885 27.87219,40.63901 19.99786,48.51334z" fill="url(#color-6)"/></g><g fill="none" stroke-linecap="round"><path d="M247.9556,170.15274l19.71947,-45.4096l8.38817,22.06996l25.37151,-1.43676l5.41055,-34.37785" stroke="url(#color-7)" stroke-width="15"/><path d="M247.6671,170.50454l19.71948,-45.40959l8.38817,22.06996l25.3715,-1.43677l5.41056,-34.37785" stroke="#ffffff" stroke-width="7.5"/></g><path d="M270.57375,195.06667l22.46666,-1.06667l6.33333,23l-14.33333,11.33334l16,16.66666" fill="none" stroke="#ffffff" stroke-width="2.5" stroke-linecap="round"/><path d="M148.40769,127.39296l91.59032,-52.60903l91.5943,52.60903v105.21408l-91.5943,52.60903l-91.59032,-52.60903z" fill="none" stroke="#000000" stroke-width="12.5" stroke-linecap="butt"/><path d="M213.96471,157.90407c-0.14216,-0.7563 0.56455,-1.24557 0.56455,-1.24557l0.36051,-0.24419c1.63949,-1.34485 2.92124,-2.98634 5.21867,-3.21051c1.38037,-0.13468 3.35706,0.29273 4.73371,0.50499c0.87381,0.13473 1.7091,0.68318 2.58753,0.58295c0.4494,-0.05128 3.2617,-1.04372 3.7223,-1.27831c4.29174,-2.18574 4.9976,-7.0425 8.17725,-10.25816c0.55887,-0.61833 0.99429,-1.37635 1.67663,-1.85497c2.75757,-1.9343 6.85364,-1.79485 10.00858,-1.67035c5.63127,0.22221 12.20588,2.97194 14.77346,8.37191c0.92391,1.94311 1.37549,4.6243 1.40117,6.76639c0.02182,1.81991 -0.71652,3.49393 -0.79661,5.29315c-0.0623,1.39974 0.16497,1.60796 0.59917,3.17799c2.82302,2.77429 6.63923,4.00905 9.49158,6.70403c2.06779,1.95371 2.91336,4.45845 3.68537,7.10457c1.11809,3.83229 2.79332,9.26536 0.83219,13.12455c-0.90654,1.78394 -2.33252,3.14737 -3.88143,4.36221c-0.95218,0.74682 -2.10533,1.23987 -3.26378,1.58972c-4.55581,1.32879 -8.93277,2.42408 -13.70824,1.78176c-1.29799,-0.17458 -4.33361,-0.61851 -5.47674,-1.22593c-1.77892,-0.94526 -2.10477,-2.21985 -3.06373,-3.81435c-0.98745,-1.64187 -2.01118,-3.48147 -3.18853,-4.98631c-2.16452,-2.76659 -5.43054,-4.76647 -8.44066,-6.50475c-3.22294,-0.96821 -6.33043,-1.7126 -9.67338,-2.15278c-3.90089,-0.51364 -8.80266,-0.43776 -12.08928,-2.96715c-2.75776,-2.12237 -3.81504,-5.62115 -4.4509,-8.90437c-0.54019,-2.7892 0.02248,-5.70294 0.07425,-8.50493c0,0 0.00493,-0.25858 0.12634,-0.54159z" fill="url(#color-8)" stroke="none" stroke-width="0.5" stroke-linecap="butt"/></g></g></svg>