<svg version="1.1" xmlns="http://www.w3.org/2000/svg" xmlns:xlink="http://www.w3.org/1999/xlink" width="195.68462" height="231.22886" viewBox="0,0,195.68462,231.22886"><defs><radialGradient cx="242.875" cy="273.75" r="105.21607" gradientUnits="userSpaceOnUse" id="color-1"><stop offset="0" stop-color="#f6ffb0"/><stop offset="1" stop-color="#e7ff00"/></radialGradient><radialGradient cx="232.77332" cy="205.35037" r="78.50307" gradientUnits="userSpaceOnUse" id="color-2"><stop offset="0" stop-color="#f6ffb0"/><stop offset="1" stop-color="#f6ffb0" stop-opacity="0"/></radialGradient><radialGradient cx="240" cy="180" r="57.21607" gradientUnits="userSpaceOnUse" id="color-3"><stop offset="0" stop-color="#ffffff"/><stop offset="1" stop-color="#f5ff9a"/></radialGradient><linearGradient x1="240" y1="94.31257" x2="240" y2="265.68743" gradientUnits="userSpaceOnUse" id="color-4"><stop offset="0" stop-color="#ffffff"/><stop offset="1" stop-color="#ffffff" stop-opacity="0"/></linearGradient><linearGradient x1="239.22769" y1="269.9085" x2="239.22769" y2="167.48939" gradientUnits="userSpaceOnUse" id="color-5"><stop offset="0" stop-color="#000000" stop-opacity="0"/><stop offset="1" stop-color="#000000"/></linearGradient><linearGradient x1="248.87095" y1="278.67731" x2="272.92883" y2="179.12385" gradientUnits="userSpaceOnUse" id="color-6"><stop offset="0" stop-color="#000000" stop-opacity="0"/><stop offset="1" stop-color="#000000"/></linearGradient><linearGradient x1="227.12905" y1="278.67732" x2="203.07117" y2="179.12385" gradientUnits="userSpaceOnUse" id="color-7"><stop offset="0" stop-color="#000000" stop-opacity="0"/><stop offset="1" stop-color="#000000"/></linearGradient><linearGradient x1="250.29307" y1="298.84552" x2="298.36902" y2="208.41115" gradientUnits="userSpaceOnUse" id="color-8"><stop offset="0" stop-color="#000000" stop-opacity="0"/><stop offset="1" stop-color="#000000"/></linearGradient><linearGradient x1="225.70693" y1="298.84552" x2="177.63097" y2="208.41115" gradientUnits="userSpaceOnUse" id="color-9"><stop offset="0" stop-color="#000000" stop-opacity="0"/><stop offset="1" stop-color="#000000"/></linearGradient></defs><g transform="translate(-142.15769,-67.57631)"><g data-paper-data="{&quot;isPaintingLayer&quot;:true}" fill-rule="nonzero" stroke-linejoin="miter" stroke-miterlimit="10" stroke-dasharray="" stroke-dashoffset="0" style="mix-blend-mode: normal"><path d="M148.40769,127.39296l91.59032,-52.60903l91.5943,52.60903v105.21408l-91.5943,52.60903l-91.59032,-52.60903z" fill="url(#color-1)" stroke="#000000" stroke-width="12.5" stroke-linecap="butt"/><path d="M151.19173,169.28012c-0.3008,-1.91773 1.51834,-3.09748 1.51834,-3.09748l0.92758,-0.58821c4.23619,-3.2659 7.59298,-7.30698 13.40266,-7.69711c3.49062,-0.23441 8.44195,0.99386 11.8968,1.63393c2.19289,0.40627 4.25718,1.85276 6.47963,1.66699c1.137,-0.09504 8.30337,-2.38304 9.48259,-2.93941c10.9875,-5.18397 13.13726,-17.37571 21.39927,-25.24118c1.45622,-1.51643 2.61181,-3.39449 4.3687,-4.54927c7.10016,-4.66691 17.41712,-4.00316 25.3623,-3.44886c14.1814,0.98936 30.54869,8.42334 36.61096,22.23415c2.18143,4.96964 3.1157,11.76424 3.01721,17.16713c-0.08368,4.59027 -2.07283,8.75477 -2.41187,13.2851c-0.26376,3.52449 0.29343,4.06678 1.26855,8.05844c6.9064,7.21003 16.43425,10.61407 23.42062,17.62638c5.06473,5.08354 7.00581,11.46324 8.75069,18.19383c2.52706,9.7477 6.33689,23.57394 1.09815,33.15486c-2.42163,4.42883 -6.12091,7.75783 -10.1188,10.70282c-2.45769,1.81043 -5.40275,2.96571 -8.35023,3.75952c-11.58798,3.00318 -22.70725,5.43124 -34.69887,3.44787c-3.25936,-0.53907 -10.87936,-1.8897 -13.71531,-3.50833c-4.41324,-2.51886 -5.13769,-5.75738 -7.43404,-9.85072c-2.36458,-4.21495 -4.80557,-8.93122 -7.65939,-12.81514c-5.24669,-7.14046 -13.32901,-12.43169 -20.7861,-17.04384c-8.05235,-2.68677 -15.83067,-4.80041 -24.22583,-6.16498c-9.79633,-1.59231 -22.16111,-1.77452 -30.25506,-8.40239c-6.7915,-5.56135 -9.19068,-14.46353 -10.5437,-22.79008c-1.14944,-7.07368 0.49125,-14.37734 0.83529,-21.43816c0,0 0.03214,-0.65158 0.35982,-1.35591z" fill="url(#color-2)" stroke="none" stroke-width="0.5" stroke-linecap="butt"/><path d="M289.80752,208.60749l-49.80644,28.60858l-49.80861,-28.60858v-57.21499l49.80861,-28.60858l49.80644,28.60858z" fill="url(#color-3)" stroke="#000000" stroke-width="0" stroke-linecap="butt"/><path d="M165.40769,137.1571l74.59069,-42.84453l74.59393,42.84453v85.68581l-74.59393,42.84453l-74.59069,-42.84453z" fill="none" stroke="url(#color-4)" stroke-width="12.5" stroke-linecap="butt"/><g stroke-width="0"><g fill="#000000" stroke="#ff0000" stroke-linecap="round"><path d="M248.68196,144.10118l0.16567,32.30349l-9.93952,16.89719l-11.59007,-16.89887l-0.16567,-32.30349l9.93952,-16.89719z" data-paper-data="{&quot;index&quot;:null}"/><path d="M245.33418,149.3752l0.11473,22.37084l-6.88335,11.70167l-8.02635,-11.70282l-0.11473,-22.37084l6.88335,-11.70167z" data-paper-data="{&quot;index&quot;:null}"/></g><path d="M239.14171,269.9085l-7.22321,-102.41911l14.61841,0z" fill="url(#color-5)" stroke="none" stroke-linecap="butt"/></g><g stroke-width="0"><g fill="#000000" stroke="#ff0000" stroke-linecap="round"><path d="M287.61237,158.61081l-7.42694,31.43857l-13.63051,14.08966l-7.2963,-19.14851l7.42694,-31.43857l13.6305,-14.08965z" data-paper-data="{&quot;index&quot;:null}"/><path d="M283.11942,162.95088l-5.14331,21.77186l-9.43943,9.75739l-5.05283,-13.26075l5.14331,-21.77186l9.43943,-9.75739z" data-paper-data="{&quot;index&quot;:null}"/></g><path d="M248.78737,278.65712l17.03678,-101.25017l14.20939,3.43381z" fill="url(#color-6)" stroke="none" stroke-linecap="butt"/></g><g data-paper-data="{&quot;index&quot;:null}" stroke-width="0"><g fill="#000000" stroke="#ff0000" stroke-linecap="round"><path d="M195.68393,139.4623l13.6305,14.08965l7.42694,31.43857l-7.2963,19.14851l-13.6305,-14.08965l-7.42694,-31.43857z" data-paper-data="{&quot;index&quot;:null}"/><path d="M197.93341,149.69014l9.43943,9.75739l5.14331,21.77186l-5.05283,13.26074l-9.43944,-9.75739l-5.14331,-21.77186z" data-paper-data="{&quot;index&quot;:null}"/></g><path d="M195.96646,180.84076l14.2094,-3.4338l17.03677,101.25017z" fill="url(#color-7)" stroke="none" stroke-linecap="butt"/></g><g stroke-width="0"><g fill="#000000" stroke="#ff0000" stroke-linecap="round"><path d="M317.69551,192.19762l-15.01711,28.60121l-16.70804,10.25429l-2.30144,-20.36185l15.01711,-28.60121l16.70804,-10.25428z" data-paper-data="{&quot;index&quot;:null}"/><path d="M312.26383,195.28303l-10.39966,19.80694l-11.5707,7.10131l-1.59378,-14.10101l10.39966,-19.80693l11.57069,-7.10131z" data-paper-data="{&quot;index&quot;:null}"/></g><path d="M250.21715,298.80517l41.69798,-93.82498l12.90782,6.86194z" fill="url(#color-8)" stroke="none" stroke-linecap="butt"/></g><g data-paper-data="{&quot;index&quot;:null}" stroke-width="0"><g fill="#000000" stroke="#ff0000" stroke-linecap="round"><path d="M160.60594,171.83578l16.70804,10.25429l15.0171,28.60121l-2.30144,20.36185l-16.70804,-10.25429l-15.01711,-28.60121z" data-paper-data="{&quot;index&quot;:null}"/><path d="M165.32995,181.18203l11.57069,7.10131l10.39966,19.80693l-1.59378,14.10101l-11.57069,-7.10131l-10.39966,-19.80694z" data-paper-data="{&quot;index&quot;:null}"/></g><path d="M171.17705,211.84213l12.90781,-6.86194l41.69798,93.82498z" fill="url(#color-9)" stroke="none" stroke-linecap="butt"/></g></g></g></svg>