<svg version="1.1" xmlns="http://www.w3.org/2000/svg" xmlns:xlink="http://www.w3.org/1999/xlink" width="195.68462" height="224.84738" viewBox="0,0,195.68462,224.84738"><defs><radialGradient cx="265.5" cy="157" r="105.21607" gradientUnits="userSpaceOnUse" id="color-1"><stop offset="0" stop-color="#ffdb7a"/><stop offset="1" stop-color="#ff8b78"/></radialGradient><linearGradient x1="168.45679" y1="248.92116" x2="205.38498" y2="211.99296" gradientUnits="userSpaceOnUse" id="color-2"><stop offset="0" stop-color="#000000" stop-opacity="0"/><stop offset="1" stop-color="#000000"/></linearGradient><linearGradient x1="245.17361" y1="167.29458" x2="200.17361" y2="212.29458" gradientUnits="userSpaceOnUse" id="color-3"><stop offset="0" stop-color="#ffffff"/><stop offset="1" stop-color="#ffd8a1"/></linearGradient><linearGradient x1="199.75328" y1="87.73687" x2="223.9416" y2="136.24684" gradientUnits="userSpaceOnUse" id="color-4"><stop offset="0" stop-color="#ffd8a1"/><stop offset="1" stop-color="#ffffff"/></linearGradient><linearGradient x1="146.60655" y1="101.37158" x2="234.23837" y2="131.9675" gradientUnits="userSpaceOnUse" id="color-5"><stop offset="0" stop-color="#ffd8a1"/><stop offset="1" stop-color="#ffffff"/></linearGradient><linearGradient x1="340.62924" y1="188.27485" x2="280.54902" y2="163.63341" gradientUnits="userSpaceOnUse" id="color-6"><stop offset="0" stop-color="#ffd8a1"/><stop offset="1" stop-color="#ffffff"/></linearGradient></defs><g transform="translate(-142.15769,-67.57631)"><g data-paper-data="{&quot;isPaintingLayer&quot;:true}" fill-rule="nonzero" stroke-linejoin="miter" stroke-miterlimit="10" stroke-dasharray="" stroke-dashoffset="0" style="mix-blend-mode: normal"><path d="M148.40769,127.39296l91.59032,-52.60903l91.5943,52.60903v105.21408l-91.5943,52.60903l-91.59032,-52.60903z" fill="url(#color-1)" stroke="#000000" stroke-width="12.5" stroke-linecap="butt"/><path d="M197.07246,203.68044l16.62505,16.62505l-37.79847,31.92591c-0.76602,-1.32894 -1.74893,-2.56497 -2.96185,-3.65825c-1.73837,-1.56689 -3.59869,-2.47129 -5.56585,-3.05475c-1.01607,-0.39062 -2.08088,-0.68299 -3.18278,-0.86547z" fill="url(#color-2)" stroke="none" stroke-width="0" stroke-linecap="butt"/><path d="M238.21247,197.97087l-28.90768,29.20571l-24.13937,6.25836l4.77521,-25.62553l28.90768,-29.20572l24.13938,-6.25836z" data-paper-data="{&quot;index&quot;:null}" fill="#000000" stroke="#ff0000" stroke-width="0" stroke-linecap="round"/><g fill="#000000" stroke="none" stroke-width="0" stroke-linecap="butt"><path d="M263.45039,162.52702l8.12808,-9.68065l21.43259,17.99528l-8.12809,9.68065z"/><g data-paper-data="{&quot;index&quot;:null}"><path d="M251.8041,163.32235l-31.54566,7.7578l-12.41335,-9.38499l24.92976,-22.85579z" data-paper-data="{&quot;index&quot;:null}"/><g><path d="M277.74469,165.8922l-22.65738,9.4356l-15.11792,-12.775l14.09057,-16.67475z"/><path d="M257.66225,148.92207l-14.09057,16.67475l-15.11792,-12.775l5.52373,-23.91391z" data-paper-data="{&quot;index&quot;:null}"/></g></g><g><path d="M243.32093,126.27881l18.19708,-28.50871l11.39147,10.60207l-2.18198,32.41221z" data-paper-data="{&quot;index&quot;:null}"/><g><path d="M253.93674,146.02481l13.9849,-16.76346l15.19834,12.67922l-5.37253,23.94835z"/><path d="M233.74746,129.18193l22.59728,-9.57858l15.19834,12.67922l-13.98491,16.76346z" data-paper-data="{&quot;index&quot;:null}"/></g></g><g><path d="M245.28081,148.9206l1.47419,-9.31355l26.49987,22.24989l-9.06682,2.9386z"/><path d="M274.18045,152.89436l-1.32531,9.43855l-26.49987,-22.24989l8.91794,-3.0636z" data-paper-data="{&quot;index&quot;:null}"/></g></g><path d="M170.17361,181.29458l75.33333,-13.66666l3,57.33333l-6,-37.66667l-21.66667,45.66667l11.33334,-50.66667z" fill="url(#color-3)" stroke="#000000" stroke-width="0" stroke-linecap="round"/><g stroke="#000000" stroke-width="0" stroke-linecap="round"><path d="M206.94526,108.2103l9.67874,-4.78839l9.97499,28.80469l-11.75899,-20.28292l-9.42413,5.29901l-5.12113,-15.68691c0.69079,-0.3312 1.36401,-0.6932 2.01788,-1.08421z" fill="url(#color-4)"/><path d="M197.95076,104.60909l-6.96294,17.15416l36.99635,15.58767l-51.08588,-10.71432l6.04051,-17.47621l-3.15463,-1.38152c1.99928,-1.1301 3.82746,-2.52754 5.43598,-4.14378c1.39067,0.2399 2.82066,0.36492 4.27985,0.36492c1.28497,0 2.5473,-0.09694 3.78007,-0.28392z" data-paper-data="{&quot;index&quot;:null}" fill="url(#color-5)"/></g><path d="M336.05928,191.80263l-31.17912,-7.70355l5.50388,-11.72456l-25.26507,-12.2689l35.28987,9.38954l-4.87146,11.98394z" data-paper-data="{&quot;index&quot;:null}" fill="url(#color-6)" stroke="#000000" stroke-width="0" stroke-linecap="round"/><path d="M148.40769,127.39296l91.59032,-52.60903l91.5943,52.60903v105.21408l-91.5943,52.60903l-91.59032,-52.60903z" fill="none" stroke="#000000" stroke-width="12.5" stroke-linecap="butt"/></g></g></svg>