<svg version="1.1" xmlns="http://www.w3.org/2000/svg" xmlns:xlink="http://www.w3.org/1999/xlink" width="196.21341" height="224.84738" viewBox="0,0,196.21341,224.84738"><defs><radialGradient cx="163.83333" cy="224.66667" r="105.21607" gradientUnits="userSpaceOnUse" id="color-1"><stop offset="0" stop-color="#fff100"/><stop offset="1" stop-color="#e4d200"/></radialGradient><linearGradient x1="240" y1="94.31257" x2="240" y2="265.68743" gradientUnits="userSpaceOnUse" id="color-2"><stop offset="0" stop-color="#ffffff"/><stop offset="1" stop-color="#ffffff" stop-opacity="0"/></linearGradient><radialGradient cx="259.99324" cy="161.8097" r="61.61388" gradientUnits="userSpaceOnUse" id="color-3"><stop offset="0" stop-color="#fff100"/><stop offset="1" stop-color="#fff100" stop-opacity="0"/></radialGradient><radialGradient cx="224.80847" cy="196.7845" r="78.50307" gradientUnits="userSpaceOnUse" id="color-4"><stop offset="0" stop-color="#fff762"/><stop offset="1" stop-color="#fff762" stop-opacity="0"/></radialGradient><linearGradient x1="102.37567" y1="320.68319" x2="250.30175" y2="172.75712" gradientUnits="userSpaceOnUse" id="color-5"><stop offset="0" stop-color="#000000" stop-opacity="0"/><stop offset="1" stop-color="#000000"/></linearGradient><linearGradient x1="102.37567" y1="320.68319" x2="250.30175" y2="172.75712" gradientUnits="userSpaceOnUse" id="color-6"><stop offset="0" stop-color="#000000" stop-opacity="0"/><stop offset="1" stop-color="#000000"/></linearGradient><radialGradient cx="249.48672" cy="165.79445" r="32.99973" gradientUnits="userSpaceOnUse" id="color-7"><stop offset="0" stop-color="#ffffff"/><stop offset="1" stop-color="#ffffff" stop-opacity="0"/></radialGradient><linearGradient x1="117.00902" y1="343.54734" x2="236.40519" y2="244.2857" gradientUnits="userSpaceOnUse" id="color-8"><stop offset="0" stop-color="#000000" stop-opacity="0"/><stop offset="1" stop-color="#000000"/></linearGradient><linearGradient x1="99.18723" y1="303.49156" x2="195.158" y2="181.43448" gradientUnits="userSpaceOnUse" id="color-9"><stop offset="0" stop-color="#000000" stop-opacity="0"/><stop offset="1" stop-color="#000000"/></linearGradient><linearGradient x1="99.18723" y1="303.49156" x2="195.158" y2="181.43448" gradientUnits="userSpaceOnUse" id="color-10"><stop offset="0" stop-color="#000000" stop-opacity="0"/><stop offset="1" stop-color="#000000"/></linearGradient></defs><g transform="translate(-141.62891,-67.57631)"><g data-paper-data="{&quot;isPaintingLayer&quot;:true}" fill-rule="nonzero" stroke-linejoin="miter" stroke-miterlimit="10" stroke-dasharray="" stroke-dashoffset="0" style="mix-blend-mode: normal"><path d="M148.40769,127.39296l91.59032,-52.60903l91.5943,52.60903v105.21408l-91.5943,52.60903l-91.59032,-52.60903z" fill="url(#color-1)" stroke="#000000" stroke-width="12.5" stroke-linecap="butt"/><path d="M165.40769,137.1571l74.59069,-42.84453l74.59393,42.84453v85.68581l-74.59393,42.84453l-74.59069,-42.84453z" fill="none" stroke="url(#color-2)" stroke-width="12.5" stroke-linecap="butt"/><path d="M199.07892,196.31707c-1.34891,-0.70827 -1.2405,-2.40654 -1.2405,-2.40654l0.06369,-0.85971c-0.07427,-4.19752 -1.04855,-8.20396 1.42541,-12.04647c1.48642,-2.30869 4.57809,-4.85284 6.59866,-6.72962c1.28251,-1.19125 3.16012,-1.81451 4.0835,-3.30153c0.4724,-0.76076 2.3859,-6.34639 2.58745,-7.34971c1.87798,-9.34851 -4.79597,-16.4102 -5.88315,-25.29707c-0.27358,-1.62726 -0.91571,-3.23443 -0.82071,-4.8818c0.38389,-6.65758 5.63179,-12.84614 9.70042,-17.5918c7.26211,-8.47057 19.60739,-15.3012 31.14564,-12.65482c4.15189,0.95227 8.86959,3.54452 12.22709,6.13586c2.85252,2.20159 4.5448,5.40424 7.24001,7.73865c2.09682,1.81611 2.69928,1.71896 5.67036,2.97332c7.77519,-0.97547 14.37995,-5.38408 22.06802,-6.50249c5.57343,-0.81079 10.50109,0.95299 15.55794,3.00463c7.32369,2.97132 17.81721,7.04387 21.40036,14.82927c1.65633,3.59884 2.0217,7.48767 2.00536,11.38485c-0.01004,2.39578 -0.66095,4.79188 -1.54071,7.0203c-3.53289,8.70589 -7.20866,16.84725 -14.07185,23.47302c-1.86543,1.80091 -6.28349,5.96893 -8.63078,6.99773c-3.6528,1.601 -6.03207,0.5413 -9.68573,0.07166c-3.76221,-0.48359 -7.87599,-1.15372 -11.65869,-1.17414c-6.95439,-0.03751 -14.0713,2.57701 -20.46772,5.11556c-5.46217,3.81489 -10.43501,7.72544 -15.22474,12.37526c-5.58913,5.42589 -11.49235,13.12991 -19.45673,15.12603c-6.68279,1.67491 -13.41397,-0.98116 -19.29277,-4.02679c-4.99424,-2.58736 -8.82719,-7.04005 -13.11418,-10.56223c0,0 -0.39543,-0.32528 -0.68573,-0.86142z" fill="url(#color-3)" stroke="none" stroke-width="0.5" stroke-linecap="butt"/><path d="M143.22688,160.71425c-0.3008,-1.91773 1.51834,-3.09748 1.51834,-3.09748l0.92758,-0.58821c4.23619,-3.2659 7.59298,-7.30698 13.40266,-7.69711c3.49062,-0.23441 8.44195,0.99386 11.8968,1.63393c2.19289,0.40627 4.25718,1.85276 6.47963,1.66699c1.137,-0.09504 8.30337,-2.38304 9.48259,-2.93941c10.9875,-5.18397 13.13726,-17.37571 21.39927,-25.24118c1.45622,-1.51643 2.61181,-3.39449 4.3687,-4.54927c7.10016,-4.66691 17.41712,-4.00316 25.3623,-3.44886c14.1814,0.98936 30.54869,8.42334 36.61096,22.23415c2.18143,4.96964 3.1157,11.76424 3.01721,17.16713c-0.08368,4.59027 -2.07283,8.75477 -2.41187,13.2851c-0.26376,3.52449 0.29343,4.06678 1.26855,8.05844c6.9064,7.21003 16.43425,10.61407 23.42062,17.62638c5.06473,5.08354 7.00581,11.46324 8.75069,18.19383c2.52706,9.7477 6.33689,23.57394 1.09815,33.15486c-2.42163,4.42883 -6.12091,7.75783 -10.1188,10.70282c-2.45769,1.81043 -5.40275,2.96571 -8.35023,3.75952c-11.58798,3.00318 -22.70725,5.43124 -34.69887,3.44787c-3.25936,-0.53907 -10.87936,-1.8897 -13.71531,-3.50833c-4.41324,-2.51886 -5.13769,-5.75738 -7.43404,-9.85072c-2.36458,-4.21495 -4.80557,-8.93122 -7.65939,-12.81514c-5.24669,-7.14046 -13.32901,-12.43169 -20.7861,-17.04384c-8.05235,-2.68677 -15.83067,-4.80041 -24.22583,-6.16498c-9.79633,-1.59231 -22.16111,-1.77452 -30.25506,-8.40239c-6.7915,-5.56135 -9.19068,-14.46353 -10.5437,-22.79008c-1.14944,-7.07368 0.49125,-14.37734 0.83529,-21.43816c0,0 0.03214,-0.65158 0.35982,-1.35591z" fill="url(#color-4)" stroke="none" stroke-width="0.5" stroke-linecap="butt"/><g stroke-width="0"><path d="M239.74493,162.2003l21.11368,21.11368l-80.72913,69.8561c-3.19876,-3.7976 -7.5077,-6.62931 -12.42663,-7.99494z" fill="url(#color-5)" stroke="none" stroke-linecap="butt"/><path d="" fill="url(#color-6)" stroke="none" stroke-linecap="butt"/><g stroke="#ff0000" stroke-linecap="round"><path d="M297.73681,152.63202l-46.41734,46.8959l-38.76083,10.0491l7.66762,-41.14717l46.41734,-46.89589l38.76083,-10.04911z" data-paper-data="{&quot;index&quot;:null}" fill="#000000"/><path d="M285.28418,155.41413l-32.14498,32.47637l-26.84272,6.95921l5.30999,-28.49527l32.14497,-32.47639l26.84274,-6.9592z" data-paper-data="{&quot;index&quot;:null}" fill="#fff762"/></g></g><path d="M215.46471,181.55748c-0.68916,-0.43694 -0.5572,-1.33875 -0.5572,-1.33875l0.07149,-0.45615c0.14346,-2.24391 -0.20183,-4.42509 1.28642,-6.36833c0.89417,-1.16755 2.65553,-2.39077 3.816,-3.30446c0.73658,-0.57995 1.76605,-0.83075 2.32385,-1.58426c0.28535,-0.38548 1.55048,-3.28367 1.70183,-3.81046c1.4103,-4.90841 -1.84424,-8.96914 -2.03691,-13.76046c-0.07505,-0.88059 -0.34772,-1.76651 -0.22514,-2.64176c0.49536,-3.53713 3.56671,-6.61171 5.9456,-8.96749c4.24611,-4.20487 11.1341,-7.31256 17.17788,-5.39656c2.17478,0.68945 4.58005,2.27902 6.25928,3.80878c1.42667,1.29968 2.1903,3.08312 3.5272,4.44682c1.04008,1.06094 1.36591,1.03534 2.89719,1.83454c4.19301,-0.18152 7.91102,-2.24675 12.06379,-2.50838c3.01051,-0.18967 5.56401,0.9668 8.1739,2.2826c3.77984,1.90562 9.20371,4.53736 10.77679,8.84958c0.72716,1.99334 0.75257,4.08518 0.57383,6.16483c-0.10987,1.27845 -0.56188,2.52912 -1.12871,3.68029c-2.26569,4.49317 -4.58301,8.67876 -8.53567,11.91624c-1.07434,0.87996 -3.61458,2.91215 -4.91246,3.35893c-2.01974,0.69528 -3.24359,0.02579 -5.17347,-0.38429c-1.98721,-0.42226 -4.15395,-0.95945 -6.1723,-1.13536c-3.71069,-0.3234 -7.62381,0.76178 -11.14903,1.83785c-3.08219,1.79814 -5.90732,3.66871 -8.66697,5.94186c-3.22023,2.65256 -6.7075,6.50753 -11.04604,7.22563c-3.6404,0.60253 -7.1177,-1.10894 -10.123,-2.99118c-2.55309,-1.59903 -4.4049,-4.14312 -6.53969,-6.21031c0,0 -0.1969,-0.1909 -0.32847,-0.48976z" fill="url(#color-7)" stroke="none" stroke-width="0.5" stroke-linecap="butt"/><g stroke-width="0"><g fill="#000000" stroke="#ff0000" stroke-linecap="round"><path d="M272.83305,232.63993l-37.49758,31.50074l-26.97005,4.40364c-0.60353,-0.47088 -1.22923,-0.91466 -1.87528,-1.32951l7.98142,-28.1741l37.49758,-31.50075l29.33117,-4.78916z" data-paper-data="{&quot;index&quot;:null}"/><path d="M263.44025,233.84865l-25.96786,21.81491l-20.31249,3.31659l5.86379,-20.69885l25.96785,-21.81491l20.31249,-3.31659z" data-paper-data="{&quot;index&quot;:null}"/></g><path d="M229.32134,235.76493l14.16774,17.04156l-29.83637,21.36785c-0.96996,-1.41879 -2.08231,-2.73252 -3.31647,-3.92062c-1.21692,-1.1715 -2.55227,-2.22084 -3.98631,-3.1283c-1.82132,-1.57296 -3.98869,-2.63001 -6.35054,-3.2682z" fill="url(#color-8)" stroke="none" stroke-linecap="butt"/></g><g stroke-width="0"><g fill="#000000" stroke="#ff0000" stroke-linecap="round"><path d="M228.34072,162.42081l-30.07222,38.65265l-27.67867,10.82335l2.02255,-30.99943l30.07222,-38.65265l27.67868,-10.82335z" data-paper-data="{&quot;index&quot;:null}"/><path d="M219.40908,165.56907l-20.82565,26.76776l-19.16809,7.4954l1.40068,-21.46775l20.82564,-26.76776l19.16809,-7.4954z" data-paper-data="{&quot;index&quot;:null}"/></g><path d="M186.44734,174.58548l17.42135,13.69803l-46.28704,50.85618c-2.15138,-3.66922 -5.21174,-6.74096 -8.87192,-8.90605z" fill="url(#color-9)" stroke="none" stroke-linecap="butt"/><path d="" fill="url(#color-10)" stroke="none" stroke-linecap="butt"/></g></g></g></svg>