<svg version="1.1" xmlns="http://www.w3.org/2000/svg" xmlns:xlink="http://www.w3.org/1999/xlink" width="195.68462" height="224.84738" viewBox="0,0,195.68462,224.84738"><defs><radialGradient cx="163.83333" cy="224.6667" r="105.21607" gradientUnits="userSpaceOnUse" id="color-1"><stop offset="0" stop-color="#b8ffe6"/><stop offset="1" stop-color="#00ffcd"/></radialGradient><radialGradient cx="255.73174" cy="175.09512" r="78.50307" gradientUnits="userSpaceOnUse" id="color-2"><stop offset="0" stop-color="#b8ffe6"/><stop offset="1" stop-color="#b8ffe6" stop-opacity="0"/></radialGradient></defs><g transform="translate(-142.15769,-67.57634)"><g data-paper-data="{&quot;isPaintingLayer&quot;:true}" fill-rule="nonzero" stroke-linejoin="miter" stroke-miterlimit="10" stroke-dasharray="" stroke-dashoffset="0" style="mix-blend-mode: normal"><path d="M148.40769,127.39299l91.59032,-52.60903l91.5943,52.60903v105.21408l-91.5943,52.60903l-91.59032,-52.60903z" fill="url(#color-1)" stroke="#000000" stroke-width="12.5" stroke-linecap="butt"/><path d="M272.91758,87.56638c0.765,0.13504 1.31742,0.48206 1.31742,0.48206c5.98383,3.76395 12.90965,6.60442 18.04822,11.59973c6.04871,5.88008 11.96973,12.94736 12.6359,21.70004c0.79393,10.43122 -6.1419,20.66916 -10.45033,29.61013c-3.69218,7.66213 -6.41702,15.24798 -8.82917,23.38682c-0.49311,8.75426 -0.78796,18.41003 2.05758,26.80151c1.54779,4.56436 4.01429,9.26735 6.11371,13.62045c2.03886,4.2275 4.27786,6.67692 3.81335,11.73711c-0.29848,3.25169 -3.55791,10.27057 -4.98377,13.25067c-5.24585,10.96419 -13.60723,18.68567 -22.70853,26.46172c-2.33951,1.96074 -4.97386,3.71237 -7.86588,4.68916c-4.70441,1.58894 -9.5524,2.71314 -14.56966,2.16001c-10.85388,-1.19658 -20.00207,-12.24151 -26.54274,-19.89809c-4.51621,-5.28671 -8.63243,-10.53316 -9.89648,-17.59687c-1.74365,-9.74379 0.92614,-19.50288 -1.02538,-29.29443c-2.7126,-3.08641 -2.83775,-3.85379 -5.87738,-5.6572c-3.90709,-2.31807 -8.45991,-3.07419 -12.2698,-5.63588c-4.48436,-3.01519 -9.51751,-7.67424 -12.34039,-12.30969c-7.84487,-12.88205 -4.55873,-30.55559 2.75655,-42.74484c4.09841,-6.82907 9.46614,-15.66463 17.35937,-18.80936c1.95311,-0.77816 4.15443,-0.64907 6.23165,-0.97358c11.18035,-2.26411 22.4039,2.96005 32.94837,-3.07425c1.13167,-0.64763 7.11321,-5.20976 7.84261,-6.08713c1.42573,-1.71496 1.42312,-4.2356 2.34671,-6.26557c1.45512,-3.19818 3.28565,-7.95985 5.47793,-10.68626c3.64874,-4.53775 8.88407,-4.97321 13.98801,-6.57358l1.01359,-0.42314c0,0 2.00924,-0.81486 3.40856,0.53054z" data-paper-data="{&quot;index&quot;:null}" fill="url(#color-2)" stroke="none" stroke-width="0.5" stroke-linecap="butt"/><g fill="#000000"><path d="M186.41084,182.65317l27.14257,-43.84564l52.89317,-0.34798l27.14257,44.19364l-27.83852,45.23758h-51.84925z" stroke="#000000" stroke-width="10" stroke-linecap="round"/><g stroke="none" stroke-width="0" stroke-linecap="butt"><path d="M215.34046,226.68344l-27.42936,-43.85385l104.17753,-0.0001l-26.37424,43.85395z"/><path d="M265.71466,139.66686l26.37422,43.85395h-104.17743l27.42926,-43.85395z" data-paper-data="{&quot;index&quot;:null}"/></g><g stroke="none" stroke-width="0" stroke-linecap="butt"><path d="M195.2073,183.22583c0,-24.73834 20.05439,-44.79273 44.79273,-44.79273c24.73834,0 44.79273,20.05439 44.79273,44.79273c0,24.73834 -20.05439,44.79273 -44.79273,44.79273c-24.73834,0 -44.79273,-20.05439 -44.79273,-44.79273z"/><path d="M195.2073,183.22583c0,-24.73834 20.05439,-44.79273 44.79273,-44.79273c24.73834,0 44.79273,20.05439 44.79273,44.79273c0,24.73834 -20.05439,44.79273 -44.79273,44.79273c-24.73834,0 -44.79273,-20.05439 -44.79273,-44.79273z"/></g><path d="M230.00344,119.98144h19.99313v30.38956h-19.99313z" stroke="none" stroke-width="NaN" stroke-linecap="butt"/><path d="M262.36321,209.13893l10.68999,-16.89526l25.68078,16.24878l-10.68999,16.89526z" data-paper-data="{&quot;index&quot;:null}" stroke="none" stroke-width="NaN" stroke-linecap="butt"/><path d="M191.95601,225.38772l-10.68999,-16.89524l25.68078,-16.24878l10.68999,16.89524z" data-paper-data="{&quot;index&quot;:null}" stroke="none" stroke-width="NaN" stroke-linecap="butt"/></g><path d="M221.60105,201.39895c-10.16146,-10.16146 -10.16146,-26.63645 0,-36.7979c10.16146,-10.16146 26.63645,-10.16146 36.7979,0c10.16146,10.16146 10.16146,26.63645 0,36.7979c-10.16146,10.16146 -26.63645,10.16146 -36.7979,0z" fill="#b8ffe6" stroke="#b8ffe6" stroke-width="0" stroke-linecap="butt"/></g></g></svg>