<svg version="1.1" xmlns="http://www.w3.org/2000/svg" xmlns:xlink="http://www.w3.org/1999/xlink" width="195.68462" height="224.84738" viewBox="0,0,195.68462,224.84738"><defs><radialGradient cx="240.00002" cy="180.00001" r="105.21607" gradientUnits="userSpaceOnUse" id="color-1"><stop offset="0" stop-color="#b8ffed"/><stop offset="1" stop-color="#00ffe5"/></radialGradient><radialGradient cx="219.50886" cy="185.31567" r="78.50307" gradientUnits="userSpaceOnUse" id="color-2"><stop offset="0" stop-color="#e3fff8"/><stop offset="1" stop-color="#e3fff8" stop-opacity="0"/></radialGradient></defs><g transform="translate(-142.15769,-67.57632)"><g data-paper-data="{&quot;isPaintingLayer&quot;:true}" fill-rule="nonzero" stroke-linejoin="miter" stroke-miterlimit="10" stroke-dasharray="" stroke-dashoffset="0" style="mix-blend-mode: normal"><path d="M148.40769,127.39297l91.59032,-52.60903l91.5943,52.60903v105.21408l-91.5943,52.60903l-91.59032,-52.60903z" fill="url(#color-1)" stroke="#000000" stroke-width="12.5" stroke-linecap="butt"/><path d="M157.88855,120.82105c0.45445,-1.88723 2.58627,-2.28275 2.58627,-2.28275l1.08192,-0.18934c5.1624,-1.40036 9.80814,-3.853 15.32639,-1.99464c3.31552,1.11655 7.42237,4.14279 10.37084,6.05387c1.87148,1.21301 3.2268,3.33827 5.35172,4.01541c1.0871,0.34643 8.58405,0.96897 9.88637,0.90517c12.13447,-0.59445 18.77771,-11.04086 29.41747,-15.15449c1.925,-0.84529 3.71028,-2.13961 5.77503,-2.53583c8.34435,-1.6013 17.62566,2.95254 24.7568,6.49936c12.72842,6.33073 25.0156,19.45238 25.34344,34.53157c0.11797,5.42605 -1.61368,12.06238 -3.76826,17.01805c-1.83052,4.21032 -5.25944,7.29938 -7.30307,11.35677c-1.58989,3.15656 -1.28206,3.87055 -1.90542,7.93203c3.62905,9.30123 11.13446,16.08623 14.91294,25.23527c2.73919,6.63255 2.09648,13.26997 1.13843,20.15674c-1.38751,9.97389 -3.14723,24.20706 -11.64811,31.06078c-3.92957,3.16817 -8.61987,4.83191 -13.43947,6.0267c-2.96284,0.7345 -6.12587,0.67738 -9.15309,0.28526c-11.85651,-1.65035 -23.06017,-3.65321 -33.38518,-10.06624c-2.80637,-1.74307 -9.33284,-5.90165 -11.33559,-8.48072c-3.11663,-4.01348 -2.54925,-7.28317 -3.10812,-11.94325c-0.57548,-4.79853 -1.03011,-10.08955 -2.18417,-14.769c-2.12174,-8.60303 -7.57043,-16.58005 -12.70064,-23.69067c-6.41572,-5.55856 -12.79708,-10.48278 -20.03462,-14.95031c-8.4455,-5.21316 -19.8033,-10.1041 -24.75223,-19.32087c-4.15256,-7.73365 -2.96979,-16.87728 -1.04004,-25.08935c1.63939,-6.97643 5.94522,-13.09975 8.95996,-19.49389c0,0 0.27857,-0.58991 0.85041,-1.11569z" fill="url(#color-2)" stroke="none" stroke-width="0.5" stroke-linecap="butt"/><g fill="none" stroke="#beffef" stroke-width="20" stroke-linecap="round"><g><path d="M165.74594,179.68736c0,0 25.92696,-36.87092 77.80387,-37.26041c47.99896,-0.36037 70.70428,36.76586 70.70428,36.76586"/><g><path d="M240.0379,117.31267l0.2,24.6"/><path d="M202.4379,148.31267l-10.2,-19.60001"/><path d="M287.8379,128.71266l-10.2,19.60001" data-paper-data="{&quot;index&quot;:null}"/></g></g><g data-paper-data="{&quot;index&quot;:null}"><path d="M314.25408,180.80721c0,0 -22.70531,37.12624 -70.70427,36.76587c-51.87691,-0.38949 -77.80387,-37.26041 -77.80387,-37.26041"/><g><path d="M240.0379,242.68736l0.2,-24.6"/><path d="M192.2379,231.28736l10.2,-19.6"/><path d="M277.6379,211.68736l10.2,19.6" data-paper-data="{&quot;index&quot;:null}"/></g></g></g><g fill="none" stroke="#ffffff" stroke-width="10" stroke-linecap="round"><g><path d="M165.74594,179.68736c0,0 25.92696,-36.87092 77.80387,-37.26041c47.99896,-0.36037 70.70427,36.76586 70.70427,36.76586"/><g><path d="M240.23789,141.91266l-0.2,-24.6"/><path d="M202.43789,148.31266l-10.2,-19.6"/><path d="M287.83789,128.71266l-10.2,19.6" data-paper-data="{&quot;index&quot;:null}"/></g></g><g data-paper-data="{&quot;index&quot;:null}"><path d="M314.25408,180.80721c0,0 -22.70531,37.12623 -70.70427,36.76586c-51.87691,-0.38949 -77.80387,-37.26041 -77.80387,-37.26041"/><g><path d="M240.23789,218.08736l-0.2,24.6"/><path d="M202.43789,211.68736l-10.2,19.6"/><path d="M277.63789,211.68736l10.2,19.6" data-paper-data="{&quot;index&quot;:null}"/></g></g></g><g fill="#000000" stroke="none" stroke-linecap="butt"><g stroke-width="0"><path d="M226.38047,204.351l-15.14933,-24.22062l57.53758,-0.00006l-14.56658,24.22068z"/><path d="M254.2023,156.29147l14.56657,24.22068h-57.53753l15.14926,-24.22068z" data-paper-data="{&quot;index&quot;:null}"/></g><g stroke-width="0"><path d="M218.25904,180.34584c0,-12.00721 9.73377,-21.74098 21.74098,-21.74098c12.00721,0 21.74098,9.73377 21.74098,21.74098c0,12.00721 -9.73377,21.74098 -21.74098,21.74098c-12.00721,0 -21.74098,-9.73377 -21.74098,-21.74098z"/><path d="M218.25904,180.34584c0,-12.00721 9.73377,-21.74098 21.74098,-21.74098c12.00721,0 21.74098,9.73377 21.74098,21.74098c0,12.00721 -9.73377,21.74098 -21.74098,21.74098c-12.00721,0 -21.74098,-9.73377 -21.74098,-21.74098z"/></g><path d="M235.14799,149.649h9.70404v14.75013h-9.70404z" stroke-width="NaN"/><path d="M250.85441,192.92324l5.18858,-8.20043l12.46465,7.88665l-5.18858,8.20043z" data-paper-data="{&quot;index&quot;:null}" stroke-width="NaN"/><path d="M216.68097,200.80989l-5.18858,-8.20041l12.46465,-7.88665l5.18858,8.20041z" data-paper-data="{&quot;index&quot;:null}" stroke-width="NaN"/></g><g fill="#b8ffed" stroke-linecap="butt"><path d="M230.89287,188.60777c-5.05602,-5.05602 -5.05602,-13.25346 0,-18.30948c5.05602,-5.05602 13.25346,-5.05602 18.30948,0c5.05602,5.05602 5.05602,13.25346 0,18.30948c-5.05602,5.05602 -13.25346,5.05602 -18.30948,0z" stroke="none" stroke-width="0"/><path d="M232.39885,187.10179c-4.22429,-4.22429 -4.2243,-11.07323 0,-15.29753c4.22429,-4.22429 11.07323,-4.2243 15.29753,0c4.22429,4.22429 4.2243,11.07323 0,15.29753c-4.22429,4.22429 -11.07323,4.2243 -15.29753,0z" stroke="none" stroke-width="0"/><path d="M247.15385,177.89512l-5.54833,-5.54833l9.56608,-9.56608l5.54833,5.54833z" stroke="none" stroke-width="0"/><path d="M233.96427,185.53637c-3.35973,-3.35973 -3.35974,-8.80695 0,-12.16669c3.35973,-3.35973 8.80695,-3.35974 12.16669,0c3.35973,3.35973 3.35974,8.80695 0,12.16669c-3.35973,3.35973 -8.80695,3.35974 -12.16669,0z" stroke="#b8ffed" stroke-width="2.5"/></g></g></g></svg>