<svg version="1.1" xmlns="http://www.w3.org/2000/svg" xmlns:xlink="http://www.w3.org/1999/xlink" width="196.21341" height="224.84738" viewBox="0,0,196.21341,224.84738"><defs><radialGradient cx="163.83333" cy="224.66667" r="105.21607" gradientUnits="userSpaceOnUse" id="color-1"><stop offset="0" stop-color="#ffedb0"/><stop offset="1" stop-color="#ffd900"/></radialGradient><linearGradient x1="240" y1="94.31257" x2="240" y2="265.68743" gradientUnits="userSpaceOnUse" id="color-2"><stop offset="0" stop-color="#ffffff"/><stop offset="1" stop-color="#ffffff" stop-opacity="0"/></linearGradient><radialGradient cx="259.99324" cy="161.8097" r="61.61388" gradientUnits="userSpaceOnUse" id="color-3"><stop offset="0" stop-color="#ffdd6e"/><stop offset="1" stop-color="#ffdd6e" stop-opacity="0"/></radialGradient><radialGradient cx="224.80847" cy="196.7845" r="78.50307" gradientUnits="userSpaceOnUse" id="color-4"><stop offset="0" stop-color="#ffedb0"/><stop offset="1" stop-color="#ffedb0" stop-opacity="0"/></radialGradient><linearGradient x1="108.03712" y1="294.3396" x2="232.53046" y2="169.84626" gradientUnits="userSpaceOnUse" id="color-5"><stop offset="0" stop-color="#000000" stop-opacity="0"/><stop offset="1" stop-color="#000000"/></linearGradient><linearGradient x1="108.03712" y1="294.3396" x2="232.53046" y2="169.84626" gradientUnits="userSpaceOnUse" id="color-6"><stop offset="0" stop-color="#000000" stop-opacity="0"/><stop offset="1" stop-color="#000000"/></linearGradient><linearGradient x1="127.02122" y1="338.9448" x2="232.58263" y2="233.38339" gradientUnits="userSpaceOnUse" id="color-7"><stop offset="0" stop-color="#000000" stop-opacity="0"/><stop offset="1" stop-color="#000000"/></linearGradient><radialGradient cx="231.84454" cy="163.98654" r="27.77229" gradientUnits="userSpaceOnUse" id="color-8"><stop offset="0" stop-color="#ffffff"/><stop offset="1" stop-color="#ffffff" stop-opacity="0"/></radialGradient><radialGradient cx="234.84454" cy="226.98654" r="27.77229" gradientUnits="userSpaceOnUse" id="color-9"><stop offset="0" stop-color="#fff1c1"/><stop offset="1" stop-color="#fff1c1" stop-opacity="0"/></radialGradient></defs><g transform="translate(-141.6289,-67.57631)"><g data-paper-data="{&quot;isPaintingLayer&quot;:true}" fill-rule="nonzero" stroke-linejoin="miter" stroke-miterlimit="10" stroke-dasharray="" stroke-dashoffset="0" style="mix-blend-mode: normal"><path d="M148.40769,127.39296l91.59032,-52.60903l91.5943,52.60903v105.21408l-91.5943,52.60903l-91.59032,-52.60903z" fill="url(#color-1)" stroke="#000000" stroke-width="12.5" stroke-linecap="butt"/><path d="M165.40769,137.1571l74.59069,-42.84453l74.59393,42.84453v85.68581l-74.59393,42.84453l-74.59069,-42.84453z" fill="none" stroke="url(#color-2)" stroke-width="12.5" stroke-linecap="butt"/><path d="M199.07892,196.31707c-1.34891,-0.70827 -1.2405,-2.40654 -1.2405,-2.40654l0.06369,-0.85971c-0.07427,-4.19752 -1.04855,-8.20396 1.42541,-12.04647c1.48642,-2.30869 4.57809,-4.85284 6.59866,-6.72962c1.28251,-1.19125 3.16012,-1.81451 4.0835,-3.30153c0.4724,-0.76076 2.3859,-6.34639 2.58745,-7.34971c1.87798,-9.34851 -4.79597,-16.4102 -5.88315,-25.29707c-0.27358,-1.62726 -0.91571,-3.23443 -0.82071,-4.8818c0.38389,-6.65758 5.63179,-12.84614 9.70042,-17.5918c7.26211,-8.47057 19.60739,-15.3012 31.14564,-12.65482c4.15189,0.95227 8.86959,3.54452 12.22709,6.13586c2.85252,2.20159 4.5448,5.40424 7.24001,7.73865c2.09682,1.81611 2.69928,1.71896 5.67036,2.97332c7.77519,-0.97547 14.37995,-5.38408 22.06802,-6.50249c5.57343,-0.81079 10.50109,0.95299 15.55794,3.00463c7.32369,2.97132 17.81721,7.04387 21.40036,14.82927c1.65633,3.59884 2.0217,7.48767 2.00536,11.38485c-0.01004,2.39578 -0.66095,4.79188 -1.54071,7.0203c-3.53289,8.70589 -7.20866,16.84725 -14.07185,23.47302c-1.86543,1.80091 -6.28349,5.96893 -8.63078,6.99773c-3.6528,1.601 -6.03207,0.5413 -9.68573,0.07166c-3.76221,-0.48359 -7.87599,-1.15372 -11.65869,-1.17414c-6.95439,-0.03751 -14.0713,2.57701 -20.46772,5.11556c-5.46217,3.81489 -10.43501,7.72544 -15.22474,12.37526c-5.58913,5.42589 -11.49235,13.12991 -19.45673,15.12603c-6.68279,1.67491 -13.41397,-0.98116 -19.29277,-4.02679c-4.99424,-2.58736 -8.82719,-7.04005 -13.11418,-10.56223c0,0 -0.39543,-0.32528 -0.68573,-0.86142z" fill="url(#color-3)" stroke="none" stroke-width="0.5" stroke-linecap="butt"/><path d="M143.22688,160.71425c-0.3008,-1.91773 1.51834,-3.09748 1.51834,-3.09748l0.92758,-0.58821c4.23619,-3.2659 7.59298,-7.30698 13.40266,-7.69711c3.49062,-0.23441 8.44195,0.99386 11.8968,1.63393c2.19289,0.40627 4.25718,1.85276 6.47963,1.66699c1.137,-0.09504 8.30337,-2.38304 9.48259,-2.93941c10.9875,-5.18397 13.13726,-17.37571 21.39927,-25.24118c1.45622,-1.51643 2.61181,-3.39449 4.3687,-4.54927c7.10016,-4.66691 17.41712,-4.00316 25.3623,-3.44886c14.1814,0.98936 30.54869,8.42334 36.61096,22.23415c2.18143,4.96964 3.1157,11.76424 3.01721,17.16713c-0.08368,4.59027 -2.07283,8.75477 -2.41187,13.2851c-0.26376,3.52449 0.29343,4.06678 1.26855,8.05844c6.9064,7.21003 16.43425,10.61407 23.42062,17.62638c5.06473,5.08354 7.00581,11.46324 8.75069,18.19383c2.52706,9.7477 6.33689,23.57394 1.09815,33.15486c-2.42163,4.42883 -6.12091,7.75783 -10.1188,10.70282c-2.45769,1.81043 -5.40275,2.96571 -8.35023,3.75952c-11.58798,3.00318 -22.70725,5.43124 -34.69887,3.44787c-3.25936,-0.53907 -10.87936,-1.8897 -13.71531,-3.50833c-4.41324,-2.51886 -5.13769,-5.75738 -7.43404,-9.85072c-2.36458,-4.21495 -4.80557,-8.93122 -7.65939,-12.81514c-5.24669,-7.14046 -13.32901,-12.43169 -20.7861,-17.04384c-8.05235,-2.68677 -15.83067,-4.80041 -24.22583,-6.16498c-9.79633,-1.59231 -22.16111,-1.77452 -30.25506,-8.40239c-6.7915,-5.56135 -9.19068,-14.46353 -10.5437,-22.79008c-1.14944,-7.07368 0.49125,-14.37734 0.83529,-21.43816c0,0 0.03214,-0.65158 0.35982,-1.35591z" fill="url(#color-4)" stroke="none" stroke-width="0.5" stroke-linecap="butt"/><g stroke-width="0"><path d="M223.64593,160.96173l17.76909,17.76909l-74.97852,64.88001c-2.74526,-2.52969 -6.05837,-4.45246 -9.7264,-5.55543z" fill="url(#color-5)" stroke="none" stroke-linecap="butt"/><path d="" fill="url(#color-6)" stroke="none" stroke-linecap="butt"/><g stroke="#ff0000" stroke-linecap="round"><path d="M272.45142,152.90915l-39.06444,39.46719l-32.62079,8.45724l6.453,-34.62911l39.06444,-39.46719l32.62079,-8.45725z" data-paper-data="{&quot;index&quot;:null}" fill="#000000"/><path d="M261.97139,155.25055l-27.05294,27.33184l-22.59061,5.85681l4.46885,-23.98138l27.05293,-27.33185l22.59062,-5.85681z" data-paper-data="{&quot;index&quot;:null}" fill="#ffedb0"/></g></g><g stroke-width="0"><path d="M225.04919,225.84995l15.06691,15.06691l-32.48702,28.1115c-1.67655,-4.06309 -5.60509,-6.86576 -10.33918,-8.58645c-0.53982,-0.25867 -1.09037,-0.49854 -1.65079,-0.71875z" fill="url(#color-7)" stroke="none" stroke-linecap="butt"/><g stroke="#ff0000" stroke-linecap="round"><path d="M266.43274,219.02194l-33.12384,33.46535l-27.66008,7.17114l5.47168,-29.363l33.12384,-33.46535l27.66008,-7.17114z" data-paper-data="{&quot;index&quot;:null}" fill="#000000"/><path d="M257.54643,221.00728l-22.93895,23.17544l-19.15522,4.96615l3.78927,-20.33449l22.93895,-23.17544l19.15522,-4.96615z" data-paper-data="{&quot;index&quot;:null}" fill="#ffe180"/></g></g><path d="M203.21191,177.25257c-0.57999,-0.36772 -0.46893,-1.12668 -0.46893,-1.12668l0.06017,-0.38389c0.12074,-1.88846 -0.16986,-3.72412 1.08264,-5.35953c0.75253,-0.9826 2.23487,-2.01205 3.21151,-2.78101c0.6199,-0.48808 1.48629,-0.69915 1.95573,-1.3333c0.24015,-0.32442 1.30487,-2.76351 1.43225,-3.20685c1.1869,-4.13088 -1.5521,-7.54835 -1.71425,-11.58069c-0.06316,-0.7411 -0.29264,-1.48668 -0.18948,-2.22328c0.41689,-2.97682 3.00171,-5.56436 5.00377,-7.54697c3.57349,-3.53878 9.37037,-6.15419 14.45676,-4.5417c1.83028,0.58023 3.85453,1.91801 5.26775,3.20544c1.20067,1.0938 1.84334,2.59472 2.96846,3.7424c0.87532,0.89288 1.14954,0.87134 2.43825,1.54394c3.5288,-0.15277 6.65785,-1.89085 10.15278,-2.11103c2.53362,-0.15963 4.68262,0.81366 6.87909,1.92102c3.18108,1.60375 7.74577,3.8186 9.06966,7.44773c0.61197,1.67758 0.63335,3.43806 0.48293,5.18827c-0.09247,1.07593 -0.47287,2.12848 -0.94991,3.0973c-1.90678,3.78141 -3.85702,7.30397 -7.18355,10.02861c-0.90416,0.74057 -3.042,2.45084 -4.13429,2.82685c-1.69979,0.58514 -2.72978,0.02171 -4.35395,-0.32341c-1.67242,-0.35537 -3.49593,-0.80747 -5.19455,-0.95551c-3.12288,-0.27217 -6.41614,0.64111 -9.38293,1.54672c-2.59394,1.5133 -4.97155,3.08755 -7.29405,5.00062c-2.71012,2.23237 -5.64498,5.47668 -9.29626,6.08103c-3.06373,0.50709 -5.99019,-0.93327 -8.51943,-2.51735c-2.14866,-1.34573 -3.70713,-3.48682 -5.50375,-5.22654c0,0 -0.1657,-0.16066 -0.27643,-0.41218z" fill="url(#color-8)" stroke="none" stroke-width="0.5" stroke-linecap="butt"/><path d="M206.21191,240.25257c-0.57999,-0.36772 -0.46893,-1.12668 -0.46893,-1.12668l0.06017,-0.38389c0.12074,-1.88846 -0.16986,-3.72412 1.08264,-5.35953c0.75253,-0.9826 2.23487,-2.01205 3.21151,-2.78101c0.6199,-0.48808 1.48629,-0.69915 1.95573,-1.3333c0.24015,-0.32442 1.30487,-2.76351 1.43225,-3.20685c1.1869,-4.13088 -1.5521,-7.54835 -1.71425,-11.58069c-0.06316,-0.7411 -0.29264,-1.48668 -0.18948,-2.22328c0.41689,-2.97682 3.00171,-5.56436 5.00377,-7.54697c3.57349,-3.53878 9.37037,-6.15419 14.45676,-4.5417c1.83028,0.58023 3.85453,1.91801 5.26775,3.20544c1.20067,1.0938 1.84334,2.59472 2.96846,3.7424c0.87532,0.89288 1.14954,0.87134 2.43825,1.54394c3.5288,-0.15277 6.65785,-1.89085 10.15278,-2.11103c2.53362,-0.15963 4.68262,0.81366 6.87909,1.92102c3.18108,1.60375 7.74577,3.8186 9.06966,7.44773c0.61197,1.67758 0.63335,3.43806 0.48293,5.18827c-0.09247,1.07593 -0.47287,2.12848 -0.94991,3.0973c-1.90678,3.78141 -3.85702,7.30397 -7.18355,10.02861c-0.90416,0.74057 -3.042,2.45084 -4.13429,2.82685c-1.69979,0.58514 -2.72978,0.02171 -4.35395,-0.32341c-1.67242,-0.35537 -3.49593,-0.80747 -5.19455,-0.95551c-3.12288,-0.27217 -6.41614,0.64111 -9.38293,1.54672c-2.59394,1.5133 -4.97155,3.08755 -7.29405,5.00062c-2.71012,2.23237 -5.64498,5.47668 -9.29626,6.08103c-3.06373,0.50709 -5.99019,-0.93327 -8.51943,-2.51735c-2.14866,-1.34573 -3.70713,-3.48682 -5.50375,-5.22654c0,0 -0.1657,-0.16066 -0.27643,-0.41218z" fill="url(#color-9)" stroke="none" stroke-width="0.5" stroke-linecap="butt"/></g></g></svg>