<svg version="1.1" xmlns="http://www.w3.org/2000/svg" xmlns:xlink="http://www.w3.org/1999/xlink" width="107.04209" height="102.56845" viewBox="0,0,107.04209,102.56845"><defs><radialGradient cx="232.553" cy="171.31602" r="53.52105" gradientUnits="userSpaceOnUse" id="color-1"><stop offset="0" stop-color="#afa59c"/><stop offset="1" stop-color="#8f877f"/></radialGradient><linearGradient x1="260.21768" y1="186.76782" x2="260.21768" y2="227.0188" gradientUnits="userSpaceOnUse" id="color-2"><stop offset="0" stop-color="#8f877f"/><stop offset="1" stop-color="#5c5652"/></linearGradient><linearGradient x1="207.30187" y1="204.29095" x2="221.71416" y2="197.28684" gradientUnits="userSpaceOnUse" id="color-3"><stop offset="0" stop-color="#8f877f"/><stop offset="1" stop-color="#5c5652"/></linearGradient><linearGradient x1="206.34632" y1="168.76549" x2="213.94231" y2="169.39804" gradientUnits="userSpaceOnUse" id="color-4"><stop offset="0" stop-color="#8f877f"/><stop offset="1" stop-color="#5c5652"/></linearGradient></defs><g transform="translate(-186.47895,-128.71575)"><g data-paper-data="{&quot;isPaintingLayer&quot;:true}" fill-rule="nonzero" stroke-width="0" stroke-linejoin="miter" stroke-miterlimit="10" stroke-dasharray="" stroke-dashoffset="0" style="mix-blend-mode: normal"><path d="M190.48977,211.37623c-0.67243,-3.53781 1.22388,-15.24832 1.79487,-18.35154c0.99975,-5.43341 5.21678,-10.199 4.78645,-17.13037c-0.43033,-6.93137 -5.05082,-9.13911 -6.70628,-13.79228c-1.85164,-5.20461 -3.62066,-9.732 -3.88107,-16.25288c-0.11158,-2.79407 1.75179,-4.85221 2.52866,-5.89697c1.41318,-1.90049 2.99706,-3.98225 5.76953,-5.26266c2.77247,-1.28041 9.0479,-3.42014 14.50972,-4.10287c7.08362,-0.88545 15.20485,-3.25796 24.40591,-0.76158c9.20107,2.49637 16.74596,8.36856 24.22603,13.95608c8.27319,6.17997 15.4205,11.95464 23.27393,21.52582c7.85343,9.57119 6.60753,11.104 8.51025,17.21041c2.16478,6.94742 3.41999,13.45651 3.79396,22.27752c0.14258,3.3632 -0.51869,3.92562 -1.54078,5.45876c-1.35999,2.04 -2.96506,4.39974 -5.89898,5.70088c-2.93392,1.30114 -19.90851,8.20534 -30.87221,10.60648c-12.02111,2.63272 -23.31004,5.43643 -38.37473,4.55917c-6.79164,-0.3955 -5.7383,-2.83248 -7.69582,-4.89303c-1.59001,-1.67369 -0.82759,-4.9263 -3.17767,-6.55275c-2.35008,-1.62644 -6.69542,-0.62827 -8.94017,-1.83378c-2.78743,-1.49696 -5.8392,-2.92659 -6.51164,-6.46441z" fill="url(#color-1)" stroke="#ff0000" stroke-linecap="round"/><path d="M253.53693,227.0188c0,0 6.18538,-3.50183 7.53514,-7.63052c1.34976,-4.12868 3.4426,-6.07244 2.86144,-14.68875c-0.58116,-8.6163 -4.67369,-17.93172 -4.67369,-17.93172c0,0 4.40785,6.73437 6.10442,12.78111c1.69657,6.04675 1.71186,8.95913 1.33534,13.73493c-0.38834,4.92582 -1.62148,10.49196 -1.62148,10.49196c0,0 -3.33699,1.13793 -5.06866,1.56728c-2.05857,0.51039 -6.47249,1.67569 -6.47249,1.67569z" fill="url(#color-2)" stroke="#5c5652" stroke-linecap="round"/><path d="M221.71416,197.28684c3.31565,6.82259 2.77722,13.92131 -1.20263,15.85544c-3.97984,1.93413 -9.89401,-2.02875 -13.20966,-8.85133c-3.31565,-6.82259 -2.77722,-13.92131 1.20263,-15.85544c3.97984,-1.93413 9.89401,2.02875 13.20966,8.85133z" fill="url(#color-3)" stroke="none" stroke-linecap="butt"/><path d="M213.94231,169.39804c-0.19396,5.55149 -2.05161,9.91027 -4.14918,9.73558c-2.09757,-0.17467 -3.64076,-4.81666 -3.4468,-10.36815c0.19396,-5.55149 2.05161,-9.91027 4.14918,-9.73558c2.09757,0.17467 3.64076,4.81666 3.4468,10.36815z" fill="url(#color-4)" stroke="none" stroke-linecap="butt"/></g></g></svg>