<svg version="1.1" xmlns="http://www.w3.org/2000/svg" xmlns:xlink="http://www.w3.org/1999/xlink" width="54.04522" height="39.35132" viewBox="0,0,54.04522,39.35132"><defs><radialGradient cx="240.69469" cy="176.89643" r="27.02261" gradientUnits="userSpaceOnUse" id="color-1"><stop offset="0" stop-color="#afa59c"/><stop offset="1" stop-color="#8f877f"/></radialGradient><linearGradient x1="220.62631" y1="184.49858" x2="227.82752" y2="180.99892" gradientUnits="userSpaceOnUse" id="color-2"><stop offset="0" stop-color="#8f877f"/><stop offset="1" stop-color="#5c5652"/></linearGradient><linearGradient x1="259.56024" y1="169.88518" x2="254.21832" y2="172.03614" gradientUnits="userSpaceOnUse" id="color-3"><stop offset="0" stop-color="#8f877f"/><stop offset="1" stop-color="#5c5652"/></linearGradient><linearGradient x1="261.15399" y1="181.47155" x2="258.31128" y2="182.4719" gradientUnits="userSpaceOnUse" id="color-4"><stop offset="0" stop-color="#8f877f"/><stop offset="1" stop-color="#5c5652"/></linearGradient></defs><g transform="translate(-212.9774,-160.32434)"><g data-paper-data="{&quot;isPaintingLayer&quot;:true}" fill-rule="nonzero" stroke-width="0" stroke-linejoin="miter" stroke-miterlimit="10" stroke-dasharray="" stroke-dashoffset="0" style="mix-blend-mode: normal"><path d="M216.90625,188.20879c-0.84207,-1.13496 -1.08661,-0.79928 -1.89804,-3.55237c-0.81142,-2.75308 -1.12735,-4.76859 -1.28154,-7.23562c-0.16141,-2.58253 -1.7918,-4.84716 0.33375,-7.92895c2.12556,-3.08179 5.18522,-3.58787 8.35485,-4.66843c3.69878,-1.26094 8.04712,-3.58599 12.61491,-3.98012c4.56778,-0.39413 7.6568,0.83331 11.49912,0.58603c4.11603,-0.26489 8.84552,-1.93222 12.314,-0.58603c3.46847,1.34618 3.47459,5.10726 4.50799,8.3722c1.50789,4.76407 3.78801,14.47993 3.66666,17.45496c-0.12135,2.97503 -2.86941,4.45947 -4.62538,6.04909c-1.97082,1.78411 -3.04397,2.61957 -6.62957,4.13961c-3.58561,1.52004 -6.32667,2.44335 -9.57498,2.72997c-3.45269,0.30465 -7.07474,-0.2385 -10.56547,-0.95287c-3.49073,-0.71437 -6.01257,-1.8308 -8.62796,-2.97504c-2.42507,-1.06097 -4.90426,-2.45361 -6.53661,-3.65946c-1.63236,-1.20585 -2.59251,-2.50011 -3.55173,-3.79297z" fill="url(#color-1)" stroke="#ff0000" stroke-linecap="round"/><path d="M227.82752,180.99892c1.65669,3.40896 1.38766,6.95589 -0.6009,7.9223c-1.98856,0.96641 -4.94362,-1.01368 -6.60031,-4.42264c-1.65669,-3.40896 -1.38766,-6.95589 0.6009,-7.9223c1.98856,-0.96641 4.94362,1.01368 6.60031,4.42264z" fill="url(#color-2)" stroke="none" stroke-linecap="butt"/><path d="M254.21832,172.03614c-1.01824,-2.5288 -0.64785,-5.0603 0.82728,-5.65427c1.47513,-0.59397 3.49641,0.97451 4.51464,3.50331c1.01824,2.5288 0.64785,5.0603 -0.82728,5.65427c-1.47513,0.59397 -3.49641,-0.97451 -4.51464,-3.50331z" data-paper-data="{&quot;index&quot;:null}" fill="url(#color-3)" stroke="none" stroke-linecap="butt"/><path d="M258.31128,182.4719c-0.04614,-1.95781 0.55281,-3.76887 1.3378,-4.04511c0.78499,-0.27624 1.45876,1.08694 1.5049,3.04476c0.04614,1.95781 -0.55281,3.76887 -1.3378,4.04511c-0.78499,0.27624 -1.45876,-1.08694 -1.5049,-3.04476z" data-paper-data="{&quot;index&quot;:null}" fill="url(#color-4)" stroke="none" stroke-linecap="butt"/></g></g></svg>