<svg version="1.1" xmlns="http://www.w3.org/2000/svg" xmlns:xlink="http://www.w3.org/1999/xlink" width="13.60231" height="17.59317" viewBox="0,0,13.60231,17.59317"><defs><radialGradient cx="240.21093" cy="180.01447" r="8.79658" gradientUnits="userSpaceOnUse" id="color-1"><stop offset="0" stop-color="#afa59c"/><stop offset="1" stop-color="#8f877f"/></radialGradient></defs><g transform="translate(-233.19884,-171.20341)"><g data-paper-data="{&quot;isPaintingLayer&quot;:true}" fill="url(#color-1)" fill-rule="nonzero" stroke="#ff0000" stroke-width="0" stroke-linecap="round" stroke-linejoin="miter" stroke-miterlimit="10" stroke-dasharray="" stroke-dashoffset="0" style="mix-blend-mode: normal"><path d="M241.31199,171.40475c0.83727,0.26164 2.23039,0.25095 2.72839,1.34357c1.48155,3.25065 2.22497,6.22021 2.63877,8.75704c0.30587,1.87506 -0.01682,4.17582 -0.38039,5.18609c-0.36355,1.01027 -1.28468,1.42295 -2.11091,1.73693c-0.80994,0.30778 -1.12123,0.58158 -2.79863,0.1287c-1.6774,-0.45288 -2.7925,-1.13264 -3.98971,-1.96147c-1.33972,-0.92749 -2.9976,-2.29716 -3.6692,-3.34086c-0.6716,-1.04371 -0.52865,-2.057 -0.49697,-3.13362c0.03366,-1.14485 0.08526,-2.11453 0.69336,-3.54337c0.6081,-1.42884 1.29888,-2.40851 2.21571,-3.292c0.88198,-0.8499 2.45207,-1.64551 3.1848,-1.91211c0.73273,-0.26662 1.27067,-0.19206 1.98478,0.0311z"/></g></g></svg>