<svg version="1.1" xmlns="http://www.w3.org/2000/svg" xmlns:xlink="http://www.w3.org/1999/xlink" width="24.52663" height="20.52207" viewBox="0,0,24.52663,20.52207"><defs><linearGradient x1="235.94003" y1="181.5776" x2="244.05997" y2="181.5776" gradientUnits="userSpaceOnUse" id="color-1"><stop offset="0" stop-color="#000000"/><stop offset="1" stop-color="#ad0000"/></linearGradient><linearGradient x1="235.94004" y1="178.4224" x2="244.05998" y2="178.4224" gradientUnits="userSpaceOnUse" id="color-2"><stop offset="0" stop-color="#000000"/><stop offset="1" stop-color="#ad0000"/></linearGradient></defs><g transform="translate(-227.7965,-169.73666)"><g data-paper-data="{&quot;isPaintingLayer&quot;:true}" fill-rule="nonzero" stroke-linejoin="miter" stroke-miterlimit="10" stroke-dasharray="" stroke-dashoffset="0" style="mix-blend-mode: normal"><g data-paper-data="{&quot;index&quot;:null}" fill="#ffffff" stroke="none" stroke-width="0" stroke-linecap="butt"><path d="M234.80884,188.60513l-5.66463,-9.05657l21.51444,-0.00002l-5.44673,9.05659z"/><path d="M245.21197,171.18858l5.44673,9.05659h-21.51442l5.66461,-9.05659z" data-paper-data="{&quot;index&quot;:null}"/></g><path d="M229.26288,179.89484l5.46834,-8.83346l10.65624,-0.07011l5.46834,8.90357l-5.60855,9.11389h-10.44592z" fill="none" stroke="#cbcbcb" stroke-width="2.5" stroke-linecap="round"/><g stroke="none" stroke-width="0" stroke-linecap="butt"><path d="M238.07796,183.28667l-2.13793,-3.41812l8.11995,-0.00001l-2.0557,3.41812z" fill="url(#color-1)"/><path d="M242.00429,176.71334l2.0557,3.41812h-8.11994l2.13793,-3.41812z" data-paper-data="{&quot;index&quot;:null}" fill="url(#color-2)"/></g><path d="M235.06655,179.95195l2.49876,-4.03647l4.86939,-0.03203l2.49876,4.0685l-2.56284,4.16461h-4.77328z" fill="none" stroke="#ededed" stroke-width="1.5" stroke-linecap="round"/></g></g></svg>