<svg version="1.1" xmlns="http://www.w3.org/2000/svg" xmlns:xlink="http://www.w3.org/1999/xlink" width="79.40869" height="277.00418" viewBox="0,0,79.40869,277.00418"><g transform="translate(-194.94543,-41.04521)"><g data-paper-data="{&quot;isPaintingLayer&quot;:true}" fill-rule="nonzero" stroke-linejoin="miter" stroke-miterlimit="10" stroke-dasharray="" stroke-dashoffset="0" style="mix-blend-mode: normal"><g stroke-linecap="butt"><g data-paper-data="{&quot;index&quot;:null}"><path d="M240.05736,179.04521c0.0023,0.43286 0.00345,0.86599 0.00345,1.2994c0,37.17491 -8.46794,72.37203 -23.58015,103.7677" fill="none" stroke="#cbcbcb" stroke-width="25"/><g fill="#cbcbcb" stroke="none" stroke-width="0"><path d="M215.76568,278.62726l-18.14359,36.76698l-2.67666,-15.81757l12.39074,-25.10915z"/><path d="M229.57571,285.44217l-12.39073,25.10915l-14.18234,7.49807l18.14358,-36.76697z" data-paper-data="{&quot;index&quot;:null}"/></g></g><g><path d="M216.48066,74.98231c15.11221,31.39567 23.58015,66.59278 23.58015,103.7677c0,0.4334 -0.00115,0.86653 -0.00345,1.2994" fill="none" stroke="#cbcbcb" stroke-width="25"/><g stroke="none" stroke-width="0"><path d="M207.33618,84.62709l-12.39074,-25.10915l2.67666,-15.81757l18.14358,36.76697z" fill="#cbcbcb"/><path d="M221.14621,77.81218l-18.14358,-36.76697l14.18234,7.49807l12.39074,25.10915z" data-paper-data="{&quot;index&quot;:null}" fill="#cbcbcb"/></g></g></g><path d="M240.37176,141.9153l31.22532,19.32998l0.24783,37.66864l-31.47316,19.33l-32.21662,-19.82561v-36.92518z" fill="none" stroke="#cbcbcb" stroke-width="5" stroke-linecap="round"/><path d="M240.37859,148.45819l25.87203,16.01605l0.20534,31.21072l-26.07738,16.01605l-26.69337,-16.42669v-30.59473z" fill="none" stroke="#ededed" stroke-width="10" stroke-linecap="round"/><g stroke-linecap="butt"><g><path d="M228.99839,106.58065c7.18672,22.77478 11.06242,47.01946 11.06242,72.16936c0,0.4334 -0.00115,0.86653 -0.00345,1.2994" fill="none" stroke="#ededed" stroke-width="15"/><g fill="#ededed" stroke="none" stroke-width="0"><path d="M222.16613,109.67234l-4.63439,-15.96509l3.20803,-8.96819l6.78606,23.37746z"/><path d="M230.94693,107.12343l-6.78606,-23.37746l7.51139,5.85654l4.63438,15.96509z" data-paper-data="{&quot;index&quot;:null}"/></g></g><g data-paper-data="{&quot;index&quot;:null}"><path d="M240.05736,179.04521c0.0023,0.43286 0.00345,0.86599 0.00345,1.2994c0,25.1499 -3.8757,49.39458 -11.06242,72.16936" fill="none" stroke="#ededed" stroke-width="15"/><g fill="#ededed" stroke="none" stroke-width="0"><path d="M227.52585,250.97809l-6.78607,23.37746l-3.20803,-8.96819l4.63439,-15.96509z"/><path d="M236.30664,253.52701l-4.63438,15.96509l-7.51139,5.85654l6.78607,-23.37745z" data-paper-data="{&quot;index&quot;:null}"/></g></g></g><g fill="#ffffff" stroke="none" stroke-width="0" stroke-linecap="butt"><path d="M214.39761,165.52872l25.87688,-16.18526l0.00006,61.47213l-25.87694,-15.56267z"/><path d="M265.74356,195.25306l-25.87694,15.56266v-61.47207l25.87694,16.18521z" data-paper-data="{&quot;index&quot;:null}"/></g></g></g></svg>