<svg version="1.1" xmlns="http://www.w3.org/2000/svg" xmlns:xlink="http://www.w3.org/1999/xlink" width="203.0005" height="196.36918" viewBox="0,0,203.0005,196.36918"><defs><linearGradient x1="247.375" y1="131.56797" x2="267.375" y2="131.56797" gradientUnits="userSpaceOnUse" id="color-1"><stop offset="0" stop-color="#cecece"/><stop offset="1" stop-color="#ffffff"/></linearGradient><linearGradient x1="241.625" y1="140.94297" x2="274.625" y2="140.94297" gradientUnits="userSpaceOnUse" id="color-2"><stop offset="0" stop-color="#cecece"/><stop offset="1" stop-color="#ffffff"/></linearGradient><linearGradient x1="194.39606" y1="164.4418" x2="264.0229" y2="164.4418" gradientUnits="userSpaceOnUse" id="color-3"><stop offset="0" stop-color="#e2e2e2"/><stop offset="1" stop-color="#868686"/></linearGradient><linearGradient x1="224.34525" y1="83.02146" x2="243.3262" y2="156.07813" gradientUnits="userSpaceOnUse" id="color-4"><stop offset="0" stop-color="#ffffff"/><stop offset="1" stop-color="#e1e1e1"/></linearGradient><linearGradient x1="258.54441" y1="163.28938" x2="267.22499" y2="171.96996" gradientUnits="userSpaceOnUse" id="color-5"><stop offset="0" stop-color="#000000"/><stop offset="1" stop-color="#ad0000"/></linearGradient><linearGradient x1="260.41567" y1="161.41812" x2="269.09624" y2="170.0987" gradientUnits="userSpaceOnUse" id="color-6"><stop offset="0" stop-color="#000000"/><stop offset="1" stop-color="#ad0000"/></linearGradient><linearGradient x1="247.375" y1="228.43204" x2="267.375" y2="228.43204" gradientUnits="userSpaceOnUse" id="color-7"><stop offset="0" stop-color="#cecece"/><stop offset="1" stop-color="#ffffff"/></linearGradient><linearGradient x1="241.625" y1="219.05704" x2="274.625" y2="219.05704" gradientUnits="userSpaceOnUse" id="color-8"><stop offset="0" stop-color="#cecece"/><stop offset="1" stop-color="#ffffff"/></linearGradient><linearGradient x1="194.39606" y1="195.55821" x2="264.0229" y2="195.55821" gradientUnits="userSpaceOnUse" id="color-9"><stop offset="0" stop-color="#e2e2e2"/><stop offset="1" stop-color="#868686"/></linearGradient><linearGradient x1="224.34525" y1="276.97855" x2="243.3262" y2="203.92188" gradientUnits="userSpaceOnUse" id="color-10"><stop offset="0" stop-color="#ffffff"/><stop offset="1" stop-color="#e1e1e1"/></linearGradient><linearGradient x1="258.54442" y1="196.71062" x2="267.22499" y2="188.03005" gradientUnits="userSpaceOnUse" id="color-11"><stop offset="0" stop-color="#000000"/><stop offset="1" stop-color="#ad0000"/></linearGradient><linearGradient x1="260.41568" y1="198.58188" x2="269.09623" y2="189.90131" gradientUnits="userSpaceOnUse" id="color-12"><stop offset="0" stop-color="#000000"/><stop offset="1" stop-color="#ad0000"/></linearGradient><linearGradient x1="243.43649" y1="183.47044" x2="275.78389" y2="183.47044" gradientUnits="userSpaceOnUse" id="color-13"><stop offset="0" stop-color="#000000"/><stop offset="1" stop-color="#ad0000"/></linearGradient><linearGradient x1="243.43649" y1="176.49737" x2="275.78389" y2="176.49737" gradientUnits="userSpaceOnUse" id="color-14"><stop offset="0" stop-color="#000000"/><stop offset="1" stop-color="#ad0000"/></linearGradient></defs><g transform="translate(-138.49975,-81.81541)"><g data-paper-data="{&quot;isPaintingLayer&quot;:true}" fill-rule="nonzero" stroke-linecap="butt" stroke-linejoin="miter" stroke-miterlimit="10" stroke-dasharray="" stroke-dashoffset="0" style="mix-blend-mode: normal"><path d="M138.5,193v-26h203v26z" fill="none" stroke="#000000" stroke-width="0.0005"/><g stroke="none"><path d="M267.375,127.19297v8.75h-20v-8.75z" data-paper-data="{&quot;index&quot;:null}" fill="url(#color-1)" stroke-width="0"/><path d="M274.625,138.44297v5h-33v-5z" data-paper-data="{&quot;index&quot;:null}" fill="url(#color-2)" stroke-width="0"/><path d="M194.39606,180.18458l17.45453,-31.48557l33.8041,4.74337l18.36822,26.74221z" data-paper-data="{&quot;index&quot;:null}" fill="url(#color-3)" stroke-width="NaN"/><path d="M226.54354,160.43845l-18.98095,-73.05667l21.42466,-5.56637l31.1216,69.90239z" data-paper-data="{&quot;index&quot;:null}" fill="url(#color-4)" stroke-width="0"/><path d="M209.42143,180.18458l18.78639,-33.88806l36.38349,5.1053l19.76979,28.78275z" data-paper-data="{&quot;index&quot;:null}" fill="#ffffff" stroke-width="NaN"/><g stroke-width="0"><path d="M258.74998,165.52216l0.80802,-3.24637l8.68059,8.68059l-3.29515,0.75925z" fill="url(#color-5)"/><path d="M268.8419,167.81715l-0.75925,3.29514l-8.68059,-8.68058l3.24638,-0.80802z" data-paper-data="{&quot;index&quot;:null}" fill="url(#color-6)"/></g></g><g data-paper-data="{&quot;index&quot;:null}" stroke="none"><path d="M247.375,232.80704v-8.75h20v8.75z" data-paper-data="{&quot;index&quot;:null}" fill="url(#color-7)" stroke-width="0"/><path d="M241.625,221.55704v-5h33v5z" data-paper-data="{&quot;index&quot;:null}" fill="url(#color-8)" stroke-width="0"/><path d="M264.02291,179.81542l-18.36822,26.74221l-33.8041,4.74337l-17.45453,-31.48557z" data-paper-data="{&quot;index&quot;:null}" fill="url(#color-9)" stroke-width="NaN"/><path d="M260.10885,208.2822l-31.1216,69.90239l-21.42466,-5.56637l18.98095,-73.05667z" data-paper-data="{&quot;index&quot;:null}" fill="url(#color-10)" stroke-width="0"/><path d="M284.3611,179.81544l-19.76979,28.78275l-36.38349,5.1053l-18.78639,-33.88806z" data-paper-data="{&quot;index&quot;:null}" fill="#ffffff" stroke-width="NaN"/><g stroke-width="0"><path d="M264.94344,188.28437l3.29515,0.75925l-8.68059,8.68058l-0.80802,-3.24637z" fill="url(#color-11)"/><path d="M262.64844,198.37631l-3.24638,-0.80802l8.68059,-8.68058l0.75925,3.29514z" data-paper-data="{&quot;index&quot;:null}" fill="url(#color-12)"/></g></g><g stroke="none" stroke-width="0"><path d="M247.97966,187.24755l-4.54317,-7.55417h32.34743l-4.7249,7.55417z" fill="url(#color-13)"/><path d="M271.05899,172.72028l4.7249,7.55417h-32.34743l4.54317,-7.55417z" data-paper-data="{&quot;index&quot;:null}" fill="url(#color-14)"/></g></g></g></svg>