<svg version="1.1" xmlns="http://www.w3.org/2000/svg" xmlns:xlink="http://www.w3.org/1999/xlink" width="54.93586" height="122.62437" viewBox="0,0,54.93586,122.62437"><defs><linearGradient x1="212.53207" y1="170.6634" x2="254.46935" y2="170.6634" gradientUnits="userSpaceOnUse" id="color-1"><stop offset="0" stop-color="#e2e2e2"/><stop offset="1" stop-color="#868686"/></linearGradient><linearGradient x1="254.44317" y1="132.92239" x2="267.46792" y2="132.92239" gradientUnits="userSpaceOnUse" id="color-2"><stop offset="0" stop-color="#cecece"/><stop offset="1" stop-color="#ffffff"/></linearGradient><linearGradient x1="254.0497" y1="119.41423" x2="242.61719" y2="163.41735" gradientUnits="userSpaceOnUse" id="color-3"><stop offset="0" stop-color="#ffffff"/><stop offset="1" stop-color="#e1e1e1"/></linearGradient><linearGradient x1="212.53207" y1="189.3366" x2="254.46935" y2="189.3366" gradientUnits="userSpaceOnUse" id="color-4"><stop offset="0" stop-color="#e2e2e2"/><stop offset="1" stop-color="#868686"/></linearGradient><linearGradient x1="254.44317" y1="227.0776" x2="267.46792" y2="227.0776" gradientUnits="userSpaceOnUse" id="color-5"><stop offset="0" stop-color="#cecece"/><stop offset="1" stop-color="#ffffff"/></linearGradient><linearGradient x1="254.0497" y1="240.58576" x2="242.6172" y2="196.58265" gradientUnits="userSpaceOnUse" id="color-6"><stop offset="0" stop-color="#ffffff"/><stop offset="1" stop-color="#e1e1e1"/></linearGradient><linearGradient x1="242.06985" y1="181.97406" x2="261.55317" y2="181.97406" gradientUnits="userSpaceOnUse" id="color-7"><stop offset="0" stop-color="#000000"/><stop offset="1" stop-color="#ad0000"/></linearGradient><linearGradient x1="242.06985" y1="177.77407" x2="261.55317" y2="177.77407" gradientUnits="userSpaceOnUse" id="color-8"><stop offset="0" stop-color="#000000"/><stop offset="1" stop-color="#ad0000"/></linearGradient></defs><g transform="translate(-212.53207,-118.68781)"><g data-paper-data="{&quot;isPaintingLayer&quot;:true}" fill-rule="nonzero" stroke="none" stroke-linecap="butt" stroke-linejoin="miter" stroke-miterlimit="10" stroke-dasharray="" stroke-dashoffset="0" style="mix-blend-mode: normal"><g><path d="M212.53207,180.14551l10.51312,-18.96423l20.36071,2.857l11.06345,16.10723z" data-paper-data="{&quot;index&quot;:null}" fill="url(#color-1)" stroke-width="NaN"/><path d="M254.44317,135.8639v-5.88301h13.02476v5.88301z" fill="url(#color-2)" stroke-width="0"/><path d="M232.50876,160.79106l18.745,-42.10325l12.90439,3.35271l-11.43251,44.00312z" data-paper-data="{&quot;index&quot;:null}" fill="url(#color-3)" stroke-width="0"/><path d="M221.58207,180.14551l11.31532,-20.41128l21.91432,3.075l11.90764,17.33628z" data-paper-data="{&quot;index&quot;:null}" fill="#ffffff" stroke-width="NaN"/></g><g data-paper-data="{&quot;index&quot;:null}"><path d="M254.46935,179.85448l-11.06345,16.10723l-20.36071,2.857l-10.51312,-18.96422z" data-paper-data="{&quot;index&quot;:null}" fill="url(#color-4)" stroke-width="NaN"/><path d="M267.46793,224.13609v5.88301h-13.02476v-5.88301z" fill="url(#color-5)" stroke-width="0"/><path d="M252.72565,193.95636l11.43251,44.00312l-12.90439,3.35271l-18.74501,-42.10325z" data-paper-data="{&quot;index&quot;:null}" fill="url(#color-6)" stroke-width="0"/><path d="M266.71935,179.85448l-11.90764,17.33628l-21.91432,3.075l-11.31532,-20.41128z" data-paper-data="{&quot;index&quot;:null}" fill="#ffffff" stroke-width="NaN"/></g><g stroke-width="0"><path d="M244.80627,184.24907l-2.73642,-4.54999h19.48334l-2.84588,4.54999z" fill="url(#color-7)"/><path d="M258.70729,175.49907l2.84588,4.54999h-19.48334l2.73642,-4.54999z" data-paper-data="{&quot;index&quot;:null}" fill="url(#color-8)"/></g></g></g></svg>