<svg version="1.1" xmlns="http://www.w3.org/2000/svg" xmlns:xlink="http://www.w3.org/1999/xlink" width="126.74244" height="71.74629" viewBox="0,0,126.74244,71.74629"><defs><linearGradient x1="209.70725" y1="189.03444" x2="222.98245" y2="188.89621" gradientUnits="userSpaceOnUse" id="color-1"><stop offset="0" stop-color="#ffffff"/><stop offset="1" stop-color="#e1e1e1"/></linearGradient><linearGradient x1="209.54424" y1="172.70412" x2="222.81945" y2="172.56589" gradientUnits="userSpaceOnUse" id="color-2"><stop offset="0" stop-color="#ffffff"/><stop offset="1" stop-color="#e1e1e1"/></linearGradient><linearGradient x1="240.92545" y1="182.85555" x2="264.14766" y2="182.85554" gradientUnits="userSpaceOnUse" id="color-3"><stop offset="0" stop-color="#000000"/><stop offset="1" stop-color="#ad0000"/></linearGradient><linearGradient x1="240.92545" y1="177.84957" x2="264.14766" y2="177.84957" gradientUnits="userSpaceOnUse" id="color-4"><stop offset="0" stop-color="#000000"/><stop offset="1" stop-color="#ad0000"/></linearGradient></defs><g transform="translate(-176.62878,-144.12686)"><g data-paper-data="{&quot;isPaintingLayer&quot;:true}" fill-rule="nonzero" stroke-linecap="butt" stroke-linejoin="miter" stroke-miterlimit="10" stroke-dasharray="" stroke-dashoffset="0" style="mix-blend-mode: normal"><path d="M176.62903,205.09184v-50.18367h126.74194v50.18367z" fill="none" stroke="#000000" stroke-width="0.0005"/><g stroke="none" stroke-width="0"><g data-paper-data="{&quot;index&quot;:null}"><path d="M223.07857,198.52599l-13.34475,-6.82799l-0.12271,-12.29332l13.27522,-0.13824z" fill="url(#color-1)"/><path d="M222.91558,182.19568l-13.27522,0.13824l-0.12271,-12.29332l13.20567,-7.10445z" data-paper-data="{&quot;index&quot;:null}" fill="url(#color-2)"/></g><path d="M222.91613,198.25194v-35.65696h44.60301v35.65696z" fill="#e1e1e1"/></g><path d="M257.82941,177.07459l-41.14255,-0.18119l0.78142,-23.16303l54.33257,-9.60351l-0.18783,23.62616l-13.72293,2.25541z" data-paper-data="{&quot;index&quot;:null}" fill="#ffffff" stroke="none" stroke-width="NaN"/><path d="M257.89008,189.99158l13.72293,2.25541l0.18783,23.62616l-54.33257,-9.60351l-0.78142,-23.16303l41.14255,-0.18119z" data-paper-data="{&quot;index&quot;:null}" fill="#ffffff" stroke="none" stroke-width="NaN"/><g fill="#ffffff" stroke="none" stroke-width="0"><g data-paper-data="{&quot;index&quot;:null}"><path d="M261.05409,172.84738l27.34115,2.94078l0.25142,5.29466l-27.19871,0.05953z"/><path d="M261.38803,179.88077l27.19871,-0.05953l0.25142,5.29466l-27.05623,3.05985z" data-paper-data="{&quot;index&quot;:null}"/></g><g data-paper-data="{&quot;index&quot;:null}"><path d="M284.70099,189.74772l-5.88816,-9.41396l22.36344,-0.00001l-5.66167,9.41398z"/><path d="M295.51464,171.64389l5.66167,9.41398h-22.36341l5.88815,-9.41398z" data-paper-data="{&quot;index&quot;:null}"/></g></g><g data-paper-data="{&quot;index&quot;:null}" stroke="none" stroke-width="0"><path d="M244.187,185.56714l-3.26154,-5.42315l23.22224,0.00001l-3.39202,5.42314z" fill="url(#color-3)"/><path d="M260.75564,175.138l3.39202,5.42314h-23.22223l3.26154,-5.42315z" data-paper-data="{&quot;index&quot;:null}" fill="url(#color-4)"/></g></g></g></svg>