<svg version="1.1" xmlns="http://www.w3.org/2000/svg" xmlns:xlink="http://www.w3.org/1999/xlink" width="57.11419" height="58.42703" viewBox="0,0,57.11419,58.42703"><defs><linearGradient x1="244.01305" y1="182.88617" x2="215.69121" y2="182.88616" gradientUnits="userSpaceOnUse" id="color-1"><stop offset="0" stop-color="#000000"/><stop offset="1" stop-color="#ad0000"/></linearGradient><linearGradient x1="244.01305" y1="176.78089" x2="215.69121" y2="176.78089" gradientUnits="userSpaceOnUse" id="color-2"><stop offset="0" stop-color="#000000"/><stop offset="1" stop-color="#ad0000"/></linearGradient><linearGradient x1="224.4069" y1="184.83492" x2="233.88256" y2="184.74907" gradientUnits="userSpaceOnUse" id="color-3"><stop offset="0" stop-color="#ffffff"/><stop offset="1" stop-color="#e1e1e1"/></linearGradient><linearGradient x1="224.29056" y1="174.69395" x2="233.76619" y2="174.6081" gradientUnits="userSpaceOnUse" id="color-4"><stop offset="0" stop-color="#ffffff"/><stop offset="1" stop-color="#e1e1e1"/></linearGradient><linearGradient x1="269.22976" y1="183.96989" x2="247.1704" y2="183.96989" gradientUnits="userSpaceOnUse" id="color-5"><stop offset="0" stop-color="#ad0000"/><stop offset="1" stop-color="#ff0000"/></linearGradient><linearGradient x1="269.22981" y1="175.3982" x2="247.17046" y2="175.3982" gradientUnits="userSpaceOnUse" id="color-6"><stop offset="0" stop-color="#ad0000"/><stop offset="1" stop-color="#ff0000"/></linearGradient><linearGradient x1="264.76388" y1="176.88752" x2="255.26467" y2="176.88752" gradientUnits="userSpaceOnUse" id="color-7"><stop offset="0" stop-color="#ff4444"/><stop offset="1" stop-color="#ff4444" stop-opacity="0"/></linearGradient><linearGradient x1="264.72328" y1="182.5911" x2="255.22408" y2="182.5911" gradientUnits="userSpaceOnUse" id="color-8"><stop offset="0" stop-color="#ff4444"/><stop offset="1" stop-color="#ff4444" stop-opacity="0"/></linearGradient></defs><g transform="translate(-215.6912,-150.78649)"><g data-paper-data="{&quot;isPaintingLayer&quot;:true}" fill-rule="nonzero" stroke-linejoin="miter" stroke-miterlimit="10" stroke-dasharray="" stroke-dashoffset="0" style="mix-blend-mode: normal"><g data-paper-data="{&quot;index&quot;:null}" stroke="none" stroke-width="0" stroke-linecap="butt"><path d="M219.82809,186.19322l-4.13689,-6.61406l28.32185,-0.00001l-3.97778,6.61408z" fill="url(#color-1)"/><path d="M240.03529,173.47383l3.97778,6.61408h-28.32185l4.13689,-6.61406z" data-paper-data="{&quot;index&quot;:null}" fill="url(#color-2)"/></g><g stroke="none" stroke-width="0" stroke-linecap="butt"><path d="M232.41258,185.18492v-10.61213h37.83371v10.61213z" fill="#e1e1e1"/><g data-paper-data="{&quot;index&quot;:null}"><path d="M233.95116,190.72907l-9.52528,-4.24011l-0.08759,-7.63403l9.47565,-0.08584z" fill="url(#color-3)"/><path d="M233.83482,180.5881l-9.47565,0.08584l-0.08759,-7.63403l9.42601,-4.4118z" data-paper-data="{&quot;index&quot;:null}" fill="url(#color-4)"/></g></g><path d="M233.22069,173.44905l-12.84463,-1.4312l-3.86828,-21.23136l54.54759,12.33307l1.75002,14.69846l-39.52792,0.11498z" data-paper-data="{&quot;index&quot;:null}" fill="#ffffff" stroke="none" stroke-width="NaN" stroke-linecap="butt"/><path d="M233.27747,182.06701l39.52792,0.11498l-1.75002,14.69846l-54.54759,12.33307l3.86828,-21.23136l12.84463,-1.4312z" data-paper-data="{&quot;index&quot;:null}" fill="#ffffff" stroke="none" stroke-width="NaN" stroke-linecap="butt"/><g><g data-paper-data="{&quot;index&quot;:null}" stroke="none" stroke-width="0" stroke-linecap="butt"><path d="M252.97851,188.61289l-5.80811,-9.28596l22.05936,-0.00002l-5.58468,9.28597z" fill="url(#color-5)"/><path d="M263.64512,170.75521l5.58468,9.28597h-22.05934l5.80808,-9.28597z" data-paper-data="{&quot;index&quot;:null}" fill="url(#color-6)"/></g><g data-paper-data="{&quot;index&quot;:null}" fill="none" stroke-width="2.5" stroke-linecap="round"><path d="M255.26468,174.08648l6.25161,-0.0406l3.24759,5.68328" stroke="url(#color-7)"/><path d="M264.72328,179.74946l-3.24759,5.68328l-6.25161,-0.0406" data-paper-data="{&quot;index&quot;:null}" stroke="url(#color-8)"/></g></g></g></g></svg>