<svg version="1.1" xmlns="http://www.w3.org/2000/svg" xmlns:xlink="http://www.w3.org/1999/xlink" width="93.20353" height="84.88375" viewBox="0,0,93.20353,84.88375"><defs><linearGradient x1="193.39821" y1="173.17304" x2="239.68881" y2="173.17304" gradientUnits="userSpaceOnUse" id="color-1"><stop offset="0" stop-color="#ffffff"/><stop offset="1" stop-color="#bdbdbd"/></linearGradient><linearGradient x1="193.39821" y1="188.1035" x2="239.68881" y2="188.1035" gradientUnits="userSpaceOnUse" id="color-2"><stop offset="0" stop-color="#ffffff"/><stop offset="1" stop-color="#bdbdbd"/></linearGradient><linearGradient x1="252.18412" y1="222.44188" x2="252.18412" y2="207.62363" gradientUnits="userSpaceOnUse" id="color-3"><stop offset="0" stop-color="#ffffff"/><stop offset="1" stop-color="#e1e1e1"/></linearGradient><linearGradient x1="234.33757" y1="222.44188" x2="234.33757" y2="207.62363" gradientUnits="userSpaceOnUse" id="color-4"><stop offset="0" stop-color="#ffffff"/><stop offset="1" stop-color="#e1e1e1"/></linearGradient><linearGradient x1="252.18412" y1="137.55813" x2="252.18412" y2="152.37638" gradientUnits="userSpaceOnUse" id="color-5"><stop offset="0" stop-color="#ffffff"/><stop offset="1" stop-color="#e1e1e1"/></linearGradient><linearGradient x1="234.33757" y1="137.55813" x2="234.33757" y2="152.37638" gradientUnits="userSpaceOnUse" id="color-6"><stop offset="0" stop-color="#ffffff"/><stop offset="1" stop-color="#e1e1e1"/></linearGradient></defs><g transform="translate(-193.39823,-137.55813)"><g data-paper-data="{&quot;isPaintingLayer&quot;:true}" fill-rule="nonzero" stroke="none" stroke-linecap="butt" stroke-linejoin="miter" stroke-miterlimit="10" stroke-dasharray="" stroke-dashoffset="0" style="mix-blend-mode: normal"><g stroke-width="0"><path d="M239.68881,181.97732h-46.29058v-11.23951l46.29058,-6.36906z" fill="url(#color-1)"/><path d="M239.68881,196.90778l-46.29058,-6.36906v-11.23951h46.29058z" data-paper-data="{&quot;index&quot;:null}" fill="url(#color-2)"/></g><g data-paper-data="{&quot;index&quot;:null}"><g stroke-width="0"><path d="M262.70797,207.62363l-7.61301,14.81825h-13.43472v-14.81825z" fill="url(#color-3)"/><path d="M244.86143,207.62363v14.81825h-13.43472l-7.61299,-14.81825z" data-paper-data="{&quot;index&quot;:null}" fill="url(#color-4)"/></g><path d="M286.60177,179.5771l-21.33148,31.0564h-53.00663l17.21489,-31.0564z" data-paper-data="{&quot;index&quot;:null}" fill="#ffffff" stroke-width="NaN"/></g><g><g stroke-width="0"><path d="M241.66025,152.37638v-14.81825h13.43472l7.61301,14.81825z" fill="url(#color-5)"/><path d="M223.81371,152.37638l7.61301,-14.81825h13.43472v14.81825z" data-paper-data="{&quot;index&quot;:null}" fill="url(#color-6)"/></g><path d="M229.47851,180.4229l-17.21489,-31.0564h53.00663l21.33148,31.0564z" data-paper-data="{&quot;index&quot;:null}" fill="#ffffff" stroke-width="NaN"/></g></g></g></svg>