<svg version="1.1" xmlns="http://www.w3.org/2000/svg" xmlns:xlink="http://www.w3.org/1999/xlink" width="57.15157" height="47.38373" viewBox="0,0,57.15157,47.38373"><defs><linearGradient x1="255.55103" y1="180.26295" x2="268.57578" y2="180.26295" gradientUnits="userSpaceOnUse" id="color-1"><stop offset="0" stop-color="#cecece"/><stop offset="1" stop-color="#ffffff"/></linearGradient><linearGradient x1="211.42421" y1="176.18906" x2="237.26451" y2="176.18906" gradientUnits="userSpaceOnUse" id="color-2"><stop offset="0" stop-color="#ffffff"/><stop offset="1" stop-color="#bdbdbd"/></linearGradient><linearGradient x1="211.42421" y1="184.52353" x2="237.26451" y2="184.52353" gradientUnits="userSpaceOnUse" id="color-3"><stop offset="0" stop-color="#ffffff"/><stop offset="1" stop-color="#bdbdbd"/></linearGradient><linearGradient x1="244.23963" y1="203.69187" x2="244.23963" y2="195.42004" gradientUnits="userSpaceOnUse" id="color-4"><stop offset="0" stop-color="#ffffff"/><stop offset="1" stop-color="#e1e1e1"/></linearGradient><linearGradient x1="234.27734" y1="203.69187" x2="234.27734" y2="195.42004" gradientUnits="userSpaceOnUse" id="color-5"><stop offset="0" stop-color="#ffffff"/><stop offset="1" stop-color="#e1e1e1"/></linearGradient><linearGradient x1="244.23963" y1="156.30814" x2="244.23963" y2="164.57997" gradientUnits="userSpaceOnUse" id="color-6"><stop offset="0" stop-color="#ffffff"/><stop offset="1" stop-color="#e1e1e1"/></linearGradient><linearGradient x1="234.27734" y1="156.30814" x2="234.27734" y2="164.57997" gradientUnits="userSpaceOnUse" id="color-7"><stop offset="0" stop-color="#ffffff"/><stop offset="1" stop-color="#e1e1e1"/></linearGradient><linearGradient x1="239.13604" y1="182.39795" x2="258.61936" y2="182.39795" gradientUnits="userSpaceOnUse" id="color-8"><stop offset="0" stop-color="#000000"/><stop offset="1" stop-color="#ad0000"/></linearGradient><linearGradient x1="239.13604" y1="178.19796" x2="258.61936" y2="178.19796" gradientUnits="userSpaceOnUse" id="color-9"><stop offset="0" stop-color="#000000"/><stop offset="1" stop-color="#ad0000"/></linearGradient></defs><g transform="translate(-211.42421,-156.30814)"><g data-paper-data="{&quot;isPaintingLayer&quot;:true}" fill-rule="nonzero" stroke="none" stroke-linecap="butt" stroke-linejoin="miter" stroke-miterlimit="10" stroke-dasharray="" stroke-dashoffset="0" style="mix-blend-mode: normal"><path d="M255.55103,183.20446v-5.88301h13.02476v5.88301z" fill="url(#color-1)" stroke-width="0"/><g stroke-width="0"><path d="M237.26451,181.10378h-25.84029v-6.27411l25.84029,-3.55533z" fill="url(#color-2)"/><path d="M237.26451,189.43825l-25.84029,-3.55533v-6.27411h25.84029z" data-paper-data="{&quot;index&quot;:null}" fill="url(#color-3)"/></g><g data-paper-data="{&quot;index&quot;:null}"><g stroke-width="0"><path d="M250.11425,195.42004l-4.24973,8.27183h-7.49952v-8.27183z" fill="url(#color-4)"/><path d="M240.15196,195.42004v8.27183h-7.49952l-4.24972,-8.27183z" data-paper-data="{&quot;index&quot;:null}" fill="url(#color-5)"/></g><path d="M263.45222,179.76393l-11.90764,17.33628h-29.58932l9.60968,-17.33628z" data-paper-data="{&quot;index&quot;:null}" fill="#ffffff" stroke-width="NaN"/></g><g><g stroke-width="0"><path d="M238.365,164.57997v-8.27183h7.49952l4.24973,8.27183z" fill="url(#color-6)"/><path d="M228.40272,164.57997l4.24973,-8.27183h7.49952v8.27183z" data-paper-data="{&quot;index&quot;:null}" fill="url(#color-7)"/></g><path d="M231.56492,180.23607l-9.60968,-17.33628h29.58932l11.90764,17.33628z" data-paper-data="{&quot;index&quot;:null}" fill="#ffffff" stroke-width="NaN"/></g><g stroke-width="0"><path d="M241.87246,184.67296l-2.73642,-4.54999h19.48334l-2.84588,4.54999z" fill="url(#color-8)"/><path d="M255.77348,175.92296l2.84588,4.54999h-19.48334l2.73642,-4.54999z" data-paper-data="{&quot;index&quot;:null}" fill="url(#color-9)"/></g></g></g></svg>