<svg version="1.1" xmlns="http://www.w3.org/2000/svg" xmlns:xlink="http://www.w3.org/1999/xlink" width="326.57499" height="170.04208" viewBox="0,0,326.57499,170.04208"><defs><linearGradient x1="90.91305" y1="191.82551" x2="119.81023" y2="191.82551" gradientUnits="userSpaceOnUse" id="color-1"><stop offset="0" stop-color="#f1f1f1"/><stop offset="1" stop-color="#f1f1f1" stop-opacity="0"/></linearGradient><linearGradient x1="90.71251" y1="168.27459" x2="119.46049" y2="168.27459" gradientUnits="userSpaceOnUse" id="color-2"><stop offset="0" stop-color="#f1f1f1"/><stop offset="1" stop-color="#f1f1f1" stop-opacity="0"/></linearGradient><linearGradient x1="119.91305" y1="191.82551" x2="148.81023" y2="191.82551" gradientUnits="userSpaceOnUse" id="color-3"><stop offset="0" stop-color="#f1f1f1"/><stop offset="1" stop-color="#f1f1f1" stop-opacity="0"/></linearGradient><linearGradient x1="119.71251" y1="168.27459" x2="148.46049" y2="168.27459" gradientUnits="userSpaceOnUse" id="color-4"><stop offset="0" stop-color="#f1f1f1"/><stop offset="1" stop-color="#f1f1f1" stop-opacity="0"/></linearGradient><linearGradient x1="175.91305" y1="191.82551" x2="204.81023" y2="191.82551" gradientUnits="userSpaceOnUse" id="color-5"><stop offset="0" stop-color="#f1f1f1"/><stop offset="1" stop-color="#f1f1f1" stop-opacity="0"/></linearGradient><linearGradient x1="175.71251" y1="168.27459" x2="204.46049" y2="168.27459" gradientUnits="userSpaceOnUse" id="color-6"><stop offset="0" stop-color="#f1f1f1"/><stop offset="1" stop-color="#f1f1f1" stop-opacity="0"/></linearGradient><linearGradient x1="204.91305" y1="191.82551" x2="233.81023" y2="191.82551" gradientUnits="userSpaceOnUse" id="color-7"><stop offset="0" stop-color="#f1f1f1"/><stop offset="1" stop-color="#f1f1f1" stop-opacity="0"/></linearGradient><linearGradient x1="204.71251" y1="168.27459" x2="233.46049" y2="168.27459" gradientUnits="userSpaceOnUse" id="color-8"><stop offset="0" stop-color="#f1f1f1"/><stop offset="1" stop-color="#f1f1f1" stop-opacity="0"/></linearGradient></defs><g transform="translate(-76.71251,-94.97896)"><g data-paper-data="{&quot;isPaintingLayer&quot;:true}" fill-rule="nonzero" stroke="none" stroke-width="0" stroke-linecap="butt" stroke-linejoin="miter" stroke-miterlimit="10" stroke-dasharray="" stroke-dashoffset="0" style="mix-blend-mode: normal"><g><g fill="#ffffff"><g data-paper-data="{&quot;index&quot;:null}"><path d="M363.28772,173.00227l39.72015,0.66048l-0.36716,58.73535l-39.92819,32.62294z"/><path d="M363.77541,94.97896l39.51209,33.94383l-0.36716,58.73535l-39.72015,-0.66048z" data-paper-data="{&quot;index&quot;:null}"/></g><path d="M158.50001,264v-168h206v168z"/><g data-paper-data="{&quot;index&quot;:null}"><path d="M163.28749,265.02104l-85.19492,-32.62294l-0.78341,-58.73535l84.75102,-0.66048z"/><path d="M162.24694,186.99767l-84.75102,0.66048l-0.78341,-58.73535l84.30708,-33.94383z" data-paper-data="{&quot;index&quot;:null}"/></g></g><g><g data-paper-data="{&quot;index&quot;:null}"><path d="M119.81023,205.77221l-28.63387,-9.8889l-0.26331,-17.8043l28.48468,-0.20021z" fill="url(#color-1)"/><path d="M119.46049,182.12118l-28.48468,0.20021l-0.26331,-17.80429l28.33547,-10.28931z" data-paper-data="{&quot;index&quot;:null}" fill="url(#color-2)"/></g><g data-paper-data="{&quot;index&quot;:null}"><path d="M148.81023,205.77221l-28.63387,-9.8889l-0.26331,-17.8043l28.48469,-0.20021z" fill="url(#color-3)"/><path d="M148.46049,182.12118l-28.48467,0.20021l-0.26331,-17.80429l28.33547,-10.28931z" data-paper-data="{&quot;index&quot;:null}" fill="url(#color-4)"/></g><g data-paper-data="{&quot;index&quot;:null}"><path d="M204.81023,205.77221l-28.63387,-9.8889l-0.26331,-17.8043l28.48468,-0.20021z" fill="url(#color-5)"/><path d="M204.46049,182.12118l-28.48467,0.20021l-0.26331,-17.80429l28.33547,-10.28931z" data-paper-data="{&quot;index&quot;:null}" fill="url(#color-6)"/></g><g data-paper-data="{&quot;index&quot;:null}"><path d="M233.81023,205.77221l-28.63387,-9.8889l-0.26331,-17.8043l28.48468,-0.20021z" fill="url(#color-7)"/><path d="M233.46049,182.12118l-28.48467,0.20021l-0.26331,-17.80429l28.33547,-10.28931z" data-paper-data="{&quot;index&quot;:null}" fill="url(#color-8)"/></g></g></g></g></g></svg>