<svg version="1.1" xmlns="http://www.w3.org/2000/svg" xmlns:xlink="http://www.w3.org/1999/xlink" width="133" height="110.67942" viewBox="0,0,133,110.67942"><defs><linearGradient x1="238.28939" y1="234.1539" x2="236.988" y2="215.67875" gradientUnits="userSpaceOnUse" id="color-1"><stop offset="0" stop-color="#ffffff"/><stop offset="1" stop-color="#e1e1e1"/></linearGradient><linearGradient x1="214.63206" y1="235.17344" x2="213.33067" y2="216.6983" gradientUnits="userSpaceOnUse" id="color-2"><stop offset="0" stop-color="#ffffff"/><stop offset="1" stop-color="#e1e1e1"/></linearGradient><linearGradient x1="238.28939" y1="125.8461" x2="236.988" y2="144.32125" gradientUnits="userSpaceOnUse" id="color-3"><stop offset="0" stop-color="#ffffff"/><stop offset="1" stop-color="#e1e1e1"/></linearGradient><linearGradient x1="214.63206" y1="124.82656" x2="213.33067" y2="143.3017" gradientUnits="userSpaceOnUse" id="color-4"><stop offset="0" stop-color="#ffffff"/><stop offset="1" stop-color="#e1e1e1"/></linearGradient><linearGradient x1="258.99596" y1="183.52349" x2="282.50403" y2="183.52349" gradientUnits="userSpaceOnUse" id="color-5"><stop offset="0" stop-color="#000000"/><stop offset="1" stop-color="#ad0000"/></linearGradient><linearGradient x1="258.99596" y1="178.45589" x2="282.50403" y2="178.45589" gradientUnits="userSpaceOnUse" id="color-6"><stop offset="0" stop-color="#000000"/><stop offset="1" stop-color="#ad0000"/></linearGradient><linearGradient x1="259.51919" y1="161.22969" x2="270.98101" y2="172.69151" gradientUnits="userSpaceOnUse" id="color-7"><stop offset="0" stop-color="#000000"/><stop offset="1" stop-color="#ad0000"/></linearGradient><linearGradient x1="261.99" y1="158.75889" x2="273.45181" y2="170.2207" gradientUnits="userSpaceOnUse" id="color-8"><stop offset="0" stop-color="#000000"/><stop offset="1" stop-color="#ad0000"/></linearGradient><linearGradient x1="259.5192" y1="201.15632" x2="270.98101" y2="189.69451" gradientUnits="userSpaceOnUse" id="color-9"><stop offset="0" stop-color="#000000"/><stop offset="1" stop-color="#ad0000"/></linearGradient><linearGradient x1="261.99" y1="203.62712" x2="273.45181" y2="192.16531" gradientUnits="userSpaceOnUse" id="color-10"><stop offset="0" stop-color="#000000"/><stop offset="1" stop-color="#ad0000"/></linearGradient><radialGradient cx="224" cy="180" r="14.1" gradientUnits="userSpaceOnUse" id="color-11"><stop offset="0" stop-color="#ff0000"/><stop offset="1" stop-color="#8c0000"/></radialGradient></defs><g transform="translate(-173.5,-124.66029)"><g data-paper-data="{&quot;isPaintingLayer&quot;:true}" fill-rule="nonzero" stroke-linejoin="miter" stroke-miterlimit="10" stroke-dasharray="" stroke-dashoffset="0" style="mix-blend-mode: normal"><g data-paper-data="{&quot;index&quot;:null}" stroke-width="0"><g stroke="none" stroke-linecap="butt"><path d="M250.9384,215.07754l-14.5404,18.91004l-12.05902,0.7675l-1.30139,-18.47512z" fill="url(#color-1)"/><path d="M227.28108,216.09709l1.30139,18.47512l-17.80903,0.7675l-11.39317,-18.0402z" data-paper-data="{&quot;index&quot;:null}" fill="url(#color-2)"/></g><path d="M286.3,194.26029l20.2,7l-30.6,15.6l-74.4,3.2l-28,-15l19,-5.8l3.8,-19.6l89.6,0.2z" fill="#ffffff" stroke="#000000" stroke-linecap="round"/></g><g stroke-width="0"><g stroke="none" stroke-linecap="butt"><path d="M223.03759,143.72004l1.30139,-18.47512l12.05902,0.7675l14.54039,18.91004z" fill="url(#color-3)"/><path d="M199.38027,142.70049l11.39317,-18.0402l17.80902,0.7675l-1.30139,18.47512z" data-paper-data="{&quot;index&quot;:null}" fill="url(#color-4)"/></g><path d="M285.9,180.13971l-89.6,0.2l-3.8,-19.6l-19,-5.8l28,-15l74.4,3.2l30.6,15.6l-20.2,7z" fill="#ffffff" stroke="#000000" stroke-linecap="round"/></g><g fill="#f1f1f1" stroke="none" stroke-width="0" stroke-linecap="butt"><g data-paper-data="{&quot;index&quot;:null}"><path d="M266.82405,179.728l19.17841,0.11823l-0.17728,10.51415l-19.27885,5.83979z"/><path d="M267.05953,165.76113l19.07794,6.07625l-0.17728,10.51415l-19.1784,-0.11823z" data-paper-data="{&quot;index&quot;:null}"/></g><path d="M241.11619,194.56307l-17.7162,-13.10999l17.7162,-13.93674l26.33808,-1.77162v30.58997z"/></g><g data-paper-data="{&quot;index&quot;:null}" stroke="none" stroke-width="0" stroke-linecap="butt"><path d="M262.29765,186.26846l-3.3017,-5.48991h23.50811l-3.43377,5.48991z" fill="url(#color-5)"/><path d="M279.07028,175.71094l3.43377,5.48991h-23.50811l3.3017,-5.48991z" data-paper-data="{&quot;index&quot;:null}" fill="url(#color-6)"/></g><g data-paper-data="{&quot;index&quot;:null}" stroke="none" stroke-width="0" stroke-linecap="butt"><path d="M259.79064,164.17786l1.0669,-4.28651l11.46183,11.46183l-4.35091,1.00251z" fill="url(#color-7)"/><path d="M273.11597,167.20815l-1.00251,4.35091l-11.46183,-11.46183l4.28651,-1.0669z" data-paper-data="{&quot;index&quot;:null}" fill="url(#color-8)"/></g><g data-paper-data="{&quot;index&quot;:null}" stroke="none" stroke-width="0" stroke-linecap="butt"><path d="M267.96846,190.03033l4.35091,1.00251l-11.46183,11.46183l-1.0669,-4.28651z" fill="url(#color-9)"/><path d="M264.93815,203.35568l-4.28652,-1.0669l11.46183,-11.46183l1.00251,4.35091z" data-paper-data="{&quot;index&quot;:null}" fill="url(#color-10)"/></g><g stroke-linecap="butt"><path d="M209.9,180c0,-7.78723 6.31277,-14.1 14.1,-14.1c7.78723,0 14.1,6.31277 14.1,14.1c0,7.78723 -6.31277,14.1 -14.1,14.1c-7.78723,0 -14.1,-6.31277 -14.1,-14.1z" fill="url(#color-11)" stroke="none" stroke-width="NaN"/><path d="M204.80735,180c0,-10.5998 8.59285,-19.19265 19.19265,-19.19265c10.5998,0 19.19265,8.59285 19.19265,19.19265c0,10.5998 -8.59285,19.19265 -19.19265,19.19265c-10.5998,0 -19.19265,-8.59285 -19.19265,-19.19265z" fill="none" stroke="#dadada" stroke-width="5"/></g></g></g></svg>