<svg version="1.1" xmlns="http://www.w3.org/2000/svg" xmlns:xlink="http://www.w3.org/1999/xlink" width="58.94496" height="68.80785" viewBox="0,0,58.94496,68.80785"><defs><linearGradient x1="245.27136" y1="179.84747" x2="268.62792" y2="179.84747" gradientUnits="userSpaceOnUse" id="color-1"><stop offset="0" stop-color="#cecece"/><stop offset="1" stop-color="#ffffff"/></linearGradient><linearGradient x1="220.81506" y1="207.93621" x2="229.22673" y2="201.78771" gradientUnits="userSpaceOnUse" id="color-2"><stop offset="0" stop-color="#ffffff"/><stop offset="1" stop-color="#e1e1e1"/></linearGradient><linearGradient x1="213.41003" y1="197.8055" x2="221.82171" y2="191.657" gradientUnits="userSpaceOnUse" id="color-3"><stop offset="0" stop-color="#ffffff"/><stop offset="1" stop-color="#e1e1e1"/></linearGradient><linearGradient x1="220.81506" y1="152.06379" x2="229.22673" y2="158.21229" gradientUnits="userSpaceOnUse" id="color-4"><stop offset="0" stop-color="#ffffff"/><stop offset="1" stop-color="#e1e1e1"/></linearGradient><linearGradient x1="213.41003" y1="162.1945" x2="221.8217" y2="168.343" gradientUnits="userSpaceOnUse" id="color-5"><stop offset="0" stop-color="#ffffff"/><stop offset="1" stop-color="#e1e1e1"/></linearGradient><linearGradient x1="234.58577" y1="182.35839" x2="254.06909" y2="182.35839" gradientUnits="userSpaceOnUse" id="color-6"><stop offset="0" stop-color="#000000"/><stop offset="1" stop-color="#ad0000"/></linearGradient><linearGradient x1="234.58577" y1="178.1584" x2="254.06909" y2="178.1584" gradientUnits="userSpaceOnUse" id="color-7"><stop offset="0" stop-color="#000000"/><stop offset="1" stop-color="#ad0000"/></linearGradient></defs><g transform="translate(-210.52752,-145.59607)"><g data-paper-data="{&quot;isPaintingLayer&quot;:true}" fill-rule="nonzero" stroke="none" stroke-linecap="butt" stroke-linejoin="miter" stroke-miterlimit="10" stroke-dasharray="" stroke-dashoffset="0" style="mix-blend-mode: normal"><path d="M245.27136,185.12232v-10.54968h23.35658v10.54968z" fill="url(#color-1)" stroke-width="0"/><g data-paper-data="{&quot;index&quot;:null}"><g stroke-width="0"><path d="M233.59337,207.76165l-11.57052,1.82692l-5.57443,-7.62631l8.41167,-6.14849z" fill="url(#color-2)"/><path d="M226.18835,197.63095l-8.41168,6.1485l-5.57443,-7.62631l5.25283,-10.47007z" data-paper-data="{&quot;index&quot;:null}" fill="url(#color-3)"/></g><path d="M258.09607,179.59607l11.37641,16.10236l-32.97447,18.70549l-25.97048,-34.80785z" data-paper-data="{&quot;index&quot;:null}" fill="#ffffff" stroke-width="NaN"/></g><g><g stroke-width="0"><path d="M224.86009,164.18623l-8.41167,-6.1485l5.57444,-7.62631l11.57052,1.82692z" fill="url(#color-4)"/><path d="M217.45507,174.31693l-5.25282,-10.47007l5.57444,-7.62631l8.41167,6.1485z" data-paper-data="{&quot;index&quot;:null}" fill="url(#color-5)"/></g><path d="M210.52752,180.40393l25.97048,-34.80785l32.97448,18.70549l-11.37641,16.10236z" data-paper-data="{&quot;index&quot;:null}" fill="#ffffff" stroke-width="NaN"/></g><g stroke-width="0"><path d="M237.32219,184.6334l-2.73642,-4.54999h19.48334l-2.84588,4.54999z" fill="url(#color-6)"/><path d="M251.22321,175.8834l2.84588,4.54999h-19.48334l2.73642,-4.54999z" data-paper-data="{&quot;index&quot;:null}" fill="url(#color-7)"/></g></g></g></svg>