<svg version="1.1" xmlns="http://www.w3.org/2000/svg" xmlns:xlink="http://www.w3.org/1999/xlink" width="50.8325" height="50.8325" viewBox="0,0,50.8325,50.8325"><defs><radialGradient cx="239.99999" cy="180" r="25.41625" gradientUnits="userSpaceOnUse" id="color-1"><stop offset="0" stop-color="#ff0000"/><stop offset="1" stop-color="#ff0000" stop-opacity="0"/></radialGradient></defs><g transform="translate(-214.58376,-154.58375)"><g data-paper-data="{&quot;isPaintingLayer&quot;:true}" fill-rule="nonzero" stroke-linecap="butt" stroke-linejoin="miter" stroke-miterlimit="10" stroke-dasharray="" stroke-dashoffset="0" style="mix-blend-mode: normal"><path d="M214.58376,180c0,-14.03702 11.37925,-25.41625 25.41625,-25.41625c14.03702,0 25.41625,11.37925 25.41625,25.41625c0,14.03702 -11.37925,25.41625 -25.41625,25.41625c-14.03702,0 -25.41625,-11.37925 -25.41625,-25.41625z" fill="url(#color-1)" stroke="none" stroke-width="NaN"/><path d="M228.66666,180c0,-6.25923 5.0741,-11.33334 11.33334,-11.33334c6.25923,0 11.33334,5.0741 11.33334,11.33334c0,6.25923 -5.0741,11.33334 -11.33334,11.33334c-6.25923,0 -11.33334,-5.0741 -11.33334,-11.33334z" fill="#ffffff" stroke="#dadada" stroke-width="2.5"/><path d="M232.58376,180c0,-4.09588 3.32036,-7.41624 7.41624,-7.41624c4.09588,0 7.41624,3.32036 7.41624,7.41624c0,4.09588 -3.32036,7.41624 -7.41624,7.41624c-4.09588,0 -7.41624,-3.32036 -7.41624,-7.41624z" fill="#ffb7b7" stroke="none" stroke-width="NaN"/><g fill="#ebebeb" stroke="none" stroke-width="0"><g><path d="M226.73809,182.29167v-4.58333h8.52382v4.58333z"/><path d="M244.7381,182.29167v-4.58333h8.52382v4.58333z"/></g><g><path d="M237.70834,166.73809h4.58333v8.52382h-4.58333z"/><path d="M237.70833,184.73809h4.58333v8.52382h-4.58333z"/></g></g></g></g></svg>