<svg version="1.1" xmlns="http://www.w3.org/2000/svg" xmlns:xlink="http://www.w3.org/1999/xlink" width="53.77633" height="58.60944" viewBox="0,0,53.77633,58.60944"><defs><linearGradient x1="227.37205" y1="187.88152" x2="265.73213" y2="187.88152" gradientUnits="userSpaceOnUse" id="color-1"><stop offset="0" stop-color="#800000" stop-opacity="0"/><stop offset="1" stop-color="#800000"/></linearGradient><linearGradient x1="227.37197" y1="172.97579" x2="265.73202" y2="172.97579" gradientUnits="userSpaceOnUse" id="color-2"><stop offset="0" stop-color="#800000" stop-opacity="0"/><stop offset="1" stop-color="#800000"/></linearGradient><linearGradient x1="260.79091" y1="185.96152" x2="232.31313" y2="185.96152" gradientUnits="userSpaceOnUse" id="color-3"><stop offset="0" stop-color="#ad0000"/><stop offset="1" stop-color="#ff0000"/></linearGradient><linearGradient x1="260.79097" y1="174.89579" x2="232.31321" y2="174.89579" gradientUnits="userSpaceOnUse" id="color-4"><stop offset="0" stop-color="#ad0000"/><stop offset="1" stop-color="#ff0000"/></linearGradient><linearGradient x1="255.02563" y1="176.81845" x2="242.76252" y2="176.81845" gradientUnits="userSpaceOnUse" id="color-5"><stop offset="0" stop-color="#ff4444"/><stop offset="1" stop-color="#ff4444" stop-opacity="0"/></linearGradient><linearGradient x1="254.97322" y1="184.18155" x2="242.71012" y2="184.18155" gradientUnits="userSpaceOnUse" id="color-6"><stop offset="0" stop-color="#ff4444"/><stop offset="1" stop-color="#ff4444" stop-opacity="0"/></linearGradient></defs><g transform="translate(-213.01787,-150.69528)"><g data-paper-data="{&quot;isPaintingLayer&quot;:true}" fill-rule="nonzero" stroke-linejoin="miter" stroke-miterlimit="10" stroke-dasharray="" stroke-dashoffset="0" style="mix-blend-mode: normal"><g data-paper-data="{&quot;index&quot;:null}" stroke="none" stroke-width="0" stroke-linecap="butt"><path d="M237.08352,195.95544l-9.71147,-16.14783l38.36008,0.00004l-10.09999,16.14779z" fill="url(#color-1)"/><path d="M255.63207,164.90187l10.09995,16.14783h-38.36005l9.71147,-16.14783z" data-paper-data="{&quot;index&quot;:null}" fill="url(#color-2)"/></g><g data-paper-data="{&quot;index&quot;:null}" stroke="none" stroke-width="0" stroke-linecap="butt"><path d="M239.81117,191.95545l-7.49804,-11.98781l28.47778,-0.00003l-7.20961,11.98783z" fill="url(#color-3)"/><path d="M253.58135,168.90187l7.20961,11.98783h-28.47775l7.49801,-11.98783z" data-paper-data="{&quot;index&quot;:null}" fill="url(#color-4)"/></g><g data-paper-data="{&quot;index&quot;:null}" fill="#ffffff" stroke="#ffffff" stroke-width="2.5" stroke-linecap="round"><path d="M220.73187,181.16983l12.49948,20.83247h31.01723l-3.93502,5.09238h-29.85987l-14.8142,-25.92485z"/><path d="M215.63949,179.34571l14.8142,-25.92485h29.85987l3.93502,5.09238h-31.01723l-12.49948,20.83247z" data-paper-data="{&quot;index&quot;:null}"/></g><g data-paper-data="{&quot;index&quot;:null}" fill="none" stroke="#cbcbcb" stroke-width="2.5" stroke-linecap="round"><path d="M214.26787,179.95l16,-28l30.8,0.2"/><path d="M261.26787,207.85l-30.8,0.2l-16,-28" data-paper-data="{&quot;index&quot;:null}"/></g><g data-paper-data="{&quot;index&quot;:null}" fill="none" stroke-width="2.5" stroke-linecap="round"><path d="M242.76253,173.20241l8.07059,-0.05241l4.19251,7.3369" stroke="url(#color-5)"/><path d="M254.97322,180.5131l-4.19251,7.3369l-8.07059,-0.05241" data-paper-data="{&quot;index&quot;:null}" stroke="url(#color-6)"/></g></g></g></svg>