<svg version="1.1" xmlns="http://www.w3.org/2000/svg" xmlns:xlink="http://www.w3.org/1999/xlink" width="128.78662" height="114.40241" viewBox="0,0,128.78662,114.40241"><defs><linearGradient x1="176.22637" y1="191.22539" x2="219.61752" y2="191.09613" gradientUnits="userSpaceOnUse" id="color-1"><stop offset="0" stop-color="#ffffff"/><stop offset="1" stop-color="#e1e1e1"/></linearGradient><linearGradient x1="175.69359" y1="168.95567" x2="219.08471" y2="168.82641" gradientUnits="userSpaceOnUse" id="color-2"><stop offset="0" stop-color="#ffffff"/><stop offset="1" stop-color="#e1e1e1"/></linearGradient><linearGradient x1="297.22792" y1="187.72539" x2="282.95999" y2="187.59613" gradientUnits="userSpaceOnUse" id="color-3"><stop offset="0" stop-color="#ffffff"/><stop offset="1" stop-color="#e1e1e1"/></linearGradient><linearGradient x1="297.4031" y1="172.45567" x2="283.1352" y2="172.32641" gradientUnits="userSpaceOnUse" id="color-4"><stop offset="0" stop-color="#ffffff"/><stop offset="1" stop-color="#e1e1e1"/></linearGradient><linearGradient x1="215.40571" y1="123.10391" x2="215.62818" y2="144.46909" gradientUnits="userSpaceOnUse" id="color-5"><stop offset="0" stop-color="#ffffff"/><stop offset="1" stop-color="#e1e1e1"/></linearGradient><linearGradient x1="241.68777" y1="122.84158" x2="241.91025" y2="144.20674" gradientUnits="userSpaceOnUse" id="color-6"><stop offset="0" stop-color="#ffffff"/><stop offset="1" stop-color="#e1e1e1"/></linearGradient><linearGradient x1="274.54594" y1="173.00661" x2="286.67995" y2="173.00661" gradientUnits="userSpaceOnUse" id="color-7"><stop offset="0" stop-color="#000000"/><stop offset="1" stop-color="#ad0000"/></linearGradient><linearGradient x1="274.54594" y1="170.39091" x2="286.67995" y2="170.39091" gradientUnits="userSpaceOnUse" id="color-8"><stop offset="0" stop-color="#000000"/><stop offset="1" stop-color="#ad0000"/></linearGradient><linearGradient x1="215.40571" y1="236.89609" x2="215.62818" y2="215.53091" gradientUnits="userSpaceOnUse" id="color-9"><stop offset="0" stop-color="#ffffff"/><stop offset="1" stop-color="#e1e1e1"/></linearGradient><linearGradient x1="241.68777" y1="237.15842" x2="241.91025" y2="215.79326" gradientUnits="userSpaceOnUse" id="color-10"><stop offset="0" stop-color="#ffffff"/><stop offset="1" stop-color="#e1e1e1"/></linearGradient><linearGradient x1="274.54594" y1="186.99339" x2="286.67995" y2="186.99339" gradientUnits="userSpaceOnUse" id="color-11"><stop offset="0" stop-color="#000000"/><stop offset="1" stop-color="#ad0000"/></linearGradient><linearGradient x1="274.54594" y1="189.6091" x2="286.67995" y2="189.6091" gradientUnits="userSpaceOnUse" id="color-12"><stop offset="0" stop-color="#000000"/><stop offset="1" stop-color="#ad0000"/></linearGradient><linearGradient x1="249.29594" y1="182.50182" x2="276.22993" y2="182.50181" gradientUnits="userSpaceOnUse" id="color-13"><stop offset="0" stop-color="#000000"/><stop offset="1" stop-color="#ad0000"/></linearGradient><linearGradient x1="249.29594" y1="176.69571" x2="276.22993" y2="176.69571" gradientUnits="userSpaceOnUse" id="color-14"><stop offset="0" stop-color="#000000"/><stop offset="1" stop-color="#ad0000"/></linearGradient></defs><g transform="translate(-175.60669,-122.79879)"><g data-paper-data="{&quot;isPaintingLayer&quot;:true}" fill-rule="nonzero" stroke="none" stroke-linecap="butt" stroke-linejoin="miter" stroke-miterlimit="10" stroke-dasharray="" stroke-dashoffset="0" style="mix-blend-mode: normal"><g stroke-width="0"><path d="M219.93168,200.10049l-43.6184,-6.38453l-0.40109,-11.49491l43.39115,-0.12926z" fill="url(#color-1)"/><path d="M219.39893,177.83078l-43.39115,0.12926l-0.40109,-11.49491l43.16385,-6.64304z" data-paper-data="{&quot;index&quot;:null}" fill="url(#color-2)"/></g><g data-paper-data="{&quot;index&quot;:null}" stroke-width="0"><path d="M283.06331,178.59179l14.26792,0.12926l-0.13189,11.49491l-14.34265,6.38453z" fill="url(#color-3)"/><path d="M283.2385,163.32209l14.19318,6.64304l-0.13189,11.49491l-14.26792,-0.12926z" data-paper-data="{&quot;index&quot;:null}" fill="url(#color-4)"/></g><path d="M217.43168,188.64752v-16.75h66.75v16.75z" fill="#e1e1e1" stroke-width="0"/><g><g><g data-paper-data="{&quot;index&quot;:null}" stroke-width="0"><path d="M200.12998,144.62378l10.98898,-21.47708l19.78491,-0.19749l0.22248,21.36518z" fill="url(#color-5)"/><path d="M226.41204,144.36146l-0.22248,-21.36518l19.78491,-0.19749l11.43392,21.25326z" data-paper-data="{&quot;index&quot;:null}" fill="url(#color-6)"/></g><g fill="#ffffff"><path d="M288.18872,176.97036l-15.57286,-0.06858l-32.14579,-0.14157l0.90632,-26.86534l63.01693,-11.13851l-0.21785,17.1525l-15.91637,6.61591z" data-paper-data="{&quot;index&quot;:null}" stroke-width="NaN"/><path d="M211.27128,166.76194l-20.27373,-3.33206l-0.27749,-34.90437l80.26881,14.18785l1.15444,34.22015l-60.7824,0.26768z" data-paper-data="{&quot;index&quot;:null}" stroke-width="NaN"/></g></g><g data-paper-data="{&quot;index&quot;:null}" stroke-width="0"><path d="M276.25016,174.42347l-1.70421,-2.83369l12.13402,0l-1.77238,2.83369z" fill="url(#color-7)"/><path d="M284.90757,168.97406l1.77238,2.83369h-12.13402l1.70421,-2.83369z" data-paper-data="{&quot;index&quot;:null}" fill="url(#color-8)"/></g></g><g data-paper-data="{&quot;index&quot;:null}"><g><g data-paper-data="{&quot;index&quot;:null}" stroke-width="0"><path d="M231.12635,215.68561l-0.22248,21.36518l-19.78491,-0.19749l-10.98898,-21.47708z" fill="url(#color-9)"/><path d="M257.40839,215.94795l-11.43392,21.25326l-19.78491,-0.19749l0.22248,-21.36518z" data-paper-data="{&quot;index&quot;:null}" fill="url(#color-10)"/></g><g fill="#ffffff"><path d="M288.25909,197.47523l15.91637,6.61591l0.21785,17.1525l-63.01693,-11.13851l-0.90632,-26.86534l32.14579,-0.14157l15.57286,-0.06858z" data-paper-data="{&quot;index&quot;:null}" stroke-width="NaN"/><path d="M211.36091,182.7988l60.7824,0.26768l-1.15444,34.22015l-80.26881,14.18785l0.27749,-34.90436l20.27373,-3.33206z" data-paper-data="{&quot;index&quot;:null}" stroke-width="NaN"/></g></g><g data-paper-data="{&quot;index&quot;:null}" stroke-width="0"><path d="M284.90758,185.57654l1.77239,2.83369l-12.13402,0l1.70421,-2.83369z" fill="url(#color-11)"/><path d="M276.25015,191.02595l-1.70421,-2.83369h12.13401l-1.77238,2.83369z" data-paper-data="{&quot;index&quot;:null}" fill="url(#color-12)"/></g></g><g data-paper-data="{&quot;index&quot;:null}" stroke-width="0"><path d="M253.07881,185.64682l-3.78286,-6.28997l26.93401,0.00001l-3.93418,6.28996z" fill="url(#color-13)"/><path d="M272.29575,173.55072l3.93418,6.28996h-26.934l3.78286,-6.28997z" data-paper-data="{&quot;index&quot;:null}" fill="url(#color-14)"/></g></g></g></svg>