<svg version="1.1" xmlns="http://www.w3.org/2000/svg" xmlns:xlink="http://www.w3.org/1999/xlink" width="207.85208" height="207.85208" viewBox="0,0,207.85208,207.85208"><defs><linearGradient x1="171.38726" y1="134.96459" x2="219.40123" y2="150.05283" gradientUnits="userSpaceOnUse" id="color-1"><stop offset="0" stop-color="#8000ff" stop-opacity="0"/><stop offset="1" stop-color="#8000ff"/></linearGradient><linearGradient x1="308.61274" y1="225.03541" x2="260.59877" y2="209.94717" gradientUnits="userSpaceOnUse" id="color-2"><stop offset="0" stop-color="#8000ff" stop-opacity="0"/><stop offset="1" stop-color="#8000ff"/></linearGradient><linearGradient x1="285.03541" y1="111.38726" x2="269.94717" y2="159.40123" gradientUnits="userSpaceOnUse" id="color-3"><stop offset="0" stop-color="#8000ff" stop-opacity="0"/><stop offset="1" stop-color="#8000ff"/></linearGradient><linearGradient x1="194.96459" y1="248.61274" x2="210.05283" y2="200.59877" gradientUnits="userSpaceOnUse" id="color-4"><stop offset="0" stop-color="#8000ff" stop-opacity="0"/><stop offset="1" stop-color="#8000ff"/></linearGradient><linearGradient x1="145.51464" y1="199.60184" x2="197.97686" y2="172.22788" gradientUnits="userSpaceOnUse" id="color-5"><stop offset="0" stop-color="#8c00ff" stop-opacity="0"/><stop offset="1" stop-color="#8c00ff"/></linearGradient><linearGradient x1="334.48536" y1="160.39816" x2="282.02314" y2="187.77212" gradientUnits="userSpaceOnUse" id="color-6"><stop offset="0" stop-color="#8c00ff" stop-opacity="0"/><stop offset="1" stop-color="#8c00ff"/></linearGradient><linearGradient x1="220.39816" y1="85.51464" x2="247.77212" y2="137.97686" gradientUnits="userSpaceOnUse" id="color-7"><stop offset="0" stop-color="#8c00ff" stop-opacity="0"/><stop offset="1" stop-color="#8c00ff"/></linearGradient><linearGradient x1="259.60184" y1="274.48536" x2="232.22788" y2="222.02314" gradientUnits="userSpaceOnUse" id="color-8"><stop offset="0" stop-color="#8c00ff" stop-opacity="0"/><stop offset="1" stop-color="#8c00ff"/></linearGradient><radialGradient cx="240" cy="180" r="74.5" gradientUnits="userSpaceOnUse" id="color-9"><stop offset="0" stop-color="#8100ff"/><stop offset="1" stop-color="#8100ff" stop-opacity="0"/></radialGradient></defs><g transform="translate(-136.07396,-76.07396)"><g data-paper-data="{&quot;isPaintingLayer&quot;:true}" fill-rule="nonzero" stroke-linejoin="miter" stroke-miterlimit="10" stroke-dasharray="" stroke-dashoffset="0" style="mix-blend-mode: normal"><g fill="none" stroke-width="15" stroke-linecap="round"><g><path d="M218.235,153.76402c0,0 -9.92823,-13.43951 -19.40174,-16.06162c-9.47351,-2.62211 -29.13226,2.62824 -29.13226,2.62824" stroke="url(#color-1)"/><path d="M310.299,219.66936c0,0 -19.65875,5.25034 -29.13226,2.62823c-9.47351,-2.62211 -19.40174,-16.06162 -19.40174,-16.06162" data-paper-data="{&quot;index&quot;:null}" stroke="url(#color-2)"/></g><g><path d="M266.23598,158.235c0,0 13.43951,-9.92823 16.06162,-19.40174c2.62211,-9.47351 -2.62824,-29.13226 -2.62824,-29.13226" stroke="url(#color-3)"/><path d="M200.33064,250.299c0,0 -5.25034,-19.65875 -2.62823,-29.13226c2.62211,-9.47351 16.06162,-19.40174 16.06162,-19.40174" data-paper-data="{&quot;index&quot;:null}" stroke="url(#color-4)"/></g></g><g fill="none" stroke-width="25" stroke-linecap="round"><g><path d="M200.09271,176.2829c0,0 -19.42759,-2.91923 -29.4837,2.77693c-10.05611,5.69615 -22.03505,26.4052 -22.03505,26.4052" stroke="url(#color-5)"/><path d="M331.42604,154.53498c0,0 -11.97893,20.70904 -22.03505,26.40519c-10.05611,5.69616 -29.4837,2.77693 -29.4837,2.77693" data-paper-data="{&quot;index&quot;:null}" stroke="url(#color-6)"/></g><g><path d="M243.7171,140.09271c0,0 2.91923,-19.42759 -2.77693,-29.48371c-5.69615,-10.05611 -26.4052,-22.03504 -26.4052,-22.03504" stroke="url(#color-7)"/><path d="M265.46503,271.42604c0,0 -20.70904,-11.97893 -26.4052,-22.03504c-5.69616,-10.05611 -2.77693,-29.4837 -2.77693,-29.4837" data-paper-data="{&quot;index&quot;:null}" stroke="url(#color-8)"/></g></g><path d="M165.5,180c0,-41.14522 33.35478,-74.5 74.5,-74.5c41.14522,0 74.5,33.35478 74.5,74.5c0,41.14522 -33.35478,74.5 -74.5,74.5c-41.14522,0 -74.5,-33.35478 -74.5,-74.5z" fill="url(#color-9)" stroke="none" stroke-width="0" stroke-linecap="butt"/><path d="M199.16667,180c0,-22.55163 18.2817,-40.83333 40.83333,-40.83333c22.55163,0 40.83333,18.2817 40.83333,40.83333c0,22.55163 -18.2817,40.83333 -40.83333,40.83333c-22.55163,0 -40.83333,-18.2817 -40.83333,-40.83333z" fill="#000000" stroke="#8000ff" stroke-width="5" stroke-linecap="butt"/><path d="M202.5,180c0,-20.71068 16.78932,-37.5 37.5,-37.5c20.71068,0 37.5,16.78932 37.5,37.5c0,20.71068 -16.78932,37.5 -37.5,37.5c-20.71068,0 -37.5,-16.78932 -37.5,-37.5z" fill="#000000" stroke="#ffffff" stroke-width="2.5" stroke-linecap="butt"/></g></g></svg>