<svg version="1.1" xmlns="http://www.w3.org/2000/svg" xmlns:xlink="http://www.w3.org/1999/xlink" width="85.8005" height="46.2" viewBox="0,0,85.8005,46.2"><defs><radialGradient cx="240" cy="180" r="23.1" gradientUnits="userSpaceOnUse" id="color-1"><stop offset="0" stop-color="#ffffff"/><stop offset="1" stop-color="#dcdcdc"/></radialGradient></defs><g transform="translate(-197.09975,-156.9)"><g data-paper-data="{&quot;isPaintingLayer&quot;:true}" fill-rule="nonzero" stroke-linecap="butt" stroke-linejoin="miter" stroke-miterlimit="10" stroke-dasharray="" stroke-dashoffset="0" style="mix-blend-mode: normal"><path d="M197.1,190.7v-21.4h85.8v21.4z" fill="none" stroke="#000000" stroke-width="0.0005"/><path d="M216.9,180c0,-12.75778 10.34222,-23.1 23.1,-23.1c12.75778,0 23.1,10.34222 23.1,23.1c0,12.75778 -10.34222,23.1 -23.1,23.1c-12.75778,0 -23.1,-10.34222 -23.1,-23.1z" fill="url(#color-1)" stroke="none" stroke-width="0"/><path d="M220.7,180c0,-10.6591 8.6409,-19.3 19.3,-19.3c10.6591,0 19.3,8.6409 19.3,19.3c0,10.6591 -8.6409,19.3 -19.3,19.3c-10.6591,0 -19.3,-8.6409 -19.3,-19.3z" fill="#ffffff" stroke="none" stroke-width="0"/></g></g></svg>