<svg version="1.1" xmlns="http://www.w3.org/2000/svg" xmlns:xlink="http://www.w3.org/1999/xlink" width="135.0005" height="135.16691" viewBox="0,0,135.0005,135.16691"><defs><linearGradient x1="236.33333" y1="179.91667" x2="297.66667" y2="179.91667" gradientUnits="userSpaceOnUse" id="color-1"><stop offset="0" stop-color="#800000" stop-opacity="0"/><stop offset="1" stop-color="#800000"/></linearGradient><linearGradient x1="264.45905" y1="150.94561" x2="297.57905" y2="150.94561" gradientUnits="userSpaceOnUse" id="color-2"><stop offset="0" stop-color="#ff0000" stop-opacity="0"/><stop offset="1" stop-color="#ff0000"/></linearGradient><linearGradient x1="264.45905" y1="209.68426" x2="297.57905" y2="209.68426" gradientUnits="userSpaceOnUse" id="color-3"><stop offset="0" stop-color="#ff0000" stop-opacity="0"/><stop offset="1" stop-color="#ff0000"/></linearGradient></defs><g transform="translate(-172.49975,-112.41667)"><g data-paper-data="{&quot;isPaintingLayer&quot;:true}" fill-rule="nonzero" stroke-linejoin="miter" stroke-miterlimit="10" stroke-dasharray="" stroke-dashoffset="0" style="mix-blend-mode: normal"><path d="M172.5,180.08333c0,-37.27922 30.22078,-67.5 67.5,-67.5c37.27922,0 67.5,30.22078 67.5,67.5c0,37.27922 -30.22078,67.5 -67.5,67.5c-37.27922,0 -67.5,-30.22078 -67.5,-67.5z" fill="none" stroke="#000000" stroke-width="0.0005" stroke-linecap="butt"/><path d="M297.66667,179.91667c0,37.27922 -13.72993,67.5 -30.66667,67.5c-16.93673,0 -30.66667,-30.22078 -30.66667,-67.5c0,-37.27922 13.72993,-67.5 30.66667,-67.5c16.93673,0 30.66667,30.22078 30.66667,67.5z" fill="url(#color-1)" stroke="none" stroke-width="NaN" stroke-linecap="butt"/><g fill="none" stroke-width="2.5" stroke-linecap="round"><path d="M270.41714,148.18932l-4.90667,-2.60318l-1.05143,-6.43137l3.15429,-5.20635l5.0819,2.7563l2.62857,8.72829l-4.73143,2.60317v7.19701l6.48381,4.59384l-6.13333,-5.05322l-5.78286,5.05322v9.18768l7.18476,5.66573l-0.06373,5.62397l0.06373,-5.93023l5.60761,-5.97199l7.88572,5.97199l-7.88572,-6.12512l-0.87619,-8.57516l6.65905,-4.28758l-1.92761,-8.72829l-6.48381,-1.0719l-2.80381,-9.18768l2.80381,-4.59383l7.53524,1.6844l1.40191,-9.03455l-4.73143,-5.66573l-5.95809,-3.06256l-2.97905,7.96265l4.73143,7.96265l7.18476,1.68441l4.03048,6.5845l-3.68,-6.89075l1.40191,-8.72829l3.68,7.35014l4.55619,12.40336l2.45333,10.71895l-5.25714,4.90009l-5.9581,-4.28758l-1.75238,-8.57516l4.73143,-6.73763l5.78286,4.44071l2.45333,10.10645l2.27809,19.14099l-2.27809,-18.83474l-5.25714,4.74697l1.4019,9.49393l-5.0819,5.81886v5.34556v-5.65181l5.0819,-5.97199l6.13333,5.20635l0.23896,6.20864" stroke="url(#color-2)"/><path d="M297.46753,180.50643l-0.23896,6.20864l-6.13333,5.20635l-5.0819,-5.97199v-5.65181v5.34555l5.0819,5.81887l-1.4019,9.49393l5.25714,4.74697l2.27809,-18.83473l-2.27809,19.14099l-2.45333,10.10645l-5.78286,4.4407l-4.73143,-6.73762l1.75238,-8.57516l5.9581,-4.28758l5.25714,4.90009l-2.45333,10.71895l-4.55619,12.40337l-3.68,7.35014l-1.40191,-8.72829l3.68,-6.89075l-4.03048,6.5845l-7.18476,1.68441l-4.73143,7.96265l2.97905,7.96265l5.95809,-3.06255l4.73143,-5.66574l-1.40191,-9.03455l-7.53524,1.6844l-2.80381,-4.59383l2.80381,-9.18768l6.48381,-1.07189l1.92761,-8.7283l-6.65905,-4.28758l0.87619,-8.57516l7.88572,-6.12511l-7.88572,5.97199l-5.60761,-5.97199l-0.06373,-5.93023l0.06373,5.62397l-7.18476,5.66574v9.18767l5.78286,5.05322l6.13333,-5.05322l-6.48381,4.59384v7.19701l4.73143,2.60317l-2.62857,8.7283l-5.0819,2.7563l-3.15429,-5.20635l1.05143,-6.43137l4.90667,-2.60318" data-paper-data="{&quot;index&quot;:null}" stroke="url(#color-3)"/></g></g></g></svg>