<svg version="1.1" xmlns="http://www.w3.org/2000/svg" xmlns:xlink="http://www.w3.org/1999/xlink" width="56.31666" height="56.31666" viewBox="0,0,56.31666,56.31666"><defs><radialGradient cx="240" cy="180" r="8.1" gradientUnits="userSpaceOnUse" id="color-1"><stop offset="0" stop-color="#ff0000"/><stop offset="1" stop-color="#8c0000"/></radialGradient></defs><g transform="translate(-211.84167,-151.84167)"><g data-paper-data="{&quot;isPaintingLayer&quot;:true}" fill-rule="nonzero" stroke-linejoin="miter" stroke-miterlimit="10" stroke-dasharray="" stroke-dashoffset="0" style="mix-blend-mode: normal"><g stroke-linecap="butt"><path d="M217.83333,180c0,-12.24231 9.92435,-22.16667 22.16667,-22.16667c12.24231,0 22.16667,9.92435 22.16667,22.16667c0,12.24231 -9.92435,22.16667 -22.16667,22.16667c-12.24231,0 -22.16667,-9.92435 -22.16667,-22.16667z" fill="#ffffff" stroke="#000000" stroke-width="0"/><path d="M225.80735,180c0,-7.83838 6.35427,-14.19265 14.19265,-14.19265c7.83838,0 14.19265,6.35427 14.19265,14.19265c0,7.83838 -6.35427,14.19265 -14.19265,14.19265c-7.83838,0 -14.19265,-6.35427 -14.19265,-14.19265z" fill="none" stroke="#dadada" stroke-width="5"/></g><g fill="#ffffff" stroke-width="0"><g><g data-paper-data="{&quot;index&quot;:null}"><path d="M234.78333,159.675l3.66667,-7.83333h6.16667v7.16667z" stroke="#000000" stroke-linecap="round"/><path d="M240.03333,182.25833c-1.24264,0 -2.25,-1.00736 -2.25,-2.25c0,-1.24264 1.00736,-2.25 2.25,-2.25c1.24264,0 2.25,1.00736 2.25,2.25c0,1.24264 -1.00736,2.25 -2.25,2.25z" stroke="none" stroke-linecap="butt"/><path d="M245.21667,200.325l-3.66667,7.83334h-6.16666v-7.16666z" data-paper-data="{&quot;index&quot;:null}" stroke="#000000" stroke-linecap="round"/></g><g data-paper-data="{&quot;index&quot;:null}"><path d="M260.325,174.78334l7.83333,3.66667v6.16667h-7.16666z" stroke="#000000" stroke-linecap="round"/><path d="M237.74167,180.03333c0,-1.24264 1.00736,-2.25 2.25,-2.25c1.24264,0 2.25,1.00736 2.25,2.25c0,1.24264 -1.00736,2.25 -2.25,2.25c-1.24264,0 -2.25,-1.00736 -2.25,-2.25z" stroke="none" stroke-linecap="butt"/><path d="M219.67501,185.21667l-7.83334,-3.66667l0,-6.16666l7.16667,0z" data-paper-data="{&quot;index&quot;:null}" stroke="#000000" stroke-linecap="round"/></g></g><g><g data-paper-data="{&quot;index&quot;:null}"><path d="M250.68321,161.93932l8.13172,-2.94628l4.36049,4.36049l-5.0676,5.0676z" stroke="#000000" stroke-linecap="round"/><path d="M238.42669,181.62045c-0.87868,-0.87868 -0.87868,-2.3033 0,-3.18198c0.87868,-0.87868 2.3033,-0.87868 3.18198,0c0.87868,0.87868 0.87868,2.3033 0,3.18198c-0.87868,0.87868 -2.3033,0.87868 -3.18198,0z" stroke="none" stroke-linecap="butt"/><path d="M229.3168,198.06068l-8.13173,2.94628l-4.36049,-4.36049l5.0676,-5.0676z" data-paper-data="{&quot;index&quot;:null}" stroke="#000000" stroke-linecap="round"/></g><g data-paper-data="{&quot;index&quot;:null}"><path d="M258.06069,190.68321l2.94628,8.13172l-4.36049,4.36049l-5.0676,-5.0676z" stroke="#000000" stroke-linecap="round"/><path d="M238.37956,178.42669c0.87868,-0.87868 2.3033,-0.87868 3.18198,0c0.87868,0.87868 0.87868,2.3033 0,3.18198c-0.87868,0.87868 -2.3033,0.87868 -3.18198,0c-0.87868,-0.87868 -0.87868,-2.3033 0,-3.18198z" stroke="none" stroke-linecap="butt"/><path d="M221.93932,169.3168l-2.94628,-8.13173l4.36049,-4.36049l5.0676,5.0676z" data-paper-data="{&quot;index&quot;:null}" stroke="#000000" stroke-linecap="round"/></g></g></g><path d="M231.9,180c0,-4.47351 3.62649,-8.1 8.1,-8.1c4.47351,0 8.1,3.62649 8.1,8.1c0,4.47351 -3.62649,8.1 -8.1,8.1c-4.47351,0 -8.1,-3.62649 -8.1,-8.1z" fill="url(#color-1)" stroke="none" stroke-width="none" stroke-linecap="butt"/></g></g></svg>