<svg version="1.1" xmlns="http://www.w3.org/2000/svg" xmlns:xlink="http://www.w3.org/1999/xlink" width="65.34242" height="58.9732" viewBox="0,0,65.34242,58.9732"><defs><radialGradient cx="240" cy="180.03306" r="22.40406" gradientUnits="userSpaceOnUse" id="color-1"><stop offset="0" stop-color="#7a7a7a"/><stop offset="1" stop-color="#7a7a7a" stop-opacity="0"/></radialGradient></defs><g transform="translate(-207.33067,-148.4)"><g data-paper-data="{&quot;isPaintingLayer&quot;:true}" fill-rule="nonzero" stroke-linejoin="miter" stroke-miterlimit="10" stroke-dasharray="" stroke-dashoffset="0" style="mix-blend-mode: normal"><path d="M213.19621,179.74663l13.57595,-21.93035l26.45567,-0.17405l13.57595,22.10441l-13.92404,22.62656h-25.93353z" fill="none" stroke="#ededed" stroke-width="10" stroke-linecap="round"/><g fill="#ffffff" stroke="none" stroke-width="0" stroke-linecap="butt"><path d="M227.66599,201.76933l-13.71939,-21.93446l52.10666,-0.00005l-13.19165,21.93451z"/><path d="M252.86175,158.24609l13.19164,21.93451h-52.10661l13.71934,-21.93451z" data-paper-data="{&quot;index&quot;:null}"/></g><g fill="url(#color-1)" stroke="none" stroke-width="0" stroke-linecap="butt"><path d="M217.59595,180.03306c0,-12.37342 10.03064,-22.40406 22.40406,-22.40406c12.37342,0 22.40406,10.03064 22.40406,22.40406c0,12.37342 -10.03064,22.40406 -22.40406,22.40406c-12.37342,0 -22.40406,-10.03064 -22.40406,-22.40406z"/><path d="M217.59595,180.03306c0,-12.37342 10.03064,-22.40406 22.40406,-22.40406c12.37342,0 22.40406,10.03064 22.40406,22.40406c0,12.37342 -10.03064,22.40406 -22.40406,22.40406c-12.37342,0 -22.40406,-10.03064 -22.40406,-22.40406z"/></g><path d="M235,148.4h10l0,15.2h-10z" fill="#ffffff" stroke="none" stroke-width="none" stroke-linecap="butt"/><path d="M251.18545,192.99406l5.34683,-8.45053l12.8448,8.12718l-5.34683,8.45053z" data-paper-data="{&quot;index&quot;:null}" fill="#ffffff" stroke="none" stroke-width="none" stroke-linecap="butt"/><path d="M215.96975,201.12125l-5.34683,-8.45052l12.8448,-8.12718l5.34683,8.45052z" data-paper-data="{&quot;index&quot;:null}" fill="#ffffff" stroke="none" stroke-width="none" stroke-linecap="butt"/></g></g></svg>