<svg version="1.1" xmlns="http://www.w3.org/2000/svg" xmlns:xlink="http://www.w3.org/1999/xlink" width="206.72125" height="172.66142" viewBox="0,0,206.72125,172.66142"><defs><linearGradient x1="206.02378" y1="118.75519" x2="213.26787" y2="134.32099" gradientUnits="userSpaceOnUse" id="color-1"><stop offset="0" stop-color="#c2c2c2"/><stop offset="1" stop-color="#c2c2c2" stop-opacity="0"/></linearGradient><linearGradient x1="273.97625" y1="241.29654" x2="266.73215" y2="225.73075" gradientUnits="userSpaceOnUse" id="color-2"><stop offset="0" stop-color="#c2c2c2"/><stop offset="1" stop-color="#c2c2c2" stop-opacity="0"/></linearGradient><linearGradient x1="273.97625" y1="118.75519" x2="266.73215" y2="134.321" gradientUnits="userSpaceOnUse" id="color-3"><stop offset="0" stop-color="#c2c2c2"/><stop offset="1" stop-color="#c2c2c2" stop-opacity="0"/></linearGradient><linearGradient x1="206.02378" y1="241.29654" x2="213.26787" y2="225.73075" gradientUnits="userSpaceOnUse" id="color-4"><stop offset="0" stop-color="#c2c2c2"/><stop offset="1" stop-color="#c2c2c2" stop-opacity="0"/></linearGradient><linearGradient x1="310.06041" y1="179.8756" x2="292.93707" y2="181.12581" gradientUnits="userSpaceOnUse" id="color-5"><stop offset="0" stop-color="#c2c2c2"/><stop offset="1" stop-color="#c2c2c2" stop-opacity="0"/></linearGradient><linearGradient x1="169.93962" y1="180.17612" x2="187.06295" y2="178.92592" gradientUnits="userSpaceOnUse" id="color-6"><stop offset="0" stop-color="#c2c2c2"/><stop offset="1" stop-color="#c2c2c2" stop-opacity="0"/></linearGradient><radialGradient cx="240" cy="180.01198" r="73.96795" gradientUnits="userSpaceOnUse" id="color-7"><stop offset="0" stop-color="#808080"/><stop offset="1" stop-color="#808080" stop-opacity="0"/></radialGradient></defs><g transform="translate(-136.64083,-93.74201)"><g data-paper-data="{&quot;isPaintingLayer&quot;:true}" fill-rule="nonzero" stroke-linejoin="miter" stroke-miterlimit="10" stroke-dasharray="" stroke-dashoffset="0" style="mix-blend-mode: normal"><path d="M141.03998,179.1157l50.12264,-80.96724l97.67479,-0.64263l50.12268,81.6099l-51.40779,83.53769h-95.74699z" fill="none" stroke="#cbcbcb" stroke-width="7.5" stroke-linecap="round"/><path d="M149.72683,178.99889l45.72278,-73.85976l89.10069,-0.5862l45.72278,74.44598l-46.8951,76.20454h-87.34216z" fill="none" stroke="#ededed" stroke-width="15" stroke-linecap="round"/><g fill="#ffffff" stroke="none" stroke-width="0" stroke-linecap="butt"><path d="M198.45997,253.16967l-46.20586,-73.87362l175.49131,-0.00017l-44.42849,73.87378z"/><path d="M283.31736,106.58669l44.42845,73.87378h-175.49113l46.20571,-73.87378z" data-paper-data="{&quot;index&quot;:null}"/></g><g stroke="#000000" stroke-width="0" stroke-linecap="round"><g><path d="M204.77925,138.27147l-6.07559,-9.11558l6.94528,-10.22626l12.68824,0.15429l3.99446,10.67654z" fill="url(#color-1)"/><path d="M275.22076,221.78026l6.07558,9.11558l-6.94528,10.22626l-12.68824,-0.15429l-3.99446,-10.67654z" data-paper-data="{&quot;index&quot;:null}" fill="url(#color-2)"/></g><g data-paper-data="{&quot;index&quot;:null}"><path d="M257.66836,129.76046l3.99446,-10.67654l12.68824,-0.15429l6.94528,10.22626l-6.07559,9.11558z" fill="url(#color-3)"/><path d="M222.33166,230.29128l-3.99447,10.67654l-12.68824,0.15429l-6.94528,-10.22626l6.07559,-9.11558z" data-paper-data="{&quot;index&quot;:null}" fill="url(#color-4)"/></g><g data-paper-data="{&quot;index&quot;:null}"><path d="M292.50817,170.98842l11.27055,-1.70851l6.31179,11.00803l-5.55143,11.04513l-10.92021,-0.86927z" fill="url(#color-5)"/><path d="M187.49185,189.06332l-11.27055,1.70851l-6.31179,-11.00803l5.55143,-11.04513l10.92021,0.86927z" data-paper-data="{&quot;index&quot;:null}" fill="url(#color-6)"/></g></g><g fill="url(#color-7)" stroke="none" stroke-width="0" stroke-linecap="butt"><path d="M166.03205,180.01198c0,-40.85137 33.11658,-73.96795 73.96795,-73.96795c40.85137,0 73.96795,33.11658 73.96795,73.96795c0,40.85137 -33.11658,73.96795 -73.96795,73.96795c-40.85137,0 -73.96795,-33.11658 -73.96795,-73.96795z"/><path d="M166.03205,180.01198c0,-40.85137 33.11658,-73.96795 73.96795,-73.96795c40.85137,0 73.96795,33.11658 73.96795,73.96795c0,40.85137 -33.11658,73.96795 -73.96795,73.96795c-40.85137,0 -73.96795,-33.11658 -73.96795,-73.96795z"/></g></g></g></svg>