<svg version="1.1" xmlns="http://www.w3.org/2000/svg" xmlns:xlink="http://www.w3.org/1999/xlink" width="230.07989" height="287.089" viewBox="0,0,230.07989,287.089"><defs><linearGradient x1="177.37976" y1="214.31502" x2="153.15933" y2="238.53541" gradientUnits="userSpaceOnUse" id="color-1"><stop offset="0" stop-color="#000000"/><stop offset="1" stop-color="#ad0000"/></linearGradient><linearGradient x1="172.15862" y1="209.09387" x2="147.93822" y2="233.31428" gradientUnits="userSpaceOnUse" id="color-2"><stop offset="0" stop-color="#000000"/><stop offset="1" stop-color="#ad0000"/></linearGradient><linearGradient x1="194.51884" y1="223.16099" x2="170.29843" y2="247.3814" gradientUnits="userSpaceOnUse" id="color-3"><stop offset="0" stop-color="#000000"/><stop offset="1" stop-color="#ad0000"/></linearGradient><linearGradient x1="189.2977" y1="217.93986" x2="165.07729" y2="242.16024" gradientUnits="userSpaceOnUse" id="color-4"><stop offset="0" stop-color="#000000"/><stop offset="1" stop-color="#ad0000"/></linearGradient><linearGradient x1="177.37976" y1="150.80005" x2="153.15933" y2="126.57965" gradientUnits="userSpaceOnUse" id="color-5"><stop offset="0" stop-color="#000000"/><stop offset="1" stop-color="#ad0000"/></linearGradient><linearGradient x1="172.15861" y1="156.0212" x2="147.9382" y2="131.8008" gradientUnits="userSpaceOnUse" id="color-6"><stop offset="0" stop-color="#000000"/><stop offset="1" stop-color="#ad0000"/></linearGradient><linearGradient x1="194.51884" y1="141.95407" x2="170.29843" y2="117.73369" gradientUnits="userSpaceOnUse" id="color-7"><stop offset="0" stop-color="#000000"/><stop offset="1" stop-color="#ad0000"/></linearGradient><linearGradient x1="189.2977" y1="147.17522" x2="165.07729" y2="122.95482" gradientUnits="userSpaceOnUse" id="color-8"><stop offset="0" stop-color="#000000"/><stop offset="1" stop-color="#ad0000"/></linearGradient><linearGradient x1="153.87514" y1="208.04784" x2="202.17622" y2="207.61027" gradientUnits="userSpaceOnUse" id="color-9"><stop offset="0" stop-color="#ffffff"/><stop offset="1" stop-color="#e1e1e1"/></linearGradient><linearGradient x1="153.28211" y1="156.35541" x2="201.58308" y2="155.91784" gradientUnits="userSpaceOnUse" id="color-10"><stop offset="0" stop-color="#ffffff"/><stop offset="1" stop-color="#e1e1e1"/></linearGradient><linearGradient x1="368.18304" y1="192.98318" x2="344.51796" y2="192.76879" gradientUnits="userSpaceOnUse" id="color-11"><stop offset="0" stop-color="#ffffff"/><stop offset="1" stop-color="#e1e1e1"/></linearGradient><linearGradient x1="368.4736" y1="167.65651" x2="344.80856" y2="167.44212" gradientUnits="userSpaceOnUse" id="color-12"><stop offset="0" stop-color="#ffffff"/><stop offset="1" stop-color="#e1e1e1"/></linearGradient><linearGradient x1="238.0775" y1="190.35605" x2="138.4412" y2="190.35601" gradientUnits="userSpaceOnUse" id="color-13"><stop offset="0" stop-color="#000000"/><stop offset="1" stop-color="#ad0000"/></linearGradient><linearGradient x1="238.0775" y1="168.87764" x2="138.4412" y2="168.87764" gradientUnits="userSpaceOnUse" id="color-14"><stop offset="0" stop-color="#000000"/><stop offset="1" stop-color="#ad0000"/></linearGradient><linearGradient x1="245.61362" y1="73.74152" x2="325.24008" y2="73.74152" gradientUnits="userSpaceOnUse" id="color-15"><stop offset="0" stop-color="#e1e1e1"/><stop offset="1" stop-color="#ffffff"/></linearGradient><linearGradient x1="245.61362" y1="286.25848" x2="325.24008" y2="286.25848" gradientUnits="userSpaceOnUse" id="color-16"><stop offset="0" stop-color="#e1e1e1"/><stop offset="1" stop-color="#ffffff"/></linearGradient><linearGradient x1="211.83246" y1="200.3366" x2="311.61096" y2="200.3366" gradientUnits="userSpaceOnUse" id="color-17"><stop offset="0" stop-color="#ffffff"/><stop offset="1" stop-color="#f3f3f3"/></linearGradient><linearGradient x1="213.04005" y1="161.27457" x2="312.3034" y2="161.27457" gradientUnits="userSpaceOnUse" id="color-18"><stop offset="0" stop-color="#ffffff"/><stop offset="1" stop-color="#f3f3f3"/></linearGradient><linearGradient x1="304.59808" y1="185.60134" x2="354.99178" y2="185.60132" gradientUnits="userSpaceOnUse" id="color-19"><stop offset="0" stop-color="#000000"/><stop offset="1" stop-color="#ad0000"/></linearGradient><linearGradient x1="304.59808" y1="174.73808" x2="354.99178" y2="174.73808" gradientUnits="userSpaceOnUse" id="color-20"><stop offset="0" stop-color="#000000"/><stop offset="1" stop-color="#ad0000"/></linearGradient></defs><g transform="translate(-138.44111,-36.4555)"><g data-paper-data="{&quot;isPaintingLayer&quot;:true}" fill-rule="nonzero" stroke="none" stroke-linecap="butt" stroke-linejoin="miter" stroke-miterlimit="10" stroke-dasharray="" stroke-dashoffset="0" style="mix-blend-mode: normal"><g data-paper-data="{&quot;index&quot;:null}" stroke-width="0"><g data-paper-data="{&quot;index&quot;:null}"><path d="M159.52529,237.82577l-9.19406,-2.11842l24.22041,-24.22044l2.25451,9.05799z" fill="url(#color-1)"/><path d="M165.92872,209.66747l9.05799,2.25451l-24.22041,24.22041l-2.11844,-9.19405z" data-paper-data="{&quot;index&quot;:null}" fill="url(#color-2)"/></g><g data-paper-data="{&quot;index&quot;:null}"><path d="M176.66438,246.67175l-9.19406,-2.11842l24.22041,-24.22044l2.25451,9.05799z" fill="url(#color-3)"/><path d="M183.06782,218.51344l9.05799,2.25451l-24.22041,24.22041l-2.11844,-9.19405z" data-paper-data="{&quot;index&quot;:null}" fill="url(#color-4)"/></g></g><g stroke-width="0"><g data-paper-data="{&quot;index&quot;:null}"><path d="M176.80614,144.57017l-2.25451,9.05799l-24.22041,-24.22042l9.19406,-2.11842z" fill="url(#color-5)"/><path d="M148.64788,138.16674l2.11844,-9.19406l24.22041,24.22041l-9.05799,2.25451z" data-paper-data="{&quot;index&quot;:null}" fill="url(#color-6)"/></g><g data-paper-data="{&quot;index&quot;:null}"><path d="M193.94523,135.7242l-2.25451,9.05799l-24.22041,-24.22044l9.19406,-2.11842z" fill="url(#color-7)"/><path d="M165.78697,129.32076l2.11844,-9.19405l24.22041,24.22041l-9.05799,2.25451z" data-paper-data="{&quot;index&quot;:null}" fill="url(#color-8)"/></g></g><g data-paper-data="{&quot;index&quot;:null}" stroke-width="0"><path d="M202.52591,238.09263l-48.55402,-21.61349l-0.44648,-38.9136l48.30102,-0.43758z" fill="url(#color-9)"/><path d="M201.93288,186.40023l-48.30102,0.43758l-0.44648,-38.9136l48.04802,-22.48861z" data-paper-data="{&quot;index&quot;:null}" fill="url(#color-10)"/></g><g stroke-width="0"><g data-paper-data="{&quot;index&quot;:null}"><path d="M344.68932,177.83401l23.66507,0.21439l-0.21876,19.0657l-23.78901,10.58951z" fill="url(#color-11)"/><path d="M344.9799,152.50737l23.5411,11.01829l-0.21876,19.0657l-23.66507,-0.21439z" data-paper-data="{&quot;index&quot;:null}" fill="url(#color-12)"/></g><path d="M235.83134,194.51265v-27.7819h110.71294v27.7819z" fill="#e1e1e1"/></g><g data-paper-data="{&quot;index&quot;:null}" stroke-width="0"><path d="M152.99475,201.99026l-14.55364,-23.26829l99.63635,-0.00005l-13.99385,23.26835z" fill="url(#color-13)"/><path d="M224.08365,157.24341l13.99385,23.26835h-99.6363l14.55362,-23.2683z" data-paper-data="{&quot;index&quot;:null}" fill="url(#color-14)"/></g><g><g><g data-paper-data="{&quot;index&quot;:null}" fill="#e9e9e9" stroke-width="0"><path d="M207.13439,121.49396l18.22655,-35.62233l32.81566,-0.32756l0.36901,35.43673z"/><path d="M250.72635,121.05887l-0.36901,-35.43673l32.81566,-0.32756l18.96453,35.25109z" data-paper-data="{&quot;index&quot;:null}"/></g><path d="M274.0433,174.79612l0.83979,-49.53527l76.76694,2.31348l13.57108,48.35294z" data-paper-data="{&quot;index&quot;:null}" fill="#ffffff" stroke-width="NaN"/><path d="M225.61357,158.21278l-33.62643,-5.52662l-0.46025,-57.89311l133.13551,23.53226l1.91477,56.75825l-100.81495,0.44398z" data-paper-data="{&quot;index&quot;:null}" fill="#ffffff" stroke-width="NaN"/><g stroke-width="0"><path d="M245.61362,83.47862l0.46137,-21.19721l79.1651,1.72301l-0.46135,21.19721z" fill="url(#color-15)"/><path d="M208.01821,86.18296l0.58949,-27.0844l101.15192,2.20155l-0.58949,27.0844z" fill="#ffffff"/><path d="M216.86419,57.35835l0.45494,-20.90285l78.06575,1.69909l-0.45494,20.90285z" fill="#ffffff"/><g data-paper-data="{&quot;index&quot;:null}" fill="#ffffff"><path d="M230.83585,94.71824l-15.90311,-20.13512l62.18941,2.55313l-16.21528,18.81655z"/><path d="M261.81282,58.52404l15.27325,20.1093l-62.18936,-2.55317l16.84508,-18.79068z" data-paper-data="{&quot;index&quot;:null}"/></g><path d="M227.65155,71.2536v-19.90345h53.07586v19.90345z" fill="#ffffff"/></g></g><g data-paper-data="{&quot;index&quot;:null}"><g data-paper-data="{&quot;index&quot;:null}" fill="#e9e9e9" stroke-width="0"><path d="M258.54561,239.01919l-0.36901,35.43673l-32.81566,-0.32756l-18.22655,-35.62233z"/><path d="M302.13755,239.45432l-18.96453,35.25109l-32.81566,-0.32756l0.36901,-35.43673z" data-paper-data="{&quot;index&quot;:null}"/></g><path d="M365.22111,184.07274l-13.57108,48.35294l-76.76694,2.31348l-0.83979,-49.53527z" data-paper-data="{&quot;index&quot;:null}" fill="#ffffff" stroke-width="NaN"/><path d="M225.76224,184.47247l100.81495,0.44398l-1.91477,56.75825l-133.13551,23.53226l0.46025,-57.89311l33.62643,-5.52662z" data-paper-data="{&quot;index&quot;:null}" fill="#ffffff" stroke-width="NaN"/><g stroke-width="0"><path d="M324.77874,274.79837l0.46135,21.19721l-79.1651,1.72301l-0.46137,-21.19721z" fill="url(#color-16)"/><path d="M309.17013,271.61549l0.58949,27.0844l-101.15192,2.20155l-0.58949,-27.0844z" fill="#ffffff"/><path d="M294.92994,300.94256l0.45494,20.90285l-78.06575,1.69909l-0.45494,-20.90285z" fill="#ffffff"/><g data-paper-data="{&quot;index&quot;:null}" fill="#ffffff"><path d="M260.90687,264.0472l16.21528,18.81655l-62.18941,2.55313l15.90311,-20.13512z"/><path d="M231.74178,302.71051l-16.84508,-18.79068l62.18935,-2.55317l-15.27325,20.1093z" data-paper-data="{&quot;index&quot;:null}"/></g><path d="M280.72741,288.7464v19.90345h-53.07586v-19.90345z" fill="#ffffff"/></g></g></g><g stroke-width="0"><g><g data-paper-data="{&quot;index&quot;:null}" fill="#ffffff"><path d="M215.68874,223.4689l-36.84646,-16.40196l-0.33882,-29.53058l36.65447,-0.33207z"/><path d="M215.23871,184.24081l-36.65447,0.33207l-0.33882,-29.53058l36.46247,-17.06606z" data-paper-data="{&quot;index&quot;:null}"/></g><g data-paper-data="{&quot;index&quot;:null}"><path d="M213.25677,177.20432l98.35418,0.33207l-0.90917,29.53058l-98.86932,16.40193z" fill="url(#color-17)"/><path d="M214.46443,137.97626l97.83897,17.06606l-0.90917,29.53057l-98.35417,-0.33207z" data-paper-data="{&quot;index&quot;:null}" fill="url(#color-18)"/></g></g><g data-paper-data="{&quot;index&quot;:null}"><path d="M311.67584,191.48566l-7.07776,-11.76858l50.39372,0.00002l-7.36087,11.76856z" fill="url(#color-19)"/><path d="M347.63088,168.85377l7.36087,11.76856h-50.39371l7.07776,-11.76858z" data-paper-data="{&quot;index&quot;:null}" fill="url(#color-20)"/></g></g></g></g></svg>