<svg version="1.1" xmlns="http://www.w3.org/2000/svg" xmlns:xlink="http://www.w3.org/1999/xlink" width="73.73221" height="101.17739" viewBox="0,0,73.73221,101.17739"><defs><linearGradient x1="245.18069" y1="183.72595" x2="208.6183" y2="183.72594" gradientUnits="userSpaceOnUse" id="color-1"><stop offset="0" stop-color="#000000"/><stop offset="1" stop-color="#ad0000"/></linearGradient><linearGradient x1="245.18069" y1="175.84428" x2="208.6183" y2="175.84428" gradientUnits="userSpaceOnUse" id="color-2"><stop offset="0" stop-color="#000000"/><stop offset="1" stop-color="#ad0000"/></linearGradient><linearGradient x1="219.8699" y1="186.24171" x2="232.10261" y2="186.13088" gradientUnits="userSpaceOnUse" id="color-3"><stop offset="0" stop-color="#ffffff"/><stop offset="1" stop-color="#e1e1e1"/></linearGradient><linearGradient x1="219.71971" y1="173.15011" x2="231.95239" y2="173.03928" gradientUnits="userSpaceOnUse" id="color-4"><stop offset="0" stop-color="#ffffff"/><stop offset="1" stop-color="#e1e1e1"/></linearGradient><linearGradient x1="235.87288" y1="137.97741" x2="266.335" y2="137.97741" gradientUnits="userSpaceOnUse" id="color-5"><stop offset="0" stop-color="#e1e1e1"/><stop offset="1" stop-color="#ffffff"/></linearGradient><linearGradient x1="235.87288" y1="222.02261" x2="266.335" y2="222.02261" gradientUnits="userSpaceOnUse" id="color-6"><stop offset="0" stop-color="#e1e1e1"/><stop offset="1" stop-color="#ffffff"/></linearGradient><linearGradient x1="251.95163" y1="182.95669" x2="276.80185" y2="182.95668" gradientUnits="userSpaceOnUse" id="color-7"><stop offset="0" stop-color="#000000"/><stop offset="1" stop-color="#ad0000"/></linearGradient><linearGradient x1="251.95163" y1="177.59978" x2="276.80185" y2="177.59978" gradientUnits="userSpaceOnUse" id="color-8"><stop offset="0" stop-color="#000000"/><stop offset="1" stop-color="#ad0000"/></linearGradient></defs><g transform="translate(-208.61827,-129.41131)"><g data-paper-data="{&quot;isPaintingLayer&quot;:true}" fill-rule="nonzero" stroke="none" stroke-linecap="butt" stroke-linejoin="miter" stroke-miterlimit="10" stroke-dasharray="" stroke-dashoffset="0" style="mix-blend-mode: normal"><g data-paper-data="{&quot;index&quot;:null}" stroke-width="0"><path d="M213.95885,187.99522l-5.34057,-8.5385l36.56241,-0.00001l-5.13516,8.53852z" fill="url(#color-1)"/><path d="M240.04556,171.57499l5.13516,8.53852h-36.56241l5.34057,-8.5385z" data-paper-data="{&quot;index&quot;:null}" fill="url(#color-2)"/></g><g stroke-width="0"><path d="M230.20493,186.69355v-13.69985h48.84185v13.69985z" fill="#e1e1e1"/><g data-paper-data="{&quot;index&quot;:null}"><path d="M232.19117,193.85084l-12.29677,-5.47382l-0.11308,-9.85524l12.2327,-0.11082z" fill="url(#color-3)"/><path d="M232.04098,180.75924l-12.2327,0.11082l-0.11308,-9.85524l12.16862,-5.69546z" data-paper-data="{&quot;index&quot;:null}" fill="url(#color-4)"/></g></g><g><g><g data-paper-data="{&quot;index&quot;:null}" fill="#e9e9e9" stroke-width="0"><path d="M221.64257,160.54888l6.14971,-17.56614l11.07214,-0.16153l0.12451,17.47461z"/><path d="M236.35067,160.33433l-0.12451,-17.47461l11.07214,-0.16153l6.39871,17.38307z" data-paper-data="{&quot;index&quot;:null}"/></g><path d="M231.24817,171.543l-16.58192,-1.84763l-4.9938,-27.40886l70.41883,15.92151l2.25921,18.97514l-51.02901,0.14843z" data-paper-data="{&quot;index&quot;:null}" fill="#ffffff" stroke-width="NaN"/><g stroke-width="0"><path d="M235.87288,141.70246l0.1765,-8.10926l30.28562,0.65916l-0.1765,8.10926z" fill="url(#color-5)"/><path d="M221.49028,142.73706l0.22552,-10.36148l38.69696,0.84223l-0.22552,10.36148z" fill="#ffffff"/><g data-paper-data="{&quot;index&quot;:null}" fill="#ffffff"><path d="M230.21945,146.00233l-6.08394,-7.70295l23.79135,0.97673l-6.20336,7.19851z"/><path d="M242.07009,132.15577l5.84298,7.69307l-23.79133,-0.97675l6.4443,-7.18861z" data-paper-data="{&quot;index&quot;:null}"/></g><path d="M229.00126,137.02564v-7.61432h20.30485v7.61432z" fill="#ffffff"/></g></g><g data-paper-data="{&quot;index&quot;:null}"><g data-paper-data="{&quot;index&quot;:null}" fill="#e9e9e9" stroke-width="0"><path d="M238.98892,199.70419l-0.12451,17.47461l-11.07214,-0.16153l-6.14971,-17.56614z"/><path d="M253.69701,199.91875l-6.39871,17.38307l-11.07214,-0.16153l0.12451,-17.47461z" data-paper-data="{&quot;index&quot;:null}"/></g><path d="M231.32147,182.66845l51.02902,0.14843l-2.25921,18.97514l-70.41883,15.92151l4.9938,-27.40886l16.58192,-1.84763z" data-paper-data="{&quot;index&quot;:null}" fill="#ffffff" stroke-width="NaN"/><g stroke-width="0"><path d="M266.15851,217.63839l0.17649,8.10926l-30.28562,0.65916l-0.1765,-8.10926z" fill="url(#color-6)"/><path d="M260.18723,216.42073l0.22552,10.36148l-38.69696,0.84223l-0.22552,-10.36148z" fill="#ffffff"/><g data-paper-data="{&quot;index&quot;:null}" fill="#ffffff"><path d="M241.72351,213.52539l6.20336,7.19851l-23.79135,0.97673l6.08394,-7.70295z"/><path d="M230.56603,228.31654l-6.4443,-7.18861l23.79133,-0.97675l-5.84297,7.69307z" data-paper-data="{&quot;index&quot;:null}"/></g><path d="M249.30611,222.97439v7.61432h-20.30485v-7.61432z" fill="#ffffff"/></g></g></g><g data-paper-data="{&quot;index&quot;:null}" stroke-width="0"><path d="M255.44183,185.85837l-3.4902,-5.80334l24.85023,0.00001l-3.6298,5.80333z" fill="url(#color-7)"/><path d="M273.17204,174.6981l3.6298,5.80333h-24.85022l3.4902,-5.80334z" data-paper-data="{&quot;index&quot;:null}" fill="url(#color-8)"/></g></g></g></svg>