<svg version="1.1" xmlns="http://www.w3.org/2000/svg" xmlns:xlink="http://www.w3.org/1999/xlink" width="121.19605" height="101.2412" viewBox="0,0,121.19605,101.2412"><defs><radialGradient cx="240" cy="180.01197" r="43.96795" gradientUnits="userSpaceOnUse" id="color-1"><stop offset="0" stop-color="#808080"/><stop offset="1" stop-color="#808080" stop-opacity="0"/></radialGradient></defs><g transform="translate(-179.40294,-129.45439)"><g data-paper-data="{&quot;isPaintingLayer&quot;:true}" fill-rule="nonzero" stroke-linejoin="miter" stroke-miterlimit="10" stroke-dasharray="" stroke-dashoffset="0" style="mix-blend-mode: normal"><path d="M182.33571,179.51792l29.20661,-47.17985l56.91538,-0.37446l29.20663,47.55432l-29.95547,48.67766h-55.79205z" fill="none" stroke="#cbcbcb" stroke-width="5" stroke-linecap="round"/><path d="M187.39757,179.44986l26.6428,-43.03829l51.91924,-0.34158l26.6428,43.37989l-27.32591,44.4046h-50.89453z" fill="none" stroke="#ededed" stroke-width="10" stroke-linecap="round"/><g fill="#ffffff" stroke="none" stroke-width="0" stroke-linecap="butt"><path d="M215.79451,222.66938l-26.92429,-43.04637l102.25929,-0.0001l-25.88861,43.04646z"/><path d="M265.24116,137.25506l25.88859,43.04646h-102.25919l26.9242,-43.04646z" data-paper-data="{&quot;index&quot;:null}"/></g><g fill="url(#color-1)" stroke="none" stroke-width="0" stroke-linecap="butt"><path d="M196.03205,180.01197c0,-24.28283 19.68512,-43.96795 43.96795,-43.96795c24.28283,0 43.96795,19.68512 43.96795,43.96795c0,24.28283 -19.68512,43.96795 -43.96795,43.96795c-24.28283,0 -43.96795,-19.68512 -43.96795,-43.96795z"/><path d="M196.03205,180.01197c0,-24.28283 19.68512,-43.96795 43.96795,-43.96795c24.28283,0 43.96795,19.68512 43.96795,43.96795c0,24.28283 -19.68512,43.96795 -43.96795,43.96795c-24.28283,0 -43.96795,-19.68512 -43.96795,-43.96795z"/></g></g></g></svg>