<svg version="1.1" xmlns="http://www.w3.org/2000/svg" xmlns:xlink="http://www.w3.org/1999/xlink" width="62.3386" height="16.1875" viewBox="0,0,62.3386,16.1875"><defs><radialGradient cx="223.93694" cy="180" r="15.10624" gradientUnits="userSpaceOnUse" id="color-1"><stop offset="0" stop-color="#ff0000"/><stop offset="1" stop-color="#ff0000" stop-opacity="0"/></radialGradient><radialGradient cx="223.93694" cy="180" r="8.70625" gradientUnits="userSpaceOnUse" id="color-2"><stop offset="0" stop-color="#ffffff"/><stop offset="1" stop-color="#ffffff" stop-opacity="0"/></radialGradient><linearGradient x1="250.60361" y1="180" x2="245.02028" y2="180" gradientUnits="userSpaceOnUse" id="color-3"><stop offset="0" stop-color="#e6e6e6"/><stop offset="1" stop-color="#e6e6e6" stop-opacity="0"/></linearGradient><linearGradient x1="235.02028" y1="180" x2="240.60361" y2="180" gradientUnits="userSpaceOnUse" id="color-4"><stop offset="0" stop-color="#e6e6e6"/><stop offset="1" stop-color="#e6e6e6" stop-opacity="0"/></linearGradient><linearGradient x1="227.93695" y1="171.90625" x2="227.93695" y2="176.09375" gradientUnits="userSpaceOnUse" id="color-5"><stop offset="0" stop-color="#ffffff"/><stop offset="1" stop-color="#e3e3e3"/></linearGradient><linearGradient x1="227.93695" y1="188.09375" x2="227.93695" y2="183.90625" gradientUnits="userSpaceOnUse" id="color-6"><stop offset="0" stop-color="#ffffff"/><stop offset="1" stop-color="#e3e3e3"/></linearGradient><radialGradient cx="262.73969" cy="180" r="6.775" gradientUnits="userSpaceOnUse" id="color-7"><stop offset="0" stop-color="#ff0000"/><stop offset="1" stop-color="#ff0000" stop-opacity="0"/></radialGradient><radialGradient cx="262.80763" cy="180.04425" r="5.70108" gradientUnits="userSpaceOnUse" id="color-8"><stop offset="0" stop-color="#ffffff"/><stop offset="1" stop-color="#ff0000"/></radialGradient></defs><g transform="translate(-208.8307,-171.90625)"><g data-paper-data="{&quot;isPaintingLayer&quot;:true}" fill-rule="nonzero" stroke-linejoin="miter" stroke-miterlimit="10" stroke-dasharray="" stroke-dashoffset="0" style="mix-blend-mode: normal"><path d="M239.04318,180c0,2.70494 -6.7633,4.89773 -15.10624,4.89773c-8.34295,0 -15.10624,-2.19279 -15.10624,-4.89773c0,-2.70494 6.7633,-4.89773 15.10624,-4.89773c8.34295,0 15.10624,2.19279 15.10624,4.89773z" fill="url(#color-1)" stroke="none" stroke-width="0" stroke-linecap="butt"/><path d="M232.64319,180c0,1.55895 -3.89792,2.82273 -8.70625,2.82273c-4.80833,0 -8.70624,-1.26378 -8.70624,-2.82273c0,-1.55895 3.89792,-2.82273 8.70624,-2.82273c4.80833,0 8.70625,1.26378 8.70625,2.82273z" fill="url(#color-2)" stroke="none" stroke-width="0" stroke-linecap="butt"/><g stroke="none" stroke-linecap="butt"><path d="M228.39529,184.66667v-9.33333h25.08333v9.33333z" fill="#ffffff" stroke-width="NaN"/><g><path d="M245.02028,184.66666v-9.33333h5.58333v9.33333z" data-paper-data="{&quot;index&quot;:null}" fill="url(#color-3)" stroke-width="NaN"/><path d="M235.02028,184.66667v-9.33333h5.58333v9.33333z" fill="url(#color-4)" stroke-width="NaN"/></g></g><g stroke="#000000" stroke-width="0" stroke-linecap="round"><path d="M231.4057,176.03125l-5.125,0.0625l-1.8125,-4.1875h3.875z" fill="url(#color-5)"/><path d="M228.3432,188.09375h-3.875l1.8125,-4.1875l5.125,0.0625z" data-paper-data="{&quot;index&quot;:null}" fill="url(#color-6)"/></g><path d="M250.64529,185.83333l-2,-1.16666v-9.33333l2,-1.16666h10.58333l2,1.2619v9.19048l-2,1.21428z" fill="#ffffff" stroke="none" stroke-width="NaN" stroke-linecap="butt"/><path d="M225.32528,185.83333l-1.68,-1.16666v-9.33333l1.68,-1.16666h8.89l1.68,1.2619v9.19048l-1.68,1.21428z" fill="#ffffff" stroke="none" stroke-width="NaN" stroke-linecap="butt"/><path d="M255.96469,180c0,-3.74173 3.03328,-6.775 6.775,-6.775c3.74172,0 6.775,3.03328 6.775,6.775c0,3.74173 -3.03328,6.775 -6.775,6.775c-3.74172,0 -6.775,-3.03328 -6.775,-6.775z" fill="url(#color-7)" stroke="none" stroke-width="0" stroke-linecap="butt"/><path d="M266.95997,182.66078l-8.04647,0.04127l-4.20892,-2.47584l4.20934,-2.88697l8.04646,-0.04126l4.20892,2.47583z" data-paper-data="{&quot;index&quot;:null}" fill="#ff0000" stroke="#ff0000" stroke-width="0" stroke-linecap="round"/><path d="M265.64627,181.82689l-5.57235,0.02858l-2.91476,-1.71457l2.91505,-1.99929l5.57234,-0.02857l2.91476,1.71457z" data-paper-data="{&quot;index&quot;:null}" fill="url(#color-8)" stroke="#ff0000" stroke-width="0" stroke-linecap="round"/></g></g></svg>