<svg version="1.1" xmlns="http://www.w3.org/2000/svg" xmlns:xlink="http://www.w3.org/1999/xlink" width="92.38746" height="103.14948" viewBox="0,0,92.38746,103.14948"><defs><linearGradient x1="248.72072" y1="179.68533" x2="283.77267" y2="179.68533" gradientUnits="userSpaceOnUse" id="color-1"><stop offset="0" stop-color="#ababab"/><stop offset="1" stop-color="#ffffff"/></linearGradient><linearGradient x1="244.11209" y1="128.73038" x2="244.33457" y2="150.09556" gradientUnits="userSpaceOnUse" id="color-2"><stop offset="0" stop-color="#ffffff"/><stop offset="1" stop-color="#e1e1e1"/></linearGradient><linearGradient x1="270.39416" y1="128.46805" x2="270.61664" y2="149.83321" gradientUnits="userSpaceOnUse" id="color-3"><stop offset="0" stop-color="#ffffff"/><stop offset="1" stop-color="#e1e1e1"/></linearGradient><linearGradient x1="244.11209" y1="231.26963" x2="244.33457" y2="209.90445" gradientUnits="userSpaceOnUse" id="color-4"><stop offset="0" stop-color="#ffffff"/><stop offset="1" stop-color="#e1e1e1"/></linearGradient><linearGradient x1="270.39416" y1="231.53196" x2="270.61664" y2="210.1668" gradientUnits="userSpaceOnUse" id="color-5"><stop offset="0" stop-color="#ffffff"/><stop offset="1" stop-color="#e1e1e1"/></linearGradient><linearGradient x1="249.78926" y1="182.8018" x2="276.72325" y2="182.80179" gradientUnits="userSpaceOnUse" id="color-6"><stop offset="0" stop-color="#000000"/><stop offset="1" stop-color="#ad0000"/></linearGradient><linearGradient x1="249.78926" y1="176.99569" x2="276.72325" y2="176.99569" gradientUnits="userSpaceOnUse" id="color-7"><stop offset="0" stop-color="#000000"/><stop offset="1" stop-color="#ad0000"/></linearGradient><linearGradient x1="247.06393" y1="174.88726" x2="256.84282" y2="165.10837" gradientUnits="userSpaceOnUse" id="color-8"><stop offset="0" stop-color="#000000"/><stop offset="1" stop-color="#ad0000"/></linearGradient><linearGradient x1="244.9559" y1="172.77924" x2="254.7348" y2="163.00035" gradientUnits="userSpaceOnUse" id="color-9"><stop offset="0" stop-color="#000000"/><stop offset="1" stop-color="#ad0000"/></linearGradient><linearGradient x1="247.06393" y1="184.48996" x2="256.84282" y2="194.26885" gradientUnits="userSpaceOnUse" id="color-10"><stop offset="0" stop-color="#000000"/><stop offset="1" stop-color="#ad0000"/></linearGradient><linearGradient x1="244.9559" y1="186.59798" x2="254.7348" y2="196.37687" gradientUnits="userSpaceOnUse" id="color-11"><stop offset="0" stop-color="#000000"/><stop offset="1" stop-color="#ad0000"/></linearGradient></defs><g transform="translate(-193.88522,-128.42526)"><g data-paper-data="{&quot;isPaintingLayer&quot;:true}" fill-rule="nonzero" stroke-linecap="butt" stroke-linejoin="miter" stroke-miterlimit="10" stroke-dasharray="" stroke-dashoffset="0" style="mix-blend-mode: normal"><path d="M248.72072,179.68533c0,-9.67933 7.84665,-17.52598 17.52598,-17.52598c9.67933,0 17.52598,7.84665 17.52598,17.52598c0,9.67933 -7.84665,17.52598 -17.52598,17.52598c-9.67933,0 -17.52598,-7.84665 -17.52598,-17.52598z" fill="none" stroke="url(#color-1)" stroke-width="5"/><g stroke="none" stroke-width="0"><path d="M211.65139,199.85912v-41.35627h61.78222v41.35627z" fill="#e7e7e7"/><g data-paper-data="{&quot;index&quot;:null}" fill="#ffffff"><path d="M215.40081,181.79033l-21.36518,-0.22248l0.19749,-19.78491l21.47708,-10.98898z"/><path d="M215.13847,208.07236l-21.25326,-11.43392l0.19749,-19.78491l21.36518,0.22248z" data-paper-data="{&quot;index&quot;:null}"/></g></g><g stroke="none"><g data-paper-data="{&quot;index&quot;:null}" stroke-width="0"><path d="M228.83637,150.25025l10.98898,-21.47708l19.78491,-0.19749l0.22248,21.36518z" fill="url(#color-2)"/><path d="M255.11842,149.98793l-0.22248,-21.36518l19.78491,-0.19749l11.43392,21.25326z" data-paper-data="{&quot;index&quot;:null}" fill="url(#color-3)"/></g><path d="M269.3951,176.09683l-47.71866,-0.21015l0.90632,-26.86534l63.01693,-11.13851l-0.21785,27.4025l-15.91637,2.61591z" data-paper-data="{&quot;index&quot;:null}" fill="#ffffff" stroke-width="NaN"/></g><g data-paper-data="{&quot;index&quot;:null}" stroke="none"><g data-paper-data="{&quot;index&quot;:null}" stroke-width="0"><path d="M259.83275,210.05915l-0.22248,21.36518l-19.78491,-0.19749l-10.98898,-21.47708z" fill="url(#color-4)"/><path d="M286.11478,210.32148l-11.43392,21.25326l-19.78491,-0.19749l0.22248,-21.36518z" data-paper-data="{&quot;index&quot;:null}" fill="url(#color-5)"/></g><path d="M269.46548,192.09878l15.91639,2.61591l0.21785,27.4025l-63.01694,-11.13851l-0.90632,-26.86534l47.71866,-0.21015z" data-paper-data="{&quot;index&quot;:null}" fill="#ffffff" stroke-width="NaN"/></g><g data-paper-data="{&quot;index&quot;:null}" stroke="none" stroke-width="0"><path d="M253.57213,185.94681l-3.78286,-6.28997l26.93401,0.00001l-3.93418,6.28996z" fill="url(#color-6)"/><path d="M272.78907,173.8507l3.93418,6.28996h-26.934l3.78286,-6.28997z" data-paper-data="{&quot;index&quot;:null}" fill="url(#color-7)"/></g><g data-paper-data="{&quot;index&quot;:null}" stroke="none" stroke-width="0"><path d="M249.57923,174.65568l-3.65713,-0.91025l9.7789,-9.77889l0.8553,3.71206z" fill="url(#color-8)"/><path d="M252.16458,163.28689l3.71206,0.85532l-9.77889,9.77889l-0.91025,-3.65713z" data-paper-data="{&quot;index&quot;:null}" fill="url(#color-9)"/></g><g data-paper-data="{&quot;index&quot;:null}" stroke="none" stroke-width="0"><path d="M256.5563,191.69862l-0.8553,3.71206l-9.7789,-9.77889l3.65713,-0.91025z" fill="url(#color-10)"/><path d="M245.18749,189.11325l0.91025,-3.65713l9.77889,9.77889l-3.71206,0.85532z" data-paper-data="{&quot;index&quot;:null}" fill="url(#color-11)"/></g></g></g></svg>