<svg version="1.1" xmlns="http://www.w3.org/2000/svg" xmlns:xlink="http://www.w3.org/1999/xlink" width="188.0005" height="113.4024" viewBox="0,0,188.0005,113.4024"><defs><linearGradient x1="176.22637" y1="194.96691" x2="219.61752" y2="195.09617" gradientUnits="userSpaceOnUse" id="color-1"><stop offset="0" stop-color="#ffffff"/><stop offset="1" stop-color="#e1e1e1"/></linearGradient><linearGradient x1="175.69359" y1="164.82648" x2="219.08471" y2="164.95574" gradientUnits="userSpaceOnUse" id="color-2"><stop offset="0" stop-color="#ffffff"/><stop offset="1" stop-color="#e1e1e1"/></linearGradient><linearGradient x1="297.22792" y1="187.72541" x2="282.95999" y2="187.59614" gradientUnits="userSpaceOnUse" id="color-3"><stop offset="0" stop-color="#ffffff"/><stop offset="1" stop-color="#e1e1e1"/></linearGradient><linearGradient x1="297.4031" y1="172.45569" x2="283.1352" y2="172.32643" gradientUnits="userSpaceOnUse" id="color-4"><stop offset="0" stop-color="#ffffff"/><stop offset="1" stop-color="#e1e1e1"/></linearGradient><linearGradient x1="215.40571" y1="123.10393" x2="215.62818" y2="144.46911" gradientUnits="userSpaceOnUse" id="color-5"><stop offset="0" stop-color="#ffffff"/><stop offset="1" stop-color="#e1e1e1"/></linearGradient><linearGradient x1="241.68777" y1="122.8416" x2="241.91025" y2="144.20675" gradientUnits="userSpaceOnUse" id="color-6"><stop offset="0" stop-color="#ffffff"/><stop offset="1" stop-color="#e1e1e1"/></linearGradient><linearGradient x1="270.79814" y1="167.13354" x2="279.37818" y2="175.71358" gradientUnits="userSpaceOnUse" id="color-7"><stop offset="0" stop-color="#000000"/><stop offset="1" stop-color="#ad0000"/></linearGradient><linearGradient x1="272.64772" y1="165.28396" x2="281.22776" y2="173.864" gradientUnits="userSpaceOnUse" id="color-8"><stop offset="0" stop-color="#000000"/><stop offset="1" stop-color="#ad0000"/></linearGradient><linearGradient x1="215.40571" y1="235.89609" x2="215.62818" y2="214.53091" gradientUnits="userSpaceOnUse" id="color-9"><stop offset="0" stop-color="#ffffff"/><stop offset="1" stop-color="#e1e1e1"/></linearGradient><linearGradient x1="241.68777" y1="236.15842" x2="241.91025" y2="214.79326" gradientUnits="userSpaceOnUse" id="color-10"><stop offset="0" stop-color="#ffffff"/><stop offset="1" stop-color="#e1e1e1"/></linearGradient><linearGradient x1="270.79814" y1="191.86647" x2="279.37818" y2="183.28643" gradientUnits="userSpaceOnUse" id="color-11"><stop offset="0" stop-color="#000000"/><stop offset="1" stop-color="#ad0000"/></linearGradient><linearGradient x1="272.64772" y1="193.71605" x2="281.22776" y2="185.13601" gradientUnits="userSpaceOnUse" id="color-12"><stop offset="0" stop-color="#000000"/><stop offset="1" stop-color="#ad0000"/></linearGradient><linearGradient x1="249.29594" y1="182.50184" x2="276.22993" y2="182.50183" gradientUnits="userSpaceOnUse" id="color-13"><stop offset="0" stop-color="#000000"/><stop offset="1" stop-color="#ad0000"/></linearGradient><linearGradient x1="249.29594" y1="176.69573" x2="276.22993" y2="176.69573" gradientUnits="userSpaceOnUse" id="color-14"><stop offset="0" stop-color="#000000"/><stop offset="1" stop-color="#ad0000"/></linearGradient></defs><g transform="translate(-145.99975,-122.7988)"><g data-paper-data="{&quot;isPaintingLayer&quot;:true}" fill-rule="nonzero" stroke-linecap="butt" stroke-linejoin="miter" stroke-miterlimit="10" stroke-dasharray="" stroke-dashoffset="0" style="mix-blend-mode: normal"><path d="M146,196.5v-33h188v33z" fill="none" stroke="#000000" stroke-width="0.0005"/><path d="M219.30334,204.10051l-43.39115,-0.12926l0.40109,-11.49491l43.6184,-6.38453z" data-paper-data="{&quot;index&quot;:null}" fill="url(#color-1)" stroke="none" stroke-width="0"/><path d="M218.77054,173.96006l-43.16385,-6.64304l0.40109,-11.49491l43.39115,0.12926z" data-paper-data="{&quot;index&quot;:null}" fill="url(#color-2)" stroke="none" stroke-width="0"/><g data-paper-data="{&quot;index&quot;:null}" stroke="none" stroke-width="0"><path d="M283.06331,178.59181l14.26792,0.12926l-0.13189,11.49491l-14.34265,6.38453z" fill="url(#color-3)"/><path d="M283.2385,163.32209l14.19318,6.64304l-0.13189,11.49491l-14.26792,-0.12926z" data-paper-data="{&quot;index&quot;:null}" fill="url(#color-4)"/></g><path d="M217.43168,188.64754v-16.75h66.75v16.75z" fill="#e1e1e1" stroke="none" stroke-width="0"/><g stroke="none"><g><g data-paper-data="{&quot;index&quot;:null}" stroke-width="0"><path d="M200.12998,144.6238l10.98898,-21.47708l19.78491,-0.19749l0.22248,21.36518z" fill="url(#color-5)"/><path d="M226.41204,144.36147l-0.22248,-21.36518l19.78491,-0.19749l11.43392,21.25326z" data-paper-data="{&quot;index&quot;:null}" fill="url(#color-6)"/></g><g fill="#ffffff"><path d="M288.18872,176.97038l-15.57286,-0.06858l-32.14579,-0.14157l0.90632,-26.86534l63.01693,-11.13851l16.80275,12.29937l0.06207,7.74374l-17.08267,-2.89061l-15.91637,6.61591z" data-paper-data="{&quot;index&quot;:null}" stroke-width="NaN"/><path d="M211.27128,166.76196l-20.27373,-3.33206l-0.27749,-34.90437l80.26881,14.18785l1.15444,34.22015l-60.7824,0.26768z" data-paper-data="{&quot;index&quot;:null}" stroke-width="NaN"/></g></g><g data-paper-data="{&quot;index&quot;:null}" stroke-width="0"><path d="M271.00134,169.34048l0.79866,-3.20878l8.58005,8.58005l-3.25698,0.75046z" fill="url(#color-7)"/><path d="M280.97636,171.60888l-0.75046,3.25698l-8.58005,-8.58005l3.20878,-0.79866z" data-paper-data="{&quot;index&quot;:null}" fill="url(#color-8)"/></g></g><g data-paper-data="{&quot;index&quot;:null}" stroke="none"><g><g data-paper-data="{&quot;index&quot;:null}" stroke-width="0"><path d="M231.12635,214.68561l-0.22248,21.36518l-19.78491,-0.19749l-10.98898,-21.47708z" fill="url(#color-9)"/><path d="M257.40839,214.94795l-11.43392,21.25326l-19.78491,-0.19749l0.22248,-21.36518z" data-paper-data="{&quot;index&quot;:null}" fill="url(#color-10)"/></g><g fill="#ffffff"><path d="M288.2591,196.47523l15.91637,6.61591l17.08267,-2.8906l-0.06207,7.74373l-16.80275,12.29937l-63.01693,-11.13851l-0.90632,-26.86534l32.14579,-0.14157l15.57286,-0.06858z" data-paper-data="{&quot;index&quot;:null}" stroke-width="NaN"/><path d="M211.36091,181.79881l60.7824,0.26768l-1.15444,34.22015l-80.26881,14.18785l0.27749,-34.90437l20.27373,-3.33206z" data-paper-data="{&quot;index&quot;:null}" stroke-width="NaN"/></g></g><g data-paper-data="{&quot;index&quot;:null}" stroke-width="0"><path d="M277.12306,183.53781l3.25698,0.75046l-8.58005,8.58005l-0.79866,-3.20878z" fill="url(#color-11)"/><path d="M274.85463,193.51286l-3.20878,-0.79866l8.58005,-8.58005l0.75046,3.25698z" data-paper-data="{&quot;index&quot;:null}" fill="url(#color-12)"/></g></g><g data-paper-data="{&quot;index&quot;:null}" stroke="none" stroke-width="0"><path d="M253.07881,185.64684l-3.78286,-6.28997l26.93401,0.00001l-3.93418,6.28996z" fill="url(#color-13)"/><path d="M272.29575,173.55073l3.93418,6.28996h-26.934l3.78286,-6.28997z" data-paper-data="{&quot;index&quot;:null}" fill="url(#color-14)"/></g></g></g></svg>