<svg version="1.1" xmlns="http://www.w3.org/2000/svg" xmlns:xlink="http://www.w3.org/1999/xlink" width="273.625" height="254.40583" viewBox="0,0,273.625,254.40583"><defs><linearGradient x1="263.23962" y1="270.57531" x2="342.86608" y2="270.57531" gradientUnits="userSpaceOnUse" id="color-1"><stop offset="0" stop-color="#e1e1e1"/><stop offset="1" stop-color="#ffffff"/></linearGradient><linearGradient x1="268.23962" y1="90.74152" x2="347.86608" y2="90.74152" gradientUnits="userSpaceOnUse" id="color-2"><stop offset="0" stop-color="#e1e1e1"/><stop offset="1" stop-color="#ffffff"/></linearGradient></defs><g transform="translate(-82.875,-53.4555)"><g data-paper-data="{&quot;isPaintingLayer&quot;:true}" fill-rule="nonzero" stroke-linejoin="miter" stroke-miterlimit="10" stroke-dasharray="" stroke-dashoffset="0" style="mix-blend-mode: normal"><g data-paper-data="{&quot;index&quot;:null}" fill="#e9e9e9" stroke="none" stroke-width="0" stroke-linecap="butt"><path d="M268.92161,226.33603l-0.36901,35.43673l-32.81566,-0.32756l-18.22655,-35.62233z"/><path d="M312.51353,226.77116l-18.96453,35.25109l-32.81566,-0.32756l0.36901,-35.43673z" data-paper-data="{&quot;index&quot;:null}"/></g><g data-paper-data="{&quot;index&quot;:null}" stroke="none" stroke-width="0" stroke-linecap="butt"><path d="M342.40474,259.1152l0.46135,21.19721l-79.1651,1.72301l-0.46137,-21.19721z" fill="url(#color-1)"/><path d="M326.79613,255.93232l0.58949,27.0844l-101.15192,2.20155l-0.58949,-27.0844z" fill="#ffffff"/><path d="M312.55594,285.25939l0.45494,20.90285l-78.06575,1.69909l-0.45494,-20.90285z" fill="#ffffff"/><g data-paper-data="{&quot;index&quot;:null}" fill="#ffffff"><path d="M278.53287,248.36403l16.21528,18.81655l-62.18941,2.55313l15.90311,-20.13512z"/><path d="M249.36779,287.02734l-16.84508,-18.79068l62.18936,-2.55317l-15.27325,20.1093z" data-paper-data="{&quot;index&quot;:null}"/></g><path d="M298.35341,273.06323v19.90345h-53.07586v-19.90345z" fill="#ffffff"/></g><g data-paper-data="{&quot;index&quot;:null}" fill="#e9e9e9" stroke="none" stroke-width="0" stroke-linecap="butt"><path d="M222.51039,135.49396l18.22655,-35.62233l32.81566,-0.32756l0.36901,35.43673z"/><path d="M266.10235,135.05887l-0.36901,-35.43673l32.81566,-0.32756l18.96453,35.25109z" data-paper-data="{&quot;index&quot;:null}"/></g><g stroke="none" stroke-width="0" stroke-linecap="butt"><path d="M268.23962,100.47862l0.46137,-21.19721l79.1651,1.72301l-0.46135,21.19721z" fill="url(#color-2)"/><path d="M230.64421,103.18296l0.58949,-27.0844l101.15192,2.20155l-0.58949,27.0844z" fill="#ffffff"/><path d="M239.49019,74.35835l0.45494,-20.90285l78.06575,1.69909l-0.45494,20.90285z" fill="#ffffff"/><g data-paper-data="{&quot;index&quot;:null}" fill="#ffffff"><path d="M253.46185,111.71824l-15.90311,-20.13512l62.18941,2.55313l-16.21528,18.81655z"/><path d="M284.43882,75.52404l15.27325,20.1093l-62.18936,-2.55317l16.84508,-18.79068z" data-paper-data="{&quot;index&quot;:null}"/></g><path d="M250.27755,88.2536v-19.90345h53.07586v19.90345z" fill="#ffffff"/></g><path d="M356.5,180c0,29.27109 -27.15883,53 -91.5,53c-64.34117,0 -141.5,-53 -141.5,-53c0,0 77.15883,-53 141.5,-53c64.34117,0 91.5,23.72891 91.5,53z" fill="#272727" stroke="none" stroke-width="NaN" stroke-linecap="butt"/><g fill="#272727" stroke="#000000" stroke-width="0" stroke-linecap="round"><path d="M277.18446,210.44479c0,0 3.04329,29.66836 -11.0239,53.96641c-14.0672,24.29805 -43.4607,40.14402 -43.4607,40.14402c0,0 -7.70196,-46.04613 5.96879,-69.65941c13.67075,-23.61328 48.51581,-24.45102 48.51581,-24.45102z" data-paper-data="{&quot;index&quot;:null}"/><path d="M228.66865,125.1042c-13.67075,-23.61328 -5.96879,-69.65941 -5.96879,-69.65941c0,0 29.39351,15.84597 43.4607,40.14402c14.0672,24.29806 11.0239,53.96641 11.0239,53.96641c0,0 -34.84505,-0.83774 -48.5158,-24.45102z" data-paper-data="{&quot;index&quot;:null}"/></g><g fill="#272727" stroke="#000000" stroke-width="0" stroke-linecap="round"><path d="M99.875,169c-14.5528,-15.36826 -17,-51.5 -17,-51.5c0,0 25.02518,6.68607 40,22.5c14.97482,15.81393 18,38.75 18,38.75c0,0 -26.4472,5.61826 -41,-9.75z"/><path d="M140.875,180.50218c0,0 -3.02517,22.93607 -18,38.75c-14.97482,15.81393 -40,22.5 -40,22.5c0,0 2.4472,-36.13174 17,-51.5c14.5528,-15.36826 41,-9.75 41,-9.75z" data-paper-data="{&quot;index&quot;:null}"/></g><path d="M326.68056,150.16772c-1.10552,5.48151 -10.42125,8.2271 -20.80728,6.13244c-10.38603,-2.09466 -17.90937,-8.23636 -16.80385,-13.71788c1.10552,-5.48151 10.42125,-8.2271 20.80728,-6.13244c10.38603,2.09466 17.90937,8.23636 16.80385,13.71788z" fill="#ffffff" stroke="none" stroke-width="0" stroke-linecap="butt"/><path d="M309.87672,221.30016c-10.38603,2.09466 -19.70176,-0.65093 -20.80728,-6.13244c-1.10552,-5.48152 6.41782,-11.62322 16.80385,-13.71788c10.38603,-2.09466 19.70176,0.65093 20.80728,6.13244c1.10552,5.48152 -6.41782,11.62322 -16.80385,13.71788z" data-paper-data="{&quot;index&quot;:null}" fill="#ffffff" stroke="none" stroke-width="0" stroke-linecap="butt"/><path d="M159.16667,179.63027c0,4.87852 20.42912,9.0364 5.33333,9.0364c-15.09578,0 -27.33333,-8.83333 -27.33333,-8.83333c0,0 12.23755,-8.83333 27.33333,-8.83333c15.09578,0 -5.33333,3.75175 -5.33333,8.63027z" fill="#ffffff" stroke="none" stroke-width="0" stroke-linecap="butt"/><path d="M197.06247,141.48264c1.61426,3.41128 -6.45246,10.6132 -18.01752,16.08595c-11.56507,5.47275 -22.3916,6.84259 -24.00587,3.43132c6.58273,-3.23372 28.89513,-14.52979 42.02339,-19.51726z" fill="#ffffff" stroke="none" stroke-width="0" stroke-linecap="butt"/><path d="M155.03909,199.3401c1.61426,-3.41128 12.4408,-2.04143 24.00587,3.43132c11.56507,5.47275 19.63179,12.67467 18.01753,16.08595c-13.12826,-4.98747 -35.44066,-16.28354 -42.02339,-19.51726z" data-paper-data="{&quot;index&quot;:null}" fill="#ffffff" stroke="none" stroke-width="0" stroke-linecap="butt"/><g data-paper-data="{&quot;index&quot;:null}" fill="#ffffff" stroke="none" stroke-linecap="butt"><path d="M153.40289,140.86133l7.94557,-28.3096l44.94539,-1.35449l0.49168,29.00183z" data-paper-data="{&quot;index&quot;:null}" stroke-width="NaN"/><path d="M235.05306,140.62729l-59.02498,-0.25994l1.12106,-33.23073l77.94797,-13.77763l-0.26947,33.89517l-19.68755,3.23572z" data-paper-data="{&quot;index&quot;:null}" stroke-width="NaN"/></g><path d="M222.125,170.52012l-18,-14l88.5,13.75z" fill="#000000" stroke="#000000" stroke-width="0" stroke-linecap="round"/><g data-paper-data="{&quot;index&quot;:null}" fill="#ffffff" stroke="none" stroke-linecap="butt"><path d="M201.78553,221.11777l-0.49167,29.00183l-44.94539,-1.35449l-7.94557,-28.30961z" data-paper-data="{&quot;index&quot;:null}" stroke-width="NaN"/><path d="M230.1401,230.82695l19.68755,3.23571l0.26947,33.89517l-77.94797,-13.77764l-1.12105,-33.23073l59.02498,-0.25994z" data-paper-data="{&quot;index&quot;:null}" stroke-width="NaN"/></g></g></g></svg>