<svg version="1.1" xmlns="http://www.w3.org/2000/svg" xmlns:xlink="http://www.w3.org/1999/xlink" width="161.47344" height="169.90312" viewBox="0,0,161.47344,169.90312"><defs><linearGradient x1="306.38254" y1="214.24935" x2="268.02246" y2="214.24935" gradientUnits="userSpaceOnUse" id="color-1"><stop offset="0" stop-color="#800000" stop-opacity="0"/><stop offset="1" stop-color="#800000"/></linearGradient><linearGradient x1="306.38262" y1="199.34362" x2="268.02257" y2="199.34362" gradientUnits="userSpaceOnUse" id="color-2"><stop offset="0" stop-color="#800000" stop-opacity="0"/><stop offset="1" stop-color="#800000"/></linearGradient><linearGradient x1="272.96368" y1="212.32935" x2="301.44146" y2="212.32935" gradientUnits="userSpaceOnUse" id="color-3"><stop offset="0" stop-color="#ad0000"/><stop offset="1" stop-color="#ff0000"/></linearGradient><linearGradient x1="272.96362" y1="201.26362" x2="301.44138" y2="201.26362" gradientUnits="userSpaceOnUse" id="color-4"><stop offset="0" stop-color="#ad0000"/><stop offset="1" stop-color="#ff0000"/></linearGradient><linearGradient x1="278.72896" y1="203.18628" x2="290.99207" y2="203.18628" gradientUnits="userSpaceOnUse" id="color-5"><stop offset="0" stop-color="#ff4444"/><stop offset="1" stop-color="#ff4444" stop-opacity="0"/></linearGradient><linearGradient x1="278.78137" y1="210.54938" x2="291.04447" y2="210.54938" gradientUnits="userSpaceOnUse" id="color-6"><stop offset="0" stop-color="#ff4444"/><stop offset="1" stop-color="#ff4444" stop-opacity="0"/></linearGradient><linearGradient x1="303.52451" y1="138.62347" x2="283.22552" y2="171.17262" gradientUnits="userSpaceOnUse" id="color-7"><stop offset="0" stop-color="#800000" stop-opacity="0"/><stop offset="1" stop-color="#800000"/></linearGradient><linearGradient x1="290.87681" y1="130.73575" x2="270.57783" y2="163.28486" gradientUnits="userSpaceOnUse" id="color-8"><stop offset="0" stop-color="#800000" stop-opacity="0"/><stop offset="1" stop-color="#800000"/></linearGradient><linearGradient x1="284.21111" y1="165.96391" x2="299.28069" y2="141.80005" gradientUnits="userSpaceOnUse" id="color-9"><stop offset="0" stop-color="#ad0000"/><stop offset="1" stop-color="#ff0000"/></linearGradient><linearGradient x1="274.82163" y1="160.10831" x2="289.8912" y2="135.94447" gradientUnits="userSpaceOnUse" id="color-10"><stop offset="0" stop-color="#ad0000"/><stop offset="1" stop-color="#ff0000"/></linearGradient><linearGradient x1="279.50388" y1="156.23374" x2="285.99315" y2="145.82829" gradientUnits="userSpaceOnUse" id="color-11"><stop offset="0" stop-color="#ff4444"/><stop offset="1" stop-color="#ff4444" stop-opacity="0"/></linearGradient><linearGradient x1="285.77933" y1="160.0856" x2="292.26859" y2="149.68016" gradientUnits="userSpaceOnUse" id="color-12"><stop offset="0" stop-color="#ff4444"/><stop offset="1" stop-color="#ff4444" stop-opacity="0"/></linearGradient><linearGradient x1="235.76014" y1="104.55904" x2="256.37331" y2="136.91013" gradientUnits="userSpaceOnUse" id="color-13"><stop offset="0" stop-color="#800000" stop-opacity="0"/><stop offset="1" stop-color="#800000"/></linearGradient><linearGradient x1="223.1893" y1="112.56871" x2="243.80246" y2="144.91977" gradientUnits="userSpaceOnUse" id="color-14"><stop offset="0" stop-color="#800000" stop-opacity="0"/><stop offset="1" stop-color="#800000"/></linearGradient><linearGradient x1="252.09886" y1="133.77466" x2="236.79604" y2="109.75784" gradientUnits="userSpaceOnUse" id="color-15"><stop offset="0" stop-color="#ad0000"/><stop offset="1" stop-color="#ff0000"/></linearGradient><linearGradient x1="242.76657" y1="139.72099" x2="227.46376" y2="115.70419" gradientUnits="userSpaceOnUse" id="color-16"><stop offset="0" stop-color="#ad0000"/><stop offset="1" stop-color="#ff0000"/></linearGradient><linearGradient x1="241.28999" y1="133.82562" x2="234.70028" y2="123.48349" gradientUnits="userSpaceOnUse" id="color-17"><stop offset="0" stop-color="#ff4444"/><stop offset="1" stop-color="#ff4444" stop-opacity="0"/></linearGradient><linearGradient x1="247.47152" y1="129.82478" x2="240.88182" y2="119.48266" gradientUnits="userSpaceOnUse" id="color-18"><stop offset="0" stop-color="#ff4444"/><stop offset="1" stop-color="#ff4444" stop-opacity="0"/></linearGradient><linearGradient x1="173.61746" y1="145.75065" x2="211.97754" y2="145.75065" gradientUnits="userSpaceOnUse" id="color-19"><stop offset="0" stop-color="#800000" stop-opacity="0"/><stop offset="1" stop-color="#800000"/></linearGradient><linearGradient x1="173.61738" y1="160.65638" x2="211.97743" y2="160.65638" gradientUnits="userSpaceOnUse" id="color-20"><stop offset="0" stop-color="#800000" stop-opacity="0"/><stop offset="1" stop-color="#800000"/></linearGradient><linearGradient x1="207.03632" y1="147.67065" x2="178.55854" y2="147.67065" gradientUnits="userSpaceOnUse" id="color-21"><stop offset="0" stop-color="#ad0000"/><stop offset="1" stop-color="#ff0000"/></linearGradient><linearGradient x1="207.03638" y1="158.73638" x2="178.55862" y2="158.73638" gradientUnits="userSpaceOnUse" id="color-22"><stop offset="0" stop-color="#ad0000"/><stop offset="1" stop-color="#ff0000"/></linearGradient><linearGradient x1="201.27104" y1="156.81372" x2="189.00793" y2="156.81372" gradientUnits="userSpaceOnUse" id="color-23"><stop offset="0" stop-color="#ff4444"/><stop offset="1" stop-color="#ff4444" stop-opacity="0"/></linearGradient><linearGradient x1="201.21863" y1="149.45062" x2="188.95553" y2="149.45062" gradientUnits="userSpaceOnUse" id="color-24"><stop offset="0" stop-color="#ff4444"/><stop offset="1" stop-color="#ff4444" stop-opacity="0"/></linearGradient><linearGradient x1="176.47548" y1="221.37652" x2="196.77448" y2="188.82738" gradientUnits="userSpaceOnUse" id="color-25"><stop offset="0" stop-color="#800000" stop-opacity="0"/><stop offset="1" stop-color="#800000"/></linearGradient><linearGradient x1="189.12319" y1="229.26425" x2="209.42217" y2="196.71514" gradientUnits="userSpaceOnUse" id="color-26"><stop offset="0" stop-color="#800000" stop-opacity="0"/><stop offset="1" stop-color="#800000"/></linearGradient><linearGradient x1="195.78888" y1="194.03609" x2="180.7193" y2="218.19994" gradientUnits="userSpaceOnUse" id="color-27"><stop offset="0" stop-color="#ad0000"/><stop offset="1" stop-color="#ff0000"/></linearGradient><linearGradient x1="205.17836" y1="199.89169" x2="190.10879" y2="224.05553" gradientUnits="userSpaceOnUse" id="color-28"><stop offset="0" stop-color="#ad0000"/><stop offset="1" stop-color="#ff0000"/></linearGradient><linearGradient x1="200.49611" y1="203.76626" x2="194.00685" y2="214.17171" gradientUnits="userSpaceOnUse" id="color-29"><stop offset="0" stop-color="#ff4444"/><stop offset="1" stop-color="#ff4444" stop-opacity="0"/></linearGradient><linearGradient x1="194.22067" y1="199.9144" x2="187.73141" y2="210.31984" gradientUnits="userSpaceOnUse" id="color-30"><stop offset="0" stop-color="#ff4444"/><stop offset="1" stop-color="#ff4444" stop-opacity="0"/></linearGradient><linearGradient x1="244.23986" y1="255.44096" x2="223.62669" y2="223.08987" gradientUnits="userSpaceOnUse" id="color-31"><stop offset="0" stop-color="#800000" stop-opacity="0"/><stop offset="1" stop-color="#800000"/></linearGradient><linearGradient x1="256.81069" y1="247.43129" x2="236.19754" y2="215.08022" gradientUnits="userSpaceOnUse" id="color-32"><stop offset="0" stop-color="#800000" stop-opacity="0"/><stop offset="1" stop-color="#800000"/></linearGradient><linearGradient x1="227.90114" y1="226.22533" x2="243.20396" y2="250.24216" gradientUnits="userSpaceOnUse" id="color-33"><stop offset="0" stop-color="#ad0000"/><stop offset="1" stop-color="#ff0000"/></linearGradient><linearGradient x1="237.23343" y1="220.27901" x2="252.53623" y2="244.29581" gradientUnits="userSpaceOnUse" id="color-34"><stop offset="0" stop-color="#ad0000"/><stop offset="1" stop-color="#ff0000"/></linearGradient><linearGradient x1="238.71001" y1="226.17438" x2="245.29971" y2="236.51651" gradientUnits="userSpaceOnUse" id="color-35"><stop offset="0" stop-color="#ff4444"/><stop offset="1" stop-color="#ff4444" stop-opacity="0"/></linearGradient><linearGradient x1="232.52848" y1="230.17521" x2="239.11817" y2="240.51734" gradientUnits="userSpaceOnUse" id="color-36"><stop offset="0" stop-color="#ff4444"/><stop offset="1" stop-color="#ff4444" stop-opacity="0"/></linearGradient></defs><g transform="translate(-159.26328,-95.04844)"><g data-paper-data="{&quot;isPaintingLayer&quot;:true}" fill-rule="nonzero" stroke-linejoin="miter" stroke-miterlimit="10" stroke-dasharray="" stroke-dashoffset="0" style="mix-blend-mode: normal"><g><g><g><g data-paper-data="{&quot;index&quot;:null}" stroke="none" stroke-width="0" stroke-linecap="butt"><path d="M278.12245,222.32327l-10.09999,-16.14779l38.36008,-0.00004l-9.71147,16.14783z" fill="url(#color-1)"/><path d="M296.67115,191.2697l9.71147,16.14783h-38.36005l10.09995,-16.14783z" data-paper-data="{&quot;index&quot;:null}" fill="url(#color-2)"/></g><g stroke="none" stroke-width="0" stroke-linecap="butt"><path d="M280.17329,218.32327l-7.20961,-11.98783l28.47778,0.00003l-7.49804,11.98781z" fill="url(#color-3)"/><path d="M293.94337,195.2697l7.49801,11.98783h-28.47775l7.20961,-11.98783z" data-paper-data="{&quot;index&quot;:null}" fill="url(#color-4)"/></g><g fill="#ffffff" stroke="#ffffff" stroke-width="2.5" stroke-linecap="round"><path d="M318.1151,207.53766l-14.8142,25.92485h-29.85987l-3.93502,-5.09238h31.01723l12.49948,-20.83247z"/><path d="M313.02272,205.71354l-12.49948,-20.83247h-31.01723l3.93502,-5.09238h29.85987l14.8142,25.92485z" data-paper-data="{&quot;index&quot;:null}"/></g><g fill="none" stroke="#cbcbcb" stroke-width="2.5" stroke-linecap="round"><path d="M272.68672,178.51783l30.8,-0.2l16,28"/><path d="M319.28672,206.41783l-16,28l-30.8,-0.2" data-paper-data="{&quot;index&quot;:null}"/></g><g data-paper-data="{&quot;index&quot;:null}" fill="none" stroke-width="2.5" stroke-linecap="round"><path d="M278.72896,206.85473l4.19251,-7.3369l8.07059,0.05241" stroke="url(#color-5)"/><path d="M291.04447,214.16542l-8.07059,0.05241l-4.19251,-7.3369" data-paper-data="{&quot;index&quot;:null}" stroke="url(#color-6)"/></g></g><g><g data-paper-data="{&quot;index&quot;:null}" stroke="none" stroke-width="0" stroke-linecap="butt"><path d="M295.42098,166.87509l-19.04627,0.02508l20.29896,-32.54916l8.56268,16.78528z" fill="url(#color-7)"/><path d="M278.88694,134.70361l18.84071,0.30461l-20.29898,32.54912l-8.3571,-17.11491z" data-paper-data="{&quot;index&quot;:null}" fill="url(#color-8)"/></g><g stroke="none" stroke-width="0" stroke-linecap="butt"><path d="M293.11216,163.01824l-13.98697,-0.22613l15.0696,-24.16384l6.20411,12.70579z" fill="url(#color-9)"/><path d="M280.83754,139.13485l14.13959,-0.01858l-15.06956,24.16383l-6.35676,-12.46107z" data-paper-data="{&quot;index&quot;:null}" fill="url(#color-10)"/></g><g fill="#ffffff" stroke="#ffffff" stroke-width="2.5" stroke-linecap="round"><path d="M304.03805,125.11659l14.15842,26.28873l-15.80094,25.33658l-6.40326,0.64419l16.41338,-26.31862l-11.06234,-21.62992z"/><path d="M299.79552,128.47228l-24.29103,-0.4179l-16.41338,26.31862l-2.23867,-6.03366l15.80094,-25.33658l29.83688,1.14856z" data-paper-data="{&quot;index&quot;:null}"/></g><g fill="none" stroke="#cbcbcb" stroke-width="2.5" stroke-linecap="round"><path d="M255.37494,148.30688l16.12872,-26.24013l32.22516,1.2405"/><path d="M303.70785,123.52987l15.29173,28.39301l-16.46813,26.02846" data-paper-data="{&quot;index&quot;:null}"/></g><g data-paper-data="{&quot;index&quot;:null}" fill="none" stroke-width="2.5" stroke-linecap="round"><path d="M282.61662,158.17497l-4.00693,-7.43988l4.31518,-6.82029" stroke="url(#color-11)"/><path d="M295.33686,151.59366l-4.22624,6.87576l-8.44403,-0.32505" data-paper-data="{&quot;index&quot;:null}" stroke="url(#color-12)"/></g></g><g><g data-paper-data="{&quot;index&quot;:null}" stroke="none" stroke-width="0" stroke-linecap="butt"><path d="M257.75514,124.05367l-8.19095,17.19503l-20.61321,-32.35107l18.83688,-0.487z" fill="url(#color-13)"/><path d="M221.59869,125.09751l8.39977,-16.8674l20.61315,32.35107l-19.04563,0.15938z" data-paper-data="{&quot;index&quot;:null}" fill="url(#color-14)"/></g><g stroke="none" stroke-width="0" stroke-linecap="butt"><path d="M253.27969,124.47352l-6.23582,12.52203l-15.30279,-24.01684l14.1391,-0.11828z" fill="url(#color-15)"/><path d="M226.43791,125.24855l6.08084,-12.76525l15.3028,24.01679l-13.98413,0.36154z" data-paper-data="{&quot;index&quot;:null}" fill="url(#color-16)"/></g><g fill="#ffffff" stroke="#ffffff" stroke-width="2.5" stroke-linecap="round"><path d="M223.79521,98.27094l29.82436,-1.43738l16.0455,25.18241l-2.18015,6.05505l-16.66742,-26.15847l-24.28585,0.65306z"/><path d="M224.99327,103.54582l-10.85241,21.73601l16.66742,26.15847l-6.40919,-0.58217l-16.0455,-25.18241l13.90324,-26.42457z" data-paper-data="{&quot;index&quot;:null}"/></g><g fill="none" stroke="#cbcbcb" stroke-width="2.5" stroke-linecap="round"><path d="M223.73264,152.1772l-16.71936,-25.8678l15.01613,-28.53973"/><path d="M222.22121,97.8846l32.21164,-1.55243l16.38201,26.08275" data-paper-data="{&quot;index&quot;:null}"/></g><g data-paper-data="{&quot;index&quot;:null}" fill="none" stroke-width="2.5" stroke-linecap="round"><path d="M244.38379,131.85434l-8.44048,0.40679l-4.29261,-6.83452" stroke="url(#color-17)"/><path d="M243.93142,117.53955l4.38101,6.77819l-3.93471,7.47832" data-paper-data="{&quot;index&quot;:null}" stroke="url(#color-18)"/></g></g></g><g data-paper-data="{&quot;index&quot;:null}"><g><g data-paper-data="{&quot;index&quot;:null}" stroke="none" stroke-width="0" stroke-linecap="butt"><path d="M201.87755,137.67673l10.09999,16.14779l-38.36008,0.00004l9.71147,-16.14783z" fill="url(#color-19)"/><path d="M183.32885,168.7303l-9.71147,-16.14783h38.36005l-10.09995,16.14783z" data-paper-data="{&quot;index&quot;:null}" fill="url(#color-20)"/></g><g stroke="none" stroke-width="0" stroke-linecap="butt"><path d="M199.82671,141.67673l7.20961,11.98783l-28.47778,-0.00003l7.49804,-11.98781z" fill="url(#color-21)"/><path d="M186.05663,164.7303l-7.49801,-11.98783h28.47775l-7.20961,11.98783z" data-paper-data="{&quot;index&quot;:null}" fill="url(#color-22)"/></g><g fill="#ffffff" stroke="#ffffff" stroke-width="2.5" stroke-linecap="round"><path d="M161.8849,152.46234l14.8142,-25.92485h29.85987l3.93502,5.09238h-31.01723l-12.49948,20.83247z"/><path d="M166.97728,154.28646l12.49948,20.83247h31.01723l-3.93502,5.09238h-29.85987l-14.8142,-25.92485z" data-paper-data="{&quot;index&quot;:null}"/></g><g fill="none" stroke="#cbcbcb" stroke-width="2.5" stroke-linecap="round"><path d="M207.31328,181.48217l-30.8,0.2l-16,-28"/><path d="M160.71328,153.58217l16,-28l30.8,0.2" data-paper-data="{&quot;index&quot;:null}"/></g><g data-paper-data="{&quot;index&quot;:null}" fill="none" stroke-width="2.5" stroke-linecap="round"><path d="M201.27104,153.14527l-4.19251,7.3369l-8.07059,-0.05241" stroke="url(#color-23)"/><path d="M188.95553,145.83458l8.07059,-0.05241l4.19251,7.3369" data-paper-data="{&quot;index&quot;:null}" stroke="url(#color-24)"/></g></g><g><g data-paper-data="{&quot;index&quot;:null}" stroke="none" stroke-width="0" stroke-linecap="butt"><path d="M184.57902,193.12491l19.04627,-0.02508l-20.29896,32.54917l-8.56267,-16.78528z" fill="url(#color-25)"/><path d="M201.11306,225.29639l-18.84071,-0.30461l20.29898,-32.54911l8.3571,17.11491z" data-paper-data="{&quot;index&quot;:null}" fill="url(#color-26)"/></g><g stroke="none" stroke-width="0" stroke-linecap="butt"><path d="M186.88784,196.98176l13.98698,0.22612l-15.0696,24.16384l-6.20411,-12.70579z" fill="url(#color-27)"/><path d="M199.16245,220.86514l-14.13959,0.01859l15.06956,-24.16383l6.35676,12.46107z" data-paper-data="{&quot;index&quot;:null}" fill="url(#color-28)"/></g><g fill="#ffffff" stroke="#ffffff" stroke-width="2.5" stroke-linecap="round"><path d="M175.96194,234.88341l-14.15843,-26.28874l15.80094,-25.33657l6.40326,-0.64419l-16.41338,26.31861l11.06234,21.62993z"/><path d="M180.20447,231.52771l24.29103,0.4179l16.41338,-26.31861l2.23867,6.03366l-15.80094,25.33658l-29.83687,-1.14856z" data-paper-data="{&quot;index&quot;:null}"/></g><g fill="none" stroke="#cbcbcb" stroke-width="2.5" stroke-linecap="round"><path d="M224.62506,211.69312l-16.12873,26.24013l-32.22516,-1.2405"/><path d="M176.29215,236.47013l-15.29174,-28.393l16.46813,-26.02846" data-paper-data="{&quot;index&quot;:null}"/></g><g data-paper-data="{&quot;index&quot;:null}" fill="none" stroke-width="2.5" stroke-linecap="round"><path d="M197.38337,201.82503l4.00693,7.43988l-4.31518,6.82029" stroke="url(#color-29)"/><path d="M184.66314,208.40634l4.22624,-6.87575l8.44403,0.32505" data-paper-data="{&quot;index&quot;:null}" stroke="url(#color-30)"/></g></g><g><g data-paper-data="{&quot;index&quot;:null}" stroke="none" stroke-width="0" stroke-linecap="butt"><path d="M222.24486,235.94633l8.19095,-17.19503l20.61321,32.35107l-18.83688,0.487z" fill="url(#color-31)"/><path d="M258.4013,234.90249l-8.39977,16.86739l-20.61315,-32.35107l19.04563,-0.15937z" data-paper-data="{&quot;index&quot;:null}" fill="url(#color-32)"/></g><g stroke="none" stroke-width="0" stroke-linecap="butt"><path d="M226.72031,235.52647l6.23582,-12.52203l15.30279,24.01683l-14.1391,0.11828z" fill="url(#color-33)"/><path d="M253.56209,234.75144l-6.08085,12.76525l-15.3028,-24.01679l13.98412,-0.36154z" data-paper-data="{&quot;index&quot;:null}" fill="url(#color-34)"/></g><g fill="#ffffff" stroke="#ffffff" stroke-width="2.5" stroke-linecap="round"><path d="M256.20479,261.72906l-29.82436,1.43737l-16.04549,-25.18241l2.18015,-6.05505l16.66742,26.15848l24.28585,-0.65306z"/><path d="M255.00672,256.45417l10.85241,-21.736l-16.66741,-26.15848l6.4092,0.58217l16.0455,25.18241l-13.90324,26.42458z" data-paper-data="{&quot;index&quot;:null}"/></g><g fill="none" stroke="#cbcbcb" stroke-width="2.5" stroke-linecap="round"><path d="M256.26736,207.8228l16.71936,25.8678l-15.01613,28.53973"/><path d="M257.77878,262.11539l-32.21164,1.55244l-16.38201,-26.08275" data-paper-data="{&quot;index&quot;:null}"/></g><g data-paper-data="{&quot;index&quot;:null}" fill="none" stroke-width="2.5" stroke-linecap="round"><path d="M235.61621,228.14566l8.44048,-0.40679l4.29262,6.83452" stroke="url(#color-35)"/><path d="M236.06858,242.46045l-4.38101,-6.77819l3.93471,-7.47833" data-paper-data="{&quot;index&quot;:null}" stroke="url(#color-36)"/></g></g></g></g></g></g></svg>