<svg version="1.1" xmlns="http://www.w3.org/2000/svg" xmlns:xlink="http://www.w3.org/1999/xlink" width="139.06296" height="114.4024" viewBox="0,0,139.06296,114.4024"><defs><linearGradient x1="297.22792" y1="187.72539" x2="282.95999" y2="187.59613" gradientUnits="userSpaceOnUse" id="color-1"><stop offset="0" stop-color="#ffffff"/><stop offset="1" stop-color="#e1e1e1"/></linearGradient><linearGradient x1="297.4031" y1="172.45567" x2="283.1352" y2="172.32641" gradientUnits="userSpaceOnUse" id="color-2"><stop offset="0" stop-color="#ffffff"/><stop offset="1" stop-color="#e1e1e1"/></linearGradient><linearGradient x1="216.40571" y1="236.89608" x2="216.62818" y2="215.5309" gradientUnits="userSpaceOnUse" id="color-3"><stop offset="0" stop-color="#ffffff"/><stop offset="1" stop-color="#e1e1e1"/></linearGradient><linearGradient x1="242.68777" y1="237.15841" x2="242.91025" y2="215.79325" gradientUnits="userSpaceOnUse" id="color-4"><stop offset="0" stop-color="#ffffff"/><stop offset="1" stop-color="#e1e1e1"/></linearGradient><linearGradient x1="215.40571" y1="123.10391" x2="215.62818" y2="144.46909" gradientUnits="userSpaceOnUse" id="color-5"><stop offset="0" stop-color="#ffffff"/><stop offset="1" stop-color="#e1e1e1"/></linearGradient><linearGradient x1="241.68777" y1="122.84158" x2="241.91025" y2="144.20674" gradientUnits="userSpaceOnUse" id="color-6"><stop offset="0" stop-color="#ffffff"/><stop offset="1" stop-color="#e1e1e1"/></linearGradient><linearGradient x1="229.28299" y1="182.90306" x2="256.21699" y2="182.90305" gradientUnits="userSpaceOnUse" id="color-7"><stop offset="0" stop-color="#000000"/><stop offset="1" stop-color="#ad0000"/></linearGradient><linearGradient x1="229.28299" y1="177.09695" x2="256.21699" y2="177.09695" gradientUnits="userSpaceOnUse" id="color-8"><stop offset="0" stop-color="#000000"/><stop offset="1" stop-color="#ad0000"/></linearGradient></defs><g transform="translate(-182.71251,-122.79879)"><g data-paper-data="{&quot;isPaintingLayer&quot;:true}" fill-rule="nonzero" stroke="none" stroke-linecap="butt" stroke-linejoin="miter" stroke-miterlimit="10" stroke-dasharray="" stroke-dashoffset="0" style="mix-blend-mode: normal"><g stroke-width="0"><g data-paper-data="{&quot;index&quot;:null}"><path d="M283.06331,178.59179l14.26792,0.12926l-0.13189,11.49491l-14.34265,6.38453z" fill="url(#color-1)"/><path d="M283.2385,163.32209l14.19318,6.64304l-0.13189,11.49491l-14.26792,-0.12926z" data-paper-data="{&quot;index&quot;:null}" fill="url(#color-2)"/></g><path d="M217.43168,188.64752v-16.75h66.75v16.75z" fill="#e1e1e1"/></g><g data-paper-data="{&quot;index&quot;:null}"><g data-paper-data="{&quot;index&quot;:null}" stroke-width="0"><path d="M232.12635,215.6856l-0.22248,21.36518l-19.78491,-0.19749l-10.98898,-21.47708z" fill="url(#color-3)"/><path d="M258.40839,215.94794l-11.43392,21.25326l-19.78491,-0.19749l0.22248,-21.36518z" data-paper-data="{&quot;index&quot;:null}" fill="url(#color-4)"/></g><path d="M289.2591,196.67522l32.51637,0.21591l-15.18215,17.1525l-64.61693,-0.93851l-0.50632,-29.86534l32.14579,-0.14157l15.57286,-0.06858z" data-paper-data="{&quot;index&quot;:null}" fill="#ffffff" stroke-width="NaN"/><path d="M212.36091,182.7988l60.7824,0.26768l-1.15444,34.22015l-80.26881,14.18785l0.27749,-34.90437l20.27373,-3.33206z" data-paper-data="{&quot;index&quot;:null}" fill="#ffffff" stroke-width="NaN"/></g><g><g data-paper-data="{&quot;index&quot;:null}" stroke-width="0"><path d="M200.12998,144.62378l10.98898,-21.47708l19.78491,-0.19749l0.22248,21.36518z" fill="url(#color-5)"/><path d="M226.41204,144.36146l-0.22248,-21.36518l19.78491,-0.19749l11.43392,21.25326z" data-paper-data="{&quot;index&quot;:null}" fill="url(#color-6)"/></g><path d="M288.18872,176.97036l-15.57286,-0.06858l-32.14579,-0.14157l0.50632,-29.86534l64.61693,-0.93851l15.18215,17.1525l-32.51637,0.21591z" data-paper-data="{&quot;index&quot;:null}" fill="#ffffff" stroke-width="NaN"/><path d="M211.27128,166.76194l-20.27373,-3.33206l-0.27749,-34.90437l80.26881,14.18785l1.15444,34.22015l-60.7824,0.26768z" data-paper-data="{&quot;index&quot;:null}" fill="#ffffff" stroke-width="NaN"/></g><g stroke-width="0"><g data-paper-data="{&quot;index&quot;:null}" fill="#f1f1f1"><path d="M205.28749,205.77221l-22.21512,-9.88891l-0.20428,-17.8043l22.09937,-0.20021z"/><path d="M205.01616,182.12118l-22.09937,0.20021l-0.20428,-17.8043l21.98361,-10.28931z" data-paper-data="{&quot;index&quot;:null}"/></g><g data-paper-data="{&quot;index&quot;:null}" fill="#f1f1f1"><path d="M203.82123,177.8788l59.29878,0.20021l-0.54815,17.8043l-59.60936,9.8889z"/><path d="M204.54934,154.22779l58.98815,10.28931l-0.54815,17.80429l-59.29877,-0.20021z" data-paper-data="{&quot;index&quot;:null}"/></g></g><g data-paper-data="{&quot;index&quot;:null}" stroke-width="0"><path d="M233.06586,186.04806l-3.78286,-6.28997l26.93401,0.00001l-3.93418,6.28996z" fill="url(#color-7)"/><path d="M252.28281,173.95196l3.93418,6.28996h-26.934l3.78286,-6.28997z" data-paper-data="{&quot;index&quot;:null}" fill="url(#color-8)"/></g></g></g></svg>