<svg version="1.1" xmlns="http://www.w3.org/2000/svg" xmlns:xlink="http://www.w3.org/1999/xlink" width="203.0005" height="196.36918" viewBox="0,0,203.0005,196.36918"><defs><linearGradient x1="195.01748" y1="164.4418" x2="264.64432" y2="164.4418" gradientUnits="userSpaceOnUse" id="color-1"><stop offset="0" stop-color="#e2e2e2"/><stop offset="1" stop-color="#868686"/></linearGradient><linearGradient x1="224.96667" y1="83.02146" x2="243.94762" y2="156.07813" gradientUnits="userSpaceOnUse" id="color-2"><stop offset="0" stop-color="#ffffff"/><stop offset="1" stop-color="#e1e1e1"/></linearGradient><linearGradient x1="255.58933" y1="163.67993" x2="265.56014" y2="173.65074" gradientUnits="userSpaceOnUse" id="color-3"><stop offset="0" stop-color="#000000"/><stop offset="1" stop-color="#ad0000"/></linearGradient><linearGradient x1="257.73873" y1="161.53054" x2="267.70953" y2="171.50134" gradientUnits="userSpaceOnUse" id="color-4"><stop offset="0" stop-color="#000000"/><stop offset="1" stop-color="#ad0000"/></linearGradient><linearGradient x1="240.7" y1="163.8" x2="240.7" y2="151.4" gradientUnits="userSpaceOnUse" id="color-5"><stop offset="0" stop-color="#c8c8c8"/><stop offset="1" stop-color="#c8c8c8" stop-opacity="0"/></linearGradient><linearGradient x1="195.01748" y1="195.5582" x2="264.64432" y2="195.5582" gradientUnits="userSpaceOnUse" id="color-6"><stop offset="0" stop-color="#e2e2e2"/><stop offset="1" stop-color="#868686"/></linearGradient><linearGradient x1="224.96667" y1="276.97854" x2="243.94762" y2="203.92187" gradientUnits="userSpaceOnUse" id="color-7"><stop offset="0" stop-color="#ffffff"/><stop offset="1" stop-color="#e1e1e1"/></linearGradient><linearGradient x1="255.58933" y1="196.32007" x2="265.56014" y2="186.34926" gradientUnits="userSpaceOnUse" id="color-8"><stop offset="0" stop-color="#000000"/><stop offset="1" stop-color="#ad0000"/></linearGradient><linearGradient x1="257.73873" y1="198.46946" x2="267.70953" y2="188.49866" gradientUnits="userSpaceOnUse" id="color-9"><stop offset="0" stop-color="#000000"/><stop offset="1" stop-color="#ad0000"/></linearGradient><linearGradient x1="240.7" y1="196.2" x2="240.7" y2="208.6" gradientUnits="userSpaceOnUse" id="color-10"><stop offset="0" stop-color="#c8c8c8"/><stop offset="1" stop-color="#c8c8c8" stop-opacity="0"/></linearGradient></defs><g transform="translate(-138.49975,-81.81541)"><g data-paper-data="{&quot;isPaintingLayer&quot;:true}" fill-rule="nonzero" stroke-linejoin="miter" stroke-miterlimit="10" stroke-dasharray="" stroke-dashoffset="0" style="mix-blend-mode: normal"><path d="M138.5,193v-26h203v26z" fill="none" stroke="#000000" stroke-width="0.0005" stroke-linecap="butt"/><g><path d="M195.01748,180.18458l17.45453,-31.48557l33.8041,4.74337l18.36822,26.74221z" data-paper-data="{&quot;index&quot;:null}" fill="url(#color-1)" stroke="none" stroke-width="NaN" stroke-linecap="butt"/><path d="M227.16496,160.43845l-18.98095,-73.05667l21.42466,-5.56637l31.1216,69.90239z" data-paper-data="{&quot;index&quot;:null}" fill="url(#color-2)" stroke="none" stroke-width="0" stroke-linecap="butt"/><path d="M210.04285,180.18458l18.78639,-33.88806l36.38349,5.1053l19.76979,28.78275z" data-paper-data="{&quot;index&quot;:null}" fill="#ffffff" stroke="none" stroke-width="NaN" stroke-linecap="butt"/><g stroke="none" stroke-width="0" stroke-linecap="butt"><path d="M255.82546,166.24459l0.92811,-3.7289l9.97082,9.97082l-3.78492,0.8721z" fill="url(#color-3)"/><path d="M267.41738,168.88068l-0.8721,3.78492l-9.97081,-9.97081l3.7289,-0.92811z" data-paper-data="{&quot;index&quot;:null}" fill="url(#color-4)"/></g><path d="M225.5,163.8l6.2,-12.4l24.2,3.8l-12.2,7.8z" data-paper-data="{&quot;index&quot;:null}" fill="url(#color-5)" stroke="#000000" stroke-width="0" stroke-linecap="round"/></g><g data-paper-data="{&quot;index&quot;:null}"><path d="M264.64433,179.81541l-18.36822,26.74221l-33.8041,4.74337l-17.45453,-31.48557z" data-paper-data="{&quot;index&quot;:null}" fill="url(#color-6)" stroke="none" stroke-width="NaN" stroke-linecap="butt"/><path d="M260.73027,208.2822l-31.1216,69.90239l-21.42466,-5.56637l18.98095,-73.05667z" data-paper-data="{&quot;index&quot;:null}" fill="url(#color-7)" stroke="none" stroke-width="0" stroke-linecap="butt"/><path d="M284.98252,179.81543l-19.76979,28.78275l-36.38349,5.1053l-18.78639,-33.88806z" data-paper-data="{&quot;index&quot;:null}" fill="#ffffff" stroke="none" stroke-width="NaN" stroke-linecap="butt"/><g stroke="none" stroke-width="0" stroke-linecap="butt"><path d="M262.93947,186.64139l3.78492,0.8721l-9.97082,9.97082l-0.92811,-3.7289z" fill="url(#color-8)"/><path d="M260.30337,198.23332l-3.7289,-0.92811l9.97081,-9.97081l0.8721,3.78492z" data-paper-data="{&quot;index&quot;:null}" fill="url(#color-9)"/></g><path d="M243.7,197l12.2,7.8l-24.2,3.8l-6.2,-12.4z" data-paper-data="{&quot;index&quot;:null}" fill="url(#color-10)" stroke="#000000" stroke-width="0" stroke-linecap="round"/></g></g></g></svg>