<svg version="1.1" xmlns="http://www.w3.org/2000/svg" xmlns:xlink="http://www.w3.org/1999/xlink" width="107.33383" height="67.30785" viewBox="0,0,107.33383,67.30785"><defs><linearGradient x1="204.5872" y1="169.40131" x2="221.5321" y2="169.57776" gradientUnits="userSpaceOnUse" id="color-1"><stop offset="0" stop-color="#ffffff"/><stop offset="1" stop-color="#e1e1e1"/></linearGradient><linearGradient x1="204.37914" y1="190.24584" x2="221.32403" y2="190.42229" gradientUnits="userSpaceOnUse" id="color-2"><stop offset="0" stop-color="#ffffff"/><stop offset="1" stop-color="#e1e1e1"/></linearGradient><linearGradient x1="251.09968" y1="165.0329" x2="258.8554" y2="172.78862" gradientUnits="userSpaceOnUse" id="color-3"><stop offset="0" stop-color="#000000"/><stop offset="1" stop-color="#ad0000"/></linearGradient><linearGradient x1="252.77157" y1="163.361" x2="260.52729" y2="171.11673" gradientUnits="userSpaceOnUse" id="color-4"><stop offset="0" stop-color="#000000"/><stop offset="1" stop-color="#ad0000"/></linearGradient><linearGradient x1="251.09968" y1="194.96711" x2="258.8554" y2="187.21139" gradientUnits="userSpaceOnUse" id="color-5"><stop offset="0" stop-color="#000000"/><stop offset="1" stop-color="#ad0000"/></linearGradient><linearGradient x1="252.77156" y1="196.639" x2="260.52729" y2="188.88328" gradientUnits="userSpaceOnUse" id="color-6"><stop offset="0" stop-color="#000000"/><stop offset="1" stop-color="#ad0000"/></linearGradient><linearGradient x1="234.49778" y1="180" x2="260.49778" y2="180" gradientUnits="userSpaceOnUse" id="color-7"><stop offset="0" stop-color="#590000"/><stop offset="1" stop-color="#be0000"/></linearGradient><linearGradient x1="222.25034" y1="181.77213" x2="200.88877" y2="181.77212" gradientUnits="userSpaceOnUse" id="color-8"><stop offset="0" stop-color="#000000"/><stop offset="1" stop-color="#ad0000"/></linearGradient><linearGradient x1="222.25034" y1="177.16725" x2="200.88877" y2="177.16725" gradientUnits="userSpaceOnUse" id="color-9"><stop offset="0" stop-color="#000000"/><stop offset="1" stop-color="#ad0000"/></linearGradient></defs><g transform="translate(-186.33309,-146.34608)"><g data-paper-data="{&quot;isPaintingLayer&quot;:true}" fill-rule="nonzero" stroke-linecap="butt" stroke-linejoin="miter" stroke-miterlimit="10" stroke-dasharray="" stroke-dashoffset="0" style="mix-blend-mode: normal"><path d="M186.33334,196v-32h107.33333v32z" fill="none" stroke="#000000" stroke-width="0.0005"/><g stroke="none" stroke-width="0"><path d="M221.40941,181.86949l-16.9449,-0.17645l0.15663,-15.69158l17.03365,-8.71545z" fill="url(#color-1)"/><path d="M221.20135,202.71399l-16.85614,-9.06834l0.15663,-15.69158l16.9449,0.17645z" data-paper-data="{&quot;index&quot;:null}" fill="url(#color-2)"/></g><path d="M219.58929,196.75v-33.5h40.82143v33.5z" fill="#e1e1e1" stroke="none" stroke-width="0"/><g stroke="none"><path d="M227.44716,170.15393l-12.62341,-2.0747l-0.17278,-21.73315l49.97926,8.83405l0.71881,21.30713l-37.84607,0.16667z" data-paper-data="{&quot;index&quot;:null}" fill="#ffffff" stroke-width="NaN"/><g stroke-width="0"><path d="M251.28335,167.0278l0.72193,-2.9005l7.75572,7.75573l-2.94407,0.67835z" fill="url(#color-3)"/><path d="M260.30003,169.07826l-0.67836,2.94407l-7.75572,-7.75572l2.9005,-0.72193z" data-paper-data="{&quot;index&quot;:null}" fill="url(#color-4)"/></g></g><g data-paper-data="{&quot;index&quot;:null}" stroke="none"><path d="M227.50297,183.34608l37.84607,0.16667l-0.71881,21.30713l-49.97926,8.83405l0.17278,-21.73315l12.62341,-2.0747z" data-paper-data="{&quot;index&quot;:null}" fill="#ffffff" stroke-width="NaN"/><g stroke-width="0"><path d="M256.81694,187.43862l2.94407,0.67835l-7.75572,7.75573l-0.72193,-2.9005z" fill="url(#color-5)"/><path d="M254.76646,196.45533l-2.9005,-0.72193l7.75572,-7.75572l0.67836,2.94407z" data-paper-data="{&quot;index&quot;:null}" fill="url(#color-6)"/></g></g><path d="M234.49778,181.8125v-3.625h26v3.625z" fill="url(#color-7)" stroke="none" stroke-width="0"/><g data-paper-data="{&quot;index&quot;:null}" stroke="none" stroke-width="0"><path d="M204.00897,184.26646l-3.12023,-4.98862l21.36159,-0.00001l-3.00022,4.98863z" fill="url(#color-8)"/><path d="M219.25013,174.67293l3.00022,4.98863h-21.36158l3.12023,-4.98862z" data-paper-data="{&quot;index&quot;:null}" fill="url(#color-9)"/></g></g></g></svg>