<svg version="1.1" xmlns="http://www.w3.org/2000/svg" xmlns:xlink="http://www.w3.org/1999/xlink" width="900.9014" height="284.61006" viewBox="0,0,900.9014,284.61006"><defs><radialGradient cx="533.19188" cy="180.89078" r="53.5" gradientUnits="userSpaceOnUse" id="color-1"><stop offset="0" stop-color="#800000"/><stop offset="1" stop-color="#800000" stop-opacity="0"/></radialGradient><linearGradient x1="552.66921" y1="188.41542" x2="514.30913" y2="188.41542" gradientUnits="userSpaceOnUse" id="color-2"><stop offset="0" stop-color="#800000" stop-opacity="0"/><stop offset="1" stop-color="#800000"/></linearGradient><linearGradient x1="552.66929" y1="173.50969" x2="514.30924" y2="173.50969" gradientUnits="userSpaceOnUse" id="color-3"><stop offset="0" stop-color="#800000" stop-opacity="0"/><stop offset="1" stop-color="#800000"/></linearGradient><linearGradient x1="519.25035" y1="186.49542" x2="547.72813" y2="186.49542" gradientUnits="userSpaceOnUse" id="color-4"><stop offset="0" stop-color="#ad0000"/><stop offset="1" stop-color="#ff0000"/></linearGradient><linearGradient x1="519.25028" y1="175.42969" x2="547.72805" y2="175.42969" gradientUnits="userSpaceOnUse" id="color-5"><stop offset="0" stop-color="#ad0000"/><stop offset="1" stop-color="#ff0000"/></linearGradient><linearGradient x1="106.85587" y1="61.88993" x2="106.85587" y2="85.91882" gradientUnits="userSpaceOnUse" id="color-6"><stop offset="0" stop-color="#ffffff"/><stop offset="1" stop-color="#ececec"/></linearGradient><linearGradient x1="65.3059" y1="108.44591" x2="95.84263" y2="108.44591" gradientUnits="userSpaceOnUse" id="color-7"><stop offset="0" stop-color="#ffffff"/><stop offset="1" stop-color="#ececec"/></linearGradient><linearGradient x1="274.80781" y1="38.36164" x2="274.80781" y2="83.41582" gradientUnits="userSpaceOnUse" id="color-8"><stop offset="0" stop-color="#ffffff"/><stop offset="1" stop-color="#ececec"/></linearGradient><linearGradient x1="221.07655" y1="61.86211" x2="221.07655" y2="80.77373" gradientUnits="userSpaceOnUse" id="color-9"><stop offset="0" stop-color="#ececec"/><stop offset="1" stop-color="#bfbfbf"/></linearGradient><linearGradient x1="206.05846" y1="61.86212" x2="206.05846" y2="80.77374" gradientUnits="userSpaceOnUse" id="color-10"><stop offset="0" stop-color="#ececec"/><stop offset="1" stop-color="#bfbfbf"/></linearGradient><linearGradient x1="191.04042" y1="61.86212" x2="191.04042" y2="80.77374" gradientUnits="userSpaceOnUse" id="color-11"><stop offset="0" stop-color="#ececec"/><stop offset="1" stop-color="#bfbfbf"/></linearGradient><linearGradient x1="176.02236" y1="61.86212" x2="176.02236" y2="80.77374" gradientUnits="userSpaceOnUse" id="color-12"><stop offset="0" stop-color="#ececec"/><stop offset="1" stop-color="#bfbfbf"/></linearGradient><linearGradient x1="-2.59716" y1="171.83556" x2="109.03707" y2="171.83556" gradientUnits="userSpaceOnUse" id="color-13"><stop offset="0" stop-color="#ffffff"/><stop offset="1" stop-color="#e1e1e1"/></linearGradient><linearGradient x1="178.12014" y1="128.16604" x2="178.12014" y2="182.80316" gradientUnits="userSpaceOnUse" id="color-14"><stop offset="0" stop-color="#f3f3f3"/><stop offset="1" stop-color="#ffffff"/></linearGradient><linearGradient x1="74.99614" y1="143.71351" x2="109.03707" y2="143.71351" gradientUnits="userSpaceOnUse" id="color-15"><stop offset="0" stop-color="#ffffff"/><stop offset="1" stop-color="#e1e1e1"/></linearGradient><linearGradient x1="106.85587" y1="299.44341" x2="106.85587" y2="275.41452" gradientUnits="userSpaceOnUse" id="color-16"><stop offset="0" stop-color="#ffffff"/><stop offset="1" stop-color="#ececec"/></linearGradient><linearGradient x1="65.3059" y1="252.88743" x2="95.84263" y2="252.88743" gradientUnits="userSpaceOnUse" id="color-17"><stop offset="0" stop-color="#ffffff"/><stop offset="1" stop-color="#ececec"/></linearGradient><linearGradient x1="274.80781" y1="322.9717" x2="274.80781" y2="277.91752" gradientUnits="userSpaceOnUse" id="color-18"><stop offset="0" stop-color="#ffffff"/><stop offset="1" stop-color="#ececec"/></linearGradient><linearGradient x1="221.07654" y1="299.47122" x2="221.07654" y2="280.5596" gradientUnits="userSpaceOnUse" id="color-19"><stop offset="0" stop-color="#ececec"/><stop offset="1" stop-color="#bfbfbf"/></linearGradient><linearGradient x1="206.05846" y1="299.47122" x2="206.05846" y2="280.5596" gradientUnits="userSpaceOnUse" id="color-20"><stop offset="0" stop-color="#ececec"/><stop offset="1" stop-color="#bfbfbf"/></linearGradient><linearGradient x1="191.04042" y1="299.47122" x2="191.04042" y2="280.5596" gradientUnits="userSpaceOnUse" id="color-21"><stop offset="0" stop-color="#ececec"/><stop offset="1" stop-color="#bfbfbf"/></linearGradient><linearGradient x1="176.02236" y1="299.47122" x2="176.02236" y2="280.5596" gradientUnits="userSpaceOnUse" id="color-22"><stop offset="0" stop-color="#ececec"/><stop offset="1" stop-color="#bfbfbf"/></linearGradient><linearGradient x1="-2.59716" y1="189.49776" x2="109.03707" y2="189.49776" gradientUnits="userSpaceOnUse" id="color-23"><stop offset="0" stop-color="#ffffff"/><stop offset="1" stop-color="#e1e1e1"/></linearGradient><linearGradient x1="178.12014" y1="233.1673" x2="178.12014" y2="178.53018" gradientUnits="userSpaceOnUse" id="color-24"><stop offset="0" stop-color="#f3f3f3"/><stop offset="1" stop-color="#ffffff"/></linearGradient><linearGradient x1="74.99614" y1="217.61983" x2="109.03707" y2="217.61983" gradientUnits="userSpaceOnUse" id="color-25"><stop offset="0" stop-color="#ffffff"/><stop offset="1" stop-color="#e1e1e1"/></linearGradient><linearGradient x1="225.76433" y1="182.46563" x2="247.37478" y2="182.46562" gradientUnits="userSpaceOnUse" id="color-26"><stop offset="0" stop-color="#000000"/><stop offset="1" stop-color="#ad0000"/></linearGradient><linearGradient x1="225.76433" y1="177.8071" x2="247.37478" y2="177.8071" gradientUnits="userSpaceOnUse" id="color-27"><stop offset="0" stop-color="#000000"/><stop offset="1" stop-color="#ad0000"/></linearGradient><linearGradient x1="228.73762" y1="162.48598" x2="238.8576" y2="172.60596" gradientUnits="userSpaceOnUse" id="color-28"><stop offset="0" stop-color="#000000"/><stop offset="1" stop-color="#ad0000"/></linearGradient><linearGradient x1="230.91918" y1="160.30443" x2="241.03916" y2="170.42442" gradientUnits="userSpaceOnUse" id="color-29"><stop offset="0" stop-color="#000000"/><stop offset="1" stop-color="#ad0000"/></linearGradient><linearGradient x1="229.07097" y1="198.36758" x2="239.19095" y2="188.24759" gradientUnits="userSpaceOnUse" id="color-30"><stop offset="0" stop-color="#000000"/><stop offset="1" stop-color="#ad0000"/></linearGradient><linearGradient x1="231.25251" y1="200.54913" x2="241.37249" y2="190.42914" gradientUnits="userSpaceOnUse" id="color-31"><stop offset="0" stop-color="#000000"/><stop offset="1" stop-color="#ad0000"/></linearGradient><linearGradient x1="106.81877" y1="171.94731" x2="121.02552" y2="172.09524" gradientUnits="userSpaceOnUse" id="color-32"><stop offset="0" stop-color="#f1f1f1"/><stop offset="1" stop-color="#e2e2e2"/></linearGradient><linearGradient x1="106.64434" y1="189.42353" x2="120.85107" y2="189.57147" gradientUnits="userSpaceOnUse" id="color-33"><stop offset="0" stop-color="#f1f1f1"/><stop offset="1" stop-color="#e2e2e2"/></linearGradient><linearGradient x1="123.48544" y1="171.94731" x2="137.69219" y2="172.09525" gradientUnits="userSpaceOnUse" id="color-34"><stop offset="0" stop-color="#f1f1f1"/><stop offset="1" stop-color="#e2e2e2"/></linearGradient><linearGradient x1="123.311" y1="189.42354" x2="137.51775" y2="189.57147" gradientUnits="userSpaceOnUse" id="color-35"><stop offset="0" stop-color="#f1f1f1"/><stop offset="1" stop-color="#e2e2e2"/></linearGradient><linearGradient x1="139.81877" y1="171.61397" x2="154.02552" y2="171.76191" gradientUnits="userSpaceOnUse" id="color-36"><stop offset="0" stop-color="#f1f1f1"/><stop offset="1" stop-color="#e2e2e2"/></linearGradient><linearGradient x1="139.64434" y1="189.0902" x2="153.85107" y2="189.23814" gradientUnits="userSpaceOnUse" id="color-37"><stop offset="0" stop-color="#f1f1f1"/><stop offset="1" stop-color="#e2e2e2"/></linearGradient><linearGradient x1="156.48544" y1="171.61397" x2="170.69219" y2="171.76191" gradientUnits="userSpaceOnUse" id="color-38"><stop offset="0" stop-color="#f1f1f1"/><stop offset="1" stop-color="#e2e2e2"/></linearGradient><linearGradient x1="156.311" y1="189.0902" x2="170.51775" y2="189.23814" gradientUnits="userSpaceOnUse" id="color-39"><stop offset="0" stop-color="#f1f1f1"/><stop offset="1" stop-color="#e2e2e2"/></linearGradient><linearGradient x1="309.41092" y1="90.63603" x2="323.72274" y2="90.63602" gradientUnits="userSpaceOnUse" id="color-40"><stop offset="0" stop-color="#000000"/><stop offset="1" stop-color="#ad0000"/></linearGradient><linearGradient x1="309.41092" y1="87.55085" x2="323.72274" y2="87.55086" gradientUnits="userSpaceOnUse" id="color-41"><stop offset="0" stop-color="#000000"/><stop offset="1" stop-color="#ad0000"/></linearGradient><linearGradient x1="314.41092" y1="98.30269" x2="328.72274" y2="98.30269" gradientUnits="userSpaceOnUse" id="color-42"><stop offset="0" stop-color="#000000"/><stop offset="1" stop-color="#ad0000"/></linearGradient><linearGradient x1="314.41092" y1="95.21752" x2="328.72274" y2="95.21752" gradientUnits="userSpaceOnUse" id="color-43"><stop offset="0" stop-color="#000000"/><stop offset="1" stop-color="#ad0000"/></linearGradient><linearGradient x1="311.07759" y1="269.55085" x2="325.3894" y2="269.55085" gradientUnits="userSpaceOnUse" id="color-44"><stop offset="0" stop-color="#000000"/><stop offset="1" stop-color="#ad0000"/></linearGradient><linearGradient x1="311.07759" y1="272.63602" x2="325.3894" y2="272.63602" gradientUnits="userSpaceOnUse" id="color-45"><stop offset="0" stop-color="#000000"/><stop offset="1" stop-color="#ad0000"/></linearGradient><linearGradient x1="316.07759" y1="261.88418" x2="330.3894" y2="261.88419" gradientUnits="userSpaceOnUse" id="color-46"><stop offset="0" stop-color="#000000"/><stop offset="1" stop-color="#ad0000"/></linearGradient><linearGradient x1="316.07759" y1="264.96936" x2="330.3894" y2="264.96935" gradientUnits="userSpaceOnUse" id="color-47"><stop offset="0" stop-color="#000000"/><stop offset="1" stop-color="#ad0000"/></linearGradient><linearGradient x1="453.76435" y1="185.74505" x2="502.70807" y2="185.74503" gradientUnits="userSpaceOnUse" id="color-48"><stop offset="0" stop-color="#000000"/><stop offset="1" stop-color="#ad0000"/></linearGradient><linearGradient x1="453.76435" y1="175.19433" x2="502.70807" y2="175.19433" gradientUnits="userSpaceOnUse" id="color-49"><stop offset="0" stop-color="#000000"/><stop offset="1" stop-color="#ad0000"/></linearGradient></defs><g transform="translate(210.4507,-38.36164)"><g data-paper-data="{&quot;isPaintingLayer&quot;:true}" fill-rule="nonzero" stroke-linejoin="miter" stroke-miterlimit="10" stroke-dasharray="" stroke-dashoffset="0" style="mix-blend-mode: normal"><path d="M-210.45045,306.87688v-253.75375h900.9009v253.75375z" fill="none" stroke="#000000" stroke-width="0.0005" stroke-linecap="butt"/><g><path d="M479.69188,180.89078c0,-29.54723 23.95277,-53.5 53.5,-53.5c29.54723,0 53.5,23.95277 53.5,53.5c0,29.54723 -23.95277,53.5 -53.5,53.5c-29.54723,0 -53.5,-23.95277 -53.5,-53.5z" fill="url(#color-1)" stroke="none" stroke-width="0" stroke-linecap="butt"/><g data-paper-data="{&quot;index&quot;:null}" stroke="none" stroke-width="0" stroke-linecap="butt"><path d="M524.40912,196.48934l-10.09999,-16.14779l38.36008,-0.00004l-9.71147,16.14783z" fill="url(#color-2)"/><path d="M542.95782,165.43577l9.71147,16.14783h-38.36005l10.09995,-16.14783z" data-paper-data="{&quot;index&quot;:null}" fill="url(#color-3)"/></g><g fill="#ffffff" stroke="#ffffff" stroke-width="2.5" stroke-linecap="round"><path d="M564.40177,180.20373l-14.8142,25.92485h-29.85987l-3.93502,-5.09238h31.01723l12.49948,-20.83247z"/><path d="M559.30939,181.12961l-12.49948,-20.83247h-31.01723l3.93502,-5.09238h29.85987l14.8142,25.92485z" data-paper-data="{&quot;index&quot;:null}"/></g><g stroke="none" stroke-width="0" stroke-linecap="butt"><path d="M526.45996,192.48934l-7.20961,-11.98783l28.47778,0.00003l-7.49804,11.98781z" fill="url(#color-4)"/><path d="M540.23004,169.43577l7.49801,11.98783h-28.47775l7.20961,-11.98783z" data-paper-data="{&quot;index&quot;:null}" fill="url(#color-5)"/></g></g><g stroke-width="0"><path d="M195.09723,258.24722v-154h76v154z" fill="#e6e6e6" stroke="none" stroke-linecap="butt"/><g><g><g><path d="M232.77066,123.08848l-151.26976,-0.6043l-14.38522,-13.86867l35.49849,-44.455l192.37416,-0.71516l34.327,40.04815l328.25181,28.89189l25.0301,45.05418h-113.70814l-16.44835,-27.17552h-36.47243l-17.16348,26.46039l-236.71319,0.71514z" fill="#ffffff" stroke="#000000" stroke-linecap="round"/><path d="M104.35287,61.88993h19.02287v14.01685l-14.01685,0.5006l-8.00963,9.51144l-11.01324,-7.50903z" fill="url(#color-6)" stroke="#000000" stroke-linecap="round"/><path d="M77.32036,93.42785l8.51024,6.50783l-1.5018,5.00602l11.51384,13.01565v5.50662h-17.52106l-13.01565,-15.51866z" fill="url(#color-7)" stroke="#000000" stroke-linecap="round"/><path d="M274.55752,60.38813l-6.00722,-22.02649h14.51745l31.03732,45.05418h-62.57524l-16.01926,-22.52709z" fill="url(#color-8)" stroke="#000000" stroke-linecap="round"/><g stroke="none" stroke-linecap="butt"><g><path d="M227.75124,80.77373l-11.68072,-18.91162h10.01204l11.68072,18.91162z" fill="url(#color-9)"/><path d="M212.73317,80.77374l-11.68072,-18.91162h10.01204l11.68072,18.91162z" fill="url(#color-10)"/></g><g><path d="M197.71512,80.77374l-11.68072,-18.91162h10.01204l11.68072,18.91162z" fill="url(#color-11)"/><path d="M182.69706,80.77374l-11.68072,-18.91162h10.01204l11.68072,18.91162z" fill="url(#color-12)"/></g></g></g><g stroke="#000000" stroke-linecap="round"><path d="M109.03706,181.67829h-77.27149l-0.1854,-5.03623l-11.32845,-0.02573l-4.00481,5.06197h-18.84408l10.51264,-11.81126l73.58848,-7.87418l8.00963,10.12394l19.52348,-0.56244z" fill="url(#color-13)"/><path d="M100.92017,182.32106l0.32772,-19.52997l7.16624,-8.31296l-0.41402,-25.50861l120.85962,-0.80347l26.46039,54.63712z" fill="url(#color-14)"/><path d="M109.03707,152.99379h-34.04093l11.51384,-18.56055h22.02649z" fill="url(#color-15)"/></g></g><g data-paper-data="{&quot;index&quot;:null}"><g><path d="M262.09162,183.89377l236.71319,0.71514l17.16348,26.46039h36.47243l16.44835,-27.17552h113.70814l-25.0301,45.05418l-328.25181,28.89189l-34.327,40.04815l-192.37416,-0.71516l-35.49849,-44.455l14.38522,-13.86867l151.26976,-0.6043z" fill="#ffffff" stroke="#000000" stroke-linecap="round"/><path d="M90.336,282.92355l11.01324,-7.50903l8.00963,9.51144l14.01685,0.5006v14.01685h-19.02287z" fill="url(#color-16)" stroke="#000000" stroke-linecap="round"/><path d="M65.3059,253.38804l13.01565,-15.51866h17.52106v5.50662l-11.51384,13.01565l1.5018,5.00602l-8.51024,6.50783z" fill="url(#color-17)" stroke="#000000" stroke-linecap="round"/><path d="M235.51057,300.44461l16.01926,-22.52709h62.57524l-31.03732,45.05418h-14.51745l6.00722,-22.02649z" fill="url(#color-18)" stroke="#000000" stroke-linecap="round"/><g stroke="none" stroke-linecap="butt"><g><path d="M237.76327,280.5596l-11.68072,18.91162h-10.01204l11.68072,-18.91162z" fill="url(#color-19)"/><path d="M222.74522,280.5596l-11.68072,18.91162h-10.01204l11.68072,-18.91162z" fill="url(#color-20)"/></g><g><path d="M207.72716,280.5596l-11.68072,18.91162h-10.01204l11.68072,-18.91162z" fill="url(#color-21)"/><path d="M192.7091,280.5596l-11.68072,18.91162h-10.01204l11.68072,-18.91162z" fill="url(#color-22)"/></g></g></g><g stroke="#000000" stroke-linecap="round"><path d="M109.03707,189.779l-19.52348,-0.56245l-8.00963,10.12395l-73.58848,-7.87417l-10.51264,-11.81128h18.84408l4.00481,5.06196l11.32845,-0.02573l0.1854,-5.03623h77.27149z" fill="url(#color-23)"/><path d="M255.3201,178.53018l-26.46039,54.63712l-120.85962,-0.80346l0.41402,-25.50862l-7.16624,-8.31297l-0.32772,-19.52996z" fill="url(#color-24)"/><path d="M108.53647,226.90011h-22.02649l-11.51384,-18.56057h34.04093z" fill="url(#color-25)"/></g></g></g></g><g data-paper-data="{&quot;index&quot;:null}" stroke="none" stroke-width="0" stroke-linecap="butt"><path d="M228.79952,184.98902l-3.03517,-5.04675l21.61046,0.00001l-3.15658,5.04674z" fill="url(#color-26)"/><path d="M244.21819,175.28373l3.15658,5.04674h-21.61045l3.03517,-5.04675z" data-paper-data="{&quot;index&quot;:null}" fill="url(#color-27)"/></g><g data-paper-data="{&quot;index&quot;:null}" stroke="none" stroke-width="0" stroke-linecap="butt"><path d="M228.97729,165.08901l0.942,-3.78469l10.11999,10.12l-3.84154,0.88514z" fill="url(#color-28)"/><path d="M240.74262,167.76454l-0.88515,3.84154l-10.11999,-10.11999l3.7847,-0.942z" data-paper-data="{&quot;index&quot;:null}" fill="url(#color-29)"/></g><g data-paper-data="{&quot;index&quot;:null}" stroke="none" stroke-width="0" stroke-linecap="butt"><path d="M236.53108,188.54409l3.84154,0.88514l-10.11999,10.12l-0.942,-3.78469z" fill="url(#color-30)"/><path d="M233.85553,200.30946l-3.7847,-0.942l10.11999,-10.11999l0.88515,3.84154z" data-paper-data="{&quot;index&quot;:null}" fill="url(#color-31)"/></g><g data-paper-data="{&quot;index&quot;:null}" stroke="none" stroke-width="0" stroke-linecap="butt"><g data-paper-data="{&quot;index&quot;:null}"><path d="M120.92266,182.40073l-14.20675,-0.14794l0.13132,-13.15595l14.28116,-7.30711z" fill="url(#color-32)"/><path d="M120.74822,199.87694l-14.13233,-7.60297l0.13132,-13.15595l14.20675,0.14794z" data-paper-data="{&quot;index&quot;:null}" fill="url(#color-33)"/></g><g data-paper-data="{&quot;index&quot;:null}"><path d="M137.58932,182.40074l-14.20675,-0.14794l0.13132,-13.15595l14.28116,-7.30711z" fill="url(#color-34)"/><path d="M137.41488,199.87694l-14.13233,-7.60297l0.13132,-13.15596l14.20675,0.14794z" data-paper-data="{&quot;index&quot;:null}" fill="url(#color-35)"/></g><g data-paper-data="{&quot;index&quot;:null}"><path d="M153.92266,182.0674l-14.20674,-0.14794l0.13132,-13.15595l14.28116,-7.30711z" fill="url(#color-36)"/><path d="M153.74823,199.5436l-14.13233,-7.60297l0.13132,-13.15596l14.20674,0.14794z" data-paper-data="{&quot;index&quot;:null}" fill="url(#color-37)"/></g><g data-paper-data="{&quot;index&quot;:null}"><path d="M170.58932,182.0674l-14.20674,-0.14794l0.13132,-13.15595l14.28116,-7.30711z" fill="url(#color-38)"/><path d="M170.41488,199.5436l-14.13233,-7.60297l0.13132,-13.15596l14.20674,0.14794z" data-paper-data="{&quot;index&quot;:null}" fill="url(#color-39)"/></g></g><g data-paper-data="{&quot;index&quot;:null}" stroke="none" stroke-width="0" stroke-linecap="butt"><path d="M311.42101,92.30717l-2.01009,-3.34227l14.31183,0.00001l-2.09049,3.34227z" fill="url(#color-40)"/><path d="M321.63225,85.87971l2.09048,3.34227h-14.31183l2.01009,-3.34228z" data-paper-data="{&quot;index&quot;:null}" fill="url(#color-41)"/></g><g data-paper-data="{&quot;index&quot;:null}" stroke="none" stroke-width="0" stroke-linecap="butt"><path d="M316.42101,99.97384l-2.01009,-3.34228l14.31183,0.00001l-2.09049,3.34227z" fill="url(#color-42)"/><path d="M326.63224,93.54638l2.09049,3.34227h-14.31183l2.01009,-3.34228z" data-paper-data="{&quot;index&quot;:null}" fill="url(#color-43)"/></g><g data-paper-data="{&quot;index&quot;:null}" stroke="none" stroke-width="0" stroke-linecap="butt"><path d="M323.29893,267.8797l2.09049,3.34227h-14.31183l2.01009,-3.34227z" fill="url(#color-44)"/><path d="M313.08766,274.30717l-2.01009,-3.34228h14.31183l-2.09049,3.34227z" data-paper-data="{&quot;index&quot;:null}" fill="url(#color-45)"/></g><g data-paper-data="{&quot;index&quot;:null}" stroke="none" stroke-width="0" stroke-linecap="butt"><path d="M328.29893,260.21303l2.09049,3.34227h-14.31183l2.01009,-3.34227z" fill="url(#color-46)"/><path d="M318.08766,266.64051l-2.01009,-3.34229h14.31183l-2.09049,3.34227z" data-paper-data="{&quot;index&quot;:null}" fill="url(#color-47)"/></g><g data-paper-data="{&quot;index&quot;:null}" stroke="none" stroke-width="0" stroke-linecap="butt"><path d="M460.63848,191.46007l-6.87411,-11.42997l48.94377,0.00002l-7.14908,11.42995z" fill="url(#color-48)"/><path d="M495.55899,169.47935l7.14908,11.42995h-48.94375l6.87411,-11.42997z" data-paper-data="{&quot;index&quot;:null}" fill="url(#color-49)"/></g></g></g></svg>