<svg version="1.1" xmlns="http://www.w3.org/2000/svg" xmlns:xlink="http://www.w3.org/1999/xlink" width="22.0233" height="25.46974" viewBox="0,0,22.0233,25.46974"><defs><linearGradient x1="242.47223" y1="180.09038" x2="251.01165" y2="180.09038" gradientUnits="userSpaceOnUse" id="color-1"><stop offset="0" stop-color="#cecece"/><stop offset="1" stop-color="#ffffff"/></linearGradient><linearGradient x1="234.61069" y1="192.73485" x2="234.61069" y2="182.50225" gradientUnits="userSpaceOnUse" id="color-2"><stop offset="0" stop-color="#ffffff"/><stop offset="1" stop-color="#e1e1e1"/></linearGradient><linearGradient x1="234.61069" y1="167.26513" x2="234.61069" y2="177.49774" gradientUnits="userSpaceOnUse" id="color-3"><stop offset="0" stop-color="#ffffff"/><stop offset="1" stop-color="#e1e1e1"/></linearGradient><linearGradient x1="234.07357" y1="181.17145" x2="244.63193" y2="181.17145" gradientUnits="userSpaceOnUse" id="color-4"><stop offset="0" stop-color="#000000"/><stop offset="1" stop-color="#ad0000"/></linearGradient><linearGradient x1="234.07357" y1="178.8954" x2="244.63193" y2="178.8954" gradientUnits="userSpaceOnUse" id="color-5"><stop offset="0" stop-color="#000000"/><stop offset="1" stop-color="#ad0000"/></linearGradient></defs><g transform="translate(-228.98834,-167.26513)"><g data-paper-data="{&quot;isPaintingLayer&quot;:true}" fill-rule="nonzero" stroke="none" stroke-width="0" stroke-linecap="butt" stroke-linejoin="miter" stroke-miterlimit="10" stroke-dasharray="" stroke-dashoffset="0" style="mix-blend-mode: normal"><path d="M242.47223,182.01893v-3.85707h8.53941v3.85707z" fill="url(#color-1)"/><g data-paper-data="{&quot;index&quot;:null}"><path d="M239.90668,184.48991l-5.8497,8.00249l-4.74229,0.24246l1.34126,-10.23261z" data-paper-data="{&quot;index&quot;:null}" fill="url(#color-2)"/><g fill="#ffffff"><path d="M246.47293,180.00065l-3.44341,6.6506l-6.03947,-0.01908l0.02105,-6.66141z"/><path d="M238.45018,179.9753l-0.02105,6.66141l-6.03947,-0.01908l-3.40132,-6.67222z" data-paper-data="{&quot;index&quot;:null}"/></g></g><g><path d="M230.65594,177.49774l-1.34125,-10.23261l4.74229,0.24246l5.8497,8.00249z" data-paper-data="{&quot;index&quot;:null}" fill="url(#color-3)"/><g fill="#ffffff"><path d="M237.0111,180.02923l-0.02105,-6.66141l6.03947,-0.01908l3.44341,6.6506z"/><path d="M228.98835,180.05458l3.40131,-6.67222l6.03947,-0.01908l0.02105,6.66141z" data-paper-data="{&quot;index&quot;:null}"/></g></g><g><path d="M235.55649,182.40432l-1.48291,-2.46572h10.55837l-1.54223,2.46572z" fill="url(#color-4)"/><path d="M243.0897,177.66254l1.54223,2.46572h-10.55837l1.48291,-2.46572z" data-paper-data="{&quot;index&quot;:null}" fill="url(#color-5)"/></g></g></g></svg>