<svg version="1.1" xmlns="http://www.w3.org/2000/svg" xmlns:xlink="http://www.w3.org/1999/xlink" width="333.89949" height="364.69306" viewBox="0,0,333.89949,364.69306"><defs><radialGradient cx="109.62107" cy="256.08377" r="35.50154" gradientUnits="userSpaceOnUse" id="color-1"><stop offset="0" stop-color="#cbcbcb"/><stop offset="1" stop-color="#9d9d9d"/></radialGradient><radialGradient cx="370.15758" cy="104.17776" r="35.50153" gradientUnits="userSpaceOnUse" id="color-2"><stop offset="0" stop-color="#cbcbcb"/><stop offset="1" stop-color="#9d9d9d"/></radialGradient><radialGradient cx="110.33925" cy="103.02062" r="35.50154" gradientUnits="userSpaceOnUse" id="color-3"><stop offset="0" stop-color="#cbcbcb"/><stop offset="1" stop-color="#9d9d9d"/></radialGradient><radialGradient cx="369.66969" cy="256.97658" r="35.50154" gradientUnits="userSpaceOnUse" id="color-4"><stop offset="0" stop-color="#cbcbcb"/><stop offset="1" stop-color="#9d9d9d"/></radialGradient><radialGradient cx="239.1054" cy="29.20916" r="35.50154" gradientUnits="userSpaceOnUse" id="color-5"><stop offset="0" stop-color="#cbcbcb"/><stop offset="1" stop-color="#9d9d9d"/></radialGradient><radialGradient cx="240.89461" cy="330.79084" r="35.50154" gradientUnits="userSpaceOnUse" id="color-6"><stop offset="0" stop-color="#cbcbcb"/><stop offset="1" stop-color="#9d9d9d"/></radialGradient><linearGradient x1="339.40018" y1="208.54149" x2="315.61465" y2="199.86383" gradientUnits="userSpaceOnUse" id="color-7"><stop offset="0" stop-color="#c2c2c2"/><stop offset="1" stop-color="#c2c2c2" stop-opacity="0"/></linearGradient><linearGradient x1="140.75844" y1="151.61769" x2="164.54396" y2="160.29533" gradientUnits="userSpaceOnUse" id="color-8"><stop offset="0" stop-color="#c2c2c2"/><stop offset="1" stop-color="#c2c2c2" stop-opacity="0"/></linearGradient><linearGradient x1="268.54121" y1="279.40046" x2="259.86355" y2="255.61492" gradientUnits="userSpaceOnUse" id="color-9"><stop offset="0" stop-color="#c2c2c2"/><stop offset="1" stop-color="#c2c2c2" stop-opacity="0"/></linearGradient><linearGradient x1="211.61741" y1="80.75872" x2="220.29506" y2="104.54424" gradientUnits="userSpaceOnUse" id="color-10"><stop offset="0" stop-color="#c2c2c2"/><stop offset="1" stop-color="#c2c2c2" stop-opacity="0"/></linearGradient><linearGradient x1="167.17894" y1="253.29335" x2="183.731" y2="234.13392" gradientUnits="userSpaceOnUse" id="color-11"><stop offset="0" stop-color="#c2c2c2"/><stop offset="1" stop-color="#c2c2c2" stop-opacity="0"/></linearGradient><linearGradient x1="312.97969" y1="106.86585" x2="296.42762" y2="126.02527" gradientUnits="userSpaceOnUse" id="color-12"><stop offset="0" stop-color="#c2c2c2"/><stop offset="1" stop-color="#c2c2c2" stop-opacity="0"/></linearGradient><radialGradient cx="240.09979" cy="180.07958" r="109.08078" gradientUnits="userSpaceOnUse" id="color-13"><stop offset="0" stop-color="#808080"/><stop offset="1" stop-color="#808080" stop-opacity="0"/></radialGradient></defs><g transform="translate(-73.06158,2.34964)"><g data-paper-data="{&quot;isPaintingLayer&quot;:true}" fill-rule="nonzero" stroke-linejoin="miter" stroke-miterlimit="10" stroke-dasharray="" stroke-dashoffset="0" style="mix-blend-mode: normal"><g stroke="#cbcbcb" stroke-width="0" stroke-linecap="round"><path d="M73.06158,255.81681l18.18185,30.25793l36.20193,0.71723l18.97919,-30.00449l-18.64561,-31.21701l-35.49051,-0.46958z" fill="url(#color-1)"/><path d="M333.5981,103.9108l18.18185,30.25792l36.20194,0.71724l18.97919,-30.00451l-18.64562,-31.21701l-35.4905,-0.46958z" fill="url(#color-2)"/></g><g stroke="#cbcbcb" stroke-width="0" stroke-linecap="round"><path d="M92.81505,70.93371l-17.61772,30.58983l16.95694,31.99307l35.44592,2.01634l18.23082,-31.46105l-16.82786,-31.25092z" fill="url(#color-3)"/><path d="M352.14549,224.88966l-17.61772,30.58983l16.95694,31.99308l35.44594,2.01634l18.23081,-31.46106l-16.82786,-31.25091z" fill="url(#color-4)"/></g><g stroke="#cbcbcb" stroke-width="0" stroke-linecap="round"><path d="M257.56372,-2.34964l-35.29398,0.67585l-18.67039,31.02436l16.54747,31.41115l36.35658,-0.59971l18.10103,-30.53113z" fill="url(#color-5)"/><path d="M259.35294,299.23204l-35.29398,0.67585l-18.67039,31.02437l16.54748,31.41116l36.35658,-0.59971l18.10101,-30.53112z" fill="url(#color-6)"/></g><g stroke="#cbcbcb" stroke-width="0" stroke-linecap="round"><g><path d="M179.3711,51.06328l-23.32215,14.43754l-0.18511,28.13466l23.50726,14.43755l24.06255,-14.80772v-27.57937z" fill="#cbcbcb"/><path d="M300.07359,251.92697l-23.32215,14.43754l-0.18511,28.13466l23.50727,14.43755l24.06255,-14.80772v-27.57937z" fill="#cbcbcb"/></g><g fill="#cbcbcb"><path d="M151.26653,291.57482l23.29163,14.48673l25.29145,-12.32623l2.49888,-27.47344l-23.95206,-14.98578l-24.71171,12.24554z"/><path d="M277.65151,94.23718l23.29163,14.48673l25.29145,-12.32623l2.49888,-27.47344l-23.95207,-14.98578l-24.71171,12.24553z"/></g><g fill="#cbcbcb"><path d="M98.15128,168.11581l0.86619,27.4156l24.28522,14.2064l24.24541,-13.16033l-0.81729,-28.24194l-23.89649,-13.76879z"/><path d="M332.4519,163.81125l0.86619,27.4156l24.28522,14.2064l24.24541,-13.16033l-0.8173,-28.24193l-23.89649,-13.76878z"/></g></g><path d="M241.42153,34.14291l119.40265,73.91602l0.94769,144.04133l-120.35038,73.91608l-123.1933,-75.81124v-141.1984z" fill="none" stroke="#cbcbcb" stroke-width="7.5" stroke-linecap="round"/><path d="M241.59379,46.95344l108.92123,67.42753l0.86447,131.39708l-109.78573,67.42753l-112.37908,-69.15635v-128.80376z" fill="none" stroke="#ededed" stroke-width="15" stroke-linecap="round"/><g fill="#ffffff" stroke="none" stroke-width="0" stroke-linecap="butt"><path d="M132.21391,118.82035l108.94166,-68.13993l0.00025,258.79761l-108.9419,-65.51884z"/><path d="M348.3803,243.95982l-108.9419,65.51878v-258.79733l108.9419,68.13971z" data-paper-data="{&quot;index&quot;:null}"/></g><g stroke="#000000" stroke-width="0" stroke-linecap="round"><g><path d="M320.3469,186.89268l15.84094,3.17002l3.42131,17.90601l-13.39184,13.07007l-15.29852,-6.96788z" fill="url(#color-7)"/><path d="M159.81174,173.26648l-15.84092,-3.17003l-3.42131,-17.90601l13.39184,-13.07007l15.29852,6.96788z" data-paper-data="{&quot;index&quot;:null}" fill="url(#color-8)"/></g><g data-paper-data="{&quot;index&quot;:null}"><path d="M274.07063,250.91906l6.96788,15.29852l-13.07007,13.39184l-17.90601,-3.42131l-3.17002,-15.84094z" fill="url(#color-9)"/><path d="M206.08799,109.24012l-6.96788,-15.29853l13.07007,-13.39184l17.90601,3.42131l3.17002,15.84094z" data-paper-data="{&quot;index&quot;:null}" fill="url(#color-10)"/></g><g data-paper-data="{&quot;index&quot;:null}"><path d="M194.74924,244.25766l-9.97104,13.53421l-18.06063,-4.89712l-5.72868,-17.30644l12.29375,-10.48084z" fill="url(#color-11)"/><path d="M285.40938,115.9015l9.97104,-13.53421l18.06063,4.89712l5.72868,17.30644l-12.29375,10.48084z" data-paper-data="{&quot;index&quot;:null}" fill="url(#color-12)"/></g></g><g fill="url(#color-13)" stroke="none" stroke-width="0" stroke-linecap="butt"><path d="M240.09979,70.9988c60.24364,0 109.08078,48.83713 109.08078,109.08078c0,60.24364 -48.83713,109.08078 -109.08078,109.08078c-60.24364,0 -109.08078,-48.83713 -109.08078,-109.08078c0,-60.24364 48.83713,-109.08078 109.08078,-109.08078z"/><path d="M240.09979,70.9988c60.24364,0 109.08078,48.83713 109.08078,109.08078c0,60.24364 -48.83713,109.08078 -109.08078,109.08078c-60.24364,0 -109.08078,-48.83713 -109.08078,-109.08078c0,-60.24364 48.83713,-109.08078 109.08078,-109.08078z"/></g></g></g></svg>