<svg version="1.1" xmlns="http://www.w3.org/2000/svg" xmlns:xlink="http://www.w3.org/1999/xlink" width="93.40353" height="84.88375" viewBox="0,0,93.40353,84.88375"><defs><linearGradient x1="272.35402" y1="186.95292" x2="207.84602" y2="186.95292" gradientUnits="userSpaceOnUse" id="color-1"><stop offset="0" stop-color="#000000"/><stop offset="1" stop-color="#ad0000"/></linearGradient><linearGradient x1="272.35402" y1="173.04703" x2="207.84602" y2="173.04703" gradientUnits="userSpaceOnUse" id="color-2"><stop offset="0" stop-color="#000000"/><stop offset="1" stop-color="#ad0000"/></linearGradient><linearGradient x1="193.49822" y1="160.37303" x2="239.78882" y2="160.37303" gradientUnits="userSpaceOnUse" id="color-3"><stop offset="0" stop-color="#ffffff"/><stop offset="1" stop-color="#bdbdbd"/></linearGradient><linearGradient x1="193.29822" y1="200.9035" x2="239.58882" y2="200.9035" gradientUnits="userSpaceOnUse" id="color-4"><stop offset="0" stop-color="#ffffff"/><stop offset="1" stop-color="#bdbdbd"/></linearGradient><linearGradient x1="252.28411" y1="222.44188" x2="252.28411" y2="207.62363" gradientUnits="userSpaceOnUse" id="color-5"><stop offset="0" stop-color="#ffffff"/><stop offset="1" stop-color="#e1e1e1"/></linearGradient><linearGradient x1="234.43756" y1="222.44188" x2="234.43756" y2="207.62363" gradientUnits="userSpaceOnUse" id="color-6"><stop offset="0" stop-color="#ffffff"/><stop offset="1" stop-color="#e1e1e1"/></linearGradient><linearGradient x1="252.28411" y1="137.55812" x2="252.28411" y2="152.37638" gradientUnits="userSpaceOnUse" id="color-7"><stop offset="0" stop-color="#ffffff"/><stop offset="1" stop-color="#e1e1e1"/></linearGradient><linearGradient x1="234.43756" y1="137.55812" x2="234.43756" y2="152.37638" gradientUnits="userSpaceOnUse" id="color-8"><stop offset="0" stop-color="#ffffff"/><stop offset="1" stop-color="#e1e1e1"/></linearGradient></defs><g transform="translate(-193.29823,-137.55812)"><g data-paper-data="{&quot;isPaintingLayer&quot;:true}" fill-rule="nonzero" stroke="none" stroke-linecap="butt" stroke-linejoin="miter" stroke-miterlimit="10" stroke-dasharray="" stroke-dashoffset="0" style="mix-blend-mode: normal"><g data-paper-data="{&quot;index&quot;:null}" stroke-width="0"><path d="M217.26848,194.48532l-9.42254,-15.06473h64.50808l-9.06011,15.06473z" fill="url(#color-1)"/><path d="M263.29395,165.51466l9.06011,15.06473h-64.50808l9.42253,-15.06473z" data-paper-data="{&quot;index&quot;:null}" fill="url(#color-2)"/></g><path d="M239.78882,169.17731h-46.29058v-11.23951l46.29058,-6.36906z" fill="url(#color-3)" stroke-width="0"/><path d="M239.58882,209.70778l-46.29058,-6.36906v-11.23951h46.29058z" data-paper-data="{&quot;index&quot;:null}" fill="url(#color-4)" stroke-width="0"/><g data-paper-data="{&quot;index&quot;:null}"><g stroke-width="0"><path d="M262.80797,207.62363l-7.61301,14.81825h-13.43472v-14.81825z" fill="url(#color-5)"/><path d="M244.96142,207.62363v14.81825h-13.43472l-7.61299,-14.81825z" data-paper-data="{&quot;index&quot;:null}" fill="url(#color-6)"/></g><path d="M286.70177,179.5771l-21.33148,31.0564h-53.00663l17.21489,-31.0564z" data-paper-data="{&quot;index&quot;:null}" fill="#ffffff" stroke-width="NaN"/></g><g><g stroke-width="0"><path d="M241.76024,152.37638v-14.81825h13.43472l7.61301,14.81825z" fill="url(#color-7)"/><path d="M223.9137,152.37638l7.61301,-14.81825h13.43472v14.81825z" data-paper-data="{&quot;index&quot;:null}" fill="url(#color-8)"/></g><path d="M229.5785,180.4229l-17.21489,-31.0564h53.00663l21.33148,31.0564z" data-paper-data="{&quot;index&quot;:null}" fill="#ffffff" stroke-width="NaN"/></g></g></g></svg>