<svg version="1.1" xmlns="http://www.w3.org/2000/svg" xmlns:xlink="http://www.w3.org/1999/xlink" width="240.12374" height="217.99261" viewBox="0,0,240.12374,217.99261"><defs><radialGradient cx="240.00001" cy="105.02473" r="12.08929" gradientUnits="userSpaceOnUse" id="color-1"><stop offset="0" stop-color="#b50000"/><stop offset="1" stop-color="#6f0000"/></radialGradient><radialGradient cx="240.00001" cy="254.97527" r="12.08929" gradientUnits="userSpaceOnUse" id="color-2"><stop offset="0" stop-color="#b50000"/><stop offset="1" stop-color="#6f0000"/></radialGradient><radialGradient cx="175.81695" cy="141.31895" r="12.08929" gradientUnits="userSpaceOnUse" id="color-3"><stop offset="0" stop-color="#b50000"/><stop offset="1" stop-color="#6f0000"/></radialGradient><radialGradient cx="304.19696" cy="218.80275" r="12.08929" gradientUnits="userSpaceOnUse" id="color-4"><stop offset="0" stop-color="#b50000"/><stop offset="1" stop-color="#6f0000"/></radialGradient><radialGradient cx="304.18306" cy="141.31895" r="12.08929" gradientUnits="userSpaceOnUse" id="color-5"><stop offset="0" stop-color="#b50000"/><stop offset="1" stop-color="#6f0000"/></radialGradient><radialGradient cx="175.80306" cy="218.80275" r="12.08929" gradientUnits="userSpaceOnUse" id="color-6"><stop offset="0" stop-color="#b50000"/><stop offset="1" stop-color="#6f0000"/></radialGradient><radialGradient cx="240.00001" cy="180" r="34.46957" gradientUnits="userSpaceOnUse" id="color-7"><stop offset="0" stop-color="#ff0000"/><stop offset="1" stop-color="#9e0000"/></radialGradient><radialGradient cx="240.00001" cy="180" r="51.3775" gradientUnits="userSpaceOnUse" id="color-8"><stop offset="0" stop-color="#ff0000"/><stop offset="1" stop-color="#ff0000" stop-opacity="0"/></radialGradient></defs><g transform="translate(-119.93813,-71.0037)"><g data-paper-data="{&quot;isPaintingLayer&quot;:true}" fill-rule="nonzero" stroke-linejoin="miter" stroke-miterlimit="10" stroke-dasharray="" stroke-dashoffset="0" style="mix-blend-mode: normal"><g fill="#e2e2e2" stroke="none" stroke-width="0" stroke-linecap="butt"><path d="M121.37107,194.48948l186.50775,-112.85226l50.75013,83.87332l-186.50775,112.85226z" data-paper-data="{&quot;index&quot;:null}"/><path d="M307.87883,278.3628l-186.50775,-112.85227l50.75013,-83.87332l186.50775,112.85227z"/><path d="M190.98392,288.9963v-217.99261h98.03218v217.99261z"/></g><g><g fill="#ffffff" stroke="none" stroke-width="0" stroke-linecap="butt"><path d="M183.16121,280.61957l-63.22308,-101.08061l240.1232,-0.00023l-60.79109,101.08082z"/><path d="M299.2708,78.97736l60.79108,101.08082h-240.12297l63.22285,-101.08082z" data-paper-data="{&quot;index&quot;:null}"/></g><path d="M136.93247,178.99611l52.20307,-84.32791l101.72893,-0.6693l52.20307,84.9972l-53.54156,87.00501h-99.72114z" fill="none" stroke="#ededed" stroke-width="7.5" stroke-linecap="round"/><path d="M151.9081,179.14196l44.61801,-72.07514l86.94782,-0.57205l44.61801,72.6472l-45.76203,74.36328h-85.23174z" fill="none" stroke="#cbcbcb" stroke-width="2.5" stroke-linecap="round"/><path d="M159.15437,179.21255l40.94782,-66.14639l79.79566,-0.52499l40.94782,66.67138l-41.99773,68.24629h-78.22076z" fill="none" stroke="#ededed" stroke-width="5" stroke-linecap="round"/></g><g stroke="#ededed" stroke-width="0" stroke-linecap="round"><g><path d="M227.91074,104.90698l6.12314,-9.8912l11.93227,-0.07851l6.12314,9.96971l-6.28015,10.20523h-11.69675z" fill="url(#color-1)"/><path d="M227.91074,254.85752l6.12314,-9.89122l11.93227,-0.07851l6.12314,9.96973l-6.28015,10.20523h-11.69675z" fill="url(#color-2)"/></g><g><path d="M169.46927,151.60833l-5.30435,-10.35339l6.09854,-10.25637l11.69956,-0.09068l5.49208,10.65008l-6.04405,10.01418z" fill="url(#color-3)"/><path d="M297.84926,229.09213l-5.30435,-10.35341l6.09854,-10.25637l11.69958,-0.09068l5.49206,10.65007l-6.04404,10.01416z" fill="url(#color-4)"/></g><g data-paper-data="{&quot;index&quot;:null}"><path d="M298.58899,151.57214l-6.04405,-10.01418l5.49208,-10.65008l11.69956,0.09068l6.09854,10.25637l-5.30435,10.35339z" fill="url(#color-5)"/><path d="M170.20897,229.05591l-6.04405,-10.01416l5.49206,-10.65007l11.69958,0.09068l6.09854,10.25637l-5.30435,10.35341z" fill="url(#color-6)"/></g></g><g stroke="#ededed" stroke-width="0" stroke-linecap="round"><path d="M205.53044,179.66426l17.45861,-28.20234l34.02189,-0.22383l17.45861,28.42619l-17.90625,29.09766h-33.3504z" fill="url(#color-7)"/><path d="M240.50044,128.6225l42.0361,26.02238l0.33363,50.71026l-42.36975,26.02238l-43.37061,-26.6896v-49.70939z" fill="url(#color-8)"/></g></g></g></svg>