<svg version="1.1" xmlns="http://www.w3.org/2000/svg" xmlns:xlink="http://www.w3.org/1999/xlink" width="295.77818" height="251.21031" viewBox="0,0,295.77818,251.21031"><defs><linearGradient x1="92.11091" y1="257.22164" x2="184.60307" y2="257.22164" gradientUnits="userSpaceOnUse" id="color-1"><stop offset="0" stop-color="#ffffff"/><stop offset="1" stop-color="#e1e1e1"/></linearGradient><linearGradient x1="270.63895" y1="305.36544" x2="268.08136" y2="264.06236" gradientUnits="userSpaceOnUse" id="color-2"><stop offset="0" stop-color="#ffffff"/><stop offset="1" stop-color="#e1e1e1"/></linearGradient><linearGradient x1="376.65825" y1="214.67626" x2="329.22676" y2="214.66492" gradientUnits="userSpaceOnUse" id="color-3"><stop offset="0" stop-color="#ffffff"/><stop offset="1" stop-color="#e1e1e1"/></linearGradient><linearGradient x1="227.09448" y1="227.30279" x2="165.91049" y2="217.62788" gradientUnits="userSpaceOnUse" id="color-4"><stop offset="0" stop-color="#e1e1e1" stop-opacity="0"/><stop offset="1" stop-color="#e1e1e1"/></linearGradient><linearGradient x1="212.91592" y1="277.53794" x2="212.91592" y2="236.27488" gradientUnits="userSpaceOnUse" id="color-5"><stop offset="0" stop-color="#e1e1e1" stop-opacity="0"/><stop offset="1" stop-color="#e1e1e1"/></linearGradient><linearGradient x1="308.96082" y1="207.43532" x2="322.88449" y2="193.51162" gradientUnits="userSpaceOnUse" id="color-6"><stop offset="0" stop-color="#000000"/><stop offset="1" stop-color="#ad0000"/></linearGradient><linearGradient x1="311.96233" y1="210.43682" x2="325.886" y2="196.51313" gradientUnits="userSpaceOnUse" id="color-7"><stop offset="0" stop-color="#000000"/><stop offset="1" stop-color="#ad0000"/></linearGradient><linearGradient x1="92.11091" y1="102.77838" x2="184.60307" y2="102.77838" gradientUnits="userSpaceOnUse" id="color-8"><stop offset="0" stop-color="#ffffff"/><stop offset="1" stop-color="#e1e1e1"/></linearGradient><linearGradient x1="270.63895" y1="54.63457" x2="268.08136" y2="95.93766" gradientUnits="userSpaceOnUse" id="color-9"><stop offset="0" stop-color="#ffffff"/><stop offset="1" stop-color="#e1e1e1"/></linearGradient><linearGradient x1="376.65825" y1="145.32375" x2="329.22676" y2="145.33509" gradientUnits="userSpaceOnUse" id="color-10"><stop offset="0" stop-color="#ffffff"/><stop offset="1" stop-color="#e1e1e1"/></linearGradient><linearGradient x1="227.09448" y1="132.69722" x2="165.91049" y2="142.37214" gradientUnits="userSpaceOnUse" id="color-11"><stop offset="0" stop-color="#e1e1e1" stop-opacity="0"/><stop offset="1" stop-color="#e1e1e1"/></linearGradient><linearGradient x1="212.91592" y1="82.46207" x2="212.91592" y2="123.72513" gradientUnits="userSpaceOnUse" id="color-12"><stop offset="0" stop-color="#e1e1e1" stop-opacity="0"/><stop offset="1" stop-color="#e1e1e1"/></linearGradient><linearGradient x1="308.96081" y1="152.56471" x2="322.88449" y2="166.48838" gradientUnits="userSpaceOnUse" id="color-13"><stop offset="0" stop-color="#000000"/><stop offset="1" stop-color="#ad0000"/></linearGradient><linearGradient x1="311.96233" y1="149.5632" x2="325.886" y2="163.48687" gradientUnits="userSpaceOnUse" id="color-14"><stop offset="0" stop-color="#000000"/><stop offset="1" stop-color="#ad0000"/></linearGradient><linearGradient x1="278.61757" y1="184.59874" x2="322.75617" y2="184.59874" gradientUnits="userSpaceOnUse" id="color-15"><stop offset="0" stop-color="#000000"/><stop offset="1" stop-color="#ad0000"/></linearGradient><linearGradient x1="278.61757" y1="175.08385" x2="322.75617" y2="175.08385" gradientUnits="userSpaceOnUse" id="color-16"><stop offset="0" stop-color="#000000"/><stop offset="1" stop-color="#ad0000"/></linearGradient><linearGradient x1="248.37294" y1="182.44435" x2="274.60176" y2="182.44435" gradientUnits="userSpaceOnUse" id="color-17"><stop offset="0" stop-color="#000000"/><stop offset="1" stop-color="#ad0000"/></linearGradient><linearGradient x1="248.37294" y1="176.79025" x2="274.60176" y2="176.79025" gradientUnits="userSpaceOnUse" id="color-18"><stop offset="0" stop-color="#000000"/><stop offset="1" stop-color="#ad0000"/></linearGradient><linearGradient x1="334.26357" y1="180.20139" x2="371.44567" y2="180.20139" gradientUnits="userSpaceOnUse" id="color-19"><stop offset="0" stop-color="#e2e2e2"/><stop offset="1" stop-color="#ffffff"/></linearGradient></defs><g transform="translate(-92.11091,-54.39485)"><g data-paper-data="{&quot;isPaintingLayer&quot;:true}" fill-rule="nonzero" stroke-linejoin="miter" stroke-miterlimit="10" stroke-dasharray="" stroke-dashoffset="0" style="mix-blend-mode: normal"><path d="M174.87102,191.08395v-19.95136h156.10087v19.95136z" fill="#ffffff" stroke="none" stroke-width="0" stroke-linecap="butt"/><path d="M330.33376,189.87477v-19.95136h28.41558v19.95136z" fill="#e2e2e2" stroke="none" stroke-width="0" stroke-linecap="butt"/><path d="M352.21966,191.39318v-22.32369h35.66943v22.32369z" fill="#ffffff" stroke="none" stroke-width="0" stroke-linecap="butt"/><g data-paper-data="{&quot;index&quot;:null}"><path d="M184.60307,226.86997l-0.24775,39.78235l-51.07171,19.51026l-41.17269,1.40127l1.54307,-35.21903z" data-paper-data="{&quot;index&quot;:null}" fill="url(#color-1)" stroke="none" stroke-width="0" stroke-linecap="butt"/><path d="M329.55277,263.19556l2.55759,41.30309l-78.47399,1.10651l-47.02614,-40.67606z" data-paper-data="{&quot;index&quot;:null}" fill="url(#color-2)" stroke="none" stroke-width="0" stroke-linecap="butt"/><path d="M329.23497,181.67807l47.43151,0.01134l-47.44792,65.96242z" data-paper-data="{&quot;index&quot;:null}" fill="url(#color-3)" stroke="none" stroke-width="0" stroke-linecap="butt"/><path d="M330.68819,182.2691l30.42125,36.18952l-17.08693,49.34854l-179.22889,23.66695l-36.93711,-112.23205z" data-paper-data="{&quot;index&quot;:null}" fill="#ffffff" stroke="none" stroke-width="NaN" stroke-linecap="butt"/><path d="M162.73565,237.70563l-1.9565,-7.55103l50.72863,-6.95649l14.05583,7.16929z" data-paper-data="{&quot;index&quot;:null}" fill="url(#color-4)" stroke="none" stroke-width="0" stroke-linecap="butt"/><path d="M231.07872,236.27488l31.03546,27.86138l-89.22695,13.40167l-9.16957,-34.56221z" fill="url(#color-5)" stroke="#000000" stroke-width="0" stroke-linecap="round"/><g stroke="none" stroke-width="0" stroke-linecap="butt"><path d="M319.22487,193.91958l5.28545,1.21783l-13.9237,13.92371l-1.29608,-5.20722z" fill="url(#color-6)"/><path d="M315.54371,210.10709l-5.20722,-1.29608l13.9237,-13.92368l1.21785,5.28543z" data-paper-data="{&quot;index&quot;:null}" fill="url(#color-7)"/></g></g><g><path d="M93.65398,107.65519l-1.54307,-35.21903l41.17269,1.40127l51.07171,19.51026l0.24775,39.78235z" data-paper-data="{&quot;index&quot;:null}" fill="url(#color-8)" stroke="none" stroke-width="0" stroke-linecap="butt"/><path d="M206.61023,95.07091l47.02614,-40.67606l78.47399,1.10651l-2.55759,41.30309z" data-paper-data="{&quot;index&quot;:null}" fill="url(#color-9)" stroke="none" stroke-width="0" stroke-linecap="butt"/><path d="M329.21854,112.34819l47.44792,65.96242l-47.43151,0.01134z" data-paper-data="{&quot;index&quot;:null}" fill="url(#color-10)" stroke="none" stroke-width="0" stroke-linecap="butt"/><path d="M127.85651,180.75797l36.93711,-112.23205l179.22889,23.66695l17.08693,49.34854l-30.42125,36.18952z" data-paper-data="{&quot;index&quot;:null}" fill="#ffffff" stroke="none" stroke-width="NaN" stroke-linecap="butt"/><path d="M225.5636,129.6326l-14.05583,7.16929l-50.72863,-6.95649l1.9565,-7.55103z" data-paper-data="{&quot;index&quot;:null}" fill="url(#color-11)" stroke="none" stroke-width="0" stroke-linecap="butt"/><path d="M163.71767,117.02428l9.16957,-34.56221l89.22695,13.40167l-31.03546,27.86138z" fill="url(#color-12)" stroke="#000000" stroke-width="0" stroke-linecap="round"/><g stroke="none" stroke-width="0" stroke-linecap="butt"><path d="M309.29056,156.1461l1.29606,-5.20721l13.9237,13.9237l-5.28545,1.21784z" fill="url(#color-13)"/><path d="M325.47804,159.82727l-1.21785,5.28543l-13.9237,-13.9237l5.20721,-1.29606z" data-paper-data="{&quot;index&quot;:null}" fill="url(#color-14)"/></g></g><g stroke="none" stroke-width="0" stroke-linecap="butt"><path d="M284.8168,189.75267l-6.19924,-10.3078h44.13867l-6.44722,10.3078z" fill="url(#color-15)"/><path d="M316.30896,169.92993l6.44722,10.3078h-44.13867l6.19924,-10.3078z" data-paper-data="{&quot;index&quot;:null}" fill="url(#color-16)"/></g><g stroke="none" stroke-width="0" stroke-linecap="butt"><path d="M252.05676,185.50702l-3.68382,-6.12528h26.22885l-3.83118,6.12528z" fill="url(#color-17)"/><path d="M270.77058,173.7276l3.83118,6.12528h-26.22885l3.68382,-6.12528z" data-paper-data="{&quot;index&quot;:null}" fill="url(#color-18)"/></g><path d="M334.26357,184.73579v-9.0688h37.18209v9.0688z" fill="url(#color-19)" stroke="none" stroke-width="0" stroke-linecap="butt"/></g></g></svg>