<svg version="1.1" xmlns="http://www.w3.org/2000/svg" xmlns:xlink="http://www.w3.org/1999/xlink" width="30.43846" height="25.05" viewBox="0,0,30.43846,25.05"><defs><radialGradient cx="240" cy="180" r="12.525" gradientUnits="userSpaceOnUse" id="color-1"><stop offset="0" stop-color="#ff0000"/><stop offset="1" stop-color="#ff0000" stop-opacity="0"/></radialGradient><radialGradient cx="240.12561" cy="180.0818" r="10.53964" gradientUnits="userSpaceOnUse" id="color-2"><stop offset="0" stop-color="#ffffff"/><stop offset="1" stop-color="#ff0000"/></radialGradient></defs><g transform="translate(-225.14544,-167.475)"><g data-paper-data="{&quot;isPaintingLayer&quot;:true}" fill-rule="nonzero" stroke-width="0" stroke-linejoin="miter" stroke-miterlimit="10" stroke-dasharray="" stroke-dashoffset="0" style="mix-blend-mode: normal"><path d="M227.475,180c0,-6.91736 5.60764,-12.525 12.525,-12.525c6.91736,0 12.525,5.60764 12.525,12.525c0,6.91736 -5.60764,12.525 -12.525,12.525c-6.91736,0 -12.525,-5.60764 -12.525,-12.525z" fill="url(#color-1)" stroke="none" stroke-linecap="butt"/><path d="M247.80207,184.91901l-14.87557,0.07629l-7.78106,-4.57709l7.78183,-5.33716l14.87557,-0.07629l7.78106,4.57709z" data-paper-data="{&quot;index&quot;:null}" fill="#ff0000" stroke="#ff0000" stroke-linecap="round"/><path d="M245.37342,183.37738l-10.30164,0.05283l-5.38855,-3.16974l5.38908,-3.69609l10.30164,-0.05283l5.38855,3.16974z" data-paper-data="{&quot;index&quot;:null}" fill="url(#color-2)" stroke="#ff0000" stroke-linecap="round"/></g></g></svg>