<svg version="1.1" xmlns="http://www.w3.org/2000/svg" xmlns:xlink="http://www.w3.org/1999/xlink" width="203.0005" height="196.36918" viewBox="0,0,203.0005,196.36918"><defs><linearGradient x1="166.8063" y1="211.4693" x2="195.81503" y2="195.34419" gradientUnits="userSpaceOnUse" id="color-1"><stop offset="0" stop-color="#e1e1e1"/><stop offset="1" stop-color="#a4a4a4"/></linearGradient><linearGradient x1="182.38415" y1="191.85766" x2="235.64432" y2="191.85766" gradientUnits="userSpaceOnUse" id="color-2"><stop offset="0" stop-color="#e2e2e2"/><stop offset="1" stop-color="#868686"/></linearGradient><linearGradient x1="181.74604" y1="245.1696" x2="218.93003" y2="201.14942" gradientUnits="userSpaceOnUse" id="color-3"><stop offset="0" stop-color="#f1f1f1"/><stop offset="1" stop-color="#adadad"/></linearGradient><linearGradient x1="195.01748" y1="195.5582" x2="264.64432" y2="195.5582" gradientUnits="userSpaceOnUse" id="color-4"><stop offset="0" stop-color="#f1f1f1"/><stop offset="1" stop-color="#9c9c9c"/></linearGradient><linearGradient x1="224.96667" y1="276.97854" x2="243.94762" y2="203.92187" gradientUnits="userSpaceOnUse" id="color-5"><stop offset="0" stop-color="#ffffff"/><stop offset="1" stop-color="#e1e1e1"/></linearGradient><linearGradient x1="255.58933" y1="196.32007" x2="265.56014" y2="186.34926" gradientUnits="userSpaceOnUse" id="color-6"><stop offset="0" stop-color="#000000"/><stop offset="1" stop-color="#ad0000"/></linearGradient><linearGradient x1="257.73873" y1="198.46946" x2="267.70953" y2="188.49866" gradientUnits="userSpaceOnUse" id="color-7"><stop offset="0" stop-color="#000000"/><stop offset="1" stop-color="#ad0000"/></linearGradient><linearGradient x1="240.7" y1="196.2" x2="240.7" y2="208.6" gradientUnits="userSpaceOnUse" id="color-8"><stop offset="0" stop-color="#c8c8c8"/><stop offset="1" stop-color="#c8c8c8" stop-opacity="0"/></linearGradient><linearGradient x1="166.8063" y1="148.5307" x2="195.81503" y2="164.65581" gradientUnits="userSpaceOnUse" id="color-9"><stop offset="0" stop-color="#e1e1e1"/><stop offset="1" stop-color="#a4a4a4"/></linearGradient><linearGradient x1="182.38415" y1="168.14234" x2="235.64432" y2="168.14234" gradientUnits="userSpaceOnUse" id="color-10"><stop offset="0" stop-color="#e2e2e2"/><stop offset="1" stop-color="#868686"/></linearGradient><linearGradient x1="181.74604" y1="114.8304" x2="218.93003" y2="158.85058" gradientUnits="userSpaceOnUse" id="color-11"><stop offset="0" stop-color="#f1f1f1"/><stop offset="1" stop-color="#adadad"/></linearGradient><linearGradient x1="195.01748" y1="164.4418" x2="264.64432" y2="164.4418" gradientUnits="userSpaceOnUse" id="color-12"><stop offset="0" stop-color="#f1f1f1"/><stop offset="1" stop-color="#9c9c9c"/></linearGradient><linearGradient x1="224.96667" y1="83.02146" x2="243.94762" y2="156.07813" gradientUnits="userSpaceOnUse" id="color-13"><stop offset="0" stop-color="#ffffff"/><stop offset="1" stop-color="#e1e1e1"/></linearGradient><linearGradient x1="255.58933" y1="163.67993" x2="265.56014" y2="173.65074" gradientUnits="userSpaceOnUse" id="color-14"><stop offset="0" stop-color="#000000"/><stop offset="1" stop-color="#ad0000"/></linearGradient><linearGradient x1="257.73873" y1="161.53054" x2="267.70953" y2="171.50134" gradientUnits="userSpaceOnUse" id="color-15"><stop offset="0" stop-color="#000000"/><stop offset="1" stop-color="#ad0000"/></linearGradient><linearGradient x1="240.7" y1="163.8" x2="240.7" y2="151.4" gradientUnits="userSpaceOnUse" id="color-16"><stop offset="0" stop-color="#c8c8c8"/><stop offset="1" stop-color="#c8c8c8" stop-opacity="0"/></linearGradient><linearGradient x1="223.65723" y1="184.79044" x2="179.06315" y2="184.79044" gradientUnits="userSpaceOnUse" id="color-17"><stop offset="0" stop-color="#000000"/><stop offset="1" stop-color="#ad0000"/></linearGradient><linearGradient x1="223.65723" y1="175.17738" x2="179.06315" y2="175.17738" gradientUnits="userSpaceOnUse" id="color-18"><stop offset="0" stop-color="#000000"/><stop offset="1" stop-color="#ad0000"/></linearGradient></defs><g transform="translate(-138.49975,-81.81541)"><g data-paper-data="{&quot;isPaintingLayer&quot;:true}" fill-rule="nonzero" stroke-linejoin="miter" stroke-miterlimit="10" stroke-dasharray="" stroke-dashoffset="0" style="mix-blend-mode: normal"><path d="M138.5,193v-26h203v26z" fill="none" stroke="#000000" stroke-width="0.0005" stroke-linecap="butt"/><g data-paper-data="{&quot;index&quot;:null}"><path d="M199.5193,202.00812l-25.25186,8.26214l-16.15759,-5.20273l4.39559,-6.15962l14.11968,-0.18777l15.48563,-10.03986z" data-paper-data="{&quot;index&quot;:null}" fill="url(#color-1)" stroke="none" stroke-width="0" stroke-linecap="butt"/><path d="M235.64433,179.81541l-14.05054,20.45612l-25.85802,3.62838l-13.35162,-24.08449z" data-paper-data="{&quot;index&quot;:null}" fill="url(#color-2)" stroke="none" stroke-width="NaN" stroke-linecap="butt"/><path d="M229.04239,209.69136l-35.91943,28.94324l-29.43363,1.48856l3.34909,-12.70409l22.80993,-8.98764l18.96931,-25.82396z" data-paper-data="{&quot;index&quot;:null}" fill="url(#color-3)" stroke="none" stroke-width="0" stroke-linecap="butt"/><path d="M264.64433,179.81541l-18.36822,26.74221l-33.8041,4.74337l-17.45453,-31.48557z" data-paper-data="{&quot;index&quot;:null}" fill="url(#color-4)" stroke="none" stroke-width="NaN" stroke-linecap="butt"/><path d="M260.73027,208.2822l-31.1216,69.90239l-21.42466,-5.56637l18.98095,-73.05667z" data-paper-data="{&quot;index&quot;:null}" fill="url(#color-5)" stroke="none" stroke-width="0" stroke-linecap="butt"/><path d="M284.98252,179.81543l-19.76979,28.78275l-36.38349,5.1053l-18.78639,-33.88806z" data-paper-data="{&quot;index&quot;:null}" fill="#ffffff" stroke="none" stroke-width="NaN" stroke-linecap="butt"/><g stroke="none" stroke-width="0" stroke-linecap="butt"><path d="M262.93947,186.64139l3.78492,0.8721l-9.97082,9.97082l-0.92811,-3.7289z" fill="url(#color-6)"/><path d="M260.30337,198.23332l-3.7289,-0.92811l9.97081,-9.97081l0.8721,3.78492z" data-paper-data="{&quot;index&quot;:null}" fill="url(#color-7)"/></g><path d="M243.7,197l12.2,7.8l-24.2,3.8l-6.2,-12.4z" data-paper-data="{&quot;index&quot;:null}" fill="url(#color-8)" stroke="#000000" stroke-width="0" stroke-linecap="round"/></g><g><path d="M192.11075,171.31972l-15.48563,-10.03986l-14.11968,-0.18777l-4.39559,-6.15962l16.15759,-5.20273l25.25186,8.26214z" data-paper-data="{&quot;index&quot;:null}" fill="url(#color-9)" stroke="none" stroke-width="0" stroke-linecap="butt"/><path d="M182.38415,180.18458l13.35162,-24.08449l25.85802,3.62838l14.05054,20.45612z" data-paper-data="{&quot;index&quot;:null}" fill="url(#color-10)" stroke="none" stroke-width="NaN" stroke-linecap="butt"/><path d="M208.81766,167.39253l-18.96931,-25.82396l-22.80993,-8.98764l-3.34909,-12.70409l29.43363,1.48856l35.91943,28.94324z" data-paper-data="{&quot;index&quot;:null}" fill="url(#color-11)" stroke="none" stroke-width="0" stroke-linecap="butt"/><path d="M195.01748,180.18458l17.45453,-31.48557l33.8041,4.74337l18.36822,26.74221z" data-paper-data="{&quot;index&quot;:null}" fill="url(#color-12)" stroke="none" stroke-width="NaN" stroke-linecap="butt"/><path d="M227.16496,160.43845l-18.98095,-73.05667l21.42466,-5.56637l31.1216,69.90239z" data-paper-data="{&quot;index&quot;:null}" fill="url(#color-13)" stroke="none" stroke-width="0" stroke-linecap="butt"/><path d="M210.04285,180.18458l18.78639,-33.88806l36.38349,5.1053l19.76979,28.78275z" data-paper-data="{&quot;index&quot;:null}" fill="#ffffff" stroke="none" stroke-width="NaN" stroke-linecap="butt"/><g stroke="none" stroke-width="0" stroke-linecap="butt"><path d="M255.82546,166.24459l0.92811,-3.7289l9.97082,9.97082l-3.78492,0.8721z" fill="url(#color-14)"/><path d="M267.41738,168.88068l-0.8721,3.78492l-9.97081,-9.97081l3.7289,-0.92811z" data-paper-data="{&quot;index&quot;:null}" fill="url(#color-15)"/></g><path d="M225.5,163.8l6.2,-12.4l24.2,3.8l-12.2,7.8z" data-paper-data="{&quot;index&quot;:null}" fill="url(#color-16)" stroke="#000000" stroke-width="0" stroke-linecap="round"/></g><g data-paper-data="{&quot;index&quot;:null}" stroke="none" stroke-width="0" stroke-linecap="butt"><path d="M185.57685,189.99756l-6.51373,-10.41416h44.59411l-6.2632,10.41416z" fill="url(#color-17)"/><path d="M217.39406,169.97029l6.26321,10.41416h-44.59411l6.51374,-10.41416z" data-paper-data="{&quot;index&quot;:null}" fill="url(#color-18)"/></g></g></g></svg>