<svg version="1.1" xmlns="http://www.w3.org/2000/svg" xmlns:xlink="http://www.w3.org/1999/xlink" width="313" height="313" viewBox="0,0,313,313"><g transform="translate(-79.5,-23.5)"><g data-paper-data="{&quot;isPaintingLayer&quot;:true}" fill-rule="nonzero" stroke-width="0" stroke-linejoin="miter" stroke-miterlimit="10" stroke-dasharray="" stroke-dashoffset="0" style="mix-blend-mode: normal"><path d="M79.5,180c0,-86.43256 70.06744,-156.5 156.5,-156.5c86.43256,0 156.5,70.06744 156.5,156.5c0,86.43256 -70.06744,156.5 -156.5,156.5c-86.43256,0 -156.5,-70.06744 -156.5,-156.5z" fill="#000b3a" stroke="none" stroke-linecap="butt"/><path d="M119.76577,178.82887l60.8979,-98.37337l118.67267,-0.78076l60.8979,99.15415l-62.4593,101.49637h-116.3305z" fill="#ffffff" stroke="#ededed" stroke-linecap="round"/><path d="M158.76577,179.20874l41.14464,-66.46431l80.17919,-0.5275l41.14464,66.99183l-42.19957,68.57431h-78.59674z" fill="#000b3a" stroke="#ededed" stroke-linecap="round"/><path d="M243,218.5v-77h126v77z" fill="#000b3a" stroke="none" stroke-linecap="butt"/><path d="M187.76577,179.49122l26.45631,-42.73706l51.55583,-0.33919l26.45631,43.07626l-27.13465,44.09381h-50.5383z" fill="#ff0000" stroke="#ededed" stroke-linecap="round"/></g></g></svg>