<svg version="1.1" xmlns="http://www.w3.org/2000/svg" xmlns:xlink="http://www.w3.org/1999/xlink" width="42.5" height="42.5" viewBox="0,0,42.5,42.5"><defs><radialGradient cx="240" cy="180" r="21.25" gradientUnits="userSpaceOnUse" id="color-1"><stop offset="0" stop-color="#00deff"/><stop offset="1" stop-color="#00deff" stop-opacity="0"/></radialGradient><radialGradient cx="240" cy="180" r="8.55183" gradientUnits="userSpaceOnUse" id="color-2"><stop offset="0" stop-color="#ffffff"/><stop offset="1" stop-color="#7feeff"/></radialGradient></defs><g transform="translate(-218.75,-158.75)"><g data-paper-data="{&quot;isPaintingLayer&quot;:true}" fill-rule="nonzero" stroke="none" stroke-width="0" stroke-linecap="butt" stroke-linejoin="miter" stroke-miterlimit="10" stroke-dasharray="" stroke-dashoffset="0" style="mix-blend-mode: normal"><path d="M218.75,180c0,-11.73605 9.51395,-21.25 21.25,-21.25c11.73605,0 21.25,9.51395 21.25,21.25c0,11.73605 -9.51395,21.25 -21.25,21.25c-11.73605,0 -21.25,-9.51395 -21.25,-21.25z" fill="url(#color-1)"/><path d="M228.59756,180c0,-6.2974 5.10504,-11.40244 11.40244,-11.40244c6.2974,0 11.40244,5.10504 11.40244,11.40244c0,6.2974 -5.10504,11.40244 -11.40244,11.40244c-6.2974,0 -11.40244,-5.10504 -11.40244,-11.40244z" fill="#00deff"/><path d="M231.44817,180c0,-4.72303 3.82879,-8.55183 8.55183,-8.55183c4.72303,0 8.55183,3.82879 8.55183,8.55183c0,4.72303 -3.82879,8.55183 -8.55183,8.55183c-4.72303,0 -8.55183,-3.82879 -8.55183,-8.55183z" fill="url(#color-2)"/></g></g></svg>