<svg version="1.1" xmlns="http://www.w3.org/2000/svg" xmlns:xlink="http://www.w3.org/1999/xlink" width="59.0005" height="59.0005" viewBox="0,0,59.0005,59.0005"><defs><linearGradient x1="243.68303" y1="179.92848" x2="261.34727" y2="179.92848" gradientUnits="userSpaceOnUse" id="color-1"><stop offset="0" stop-color="#cecece"/><stop offset="1" stop-color="#ffffff"/></linearGradient><linearGradient x1="236.85408" y1="155.46012" x2="236.85408" y2="170.00154" gradientUnits="userSpaceOnUse" id="color-2"><stop offset="0" stop-color="#ffffff"/><stop offset="1" stop-color="#e1e1e1"/></linearGradient><linearGradient x1="233.5952" y1="174.43494" x2="252.03589" y2="174.43494" gradientUnits="userSpaceOnUse" id="color-3"><stop offset="0" stop-color="#cccccc"/><stop offset="1" stop-color="#ffffff"/></linearGradient><linearGradient x1="236.85408" y1="204.26579" x2="236.85408" y2="189.72437" gradientUnits="userSpaceOnUse" id="color-4"><stop offset="0" stop-color="#ffffff"/><stop offset="1" stop-color="#e1e1e1"/></linearGradient><linearGradient x1="233.5952" y1="185.29097" x2="252.03589" y2="185.29097" gradientUnits="userSpaceOnUse" id="color-5"><stop offset="0" stop-color="#cccccc"/><stop offset="1" stop-color="#ffffff"/></linearGradient><linearGradient x1="231.10531" y1="181.56439" x2="246.03409" y2="181.56439" gradientUnits="userSpaceOnUse" id="color-6"><stop offset="0" stop-color="#000000"/><stop offset="1" stop-color="#006464"/></linearGradient><linearGradient x1="231.10531" y1="178.34621" x2="246.03409" y2="178.34621" gradientUnits="userSpaceOnUse" id="color-7"><stop offset="0" stop-color="#000000"/><stop offset="1" stop-color="#006464"/></linearGradient></defs><g transform="translate(-210.49975,-150.49975)"><g data-paper-data="{&quot;isPaintingLayer&quot;:true}" fill-rule="nonzero" stroke-linecap="butt" stroke-linejoin="miter" stroke-miterlimit="10" stroke-dasharray="" stroke-dashoffset="0" style="mix-blend-mode: normal"><path d="M210.5,209.5v-59h59v59z" fill="none" stroke="#000000" stroke-width="0.0005"/><path d="M243.68303,183.25394v-6.65091h17.66424v6.65091z" fill="url(#color-1)" stroke="none" stroke-width="0"/><g stroke="none"><path d="M231.25206,170.00154v-14.54142h7.15152l4.05252,14.54142z" fill="url(#color-2)" stroke-width="0"/><path d="M237.86561,179.95064l-4.27041,-11.03139h13.14909l5.2916,11.03139z" data-paper-data="{&quot;index&quot;:null}" fill="url(#color-3)" stroke-width="NaN"/><path d="M224.42634,179.95064l6.79394,-14.16333h16.88227l-5.48283,14.16333z" fill="#ffffff" stroke-width="NaN"/></g><g data-paper-data="{&quot;index&quot;:null}" stroke="none"><path d="M242.4561,189.72437l-4.05252,14.54142h-7.15152v-14.54142z" fill="url(#color-4)" stroke-width="0"/><path d="M252.03589,179.77527l-5.2916,11.03139h-13.14909l4.27041,-11.03139z" data-paper-data="{&quot;index&quot;:null}" fill="url(#color-5)" stroke-width="NaN"/><path d="M242.61973,179.77527l5.48283,14.16333h-16.88227l-6.79394,-14.16333z" fill="#ffffff" stroke-width="NaN"/></g><g stroke="none" stroke-width="0"><path d="M233.20205,183.30758l-2.09674,-3.48636h14.92879l-2.18061,3.48636z" fill="url(#color-6)"/><path d="M243.85348,176.60303l2.18061,3.48636h-14.92879l2.09674,-3.48636z" data-paper-data="{&quot;index&quot;:null}" fill="url(#color-7)"/></g></g></g></svg>